<?xml version="1.0" standalone="no"?>
<!DOCTYPE svg PUBLIC "-//W3C//DTD SVG 20010904//EN"
 "http://www.w3.org/TR/2001/REC-SVG-20010904/DTD/svg10.dtd">
<svg version="1.0" xmlns="http://www.w3.org/2000/svg"
 width="600.000000pt" height="600.000000pt" viewBox="0 0 600.000000 600.000000"
 preserveAspectRatio="xMidYMid meet">
<g transform="translate(0.000000,600.000000) scale(0.100000,-0.100000)"
fill="#000000" stroke="none">
<path d="M3750 5712 c-8 -2 -28 -14 -43 -25 -23 -15 -26 -22 -15 -29 10 -7 8
-8 -5 -4 -24 8 -63 -19 -75 -52 -6 -15 -18 -87 -27 -161 -9 -73 -21 -144 -26
-157 -9 -26 -15 -27 -100 -24 -49 1 -59 -1 -73 -21 -19 -28 -21 -105 -5 -232
14 -102 14 -102 -63 -112 -27 -4 -55 -14 -63 -22 -17 -16 -20 -69 -5 -78 19
-11 10 -51 -16 -76 -38 -35 -59 -82 -83 -189 -110 -479 -241 -917 -602 -2013
-127 -383 -227 -703 -223 -709 4 -6 3 -8 -2 -5 -8 5 -171 -461 -194 -556 -5
-18 -31 -97 -60 -177 -28 -80 -62 -177 -75 -215 -34 -100 -87 -306 -81 -312 8
-8 110 210 163 346 67 175 89 231 108 286 15 41 20 46 26 30 8 -20 9 -19 6 0
-3 34 25 108 36 93 6 -9 7 -8 3 5 -6 20 22 97 36 97 5 0 7 4 4 9 -10 16 86
264 96 249 6 -9 7 -6 4 8 -7 22 37 141 50 136 5 -2 10 2 12 10 2 9 0 8 -7 -2
-6 -9 -11 -10 -11 -3 0 23 12 43 23 36 6 -4 8 0 4 10 -7 18 16 81 25 71 4 -3
4 4 1 16 -5 19 -8 17 -23 -17 l-17 -38 0 33 c0 21 3 28 9 20 6 -10 8 -9 9 5 2
21 3 27 13 49 4 9 9 22 10 30 1 7 10 31 19 52 28 64 29 35 1 -37 -19 -50 -23
-70 -15 -84 9 -15 10 -12 11 17 0 36 19 81 21 50 0 -10 3 -8 9 5 12 27 12 43
0 25 -14 -21 -13 3 1 34 7 14 16 23 20 20 13 -8 30 44 34 101 3 51 1 49 -26
-23 -12 -33 -13 -33 -24 -13 -6 12 -14 19 -18 15 -3 -4 -2 8 3 26 13 44 24 53
15 13 -4 -21 -3 -33 4 -33 6 0 11 5 11 10 0 21 2 25 16 41 8 9 12 24 8 33 -3
9 -1 16 5 16 6 0 11 7 11 15 0 34 16 12 17 -22 0 -28 -1 -32 -7 -18 -5 13 -7
5 -6 -25 1 -41 2 -42 10 -17 6 15 13 27 18 27 4 0 4 7 1 17 -4 10 -2 14 4 10
6 -4 13 3 16 16 2 12 8 30 12 40 4 9 3 17 -3 17 -5 0 -12 -13 -15 -30 -4 -16
-11 -30 -17 -30 -6 0 -4 15 6 38 39 93 44 112 19 92 -8 -7 -12 -16 -10 -20 3
-5 -8 -8 -25 -8 -19 1 -30 6 -30 15 0 8 5 11 10 8 10 -6 11 -5 15 30 1 11 12
48 25 83 13 34 20 65 16 69 -3 3 -6 1 -6 -5 0 -5 -9 -31 -20 -56 -11 -26 -20
-48 -20 -51 -1 -2 -12 -32 -25 -66 -18 -46 -22 -66 -14 -80 11 -22 -2 -55 -32
-79 -10 -8 -20 -26 -23 -40 -2 -14 -8 -34 -12 -44 -6 -15 -4 -17 6 -11 10 6
12 4 7 -9 -4 -10 -7 -20 -7 -22 0 -2 -6 -4 -13 -4 -16 0 -43 -73 -33 -89 9
-15 -13 -83 -24 -76 -5 3 -12 0 -16 -6 -4 -8 -3 -9 4 -5 7 4 12 1 12 -9 0 -10
-5 -13 -12 -9 -8 5 -9 2 -4 -12 4 -10 4 -15 0 -11 -4 4 -22 -28 -39 -71 -36
-88 -50 -136 -37 -128 4 2 13 -4 20 -15 7 -11 8 -19 2 -19 -5 0 -10 4 -10 9 0
5 -7 8 -16 7 -16 -3 -66 -135 -62 -166 3 -26 -25 -100 -35 -93 -6 4 -7 1 -2
-7 4 -7 2 -16 -5 -20 -7 -4 -14 -19 -15 -32 -2 -14 -9 -35 -16 -47 -12 -18
-12 -23 1 -31 9 -6 10 -10 3 -10 -7 0 -16 8 -21 17 -8 13 -9 9 -8 -17 1 -18 7
-35 14 -38 15 -5 6 -22 -11 -22 -31 1 -38 15 -24 56 8 21 12 46 10 54 -4 13
-3 13 6 0 9 -13 11 -12 12 5 1 11 2 27 1 35 0 8 6 18 13 23 8 4 12 13 9 21 -3
7 2 19 11 26 8 7 15 23 15 36 0 12 4 25 9 29 6 3 10 14 10 25 1 11 1 29 2 40
0 12 5 18 11 14 7 -5 9 -2 5 9 -3 9 -1 17 5 19 6 2 12 15 13 28 2 14 11 43 21
65 10 22 18 42 19 45 1 3 5 12 8 20 24 57 60 169 61 187 1 11 3 20 6 18 3 -2
16 29 29 68 13 40 27 81 31 92 4 11 40 121 80 245 40 124 76 234 81 245 4 11
15 46 24 77 8 32 21 63 29 70 11 10 10 15 -4 28 -9 8 -11 12 -5 8 5 -3 19 6
29 20 11 14 14 22 8 18 -7 -4 -12 -3 -12 2 0 6 7 12 15 16 8 3 15 12 15 21 0
8 4 23 9 33 6 9 19 49 31 87 12 39 25 79 30 90 12 28 31 86 90 270 28 88 58
175 66 193 9 18 13 40 10 48 -3 8 -2 13 3 10 4 -3 14 14 21 37 8 23 17 47 21
52 4 6 10 24 13 40 10 57 29 120 38 126 5 3 8 10 7 15 -1 5 2 20 8 34 6 14 25
75 43 135 18 61 36 115 40 120 4 6 10 25 14 43 3 19 12 48 20 65 7 18 26 75
41 127 36 123 42 135 61 119 12 -10 13 -9 8 7 -4 10 -4 16 0 12 4 -3 8 -12 10
-20 1 -7 5 -19 10 -26 4 -7 3 -19 -4 -27 -7 -8 -10 -25 -6 -38 6 -27 -3 -69
-14 -62 -5 3 -5 -8 0 -24 6 -22 5 -31 -5 -35 -8 -3 -16 0 -19 7 -2 7 -5 4 -5
-6 -1 -14 4 -17 18 -12 11 3 22 1 26 -5 3 -5 12 -10 18 -10 7 0 4 5 -6 11 -14
8 -15 14 -6 31 8 15 8 19 0 14 -6 -4 -11 -2 -11 3 0 6 4 11 9 11 5 0 8 8 7 18
-2 9 4 32 13 51 12 26 13 35 3 38 -24 9 0 23 38 23 l39 0 -25 -62 c-14 -35
-29 -72 -34 -83 -16 -37 -18 -76 -4 -82 8 -3 11 -9 8 -14 -3 -5 0 -9 5 -9 6 0
11 -4 11 -10 0 -5 -6 -9 -12 -7 -7 1 -12 -6 -12 -15 1 -10 -4 -18 -12 -18 -8
0 -11 -6 -8 -15 3 -8 2 -20 -2 -27 -4 -7 -9 -19 -10 -28 -1 -8 -5 -26 -9 -40
l-7 -25 17 23 c9 13 15 32 12 43 -3 12 0 19 9 19 8 0 14 10 14 26 0 16 4 23
12 18 7 -4 8 -3 4 4 -4 6 1 23 10 37 9 14 13 25 8 25 -4 0 1 6 12 14 10 8 20
13 22 11 2 -1 -16 -43 -38 -91 -127 -271 -241 -529 -288 -649 -17 -45 -18 -54
-5 -85 7 -19 11 -24 9 -11 -3 13 0 34 5 48 6 18 6 22 -3 17 -8 -5 -9 -2 -5 10
4 10 7 21 7 24 0 4 5 0 11 -8 9 -12 10 -11 6 7 -3 12 2 31 10 42 8 12 11 21 6
21 -4 0 0 5 9 10 10 6 16 22 16 41 -1 16 5 35 12 42 10 10 11 7 6 -13 -5 -19
-2 -17 13 10 22 39 26 54 11 45 -5 -3 -10 -2 -10 4 0 5 5 13 10 16 6 3 10 16
11 28 0 21 1 21 10 2 9 -19 9 -19 5 1 -5 32 10 52 19 25 7 -24 26 -24 33 0 3
12 2 12 -7 -1 -8 -12 -11 -11 -19 9 -10 29 -4 73 10 65 5 -4 8 -17 5 -30 -6
-36 11 -18 18 19 4 17 18 54 31 80 25 51 31 83 14 72 -14 -9 -13 -4 14 56 20
43 25 49 26 29 1 -23 2 -23 9 -5 5 11 4 25 -1 33 -7 8 -7 12 1 12 6 0 10 3 10
8 -3 19 2 33 11 27 6 -3 8 -18 5 -33 -5 -25 -5 -25 4 -4 6 12 8 29 4 38 -6 17
16 94 28 94 4 0 10 12 13 26 l7 27 15 -22 c8 -11 12 -26 9 -31 -3 -6 -4 -10
-1 -10 3 0 10 10 17 21 6 12 7 19 1 16 -5 -4 -14 5 -21 19 -15 34 -13 43 4 20
8 -11 15 -15 15 -10 0 6 -5 15 -11 21 -10 10 -6 21 37 94 15 27 36 7 40 -38 2
-21 3 -41 3 -45 1 -5 4 -8 9 -8 13 0 4 81 -12 99 -13 14 -14 22 -3 50 8 22 8
34 1 39 -5 4 -11 16 -12 27 -7 67 -7 68 26 87 l33 18 -11 -23 c-11 -22 -11
-22 9 2 21 23 22 21 25 -19 1 -8 -7 -23 -17 -33 -10 -10 -16 -21 -14 -24 7 -6
45 33 48 49 1 7 -1 21 -6 31 -4 11 -3 23 4 30 6 6 11 20 10 32 0 19 -1 19 -11
-2 -6 -12 -18 -25 -27 -28 -12 -5 -13 -3 -5 5 9 9 6 23 -13 55 -17 32 -21 45
-12 51 8 4 9 3 5 -4 -4 -7 -2 -12 4 -12 7 0 10 6 7 13 -2 6 -12 12 -23 12 -10
0 -17 4 -16 9 2 5 -1 12 -6 15 -6 3 0 18 14 34 13 16 24 24 24 20 0 -5 -5 -14
-12 -21 -9 -9 -9 -12 -1 -12 7 0 15 9 18 20 3 11 11 20 16 20 5 0 9 5 9 11 0
5 -4 7 -10 4 -5 -3 -10 -1 -10 4 0 6 9 11 21 11 11 0 18 4 15 9 -3 5 1 11 8
14 8 3 17 1 19 -6 2 -7 2 1 -1 18 -4 28 -3 29 14 15 16 -14 17 -13 11 3 -3 9
-2 17 3 17 6 0 10 7 10 15 0 8 4 15 9 15 5 0 12 20 15 45 4 25 11 45 17 45 5
0 9 5 9 11 0 8 -5 7 -16 -1 -13 -11 -16 -10 -21 8 -3 12 -9 20 -13 17 -11 -7
-66 49 -73 74 -3 12 -2 19 3 16 4 -3 37 44 73 103 106 175 101 161 82 255 -17
85 -30 108 -55 99z m28 -39 c6 -16 14 -46 18 -68 l7 -40 -24 20 c-13 11 -26
22 -29 24 -3 2 3 1 14 -3 14 -5 17 -3 12 10 -3 8 -6 28 -7 42 0 25 -1 24 -16
-10 -16 -41 -20 -43 -43 -28 -12 7 -11 13 10 34 13 15 20 26 16 26 -4 0 -4 5
-1 10 12 19 33 10 43 -17z m-115 -53 c-22 -19 -27 -41 -59 -218 -9 -51 -19
-91 -21 -88 -3 3 -1 31 5 63 6 32 13 83 17 113 3 30 8 67 11 81 5 29 38 69 56
69 7 0 2 -9 -9 -20z m65 -35 c11 -23 11 -21 -78 -220 -15 -33 -30 -70 -34 -82
-4 -13 -12 -23 -17 -23 -11 0 -12 -6 7 60 19 71 35 157 35 195 1 24 2 26 8 11
7 -18 8 -18 14 -2 10 25 9 38 -3 31 -11 -7 -12 1 -4 32 8 30 58 29 72 -2z m42
-25 c0 -5 -4 -10 -10 -10 -5 0 -10 5 -10 10 0 6 5 10 10 10 6 0 10 -4 10 -10z
m30 -20 c0 -37 -135 -274 -150 -265 -5 3 -13 -3 -19 -12 -26 -45 -6 7 49 125
33 70 60 134 60 141 0 7 4 10 10 6 12 -7 5 -25 -56 -149 -26 -53 -45 -98 -43
-101 8 -7 120 209 126 243 6 35 23 44 23 12z m-223 -262 c-3 -8 -6 -5 -6 6 -1
11 2 17 5 13 3 -3 4 -12 1 -19z m-153 -55 l-4 -28 11 28 c6 15 15 27 21 27 12
0 0 -40 -19 -61 -8 -9 -15 -27 -15 -40 -1 -13 -6 -29 -10 -36 -6 -7 -5 -20 2
-34 8 -14 8 -19 1 -15 -6 4 -11 2 -11 -3 0 -6 3 -11 8 -11 4 0 8 -12 9 -27 1
-17 -2 -21 -7 -13 -6 9 -9 6 -12 -11 -2 -13 -8 25 -12 84 -7 93 -6 111 8 126
9 10 16 23 16 29 0 7 4 12 9 12 4 0 7 -12 5 -27z m62 -10 c-4 -24 -3 -33 2
-25 5 8 13 13 18 12 5 -1 10 4 12 12 2 9 0 8 -8 -2 -9 -13 -11 -12 -8 5 2 11
8 20 13 20 6 1 20 5 33 9 31 10 67 0 91 -26 17 -17 18 -25 9 -42 -18 -32 -20
-55 -2 -32 8 11 14 24 14 30 0 6 4 6 11 -1 8 -8 8 -17 -1 -33 -6 -12 -9 -24
-6 -27 3 -3 10 6 15 21 6 14 13 26 16 26 12 0 -8 -45 -39 -90 -17 -25 -32 -47
-33 -49 -1 -2 -9 2 -18 9 -12 10 -15 10 -15 -3 0 -8 -7 -17 -15 -21 -9 -3 -12
-12 -8 -23 5 -14 3 -15 -6 -7 -10 9 -9 19 4 45 10 19 26 42 36 52 24 22 25 50
2 45 -9 -2 -18 -9 -19 -16 -1 -7 0 -8 3 -2 2 5 10 10 16 10 7 -1 2 -9 -10 -19
-13 -11 -23 -22 -23 -25 0 -3 -8 -24 -17 -46 -24 -54 -44 -54 -31 1 8 31 8 43
-2 52 -10 9 -11 9 -6 0 8 -14 -13 -63 -28 -63 -6 0 -4 -5 4 -10 8 -5 10 -10 3
-10 -6 0 -9 -9 -5 -22 3 -15 2 -19 -7 -14 -6 4 -11 4 -10 -1 4 -23 -3 -43 -15
-43 -18 0 -31 112 -16 139 13 25 13 44 0 36 -6 -3 -10 4 -10 18 0 21 4 24 26
19 19 -3 25 -1 20 7 -4 6 -16 11 -27 11 -10 0 -19 6 -19 14 0 14 49 96 58 96
2 0 1 -17 -2 -37z m229 -148 c-10 -19 -50 -66 -90 -105 -40 -38 -76 -77 -79
-86 -3 -9 2 -28 12 -42 34 -50 37 -56 19 -49 -12 4 -17 1 -17 -11 0 -22 -17
-48 -25 -40 -4 3 0 19 8 35 14 27 13 29 -14 54 -16 14 -30 24 -33 22 -2 -3
-10 5 -16 18 -11 19 -10 21 4 16 10 -4 15 -3 11 3 -3 6 -1 10 4 10 6 0 11 -4
11 -8 0 -5 7 -9 14 -9 8 0 14 3 13 6 -3 15 15 50 29 55 9 3 12 11 8 17 -5 8
-3 9 6 4 10 -6 12 -4 7 8 -3 9 -3 16 1 16 19 -3 33 2 27 10 -3 6 0 13 7 18 8
4 31 36 53 69 35 55 41 60 49 42 7 -14 5 -29 -9 -53z m-308 -127 c-3 -7 -5 -2
-5 12 0 14 2 19 5 13 2 -7 2 -19 0 -25z m123 23 c0 -5 -6 -12 -12 -14 -9 -4
-9 -8 -3 -14 14 -11 15 -45 1 -40 -6 3 -10 9 -9 15 2 6 -4 9 -12 6 -8 -4 -15
-1 -15 5 0 6 5 11 10 11 6 0 9 3 9 8 -3 20 2 32 16 32 8 0 15 -4 15 -9z m-63
-64 c7 0 10 -4 7 -9 -7 -11 -42 -10 -49 2 -11 17 -54 -23 -61 -57 -4 -22 -10
-30 -20 -26 -22 8 -17 29 17 68 28 32 36 35 63 29 17 -4 36 -7 43 -7z m-176
-45 c-6 -11 -8 -22 -5 -24 3 -3 -4 -8 -16 -11 -23 -6 -27 17 -9 43 9 12 10 11
5 -5 -5 -18 -4 -17 11 3 19 27 29 22 14 -6z m165 18 c8 0 14 -4 14 -8 0 -5
-13 -7 -30 -4 -16 2 -30 9 -30 14 0 6 7 7 16 4 9 -3 22 -6 30 -6z m-124 -12
c-7 -7 -12 -20 -12 -30 0 -10 -4 -18 -10 -18 -5 0 -10 6 -10 14 0 26 12 46 28
46 12 0 13 -3 4 -12z m98 -14 c0 -2 -5 -14 -11 -27 -8 -17 -17 -23 -30 -20
-22 6 -22 5 -10 37 8 18 15 23 30 19 12 -3 21 -7 21 -9z m30 -30 c0 -13 -2
-24 -4 -24 -2 0 -11 -3 -19 -6 -12 -4 -13 0 -3 30 12 38 26 38 26 0z m32 -29
c-6 -14 -16 -25 -22 -25 -13 0 -13 12 0 46 8 20 14 24 22 16 9 -9 9 -18 0 -37z
m33 -10 c-3 -31 -7 -36 -23 -26 -9 6 -9 13 0 33 15 32 27 28 23 -7z m-82 -12
c31 -15 57 -30 57 -35 0 -4 3 -7 8 -7 19 3 33 -2 27 -11 -3 -5 3 -10 14 -10
11 0 23 -4 26 -10 3 -5 -3 -10 -15 -10 -30 0 -100 42 -100 60 0 11 -3 12 -8 3
-6 -9 -22 -7 -67 9 -33 11 -72 20 -87 19 -19 -1 -28 4 -28 14 0 23 101 10 173
-22z m157 -7 c14 -17 10 -63 -5 -56 -5 3 -9 16 -8 30 l3 25 -10 -24 c-13 -31
-23 -22 -14 13 7 29 16 33 34 12z m-260 -12 c14 -3 32 -7 40 -11 8 -3 17 -7
20 -8 68 -20 88 -30 83 -38 -4 -6 0 -8 11 -4 9 4 15 3 12 -2 -3 -5 1 -12 10
-15 10 -4 13 -2 8 6 -4 7 -3 8 4 4 14 -9 16 -36 3 -36 -5 0 -16 7 -25 15 -8 8
-19 15 -25 15 -6 0 -11 5 -11 11 0 7 -10 9 -26 5 -14 -4 -23 -3 -20 2 3 5 -1
9 -9 9 -8 0 -12 -3 -10 -7 2 -4 -3 -16 -11 -28 -13 -18 -19 -20 -36 -11 -16 9
-18 13 -7 19 7 5 16 7 20 4 4 -2 9 3 13 11 7 20 -9 19 -34 -2 -15 -13 -17 -20
-8 -31 9 -11 9 -13 -3 -11 -7 1 -22 -1 -31 -5 -15 -7 -15 -10 -4 -21 7 -8 24
-15 37 -17 13 -2 29 -7 36 -11 6 -4 14 -3 17 2 7 11 -22 23 -35 15 -5 -3 -9 0
-9 5 0 6 -3 10 -7 10 -19 -3 -36 2 -29 8 10 10 46 11 52 1 4 -5 13 0 21 12 11
16 18 19 26 11 8 -8 5 -15 -9 -26 -18 -15 -18 -15 0 -8 13 4 17 3 12 -5 -6 -9
-1 -9 18 -1 l24 11 -26 23 -25 22 22 6 c18 4 21 2 15 -15 -4 -13 -2 -18 4 -14
6 4 16 -2 22 -11 10 -16 10 -15 5 5 -7 23 10 32 18 10 7 -23 -5 -38 -30 -38
-14 0 -22 -4 -18 -10 4 -6 15 -8 26 -5 15 5 19 1 19 -14 0 -23 -16 -29 -23 -8
-3 9 -7 9 -20 -1 -13 -11 -15 -10 -10 8 4 16 2 19 -11 14 -24 -9 -2 -44 27
-41 16 1 23 -4 25 -22 2 -13 -2 -28 -10 -32 -9 -6 -4 -8 14 -7 22 2 25 5 15
17 -9 12 -9 13 1 7 11 -7 17 5 13 28 -1 4 4 15 11 24 11 13 11 14 0 8 -10 -6
-11 -1 -6 18 4 17 2 26 -6 26 -6 0 -9 4 -5 10 3 5 12 7 20 3 20 -7 20 -92 1
-138 -12 -29 -20 -35 -43 -34 -25 0 -26 1 -8 10 l20 9 -20 -3 c-11 -1 -18 -6
-17 -11 2 -5 -1 -12 -7 -15 -12 -8 -3 -51 10 -51 8 0 13 22 10 43 0 4 8 7 18
7 19 0 19 -3 -6 -57 -36 -77 -53 -110 -53 -99 0 5 -6 3 -13 -3 -8 -6 -17 -8
-20 -4 -4 3 -7 1 -7 -5 0 -17 -17 -15 -24 4 -3 8 -2 12 4 9 6 -3 10 -1 10 4 0
6 -5 11 -10 11 -6 0 -5 8 2 19 7 11 16 17 21 14 5 -3 6 7 3 24 -5 23 -3 32 10
37 9 3 14 12 11 20 -3 8 1 23 9 34 8 11 11 27 8 36 -4 12 0 16 15 16 13 0 21
6 21 17 0 13 -3 14 -11 6 -7 -7 -26 -10 -43 -7 -25 3 -27 2 -11 -5 15 -7 8 -8
-25 -6 -25 2 -43 5 -40 8 3 3 -4 14 -14 26 -21 23 -18 35 7 25 9 -3 14 -11 11
-19 -9 -24 29 -27 50 -4 l21 22 -22 -6 c-13 -3 -23 -1 -23 5 0 5 -4 6 -10 3
-5 -3 -10 -1 -10 5 0 5 -13 9 -29 8 -16 -1 -36 4 -45 11 -9 7 -22 11 -30 8
-10 -4 -13 -1 -9 9 3 7 12 14 20 14 8 0 11 5 8 10 -3 6 0 10 7 10 9 0 9 3 -2
10 -13 8 -12 10 3 10 18 0 23 15 8 24 -5 4 -21 -9 -35 -26 -15 -18 -30 -38
-36 -44 -11 -14 -9 -54 2 -54 4 0 8 4 8 8 0 5 14 9 30 10 17 0 28 -3 25 -9 -3
-5 1 -6 9 -3 9 3 16 2 16 -4 0 -6 -12 -9 -27 -7 -16 2 -38 1 -50 -2 l-23 -5
22 -18 c20 -16 21 -20 10 -59 -7 -22 -13 -44 -13 -48 -1 -5 -9 -28 -19 -53 -9
-25 -23 -70 -30 -100 -7 -30 -16 -59 -20 -65 -4 -5 -10 -23 -14 -38 -4 -16
-11 -25 -17 -21 -7 4 -9 -6 -7 -26 2 -23 -2 -34 -12 -37 -13 -4 -13 -3 0 6 8
5 12 13 8 16 -3 3 -13 -1 -21 -10 -18 -17 -37 -20 -37 -4 0 5 4 7 10 4 6 -4 9
3 7 16 -1 12 4 23 11 25 7 1 8 0 2 -3 -13 -6 -13 -23 0 -23 6 0 15 11 20 25 5
14 15 25 22 25 10 0 10 2 1 8 -17 11 -36 66 -24 70 5 2 7 10 4 18 -3 8 0 21 7
29 7 8 9 15 5 15 -4 0 -2 6 4 14 6 7 9 22 5 32 -5 16 -4 17 6 4 9 -12 10 -9 7
15 -2 17 -2 23 1 16 5 -16 30 44 39 92 3 15 10 27 15 27 5 0 6 4 3 10 -3 6 1
7 10 4 17 -7 14 -30 -4 -26 -6 1 -11 -2 -11 -8 0 -15 16 -12 31 6 11 14 9 20
-19 45 -18 16 -28 29 -23 29 6 0 8 9 6 21 -6 31 11 66 58 120 27 31 47 46 57
43 8 -3 26 -8 40 -10z m-76 -192 c2 -4 1 -14 -5 -22 -7 -12 -9 -12 -9 3 0 10
-4 15 -10 12 -5 -3 -10 -1 -10 4 0 13 26 15 34 3z m111 -2 c3 -5 2 -10 -4 -10
-5 0 -13 5 -16 10 -3 6 -2 10 4 10 5 0 13 -4 16 -10z m-208 -32 c-3 -8 -6 -5
-6 6 -1 11 2 17 5 13 3 -3 4 -12 1 -19z m173 -58 c0 -5 -4 -10 -10 -10 -5 0
-10 5 -10 10 0 6 5 10 10 10 6 0 10 -4 10 -10z m-193 -22 c-3 -8 -6 -5 -6 6
-1 11 2 17 5 13 3 -3 4 -12 1 -19z m-73 -373 c3 -9 0 -15 -10 -15 -8 0 -12 -4
-9 -10 3 -5 1 -10 -4 -10 -6 0 -11 8 -11 18 0 32 23 44 34 17z m11 -35 c3 -5
1 -10 -4 -10 -6 0 -11 5 -11 10 0 6 2 10 4 10 3 0 8 -4 11 -10z m249 -28 c-16
-9 -48 -83 -45 -102 2 -11 0 -12 -8 -4 -9 8 -4 27 16 72 19 40 31 58 38 51 6
-6 6 -12 -1 -17z m-297 -12 c-1 -16 -5 -30 -9 -30 -9 0 -10 8 -2 38 9 31 14
28 11 -8z m24 -7 c-12 -20 -14 -14 -5 12 4 9 9 14 11 11 3 -2 0 -13 -6 -23z
m4 -33 c3 -5 1 -10 -4 -10 -6 0 -11 5 -11 10 0 6 2 10 4 10 3 0 8 -4 11 -10z
m-36 -26 c4 3 8 -5 8 -17 2 -22 2 -22 -14 -2 -15 19 -15 19 -9 -8 4 -18 3 -26
-3 -23 -5 4 -9 -3 -8 -14 1 -11 5 -20 9 -20 4 0 8 -7 8 -15 0 -8 -4 -15 -10
-15 -5 0 -9 3 -9 8 4 26 -4 22 -15 -8 -8 -23 -9 -39 -3 -48 6 -7 7 -15 3 -19
-3 -3 -6 -1 -6 6 0 7 -5 9 -11 5 -13 -8 -7 24 12 73 7 15 13 35 14 43 6 44 19
83 23 67 2 -9 7 -15 11 -13z m-91 -274 c-11 -41 -24 -84 -28 -95 -5 -11 -14
-44 -20 -73 -7 -28 -16 -55 -21 -58 -13 -7 -11 3 10 71 10 33 31 100 46 148
32 107 42 112 13 7z m46 64 c3 -8 2 -12 -4 -9 -6 3 -10 10 -10 16 0 14 7 11
14 -7z m-22 -56 c-6 -6 -7 0 -4 19 5 21 7 23 10 9 2 -10 0 -22 -6 -28z m-121
-321 c-7 -19 -14 -45 -16 -57 -3 -13 -10 -28 -16 -34 -9 -8 -11 -7 -7 4 3 8
14 41 24 72 9 32 19 56 22 54 2 -3 -1 -20 -7 -39z m-44 -129 c-3 -8 -6 -5 -6
6 -1 11 2 17 5 13 3 -3 4 -12 1 -19z m-12 -48 c-4 -12 -9 -19 -12 -17 -3 3 -2
15 2 27 4 12 9 19 12 17 3 -3 2 -15 -2 -27z m-31 -97 c-4 -21 -14 -47 -22 -58
-10 -14 -13 -15 -9 -4 3 10 11 35 18 58 15 51 22 53 13 4z m-48 -142 c-14 -48
-31 -69 -20 -26 7 31 22 65 28 65 2 0 -1 -18 -8 -39z m-21 -71 c3 -5 1 -10 -4
-10 -6 0 -11 5 -11 10 0 6 2 10 4 10 3 0 8 -4 11 -10z m-46 -124 c-9 -8 -10
-7 -5 7 3 10 7 24 7 30 1 7 3 4 6 -7 3 -10 -1 -23 -8 -30z m-35 -110 c-9 -26
-18 -45 -20 -43 -2 2 3 25 12 51 9 26 18 45 20 43 2 -2 -3 -25 -12 -51z m21
-250 c10 4 12 0 8 -15 -6 -24 -23 -28 -23 -6 0 8 -4 15 -10 15 -5 0 -10 -6
-10 -12 0 -9 -3 -9 -9 1 -5 8 -7 20 -4 27 4 11 8 11 19 -1 8 -8 21 -12 29 -9z
m-124 -53 c-12 -20 -14 -14 -5 12 4 9 9 14 11 11 3 -2 0 -13 -6 -23z m75 -169
c-8 -21 -15 -34 -15 -28 -1 15 20 76 25 71 2 -2 -2 -21 -10 -43z m-59 -30 c-3
-3 -12 -4 -19 -1 -8 3 -5 6 6 6 11 1 17 -2 13 -5z m-96 -45 c-5 -13 -10 -19
-10 -12 -1 15 10 45 15 40 3 -2 0 -15 -5 -28z m77 19 c-2 -6 -10 -14 -16 -16
-7 -2 -10 2 -6 12 7 18 28 22 22 4z m-8 -32 c0 -3 -4 -8 -10 -11 -5 -3 -10 -1
-10 4 0 6 5 11 10 11 6 0 10 -2 10 -4z m-59 -231 c-19 -50 -30 -65 -27 -38 0
10 3 20 6 23 3 3 11 17 17 33 20 44 23 31 4 -18z m-51 -50 c-6 -15 -13 -25
-16 -23 -2 3 1 17 7 32 16 34 23 27 9 -9z m20 -25 c0 -5 -5 -10 -11 -10 -5 0
-7 5 -4 10 3 6 8 10 11 10 2 0 4 -4 4 -10z m-30 -84 c0 -3 -4 -8 -10 -11 -5
-3 -10 -1 -10 4 0 6 5 11 10 11 6 0 10 -2 10 -4z m-55 -76 c-9 -28 -19 -50
-21 -48 -2 2 4 27 13 56 9 28 19 50 21 47 2 -2 -4 -27 -13 -55z m35 20 c0 -5
-5 -10 -11 -10 -5 0 -7 5 -4 10 3 6 8 10 11 10 2 0 4 -4 4 -10z m-90 -231
c-11 -24 -17 -33 -14 -19 11 42 24 73 29 68 3 -3 -4 -25 -15 -49z m-25 -59
c-3 -5 -11 -10 -16 -10 -6 0 -7 5 -4 10 3 6 11 10 16 10 6 0 7 -4 4 -10z
m-115 -215 c-39 -109 -51 -157 -30 -125 5 8 10 11 10 5 0 -15 -16 -37 -25 -33
-10 4 -57 -123 -50 -140 2 -7 0 -10 -5 -7 -9 6 -14 -10 -13 -42 1 -7 -3 -10
-8 -7 -5 3 -9 -1 -10 -8 -2 -33 -11 -62 -30 -96 -11 -20 -18 -29 -15 -19 3 10
13 45 22 80 8 34 37 122 64 197 63 177 110 313 110 319 0 3 4 1 10 -5 6 -6 -5
-49 -30 -119z m57 85 c-6 -16 -13 -27 -15 -25 -7 7 8 55 17 55 5 0 4 -13 -2
-30z m-28 -79 c-6 -18 -13 -30 -15 -28 -2 2 1 18 7 36 6 18 13 30 15 28 2 -2
-1 -18 -7 -36z m-28 -68 c-12 -20 -14 -14 -5 12 4 9 9 14 11 11 3 -2 0 -13 -6
-23z"/>
<path d="M3393 5155 c-3 -9 -3 -18 -1 -21 3 -3 8 4 11 16 6 23 -1 27 -10 5z"/>
<path d="M3536 5209 c-9 -13 -16 -27 -16 -30 0 -13 49 16 54 31 2 9 4 7 5 -6
0 -12 -8 -31 -19 -44 -11 -12 -22 -31 -25 -41 -4 -11 -12 -19 -18 -19 -7 0 -6
-4 3 -10 12 -7 22 3 48 53 23 44 31 53 27 32 -4 -22 -3 -26 5 -15 9 13 10 13
10 0 1 -9 6 -5 14 10 12 21 12 26 -3 37 -37 25 -68 26 -85 2z m81 -31 c-3 -8
-6 -5 -6 6 -1 11 2 17 5 13 3 -3 4 -12 1 -19z"/>
<path d="M3440 5171 c0 -11 31 -24 38 -16 3 3 0 5 -7 5 -7 0 -9 5 -6 10 3 6
-1 10 -9 10 -9 0 -16 -4 -16 -9z"/>
<path d="M3626 5086 c-26 -48 -15 -67 13 -21 12 21 18 42 14 46 -5 5 -17 -7
-27 -25z"/>
<path d="M3456 5097 c3 -10 9 -15 12 -12 3 3 0 11 -7 18 -10 9 -11 8 -5 -6z"/>
<path d="M3485 5070 c3 -5 8 -10 11 -10 2 0 4 5 4 10 0 6 -5 10 -11 10 -5 0
-7 -4 -4 -10z"/>
<path d="M3546 5055 c-9 -26 -7 -32 5 -12 6 10 9 21 6 23 -2 3 -7 -2 -11 -11z"/>
<path d="M3442 5010 c0 -14 2 -19 5 -12 2 6 2 18 0 25 -3 6 -5 1 -5 -13z"/>
<path d="M3707 5101 c-4 -17 -3 -21 5 -13 5 5 8 16 6 23 -3 8 -7 3 -11 -10z"/>
<path d="M3298 4726 c-13 -9 -14 -16 -4 -33 l11 -22 11 24 c14 30 5 47 -18 31z"/>
<path d="M3165 4403 c-9 -32 -22 -64 -28 -71 -6 -7 -11 -23 -12 -35 -1 -12 -5
-40 -10 -62 -6 -31 -5 -37 5 -29 6 6 14 31 17 55 3 24 12 49 20 56 8 6 12 17
8 23 -4 6 -2 16 3 23 11 13 27 97 19 97 -3 0 -13 -26 -22 -57z"/>
<path d="M3422 4406 c-15 -33 -15 -39 -2 -31 13 8 13 -11 0 -35 -7 -13 -16
-17 -27 -13 -15 6 -16 5 -3 -9 28 -30 69 39 53 88 l-9 26 -12 -26z"/>
<path d="M3152 4290 c0 -14 2 -19 5 -12 2 6 2 18 0 25 -3 6 -5 1 -5 -13z"/>
<path d="M3870 5478 c0 -19 2 -20 10 -8 13 19 13 30 0 30 -5 0 -10 -10 -10
-22z"/>
<path d="M3852 5460 c0 -14 2 -19 5 -12 2 6 2 18 0 25 -3 6 -5 1 -5 -13z"/>
<path d="M3790 5385 c-18 -39 -34 -73 -36 -76 -2 -4 5 -14 16 -24 19 -17 20
-17 20 -1 0 9 -4 14 -10 11 -18 -11 -11 24 17 81 24 48 29 53 33 32 5 -19 7
-20 12 -6 4 9 1 24 -7 34 -11 16 -16 11 -45 -51z"/>
<path d="M3861 5414 c0 -11 3 -14 6 -6 3 7 2 16 -1 19 -3 4 -6 -2 -5 -13z"/>
<path d="M3887 5399 c4 -13 8 -18 11 -10 2 7 -1 18 -6 23 -8 8 -9 4 -5 -13z"/>
<path d="M3870 5370 c0 -5 5 -10 11 -10 5 0 7 5 4 10 -3 6 -8 10 -11 10 -2 0
-4 -4 -4 -10z"/>
<path d="M3820 5361 c0 -6 4 -11 9 -11 5 0 12 -8 14 -17 4 -15 5 -15 6 -2 0 9
-6 22 -14 29 -10 9 -15 9 -15 1z"/>
<path d="M3801 5334 c0 -11 3 -14 6 -6 3 7 2 16 -1 19 -3 4 -6 -2 -5 -13z"/>
<path d="M3806 5283 c-6 -14 -5 -15 5 -6 7 7 10 15 7 18 -3 3 -9 -2 -12 -12z"/>
<path d="M3739 5280 c-5 -48 -6 -92 -2 -77 2 9 9 17 15 17 6 0 5 6 -3 16 -10
13 -10 17 2 24 11 7 11 12 1 22 -9 9 -12 9 -13 -2z"/>
<path d="M3780 5237 c0 -8 6 -14 14 -14 8 0 12 6 9 14 -3 7 -9 13 -14 13 -5 0
-9 -6 -9 -13z"/>
<path d="M3705 5211 c-3 -5 -1 -12 5 -16 5 -3 10 1 10 9 0 18 -6 21 -15 7z"/>
<path d="M3760 5027 c0 -10 -5 -14 -15 -11 -8 4 -15 1 -15 -6 0 -6 5 -8 12 -4
8 5 9 2 5 -9 -3 -9 -2 -19 4 -22 5 -4 8 -3 7 2 -1 4 2 18 6 31 4 13 5 26 2 29
-3 4 -6 -1 -6 -10z"/>
<path d="M3782 5028 c5 -15 28 -23 28 -10 0 5 -7 13 -16 16 -10 4 -14 1 -12
-6z"/>
<path d="M3721 4943 c5 -13 7 -29 4 -34 -4 -5 1 -6 9 -3 18 7 22 24 6 24 -5 0
-10 5 -10 11 0 5 4 8 8 5 4 -2 14 -1 22 5 13 7 13 9 0 10 -8 0 -23 2 -32 4
-14 3 -15 -1 -7 -22z"/>
<path d="M3700 4943 c0 -6 -13 -27 -30 -48 -16 -21 -30 -47 -29 -59 1 -19 2
-18 8 4 4 14 13 24 20 22 7 -1 10 2 6 8 -3 5 -3 15 1 21 5 8 9 8 14 -1 4 -7
10 1 14 21 3 18 4 34 1 37 -3 3 -5 1 -5 -5z"/>
<path d="M3656 4914 c-5 -14 -4 -15 9 -4 17 14 19 20 6 20 -5 0 -12 -7 -15
-16z"/>
<path d="M3622 4791 c-11 -7 -11 -9 2 -14 10 -4 13 -13 10 -24 -4 -14 -4 -15
4 -4 7 10 6 52 -2 51 0 0 -7 -4 -14 -9z"/>
<path d="M3569 4655 c-3 -5 2 -26 12 -45 18 -35 18 -35 19 -7 0 15 -4 27 -9
27 -5 0 -11 8 -13 18 -2 9 -6 13 -9 7z"/>
<path d="M3289 4507 c-15 -11 -28 -45 -34 -92 -2 -11 -15 -55 -29 -97 -14 -42
-27 -87 -30 -100 -5 -25 -5 -25 -66 -208 -23 -69 -48 -152 -55 -185 -12 -53
-30 -104 -105 -310 -31 -84 -160 -455 -192 -550 -17 -49 -39 -112 -49 -140
-14 -37 -15 -45 -4 -31 8 11 15 26 15 33 0 7 4 13 8 13 9 0 47 109 44 123 -1
4 2 7 6 7 4 0 9 10 9 22 3 31 35 101 51 111 10 7 10 12 1 23 -9 11 -9 14 0 14
7 0 9 5 6 10 -3 6 2 10 12 10 15 0 16 2 3 10 -10 6 -11 10 -2 10 6 0 12 5 12
11 0 5 -4 8 -9 4 -6 -3 -6 6 -2 22 25 82 71 203 71 182 0 -4 -24 -82 -35 -114
-5 -16 -5 -17 4 -5 19 28 24 -15 5 -56 -18 -43 -22 -56 -26 -94 -2 -14 -9 -29
-15 -33 -7 -4 -13 -14 -13 -22 0 -7 -8 -16 -17 -18 -17 -4 -17 -5 0 -6 16 -1
16 -3 2 -24 -8 -13 -12 -27 -8 -30 3 -4 1 -7 -6 -7 -8 0 -10 -7 -6 -21 5 -15
4 -19 -4 -15 -7 5 -11 -4 -12 -26 0 -18 -3 -27 -6 -20 -4 10 -8 9 -19 -5 -19
-26 -19 -49 1 -33 10 8 15 9 15 2 0 -6 -7 -15 -16 -20 -14 -8 -14 -10 -1 -15
11 -4 23 15 47 79 18 47 33 91 34 99 1 7 6 19 12 26 14 19 40 101 36 117 -2 6
1 12 7 12 8 0 27 56 23 71 -1 4 8 15 18 24 11 10 20 15 20 10 0 -13 -91 -239
-98 -245 -4 -3 -7 -11 -7 -17 0 -7 -16 -53 -35 -102 -32 -82 -37 -89 -58 -84
-18 4 -21 2 -15 -13 3 -11 11 -22 17 -26 7 -5 7 -8 -2 -8 -7 0 -10 -4 -7 -10
3 -5 1 -10 -5 -10 -7 0 -10 7 -7 15 4 8 2 17 -2 20 -5 3 -14 -9 -20 -25 -5
-17 -13 -30 -17 -30 -3 0 -4 7 0 15 8 22 -17 14 -31 -10 -7 -11 -12 -27 -12
-35 0 -8 5 -2 12 14 11 25 14 27 26 13 7 -9 10 -21 6 -28 -6 -8 -10 -7 -16 2
-6 9 -9 10 -9 2 0 -6 -3 -19 -7 -29 -4 -12 -3 -15 5 -10 7 4 12 2 12 -3 0 -6
-7 -11 -16 -11 -8 0 -12 -5 -8 -11 3 -6 2 -14 -4 -18 -6 -4 -16 -29 -23 -56
-6 -28 -17 -64 -24 -80 -20 -48 -29 -99 -16 -91 6 4 16 16 22 28 6 11 7 18 2
15 -5 -4 -10 1 -10 10 0 12 5 10 19 -7 11 -13 17 -32 15 -42 -8 -30 2 -20 18
18 16 38 10 98 -7 72 -6 -9 -8 -6 -6 12 2 14 7 28 13 32 5 4 3 10 -7 13 -16 6
-14 45 2 45 5 0 6 -9 3 -20 -3 -11 0 -20 6 -20 6 0 12 7 12 15 3 28 4 33 12
41 4 4 7 18 7 31 0 13 6 23 13 23 8 0 7 3 -3 10 -12 8 -12 10 2 15 9 4 14 13
11 21 -3 8 0 14 7 14 6 0 8 6 4 13 -5 9 -3 9 7 -1 9 -8 10 -15 4 -20 -6 -4
-11 -17 -13 -30 -2 -12 -17 -55 -33 -94 -17 -43 -27 -79 -23 -91 6 -18 7 -19
16 -3 5 9 13 14 19 11 5 -4 5 5 -1 20 -6 15 -10 34 -9 43 0 14 2 13 10 -3 8
-16 8 -15 4 8 -4 17 -2 26 4 23 11 -7 25 29 16 44 -3 5 -2 10 4 10 5 0 11 -3
14 -7 2 -5 2 -1 0 7 -8 30 -8 35 3 33 7 -1 10 5 7 15 -2 9 3 33 11 52 11 24
15 29 16 15 0 -16 3 -15 15 9 9 16 13 31 10 34 -3 3 -5 0 -5 -6 0 -7 -4 -12
-10 -12 -9 0 25 104 48 146 6 10 18 43 27 72 10 29 20 51 23 48 7 -7 32 13 32
26 0 6 -6 6 -14 -1 -12 -10 -13 -8 -9 8 3 12 9 18 14 15 5 -3 9 -2 8 3 -4 15
13 63 22 63 10 0 29 33 34 60 2 11 15 43 29 71 30 58 30 59 14 59 -6 0 -8 -3
-5 -7 4 -3 1 -13 -6 -22 -8 -9 -24 -44 -37 -79 -12 -34 -25 -60 -28 -58 -7 8
59 170 73 178 7 4 18 21 25 38 10 25 10 34 -2 52 -24 38 -29 58 -12 51 10 -3
12 0 9 10 -4 8 1 17 9 20 9 4 19 24 22 47 4 22 10 40 15 40 4 0 6 9 4 20 -2
11 1 20 6 20 11 0 33 49 30 68 -1 6 3 12 9 12 5 0 10 10 10 21 0 12 8 28 18
35 9 7 12 14 5 14 -14 0 -5 35 13 51 8 6 14 20 14 30 0 11 4 19 9 19 5 0 14
15 21 33 8 17 19 39 25 47 19 23 25 49 14 55 -5 4 -9 3 -8 -2 1 -4 -7 -28 -19
-53 -19 -40 -22 -42 -22 -17 0 15 4 27 8 27 16 0 54 110 48 138 -3 15 -3 21 0
15 9 -21 23 -14 19 9 -3 12 1 29 8 37 16 20 16 53 0 58 -7 3 -15 -8 -18 -24
-4 -15 -12 -41 -18 -58 -6 -16 -13 -34 -14 -40 -3 -17 -30 -87 -51 -136 -11
-25 -19 -63 -17 -85 1 -28 -2 -41 -11 -41 -10 0 -10 5 -3 19 6 11 8 24 6 31
-2 7 -9 -5 -16 -25 -7 -21 -9 -43 -5 -49 4 -7 3 -9 -3 -6 -6 4 -15 -5 -22 -19
-15 -34 -13 -43 4 -20 17 23 20 14 4 -15 -5 -11 -14 -17 -19 -14 -5 3 -11 -4
-15 -15 -3 -11 -11 -20 -16 -20 -12 0 -13 -3 16 70 29 75 30 80 9 80 -11 0
-14 -5 -10 -16 3 -9 3 -21 -1 -27 -4 -7 -8 -16 -9 -22 0 -5 -2 -16 -2 -23 -1
-7 -6 -10 -12 -7 -5 3 -7 0 -4 -9 3 -8 -3 -31 -14 -53 -15 -29 -17 -44 -10
-65 8 -23 2 -47 -32 -134 -23 -58 -40 -107 -38 -109 2 -1 12 1 23 6 11 4 14 8
8 8 -21 1 -15 17 7 18 17 2 20 -2 14 -19 -4 -14 -2 -18 5 -14 7 5 8 0 2 -16
-5 -13 -13 -22 -18 -21 -5 1 -21 -28 -35 -65 l-27 -67 2 45 c1 29 8 50 20 60
19 17 31 60 16 60 -5 0 -9 -10 -10 -22 -1 -20 -2 -20 -9 5 -9 29 -5 46 28 135
11 28 17 52 12 52 -11 0 -51 -116 -55 -160 -2 -20 -11 -56 -19 -80 -10 -29
-12 -48 -6 -54 6 -6 10 -15 10 -20 0 -6 -5 -5 -12 2 -8 8 -15 9 -25 1 -16 -14
-16 -14 1 47 8 27 17 63 20 79 2 17 9 44 15 60 6 17 27 80 47 140 21 61 40
115 44 120 4 6 13 34 20 63 7 30 24 84 37 120 14 37 34 96 45 132 10 36 34
111 53 168 18 56 28 99 22 95 -7 -3 -5 2 4 13 15 17 64 172 57 180 -2 1 -10
-3 -19 -9z m-2 -39 c-3 -8 -6 -5 -6 6 -1 11 2 17 5 13 3 -3 4 -12 1 -19z
m-134 -703 c-3 -9 -8 -14 -10 -11 -3 3 -2 9 2 15 9 16 15 13 8 -4z m-35 -32
c-1 -10 0 -22 3 -28 3 -5 0 -20 -6 -33 l-13 -23 -6 25 c-7 30 2 76 16 76 5 0
8 -8 6 -17z m22 -13 c0 -5 -5 -10 -11 -10 -5 0 -7 5 -4 10 3 6 8 10 11 10 2 0
4 -4 4 -10z m-40 -95 c0 -8 -4 -15 -10 -15 -5 0 -7 7 -4 15 4 8 8 15 10 15 2
0 4 -7 4 -15z m-370 -1090 c0 -8 -4 -15 -10 -15 -5 0 -7 7 -4 15 4 8 8 15 10
15 2 0 4 -7 4 -15z m-38 -80 c-8 -16 -9 -16 -15 -1 -4 10 -3 15 3 11 6 -3 10
-1 10 6 0 7 3 10 6 6 3 -3 2 -13 -4 -22z"/>
<path d="M3591 4484 c0 -11 3 -14 6 -6 3 7 2 16 -1 19 -3 4 -6 -2 -5 -13z"/>
<path d="M3360 4456 c-15 -41 -10 -56 6 -17 8 18 13 36 10 39 -3 2 -10 -7 -16
-22z"/>
<path d="M3526 4424 c-17 -17 -22 -59 -6 -49 6 4 8 11 4 16 -3 6 2 19 12 30
20 23 12 26 -10 3z"/>
<path d="M3545 4392 c-3 -11 1 -34 9 -53 9 -19 15 -29 16 -22 0 6 3 20 6 30 5
15 4 15 -5 3 -9 -13 -11 -12 -12 5 -1 11 -2 28 -1 38 2 22 -5 22 -13 -1z"/>
<path d="M3536 4315 c-3 -8 -3 -21 0 -28 2 -7 -3 -21 -11 -32 -16 -19 -16 -19
-10 5 5 22 5 23 -6 7 -7 -12 -8 -22 -2 -28 15 -15 35 16 39 56 3 38 0 44 -10
20z"/>
<path d="M3462 4288 c-7 -18 -18 -41 -23 -50 -5 -10 -9 -23 -8 -30 0 -7 4 -3
10 10 5 13 13 21 17 18 5 -3 7 6 4 21 -3 18 -1 24 7 19 7 -5 11 2 11 18 0 34
-2 33 -18 -6z"/>
<path d="M3252 4271 c-16 -45 -14 -54 3 -16 8 17 14 25 15 18 0 -6 3 -19 7
-29 4 -11 2 -15 -4 -11 -9 6 -50 -111 -60 -171 -6 -34 -23 -75 -29 -69 -3 3
-1 14 5 25 6 12 11 31 10 44 -1 32 -37 -68 -38 -107 -1 -23 -4 -27 -11 -15 -8
13 -10 13 -10 -1 0 -20 26 -33 36 -18 3 6 3 22 0 37 -5 18 -4 22 3 13 11 -17
26 7 36 62 4 20 11 40 16 42 4 3 5 13 2 22 -4 11 -3 14 5 9 8 -5 10 -2 6 9 -4
9 1 23 9 33 8 9 19 31 23 47 4 17 10 35 14 40 4 6 10 24 13 40 l6 30 -12 -28
-13 -27 -10 27 -10 28 -12 -34z"/>
<path d="M3481 4244 c0 -11 3 -14 6 -6 3 7 2 16 -1 19 -3 4 -6 -2 -5 -13z"/>
<path d="M3222 4188 c-15 -49 -23 -88 -18 -88 7 0 38 111 33 117 -3 2 -10 -11
-15 -29z"/>
<path d="M3490 4211 c0 -5 5 -13 10 -16 6 -3 10 -2 10 4 0 5 -4 13 -10 16 -5
3 -10 2 -10 -4z"/>
<path d="M3466 4201 c-4 -7 -5 -15 -2 -18 9 -9 19 4 14 18 -4 11 -6 11 -12 0z"/>
<path d="M3447 4145 c-4 -8 -2 -15 3 -15 6 0 10 -7 10 -15 0 -8 5 -15 10 -15
13 0 13 3 -4 34 -10 21 -15 23 -19 11z"/>
<path d="M3402 4088 c-18 -18 -14 -28 11 -27 17 1 18 2 4 6 -14 4 -16 8 -6 19
14 17 8 19 -9 2z"/>
<path d="M3361 4076 c-7 -8 -9 -21 -5 -27 5 -9 10 -5 16 11 10 28 5 36 -11 16z"/>
<path d="M3441 4063 c-1 -6 -4 -20 -7 -30 -5 -17 -5 -17 6 0 6 10 9 23 6 30
-3 9 -5 9 -5 0z"/>
<path d="M3396 4024 c-4 -9 -4 -19 -1 -22 2 -3 7 3 11 12 4 9 4 19 1 22 -2 3
-7 -3 -11 -12z"/>
<path d="M3370 4003 c0 -13 5 -23 10 -23 13 0 13 11 0 30 -8 12 -10 11 -10 -7z"/>
<path d="M3415 3999 c-4 -6 -5 -12 -2 -15 2 -3 7 2 10 11 7 17 1 20 -8 4z"/>
<path d="M3351 3980 c0 -8 6 -35 13 -60 8 -25 15 -36 15 -25 -1 25 -27 106
-28 85z"/>
<path d="M3393 3955 c-3 -9 -3 -18 -1 -21 3 -3 8 4 11 16 6 23 -1 27 -10 5z"/>
<path d="M3327 3933 c-4 -3 -7 -11 -7 -17 0 -6 5 -4 11 4 8 12 9 9 5 -12 -3
-14 -2 -37 3 -50 7 -18 8 -13 7 24 -1 47 -7 63 -19 51z"/>
<path d="M3292 3793 c-25 -70 -25 -70 -9 -51 8 10 16 16 18 14 2 -2 4 11 5 30
1 41 -1 42 -14 7z"/>
<path d="M3320 3809 c0 -5 5 -7 10 -4 6 3 10 8 10 11 0 2 -4 4 -10 4 -5 0 -10
-5 -10 -11z"/>
<path d="M3251 3782 c-1 -7 -19 -52 -42 -99 -22 -46 -38 -87 -35 -91 3 -3 6 2
6 11 0 10 4 17 9 17 11 0 73 149 67 163 -3 8 -5 8 -5 -1z"/>
<path d="M3057 3686 c-3 -8 0 -17 7 -19 10 -4 12 1 9 14 -6 23 -9 24 -16 5z"/>
<path d="M3231 3663 c-6 -21 -11 -44 -11 -51 0 -7 -4 -11 -9 -7 -5 3 -13 0
-17 -6 -4 -8 -3 -9 4 -5 8 5 11 -2 8 -21 -2 -15 -1 -20 1 -10 2 9 9 17 15 17
6 0 9 3 6 6 -3 3 0 28 8 57 7 28 12 53 9 55 -2 2 -8 -13 -14 -35z"/>
<path d="M3052 3634 c-7 -8 -8 -14 -3 -14 10 0 25 19 20 25 -2 1 -10 -3 -17
-11z"/>
<path d="M3181 3564 c0 -11 3 -14 6 -6 3 7 2 16 -1 19 -3 4 -6 -2 -5 -13z"/>
<path d="M3149 3533 c-5 -14 -8 -31 -5 -37 2 -6 5 -3 5 7 1 10 4 16 9 14 4 -3
7 6 7 19 0 31 -3 30 -16 -3z"/>
<path d="M3178 3513 c5 -21 7 -23 10 -9 2 10 0 22 -6 28 -6 6 -7 0 -4 -19z"/>
<path d="M3156 3484 c-4 -9 -4 -19 -1 -22 2 -3 7 3 11 12 4 9 4 19 1 22 -2 3
-7 -3 -11 -12z"/>
<path d="M3140 3436 c0 -8 -6 -17 -12 -19 -7 -3 -3 -6 10 -6 15 -1 21 3 16 10
-3 6 0 15 7 20 11 7 10 9 -3 9 -10 0 -18 -6 -18 -14z"/>
<path d="M3094 3392 c4 -7 3 -19 -4 -27 -7 -9 -8 -15 -1 -20 7 -4 6 -18 -4
-43 -13 -33 -13 -35 0 -18 8 11 15 26 15 33 0 7 5 13 10 13 6 0 10 5 10 10 0
6 -7 10 -16 10 -14 0 -14 3 -4 15 11 13 11 18 0 28 -10 9 -11 9 -6 -1z"/>
<path d="M3046 3264 c-3 -9 -4 -19 -1 -22 3 -3 5 1 5 9 0 11 2 11 10 -1 5 -8
10 -10 10 -5 0 6 -4 16 -9 23 -6 11 -10 10 -15 -4z"/>
<path d="M2896 3245 c-9 -26 -7 -32 5 -12 6 10 9 21 6 23 -2 3 -7 -2 -11 -11z"/>
<path d="M3050 3211 c0 -7 -4 -10 -10 -6 -13 8 -42 -39 -34 -58 3 -8 12 -18
19 -21 9 -3 12 0 8 10 -3 7 -9 14 -14 14 -14 0 -11 14 7 36 13 16 15 16 10 2
-3 -10 -2 -18 3 -18 10 0 23 42 16 49 -3 2 -5 -1 -5 -8z"/>
<path d="M2995 3109 c-11 -4 -14 -8 -7 -8 6 -1 12 -9 13 -18 0 -13 3 -11 10 6
11 29 10 31 -16 20z"/>
<path d="M2830 3029 c0 -5 5 -7 10 -4 6 3 10 8 10 11 0 2 -4 4 -10 4 -5 0 -10
-5 -10 -11z"/>
<path d="M2911 2999 c-6 -18 -9 -34 -7 -36 2 -2 9 10 15 28 6 18 9 34 7 36 -2
2 -9 -10 -15 -28z"/>
<path d="M2952 2972 c-11 -25 -11 -25 4 -10 9 9 15 21 13 27 -2 6 -10 -2 -17
-17z"/>
<path d="M2887 2943 c-4 -3 -7 -11 -7 -17 0 -6 5 -5 12 2 6 6 9 14 7 17 -3 3
-9 2 -12 -2z"/>
<path d="M2901 2913 c-10 -26 -10 -27 4 -9 8 11 15 23 15 28 0 15 -7 8 -19
-19z"/>
<path d="M2866 2895 c-9 -26 -7 -32 5 -12 6 10 9 21 6 23 -2 3 -7 -2 -11 -11z"/>
<path d="M2910 2885 c-7 -8 -9 -15 -6 -15 4 0 14 7 22 15 9 8 11 15 6 15 -5 0
-15 -7 -22 -15z"/>
<path d="M2851 2844 c0 -11 3 -14 6 -6 3 7 2 16 -1 19 -3 4 -6 -2 -5 -13z"/>
<path d="M2870 2845 c0 -5 5 -17 10 -25 5 -8 10 -10 10 -5 0 6 -5 17 -10 25
-5 8 -10 11 -10 5z"/>
<path d="M2860 2806 c0 -8 4 -17 9 -20 5 -4 7 3 4 14 -6 23 -13 26 -13 6z"/>
<path d="M2841 2714 c0 -11 3 -14 6 -6 3 7 2 16 -1 19 -3 4 -6 -2 -5 -13z"/>
<path d="M2790 2613 c0 -15 18 -35 23 -27 3 5 -1 15 -9 22 -8 7 -14 9 -14 5z"/>
<path d="M2785 2568 c4 -20 1 -28 -9 -28 -14 0 -33 -67 -22 -78 3 -3 6 5 6 17
0 14 4 20 12 15 8 -5 9 -2 5 11 -5 11 -1 22 8 29 13 9 14 17 5 36 -10 25 -10
25 -5 -2z"/>
<path d="M2703 2365 c-3 -9 -3 -18 -1 -21 3 -3 8 4 11 16 6 23 -1 27 -10 5z"/>
<path d="M2536 2294 c-10 -25 1 -29 14 -5 6 12 7 21 1 21 -5 0 -12 -7 -15 -16z"/>
<path d="M2621 2163 c-1 -6 -4 -20 -7 -30 -5 -17 -5 -17 6 0 6 10 9 23 6 30
-3 9 -5 9 -5 0z"/>
<path d="M2577 2068 c-3 -12 -3 -28 1 -35 5 -8 8 0 9 22 1 40 -2 44 -10 13z"/>
<path d="M2436 1993 c-6 -14 -5 -15 5 -6 7 7 10 15 7 18 -3 3 -9 -2 -12 -12z"/>
<path d="M2542 1961 c-14 -47 -15 -51 -2 -51 5 0 7 7 4 15 -4 8 -2 15 2 15 5
0 10 14 11 30 3 40 -2 38 -15 -9z"/>
<path d="M2461 1754 c0 -11 3 -14 6 -6 3 7 2 16 -1 19 -3 4 -6 -2 -5 -13z"/>
<path d="M2436 1685 c-3 -9 -6 -22 -5 -28 0 -7 5 -1 10 12 5 13 8 26 5 28 -2
2 -6 -3 -10 -12z"/>
<path d="M2421 1624 c0 -11 3 -14 6 -6 3 7 2 16 -1 19 -3 4 -6 -2 -5 -13z"/>
<path d="M2352 1514 c-1 -24 1 -44 6 -44 10 0 14 78 4 84 -4 2 -8 -16 -10 -40z"/>
<path d="M2322 1425 c0 -16 2 -22 5 -12 2 9 2 23 0 30 -3 6 -5 -1 -5 -18z"/>
<path d="M2180 1119 c0 -5 5 -7 10 -4 6 3 10 8 10 11 0 2 -4 4 -10 4 -5 0 -10
-5 -10 -11z"/>
<path d="M2157 1050 c-4 -18 -5 -35 -2 -38 3 -3 5 2 5 11 0 8 4 17 9 19 4 2 5
12 1 23 -5 16 -8 13 -13 -15z"/>
<path d="M2111 914 c0 -11 3 -14 6 -6 3 7 2 16 -1 19 -3 4 -6 -2 -5 -13z"/>
<path d="M2076 837 c3 -10 9 -15 12 -12 3 3 0 11 -7 18 -10 9 -11 8 -5 -6z"/>
<path d="M2031 724 c0 -11 3 -14 6 -6 3 7 2 16 -1 19 -3 4 -6 -2 -5 -13z"/>
<path d="M1986 643 c-6 -14 -5 -15 5 -6 7 7 10 15 7 18 -3 3 -9 -2 -12 -12z"/>
<path d="M1971 594 c0 -11 3 -14 6 -6 3 7 2 16 -1 19 -3 4 -6 -2 -5 -13z"/>
<path d="M1965 559 c-4 -6 -5 -12 -2 -15 2 -3 7 2 10 11 7 17 1 20 -8 4z"/>
</g>
</svg>
