<svg xmlns="http://www.w3.org/2000/svg" width="208" height="208" viewBox="0 0 208 208">
  <!-- One rosette from mandala_montif.svg (center cluster), centered like the hand-drawn tile -->
  <g fill="#ffffff" fill-opacity="0.88" stroke="none">
    <g transform="translate(104 104) scale(0.3360488798370672 0.3360488798370672) translate(-175.900000 -284.300000)">
      <g transform="translate(0 404) scale(0.1 -0.1)">
        <path d="M3127 2779 c7 -7 15 -10 18 -7 3 3 -2 9 -12 12 -14 6 -15 5 -6 -5z"/>
        <path d="M3962 2578 l-122 -40 -85 -116 -85 -115 0 -132 0 -131 83 -115 82 -114 130 -43 130 -43 133 43 133 42 79 111 80 110 0 139 0 139 -80 111 -80 112 -129 42 c-71 23 -133 42 -138 41 -4 -1 -63 -19 -131 -41z m275 -25 l113 -38 75 -105 75 -105 0 -131 0 -131 -76 -104 -75 -104 -127 -43 -127 -42 -122 41 -123 41 -75 103 -75 103 0 137 0 137 75 103 75 103 123 40 c67 22 129 38 137 36 8 -2 66 -21 127 -41z"/>
        <path d="M4040 2541 c0 -11 5 -23 10 -26 6 -3 10 3 10 14 0 11 -4 23 -10 26 -5 3 -10 -3 -10 -14z"/>
        <path d="M3990 2542 c0 -18 12 -42 21 -42 14 0 10 26 -6 40 -9 8 -15 8 -15 2z"/>
        <path d="M3950 2509 c7 -11 14 -18 17 -15 8 8 -5 36 -17 36 -7 0 -7 -6 0 -21z"/>
        <path d="M3900 2501 c0 -5 7 -14 15 -21 16 -14 18 -10 9 14 -6 17 -24 22 -24 7z"/>
        <path d="M3989 2469 l-86 -30 -56 -79 -57 -79 0 -106 0 -106 56 -79 c61 -85 63 -87 178 -120 l78 -24 95 32 95 31 24 -27 c13 -15 24 -22 24 -15 0 7 -9 21 -21 31 l-20 20 55 77 56 78 0 102 0 102 -56 77 -56 77 21 21 c12 11 19 23 16 27 -4 3 -15 -4 -25 -16 l-18 -22 -88 29 c-49 16 -98 29 -109 29 -11 0 -59 -14 -106 -30z m209 -15 c82 -27 83 -28 138 -102 l54 -75 0 -102 0 -102 -55 -76 -55 -75 -89 -30 -90 -30 -93 30 -93 29 -57 79 -58 80 0 93 0 93 50 70 c27 39 56 76 63 83 19 15 179 70 192 66 6 -2 47 -16 93 -31z"/>
        <path d="M4030 2441 c-78 -24 -141 -75 -174 -140 -22 -42 -35 -100 -25 -107 5 -3 11 1 13 8 31 110 60 152 131 193 85 51 209 40 287 -25 39 -32 88 -119 88 -157 0 -13 5 -23 11 -23 8 0 10 12 6 34 -24 148 -197 259 -337 217z"/>
        <path d="M4005 2373 c-142 -74 -168 -252 -53 -361 35 -33 123 -68 133 -53 2 5 -17 14 -43 21 -62 15 -124 79 -140 143 -18 71 0 138 52 192 22 24 55 46 71 50 17 3 39 10 50 15 17 7 16 9 -10 9 -16 0 -43 -7 -60 -16z"/>
        <path d="M4114 2383 c3 -4 17 -8 29 -10 121 -19 194 -171 137 -288 -26 -53 -68 -88 -127 -106 -47 -13 -60 -33 -15 -23 108 26 182 119 182 225 0 40 -32 114 -63 147 -29 32 -90 62 -123 62 -15 0 -24 -3 -20 -7z"/>
        <path d="M4051 2348 c-2 -24 -19 -32 -38 -16 -14 11 -15 10 -8 -11 7 -22 5 -23 -21 -17 -23 6 -26 5 -16 -7 15 -17 -3 -38 -27 -30 -13 4 -13 3 -2 -5 20 -14 6 -43 -16 -35 -15 5 -14 2 4 -16 27 -25 33 -26 33 -5 0 53 75 114 140 114 56 0 124 -51 135 -101 8 -35 16 -36 34 -8 11 19 11 21 -2 16 -19 -7 -29 17 -14 33 9 9 7 11 -8 8 -15 -2 -19 2 -18 18 2 18 -2 21 -19 16 -18 -4 -20 -2 -16 16 4 12 2 22 -3 22 -5 0 -9 -4 -9 -10 0 -5 -7 -10 -15 -10 -9 0 -15 9 -15 22 0 21 0 21 -14 2 -14 -19 -15 -19 -29 0 -12 17 -14 17 -20 2 -8 -21 -24 -21 -30 2 -4 15 -5 15 -6 0z"/>
        <path d="M4090 2300 c0 -5 5 -10 10 -10 6 0 10 5 10 10 0 6 -4 10 -10 10 -5 0 -10 -4 -10 -10z"/>
        <path d="M4033 2276 c3 -8 -3 -22 -14 -32 -10 -9 -19 -12 -19 -6 0 6 6 12 13 15 6 2 9 8 4 12 -4 5 -14 0 -21 -11 -8 -10 -11 -21 -7 -24 10 -7 8 -104 -2 -111 -5 -4 -4 -10 2 -13 6 -4 11 -2 11 5 0 8 7 6 19 -5 11 -10 17 -24 14 -32 -3 -8 0 -14 7 -14 6 0 9 4 6 9 -3 5 14 6 39 3 54 -6 90 15 111 63 7 18 19 35 26 38 9 4 7 6 -3 6 -16 1 -33 47 -31 81 1 11 0 11 -4 2 -5 -10 -11 -9 -31 4 -18 11 -39 15 -69 11 -24 -2 -41 -1 -38 4 3 5 0 9 -6 9 -7 0 -10 -6 -7 -14z m107 -21 c80 -41 59 -157 -31 -171 -28 -5 -41 -1 -67 21 -65 54 -29 159 56 164 7 1 26 -6 42 -14z"/>
        <path d="M4084 2242 c-59 -9 -72 -88 -22 -125 34 -26 75 -15 97 24 28 51 -17 111 -75 101z m50 -25 c21 -16 24 -60 6 -82 -16 -20 -59 -19 -82 2 -51 46 20 121 76 80z"/>
        <path d="M4080 2180 c-8 -5 -10 -10 -5 -10 6 0 17 5 25 10 8 5 11 10 5 10 -5 0 -17 -5 -25 -10z"/>
        <path d="M3970 2210 c0 -5 5 -10 11 -10 5 0 7 5 4 10 -3 6 -8 10 -11 10 -2 0 -4 -4 -4 -10z"/>
        <path d="M3826 2133 c12 -57 56 -133 97 -168 115 -99 303 -77 391 44 34 47 56 99 56 132 0 34 -17 20 -24 -20 -8 -54 -63 -130 -117 -164 -140 -86 -334 -8 -374 150 -13 51 -41 76 -29 26z"/>
        <path d="M3928 2139 c-17 -18 -17 -19 2 -19 22 0 27 -25 8 -34 -7 -4 -3 -4 9 -2 25 4 37 -16 20 -33 -9 -9 -5 -11 13 -9 20 2 24 -1 22 -16 -3 -17 -1 -18 12 -7 18 15 40 5 32 -15 -3 -8 -1 -14 4 -14 6 0 10 7 10 15 0 23 19 18 30 -7 l9 -23 7 23 c8 26 22 29 31 5 5 -14 8 -13 14 5 8 22 29 31 29 12 0 -5 4 -10 9 -10 5 0 7 10 3 22 -4 18 -2 20 16 16 17 -5 21 -2 19 16 -1 16 3 20 17 18 17 -3 18 -2 6 13 -11 14 -10 17 8 22 18 4 19 8 9 24 -16 26 -24 24 -32 -8 -9 -38 -23 -53 -43 -46 -14 4 -14 3 -3 -5 20 -14 -43 -52 -87 -52 -70 0 -142 57 -142 113 0 22 -10 21 -32 -4z"/>
        <path d="M3970 2139 c0 -5 5 -7 10 -4 6 3 10 8 10 11 0 2 -4 4 -10 4 -5 0 -10 -5 -10 -11z"/>
        <path d="M4090 2050 c0 -5 5 -10 10 -10 6 0 10 5 10 10 0 6 -4 10 -10 10 -5 0 -10 -4 -10 -10z"/>
        <path d="M3860 2472 c0 -5 7 -16 16 -23 14 -12 16 -11 13 5 -4 20 -29 35 -29 18z"/>
        <path d="M3826 2436 c6 -16 34 -30 34 -18 0 10 -22 32 -32 32 -4 0 -5 -6 -2 -14z"/>
        <path d="M3800 2395 c7 -8 17 -15 22 -15 6 0 5 7 -2 15 -7 8 -17 15 -22 15 -6 0 -5 -7 2 -15z"/>
        <path d="M3774 2355 c26 -19 42 -19 26 0 -7 8 -20 15 -29 15 -13 -1 -13 -3 3 -15z"/>
        <path d="M3740 2321 c0 -10 24 -21 43 -21 7 0 3 7 -7 15 -22 17 -36 19 -36 6z"/>
        <path d="M3725 2270 c3 -5 15 -10 26 -10 11 0 17 5 14 10 -3 6 -15 10 -26 10 -11 0 -17 -4 -14 -10z"/>
        <path d="M3725 2220 c3 -5 13 -10 21 -10 8 0 14 5 14 10 0 6 -9 10 -21 10 -11 0 -17 -4 -14 -10z"/>
        <path d="M3710 2176 c0 -10 28 -13 41 -5 10 6 7 9 -13 9 -16 0 -28 -2 -28 -4z"/>
        <path d="M3720 2130 c-12 -8 -9 -10 13 -10 15 0 27 5 27 10 0 13 -20 13 -40 0z"/>
        <path d="M3725 2080 c-3 -5 3 -10 14 -10 11 0 23 5 26 10 3 6 -3 10 -14 10 -11 0 -23 -4 -26 -10z"/>
        <path d="M3750 2035 c-10 -12 -10 -15 3 -15 8 0 20 7 27 15 10 12 10 15 -3 15 -8 0 -20 -7 -27 -15z"/>
        <path d="M3774 1995 c-16 -12 -16 -14 -3 -15 9 0 22 7 29 15 16 19 0 19 -26 0z"/>
        <path d="M3802 1958 c-19 -19 -14 -30 8 -18 11 6 20 15 20 20 0 14 -14 12 -28 -2z"/>
        <path d="M3835 1920 c-10 -11 -13 -20 -8 -20 13 0 38 29 31 35 -3 3 -13 -4 -23 -15z"/>
        <path d="M3866 1884 c-4 -10 -1 -14 6 -12 15 5 23 28 10 28 -5 0 -13 -7 -16 -16z"/>
        <path d="M3911 1866 c-8 -9 -11 -19 -7 -23 9 -9 29 13 24 27 -2 8 -8 7 -17 -4z"/>
        <path d="M3957 1854 c-4 -4 -7 -14 -7 -23 0 -11 3 -12 11 -4 6 6 10 16 7 23 -2 6 -7 8 -11 4z"/>
        <path d="M3996 1834 c-8 -22 -7 -34 3 -34 12 0 21 39 11 45 -4 3 -11 -2 -14 -11z"/>
        <path d="M2789 2587 c6 -8 9 -16 6 -19 -3 -2 2 -5 10 -5 13 0 13 3 -2 19 -19 21 -31 25 -14 5z"/>
        <path d="M2816 2589 c4 -8 30 -6 38 2 3 3 -5 5 -19 5 -13 0 -22 -3 -19 -7z"/>
        <path d="M2949 2590 c-1 -8 -1 -21 0 -27 3 -20 -19 -15 -41 10 l-19 22 4 -27 c5 -32 -8 -36 -36 -10 -19 16 -20 16 -15 -10 5 -29 -16 -48 -26 -22 -8 22 -29 17 -23 -6 6 -24 -18 -48 -27 -25 -7 19 -26 20 -26 0 0 -8 5 -15 11 -15 8 0 8 -5 -1 -15 -10 -12 -16 -13 -27 -4 -18 15 -29 4 -14 -14 9 -11 8 -17 -4 -27 -10 -9 -15 -9 -15 -1 0 6 -7 11 -15 11 -19 0 -20 -19 -1 -26 25 -10 7 -35 -20 -28 -26 7 -34 -13 -10 -22 22 -8 8 -33 -15 -27 -22 6 -26 -15 -5 -23 22 -8 8 -33 -15 -27 -11 3 -19 0 -19 -7 0 -6 9 -14 19 -17 12 -3 17 -11 14 -19 -3 -8 -8 -12 -12 -10 -4 3 -13 0 -21 -5 -12 -7 -11 -10 8 -15 12 -4 22 -12 22 -19 0 -7 -10 -15 -22 -19 -19 -5 -20 -8 -8 -15 8 -5 18 -7 22 -5 4 3 8 -4 8 -15 0 -12 -5 -20 -11 -19 -6 2 -14 -3 -16 -9 -3 -8 4 -13 16 -13 26 0 27 -18 4 -36 -17 -12 -16 -13 4 -14 28 0 40 -20 19 -32 -25 -14 -19 -31 8 -24 30 7 42 -7 21 -24 -22 -18 -19 -33 4 -21 14 8 22 7 31 -4 9 -11 9 -15 1 -15 -6 0 -11 -7 -11 -15 0 -18 12 -19 27 -4 16 16 26 -6 13 -31 -11 -21 -4 -25 19 -11 22 14 44 2 30 -15 -16 -19 -4 -30 15 -15 20 17 35 6 29 -19 -6 -24 12 -27 25 -4 12 22 32 9 25 -16 -6 -23 15 -28 23 -5 9 22 34 18 34 -5 0 -11 5 -20 10 -20 6 0 10 9 10 20 0 26 26 16 35 -13 l6 -22 11 23 c6 12 17 22 23 22 7 0 16 -10 20 -22 8 -22 8 -22 12 5 5 29 27 37 37 12 3 -8 10 -15 17 -15 6 0 8 7 5 17 -11 27 15 34 36 10 l19 -22 -4 27 c-4 29 17 47 27 22 9 -25 29 -16 22 10 -7 29 13 40 32 17 12 -14 13 -12 8 11 -7 29 9 47 27 29 18 -18 29 -13 17 9 -15 28 -4 43 21 30 15 -8 19 -7 19 4 0 8 -5 16 -12 18 -23 8 3 28 30 22 l27 -5 -22 19 c-23 20 -17 47 9 37 9 -4 19 -1 23 5 4 7 -1 14 -13 17 -25 6 -18 33 9 33 10 0 19 5 19 10 0 6 -7 10 -15 10 -8 0 -15 9 -15 20 0 12 5 17 14 14 8 -3 17 0 21 6 4 7 -2 14 -14 17 -27 7 -28 33 -1 33 11 0 20 5 20 10 0 6 -9 10 -20 10 -27 0 -26 27 2 36 19 6 19 7 5 16 -10 5 -22 6 -27 3 -6 -3 -10 1 -10 10 0 8 7 18 15 21 22 9 18 27 -5 21 -28 -7 -35 11 -13 35 18 21 18 21 -9 16 -31 -6 -41 10 -20 31 18 19 -2 29 -22 12 -17 -14 -30 11 -14 27 6 6 8 16 6 22 -3 9 -8 8 -20 -3 -14 -14 -18 -14 -27 -3 -8 10 -9 16 -1 21 5 3 10 13 10 22 0 14 -2 14 -19 -1 -25 -23 -39 -14 -34 21 4 26 3 27 -10 10 -19 -23 -46 -12 -40 16 4 21 4 21 -10 4 -18 -22 -47 -13 -40 14 3 10 0 19 -6 19 -6 0 -11 -7 -11 -15 0 -8 -9 -15 -19 -15 -14 0 -18 5 -14 20 3 12 0 20 -7 20 -6 0 -14 -9 -17 -19 -3 -12 -11 -17 -19 -14 -8 3 -12 8 -10 12 3 4 1 13 -4 21 -9 15 -10 14 -23 -30 -2 -10 -9 -6 -20 15 -9 17 -17 24 -18 15z m203 -83 c145 -65 237 -233 210 -385 -32 -182 -164 -301 -345 -310 -66 -3 -93 0 -139 17 -152 58 -240 185 -241 347 0 71 4 91 31 148 48 101 141 180 246 207 60 16 177 4 238 -24z"/>
        <path d="M2980 2521 c-8 -6 -25 -8 -37 -4 -13 3 -34 -2 -48 -11 -13 -9 -33 -16 -44 -16 -11 0 -28 -11 -38 -24 -10 -13 -29 -26 -41 -30 -12 -4 -29 -20 -36 -35 -8 -15 -22 -33 -30 -40 -9 -8 -16 -24 -16 -36 0 -12 -6 -28 -14 -34 -15 -13 -31 -135 -19 -154 4 -7 6 -24 5 -38 -2 -15 4 -33 12 -42 9 -9 16 -25 16 -36 0 -11 8 -28 18 -38 10 -10 26 -30 35 -45 10 -16 22 -28 29 -28 6 0 21 -11 34 -25 13 -14 33 -25 44 -25 12 0 28 -7 37 -15 8 -9 29 -16 46 -16 18 0 48 0 67 0 19 0 49 0 67 0 17 0 38 7 46 16 9 8 25 15 37 15 11 0 31 11 44 25 13 14 28 25 34 25 7 0 20 12 29 28 10 15 26 34 36 42 10 8 19 26 19 40 1 14 6 28 11 31 29 20 29 207 0 240 -7 9 -13 20 -11 25 3 14 -12 54 -22 54 -4 0 -17 16 -29 35 -11 19 -28 35 -37 35 -9 0 -25 11 -36 25 -11 14 -29 25 -42 25 -12 0 -27 5 -34 12 -7 7 -27 13 -45 14 -17 2 -41 5 -52 8 -11 4 -27 2 -35 -3z m46 -44 c-2 -18 -1 -24 1 -15 7 30 42 48 67 36 22 -9 22 -11 7 -44 -15 -31 -43 -45 -55 -26 -3 5 -19 7 -36 4 -27 -4 -30 -1 -30 21 0 14 -3 32 -6 40 -3 10 1 17 13 19 31 7 42 -2 39 -35z m-83 -1 c-3 -13 1 -27 8 -31 9 -6 11 -2 7 13 -4 12 -2 22 3 22 13 0 11 -34 -3 -48 -18 -18 -48 -15 -48 6 0 10 -5 23 -11 29 -16 16 -2 33 25 33 19 0 22 -4 19 -24z m-73 -26 c0 -10 5 -22 10 -25 15 -9 12 -25 -5 -31 -13 -6 -64 40 -65 59 0 10 42 26 53 20 4 -2 7 -13 7 -23z m316 9 c7 -12 -36 -69 -52 -69 -22 0 -25 19 -8 45 9 14 13 25 10 25 -4 0 -5 4 -2 9 7 10 44 3 52 -10z m-286 -20 c0 -6 -4 -7 -10 -4 -5 3 -10 11 -10 16 0 6 5 7 10 4 6 -3 10 -11 10 -16z m211 -2 c-10 -9 -11 -8 -5 6 3 10 9 15 12 12 3 -3 0 -11 -7 -18z m-307 -24 c3 -10 11 -26 18 -36 11 -14 10 -19 -1 -27 -10 -6 -24 -2 -42 13 -31 24 -35 37 -17 55 17 17 35 15 42 -5z m440 -5 c7 -12 3 -22 -20 -41 -24 -22 -31 -24 -43 -12 -12 11 -10 18 10 44 26 32 37 34 53 9z m-414 -3 c7 -9 8 -15 2 -15 -5 0 -12 7 -16 15 -3 8 -4 15 -2 15 2 0 9 -7 16 -15z m248 2 c12 -1 22 -5 22 -10 0 -4 12 -13 27 -20 47 -21 103 -95 103 -136 0 -10 3 -21 7 -24 14 -14 -2 -147 -17 -147 -5 0 -12 -9 -15 -20 -7 -22 -51 -70 -64 -70 -4 0 -16 -8 -25 -19 -17 -19 -32 -22 -113 -23 -65 0 -96 4 -110 17 -7 5 -30 24 -52 40 -22 17 -42 40 -45 53 -4 12 -11 22 -16 22 -6 0 -10 13 -10 28 0 16 -3 32 -7 35 -3 4 -6 23 -6 42 0 19 3 38 6 42 4 3 7 16 7 28 0 13 7 28 15 35 8 7 15 20 15 29 0 9 17 27 36 41 20 14 44 32 53 41 10 8 22 14 29 11 6 -2 18 1 27 6 9 4 37 7 63 5 26 -2 57 -5 70 -6z m107 -6 c-3 -6 -11 -11 -17 -11 -6 0 -6 6 2 15 14 17 26 13 15 -4z m-409 -71 c18 0 18 -24 0 -39 -10 -9 -16 -8 -26 4 -7 8 -21 15 -31 15 -23 0 -25 23 -3 45 15 15 18 14 31 -5 8 -11 21 -20 29 -20z m10 12 c-4 -3 -14 2 -24 12 -16 18 -16 18 6 6 13 -6 21 -14 18 -18z m464 19 c0 -5 -7 -12 -16 -15 -14 -5 -15 -4 -4 9 14 17 20 19 20 6z m50 -29 c-1 -9 -16 -24 -36 -33 -33 -16 -35 -16 -44 1 -13 25 -13 30 5 30 8 0 20 9 27 19 9 15 16 17 30 10 10 -5 18 -17 18 -27z m-559 -50 c-7 -2 -18 1 -23 6 -8 8 -4 9 13 5 13 -4 18 -8 10 -11z m544 8 c-3 -5 -12 -10 -18 -10 -7 0 -6 4 3 10 19 12 23 12 15 0z m-538 -23 c11 4 14 0 11 -18 -1 -13 -9 -24 -15 -23 -7 1 -26 2 -43 3 -22 1 -30 6 -30 19 0 30 20 43 43 27 10 -7 26 -11 34 -8z m579 -2 c4 -14 5 -27 3 -29 -11 -9 -79 -13 -80 -5 -5 27 -2 32 15 35 10 1 23 7 29 13 17 17 26 13 33 -14z m-596 -55 c0 -13 -11 -13 -30 0 -12 8 -11 10 8 10 12 0 22 -4 22 -10z m570 0 c-19 -13 -30 -13 -30 0 0 6 10 10 23 10 18 0 19 -2 7 -10z m-578 -18 c18 2 24 -2 26 -20 3 -20 0 -23 -17 -17 -11 3 -29 1 -40 -4 -25 -14 -35 0 -27 35 6 21 10 23 21 14 8 -6 24 -10 37 -8z m616 -23 c-2 -15 -9 -23 -18 -20 -8 2 -26 5 -40 6 -17 1 -25 8 -25 21 0 15 6 18 27 16 14 -2 29 2 33 8 11 18 27 -4 23 -31z m-594 -45 c23 -23 20 -44 -7 -44 -13 0 -29 -6 -35 -12 -10 -10 -15 -10 -22 2 -16 25 -12 51 8 49 34 -3 47 3 22 11 -23 7 -23 8 -3 9 12 1 29 -6 37 -15z m546 7 c-21 -6 -22 -8 -7 -14 9 -3 24 -4 32 -1 17 7 20 -22 5 -46 -7 -12 -12 -12 -22 -2 -6 6 -22 12 -35 12 -13 0 -23 6 -23 14 0 22 29 46 53 45 20 -1 20 -2 -3 -8z m-509 -82 c13 -20 11 -29 -5 -29 -8 0 -22 -10 -30 -22 -13 -18 -18 -19 -31 -8 -22 18 -19 50 4 50 11 0 23 5 27 11 4 8 -1 9 -16 4 -16 -5 -20 -4 -16 4 10 15 55 9 67 -10z m505 10 c4 -8 -1 -9 -16 -4 -15 5 -20 4 -16 -4 4 -6 16 -11 27 -11 23 0 26 -32 4 -50 -13 -11 -18 -10 -31 8 -8 12 -22 22 -30 22 -8 0 -14 3 -14 8 1 30 61 55 76 31z m-458 -64 c4 -3 1 -14 -6 -23 -7 -9 -15 -25 -18 -34 -7 -21 -25 -23 -42 -6 -18 18 -15 35 8 41 11 3 20 11 20 18 0 10 -3 10 -12 1 -17 -17 -33 -15 -18 3 12 14 54 14 68 0z m421 -40 c1 -15 -20 -35 -38 -35 -8 0 -11 3 -8 7 4 3 -3 17 -14 29 -18 19 -20 26 -9 39 11 13 16 12 41 -8 15 -12 28 -27 28 -32z m-9 40 c11 -13 10 -14 -4 -9 -9 3 -16 10 -16 15 0 13 6 11 20 -6z m-406 -50 c-4 -8 -11 -15 -16 -15 -6 0 -5 6 2 15 7 8 14 15 16 15 2 0 1 -7 -2 -15z m52 4 c3 -6 1 -16 -5 -22 -6 -6 -11 -21 -11 -34 0 -26 -17 -30 -45 -9 -18 13 -18 14 6 44 25 32 43 39 55 21z m283 -21 c24 -30 24 -31 6 -44 -18 -13 -41 -15 -33 -3 2 3 -5 17 -15 32 -34 51 3 64 42 15z m16 21 c11 -17 -1 -21 -15 -4 -8 9 -8 15 -2 15 6 0 14 -5 17 -11z m-232 -26 c4 -3 2 -12 -4 -20 -6 -7 -9 -22 -6 -34 7 -25 -14 -35 -43 -19 -20 11 -20 13 -6 29 9 10 16 25 16 34 0 17 30 24 43 10z m137 -10 c0 -9 7 -24 16 -34 14 -16 14 -18 -6 -29 -29 -16 -50 -6 -43 19 3 12 0 27 -6 34 -13 16 -5 27 21 27 10 0 18 -7 18 -17z m-198 -15 c-7 -7 -12 -8 -12 -2 0 14 12 26 19 19 2 -3 -1 -11 -7 -17z m130 -15 c4 -33 -4 -53 -22 -53 -18 0 -26 20 -22 53 3 27 9 37 22 37 13 0 19 -10 22 -37z m98 16 c0 -6 -4 -7 -10 -4 -5 3 -10 11 -10 16 0 6 5 7 10 4 6 -3 10 -11 10 -16z m-150 -20 c0 -11 -4 -18 -10 -14 -5 3 -7 12 -3 20 7 21 13 19 13 -6z m80 -5 c0 -8 -4 -12 -10 -9 -5 3 -10 13 -10 21 0 8 5 12 10 9 6 -3 10 -13 10 -21z"/>
        <path d="M3051 2483 c0 -6 -4 -20 -7 -30 -5 -14 -4 -15 5 -7 7 7 11 20 8 30 -3 11 -5 14 -6 7z"/>
        <path d="M2938 2388 c-49 -13 -116 -72 -139 -122 -37 -81 -17 -186 47 -249 47 -47 83 -61 155 -62 56 0 73 4 114 30 160 99 129 347 -49 400 -56 17 -75 17 -128 3z m148 -27 c119 -54 155 -214 72 -316 -123 -148 -359 -63 -359 130 0 86 51 162 131 194 40 16 112 12 156 -8z"/>
        <path d="M2940 2350 c0 -5 5 -10 10 -10 6 0 10 5 10 10 0 6 -4 10 -10 10 -5 0 -10 -4 -10 -10z"/>
        <path d="M3040 2350 c0 -5 5 -10 10 -10 6 0 10 5 10 10 0 6 -4 10 -10 10 -5 0 -10 -4 -10 -10z"/>
        <path d="M2900 2330 c0 -5 5 -10 10 -10 6 0 10 5 10 10 0 6 -4 10 -10 10 -5 0 -10 -4 -10 -10z"/>
        <path d="M3080 2330 c0 -5 5 -10 10 -10 6 0 10 5 10 10 0 6 -4 10 -10 10 -5 0 -10 -4 -10 -10z"/>
        <path d="M2860 2300 c0 -5 5 -10 10 -10 6 0 10 5 10 10 0 6 -4 10 -10 10 -5 0 -10 -4 -10 -10z"/>
        <path d="M2979 2288 c-6 -13 -13 -24 -14 -25 -1 -2 -16 1 -33 6 -34 10 -37 6 -22 -33 8 -23 6 -28 -20 -41 -17 -9 -30 -18 -30 -20 0 -2 13 -11 30 -20 26 -13 28 -18 20 -41 -15 -39 -12 -43 22 -33 23 6 34 5 40 -4 25 -42 28 -43 43 -23 8 10 16 23 17 27 2 5 18 5 36 0 l33 -10 -7 34 c-5 29 -2 36 21 51 25 17 26 19 9 31 -23 17 -44 17 -22 0 15 -12 15 -14 -4 -26 -20 -12 -21 -11 -15 20 3 19 9 48 13 66 l6 32 -33 -9 c-18 -5 -33 -9 -34 -7 -1 1 -8 12 -14 25 -6 12 -16 22 -21 22 -5 0 -15 -10 -21 -22z m35 -14 c9 -23 8 -24 -14 -24 -11 0 -20 2 -20 4 0 12 13 36 20 36 4 0 11 -7 14 -16z m-65 -40 c-16 -20 -29 -17 -29 5 0 14 5 18 20 14 16 -4 18 -8 9 -19z m127 -11 c-3 -3 -12 0 -21 7 -11 9 -15 9 -15 1 0 -6 6 -14 14 -17 20 -7 14 -66 -8 -88 -42 -42 -111 -11 -111 49 0 37 29 64 70 65 17 1 39 5 50 9 14 6 21 4 23 -6 2 -8 1 -17 -2 -20z m-156 -48 c0 -22 -2 -24 -19 -13 -18 11 -18 13 -3 25 22 16 22 17 22 -12z m29 -59 c9 -11 7 -15 -9 -19 -15 -4 -20 0 -20 14 0 22 13 25 29 5z m131 -5 c0 -14 -5 -18 -20 -14 -16 4 -18 8 -9 19 16 20 29 17 29 -5z m-60 -18 c0 -5 -5 -15 -10 -23 -9 -13 -11 -13 -19 0 -5 8 -7 18 -5 22 6 10 34 11 34 1z"/>
        <path d="M3120 2300 c0 -5 5 -10 10 -10 6 0 10 5 10 10 0 6 -4 10 -10 10 -5 0 -10 -4 -10 -10z"/>
        <path d="M2835 2270 c-3 -5 1 -10 10 -10 9 0 13 5 10 10 -3 6 -8 10 -10 10 -2 0 -7 -4 -10 -10z"/>
        <path d="M3150 2270 c0 -5 5 -10 11 -10 5 0 7 5 4 10 -3 6 -8 10 -11 10 -2 0 -4 -4 -4 -10z"/>
        <path d="M2850 2236 c0 -2 8 -10 18 -17 15 -13 16 -12 3 4 -13 16 -21 21 -21 13z"/>
        <path d="M2820 2219 c0 -5 5 -7 10 -4 6 3 10 8 10 11 0 2 -4 4 -10 4 -5 0 -10 -5 -10 -11z"/>
        <path d="M3165 2220 c3 -5 8 -10 11 -10 2 0 4 5 4 10 0 6 -5 10 -11 10 -5 0 -7 -4 -4 -10z"/>
        <path d="M2815 2170 c3 -5 8 -10 11 -10 2 0 4 5 4 10 0 6 -5 10 -11 10 -5 0 -7 -4 -4 -10z"/>
        <path d="M3170 2169 c0 -5 5 -7 10 -4 6 3 10 8 10 11 0 2 -4 4 -10 4 -5 0 -10 -5 -10 -11z"/>
        <path d="M2820 2130 c0 -5 5 -10 11 -10 5 0 7 5 4 10 -3 6 -8 10 -11 10 -2 0 -4 -4 -4 -10z"/>
        <path d="M3165 2130 c-3 -5 1 -10 10 -10 9 0 13 5 10 10 -3 6 -8 10 -10 10 -2 0 -7 -4 -10 -10z"/>
        <path d="M2835 2080 c4 -6 11 -8 16 -5 14 9 11 15 -7 15 -8 0 -12 -5 -9 -10z"/>
        <path d="M3145 2080 c4 -6 11 -8 16 -5 14 9 11 15 -7 15 -8 0 -12 -5 -9 -10z"/>
        <path d="M2865 2050 c-3 -5 -1 -10 4 -10 6 0 11 5 11 10 0 6 -2 10 -4 10 -3 0 -8 -4 -11 -10z"/>
        <path d="M2943 2045 c0 -8 4 -12 9 -9 5 3 6 10 3 15 -9 13 -12 11 -12 -6z"/>
        <path d="M3120 2050 c0 -5 5 -10 11 -10 5 0 7 5 4 10 -3 6 -8 10 -11 10 -2 0 -4 -4 -4 -10z"/>
        <path d="M2900 2020 c0 -5 5 -10 10 -10 6 0 10 5 10 10 0 6 -4 10 -10 10 -5 0 -10 -4 -10 -10z"/>
        <path d="M3080 2020 c0 -5 5 -10 10 -10 6 0 10 5 10 10 0 6 -4 10 -10 10 -5 0 -10 -4 -10 -10z"/>
        <path d="M2940 2000 c0 -5 5 -10 10 -10 6 0 10 5 10 10 0 6 -4 10 -10 10 -5 0 -10 -4 -10 -10z"/>
        <path d="M3040 2000 c0 -5 5 -10 10 -10 6 0 10 5 10 10 0 6 -4 10 -10 10 -5 0 -10 -4 -10 -10z"/>
        <path d="M2990 1990 c0 -5 5 -10 10 -10 6 0 10 5 10 10 0 6 -4 10 -10 10 -5 0 -10 -4 -10 -10z"/>
        <path d="M3183 2587 c-3 -7 -3 -9 2 -5 4 4 14 0 22 -10 12 -16 13 -16 6 2 -5 15 -3 17 8 11 8 -5 11 -4 6 0 -12 14 -36 14 -44 2z"/>
        <path d="M3808 2573 c7 -3 16 -2 19 1 4 3 -2 6 -13 5 -11 0 -14 -3 -6 -6z"/>
        <path d="M3235 2560 c3 -5 8 -10 11 -10 2 0 4 5 4 10 0 6 -5 10 -11 10 -5 0 -7 -4 -4 -10z"/>
        <path d="M3316 2508 c3 -5 10 -6 15 -3 13 9 11 12 -6 12 -8 0 -12 -4 -9 -9z"/>
        <path d="M3345 2491 c-3 -5 -2 -12 3 -15 5 -3 9 1 9 9 0 17 -3 19 -12 6z"/>
        <path d="M3688 2418 c-8 -20 17 -18 35 2 10 12 9 12 -5 2 -13 -10 -17 -10 -20 0 -3 8 -6 7 -10 -4z"/>
        <path d="M3419 2053 c-13 -16 -12 -17 4 -4 16 13 21 21 13 21 -2 0 -10 -8 -17 -17z"/>
        <path d="M3719 1893 c-13 -16 -12 -17 4 -4 16 13 21 21 13 21 -2 0 -10 -8 -17 -17z"/>
        <path d="M3770 1836 c0 -2 7 -7 16 -10 8 -3 12 -2 9 4 -6 10 -25 14 -25 6z"/>
        <path d="M3074 1738 c-4 -7 -4 -10 1 -6 4 4 15 2 24 -5 14 -11 14 -10 2 6 -16 20 -18 21 -27 5z"/>
        <path d="M3176 1741 c-3 -5 1 -11 9 -14 9 -4 12 -1 8 9 -6 16 -10 17 -17 5z"/>
        <path d="M3256 1547 c3 -10 9 -15 12 -12 3 3 0 11 -7 18 -10 9 -11 8 -5 -6z"/>
      </g>
    </g>
  </g>
</svg>
