<svg xmlns="http://www.w3.org/2000/svg" width="168" height="168" viewBox="0 0 168 168">
  <!-- Music symbols on a repeating tile (layout mirrors leaf_motif_emerald.svg) -->
  <g fill="none" stroke="#ffffff" stroke-width="1.15" stroke-linecap="round" stroke-linejoin="round">
    <g stroke-opacity="1" transform="translate(46 46) rotate(-24)">
      <line x1="11" y1="4" x2="11" y2="26"/>
      <ellipse cx="4" cy="26.5" rx="6" ry="4" transform="rotate(-24 4 26.5)"/>
      <path d="M11 4c3.2 0.8 5 3.5 5 7" stroke-width="1.05"/>
    </g>
    <g stroke-opacity="0.82" transform="translate(122 52) rotate(71)">
      <line x1="11" y1="4" x2="11" y2="26"/>
      <ellipse cx="4" cy="26.5" rx="6" ry="4" transform="rotate(-24 4 26.5)"/>
      <path d="M11 4c3.2 0.8 5 3.5 5 7" stroke-width="1.05"/>
    </g>
    <g stroke-opacity="0.72" transform="translate(58 118) rotate(188)">
      <line x1="11" y1="6" x2="11" y2="28"/>
      <ellipse cx="4" cy="28" rx="6" ry="4" transform="rotate(-24 4 28)"/>
    </g>
    <g stroke-opacity="0.9" transform="translate(128 124) rotate(-52)">
      <line x1="7" y1="2" x2="7" y2="22"/>
      <line x1="19" y1="0" x2="19" y2="20"/>
      <ellipse cx="0" cy="22" rx="5.5" ry="3.8" transform="rotate(-22 0 22)"/>
      <ellipse cx="12" cy="20" rx="5.5" ry="3.8" transform="rotate(-22 12 20)"/>
      <line x1="7" y1="2" x2="19" y2="0" stroke-width="1.3"/>
    </g>
    <g stroke-opacity="0.68" transform="translate(92 88) rotate(12)">
      <line x1="7" y1="0" x2="7" y2="18"/>
      <line x1="13" y1="-1" x2="13" y2="17"/>
      <path d="M2 5 L18 3 M2 11 L18 9" stroke-width="1"/>
    </g>
  </g>
</svg>
