<?xml version="1.0" standalone="no"?>
<!DOCTYPE svg PUBLIC "-//W3C//DTD SVG 20010904//EN"
 "http://www.w3.org/TR/2001/REC-SVG-20010904/DTD/svg10.dtd">
<svg version="1.0" xmlns="http://www.w3.org/2000/svg"
 width="600.000000pt" height="223.000000pt" viewBox="0 0 600.000000 223.000000"
 preserveAspectRatio="xMidYMid meet">
<g transform="translate(0.000000,223.000000) scale(0.100000,-0.100000)"
fill="#000000" stroke="none">
<path d="M3420 2153 c-1 -10 -22 -34 -48 -52 -45 -34 -50 -35 -217 -52 -210
-22 -325 -39 -325 -49 0 -5 -8 -6 -19 -3 -18 5 -206 -42 -232 -58 -22 -13 -1
-23 25 -11 18 8 26 8 28 0 3 -8 11 -9 24 -3 10 5 26 9 34 10 8 1 28 5 44 9 20
6 31 5 37 -5 13 -20 39 -113 39 -138 0 -12 6 -21 14 -21 12 0 12 11 -4 68 -10
37 -24 80 -29 96 -14 35 -14 43 -1 30 8 -8 33 -7 82 3 39 7 72 12 73 11 5 -8
35 -130 35 -141 0 -8 -32 -36 -71 -62 -58 -41 -72 -47 -81 -35 -8 12 -9 12 -4
-2 3 -12 -9 -27 -43 -51 -63 -46 -96 -63 -86 -46 11 16 12 69 3 62 -5 -2 -8
14 -8 36 0 23 4 41 10 41 6 0 6 9 1 23 -4 12 -6 28 -4 35 3 7 -1 10 -11 6 -9
-3 -16 -1 -16 6 0 6 4 9 9 6 11 -7 47 32 38 41 -4 3 -15 -2 -26 -11 -16 -15
-21 -15 -28 -3 -4 7 -16 16 -26 20 -21 8 -17 17 -106 -240 l-66 -192 -330
-223 c-182 -123 -415 -282 -520 -352 -104 -71 -198 -135 -207 -144 -14 -11
-34 -13 -94 -9 -86 6 -111 17 -39 17 47 0 48 0 29 18 -14 15 -20 16 -22 5 -3
-11 -42 -20 -42 -10 0 2 18 38 40 81 45 87 45 86 28 86 -7 0 -29 -37 -49 -83
l-37 -82 -117 3 c-83 3 -115 1 -111 -7 5 -7 -11 -11 -48 -11 -31 0 -56 4 -56
9 0 5 20 6 45 3 l45 -5 0 57 0 56 -182 1 c-101 0 -202 1 -225 2 -24 1 -43 -3
-43 -8 0 -5 16 -8 35 -6 30 2 35 -1 35 -18 0 -16 -6 -21 -24 -21 -14 0 -28 5
-31 10 -4 6 -10 8 -15 5 -12 -7 -50 89 -61 153 -14 85 -12 122 6 122 23 0 35
-42 29 -97 -4 -36 -2 -53 11 -68 14 -17 16 -17 11 -2 -16 47 -16 49 4 14 27
-49 38 -41 16 13 -9 23 -12 39 -7 36 12 -8 23 41 15 67 -10 34 -45 67 -72 67
-14 0 -22 5 -20 13 16 45 94 -12 104 -75 4 -21 10 -38 15 -38 15 0 10 88 -8
125 -17 35 -27 40 -71 36 -12 -1 -22 2 -22 7 0 17 38 130 54 161 18 34 20 51
7 51 -11 0 -81 -176 -81 -203 0 -9 -11 -23 -25 -29 -39 -17 -69 -90 -61 -146
10 -76 34 -137 66 -167 36 -35 37 -33 5 29 -18 36 -25 65 -25 107 0 82 16 82
23 0 8 -76 22 -124 49 -163 20 -30 22 -38 8 -38 -23 0 -168 142 -206 203 -21
32 -44 49 -44 31 0 -25 153 -191 218 -235 18 -12 20 -18 9 -22 -18 -7 -82 24
-67 33 14 9 -27 42 -140 116 -47 31 -94 65 -106 75 -19 18 -55 18 -54 0 1 -3
43 -32 95 -65 52 -32 95 -60 95 -63 0 -10 -46 12 -122 58 -75 46 -99 55 -84
30 4 -6 35 -27 69 -46 l62 -37 -62 5 -63 5 0 -59 0 -59 98 0 c221 -1 342 -19
372 -56 15 -17 34 -19 24 -2 -4 7 -3 8 5 4 6 -4 9 -11 6 -16 -6 -10 102 -81
186 -120 66 -30 67 -32 74 -78 4 -26 22 -87 41 -135 l34 -88 -65 -108 c-36
-59 -65 -113 -65 -119 0 -15 58 -45 75 -38 12 4 58 93 101 193 8 18 19 33 24
33 6 0 10 9 10 20 0 14 68 172 85 198 1 1 44 -9 96 -22 155 -41 497 -96 602
-96 20 0 37 -2 37 -4 0 -3 -14 -44 -30 -93 -16 -48 -30 -89 -30 -90 0 -2 9 -3
20 -3 14 0 20 7 20 21 0 12 8 52 17 91 l17 69 80 -7 c84 -7 99 -11 92 -22 -2
-4 -11 -47 -20 -97 -9 -50 -19 -102 -22 -118 -5 -23 -3 -27 15 -27 18 0 21 6
21 37 0 20 5 76 11 125 l12 88 43 0 c50 0 50 1 29 -85 -19 -79 -19 -94 3 -91
14 2 17 16 20 84 l3 82 76 0 76 0 -6 -129 c-7 -123 -6 -129 12 -124 18 4 18
13 14 127 l-6 122 42 -4 c46 -5 49 -13 32 -99 -9 -47 -7 -53 17 -46 15 3 16
14 12 74 l-5 70 65 -3 65 -3 -3 -118 c-3 -118 -3 -118 20 -115 16 2 22 9 21
23 -2 11 -5 47 -8 80 -3 33 -11 90 -17 128 -10 57 -14 67 -32 68 -18 1 -18 2
4 9 18 6 7 8 -42 9 l-68 1 0 -37 c0 -20 -3 -33 -6 -30 -4 3 -7 30 -7 59 1 29
-2 45 -4 34 -4 -15 -11 -17 -39 -13 -30 5 -34 3 -36 -16 -2 -41 -3 -46 -11
-53 -4 -4 -7 11 -7 34 l0 42 -75 0 c-55 0 -75 -3 -74 -12 1 -7 1 -26 0 -43 -1
-23 -3 -27 -11 -15 -9 14 -7 51 7 124 5 25 3 27 -10 15 -8 -8 -13 -18 -10 -23
3 -4 -1 -12 -8 -17 -10 -6 -11 -9 -1 -9 6 0 12 -4 12 -10 0 -5 -15 -10 -32 -9
-18 0 -27 3 -20 6 16 6 15 23 -2 23 -9 0 -16 -17 -21 -50 -4 -28 -11 -48 -16
-45 -5 3 -6 26 -2 50 5 41 4 45 -15 45 -14 0 -20 5 -16 14 3 8 13 12 25 9 10
-3 19 0 19 6 0 6 -7 11 -15 11 -9 0 -12 6 -9 15 4 8 12 15 20 15 8 0 14 9 14
21 0 35 32 79 58 79 13 0 21 -4 18 -9 -4 -5 -2 -11 4 -13 6 -2 6 -15 2 -33 -5
-16 -11 -29 -15 -27 -20 7 -57 0 -57 -10 0 -8 14 -13 37 -12 38 1 38 1 47 52
l9 52 68 0 c67 0 68 -1 60 -22 -4 -13 -7 -31 -6 -40 3 -16 -5 -18 -61 -18 -36
0 -64 -4 -64 -10 0 -5 23 -10 51 -10 41 0 50 -3 45 -15 -3 -8 -9 -22 -12 -30
-3 -8 -1 -15 5 -15 6 0 11 5 11 11 0 5 10 9 23 7 24 -3 23 -7 26 95 1 44 3 47
27 47 23 0 25 -3 20 -26 -5 -17 -3 -23 4 -19 5 3 10 15 10 26 0 10 7 19 15 19
8 0 15 8 15 19 0 15 -6 18 -32 15 -17 -2 -34 -7 -37 -12 -3 -4 -15 -8 -26 -10
-18 -2 -17 0 5 19 20 17 21 19 5 13 -11 -4 -41 -8 -67 -8 -41 0 -45 -2 -35
-16 7 -9 3 -8 -10 3 -20 18 -22 18 -32 0 -9 -16 -10 -15 -7 7 3 25 4 25 116
27 105 2 114 0 131 -20 12 -16 14 -24 6 -29 -7 -4 14 -8 45 -8 31 0 59 -4 62
-9 3 -5 3 -23 0 -40 -6 -30 -8 -31 -60 -31 -49 0 -64 -7 -48 -22 3 -3 21 -2
40 2 18 4 34 6 34 4 0 -3 -9 -23 -21 -46 -16 -32 -23 -38 -31 -27 -8 11 -9 10
-4 -4 3 -10 6 -21 6 -23 0 -2 5 -4 10 -4 6 0 20 22 32 50 23 53 55 71 44 25
-4 -14 -2 -25 4 -25 5 0 9 26 9 60 -1 41 4 64 14 75 26 25 39 18 33 -18 l-6
-32 17 33 c22 43 35 41 31 -5 -3 -35 -6 -38 -37 -40 -37 -3 -54 -13 -34 -20
10 -3 10 -10 2 -25 -14 -25 -3 -68 16 -68 8 0 15 5 15 10 0 6 -7 10 -15 10
-17 0 -20 16 -5 25 6 3 10 15 10 26 0 13 7 19 23 19 19 0 22 -5 23 -40 1 -28
-3 -40 -15 -43 -14 -4 -13 -5 2 -6 10 -1 17 -9 17 -21 0 -18 -4 -20 -35 -14
-23 4 -35 2 -35 -5 0 -6 14 -11 31 -11 19 0 28 -4 23 -11 -3 -6 -17 -8 -30 -5
-21 6 -24 3 -24 -19 0 -18 7 -26 24 -31 14 -3 30 -3 37 2 9 5 11 -10 7 -64 -4
-56 -2 -72 9 -76 25 -10 26 -8 19 64 l-6 71 77 -3 78 -3 5 -105 c4 -89 8 -105
23 -108 21 -4 21 7 2 113 -20 111 -21 105 30 105 l44 0 3 -67 c3 -62 5 -68 23
-65 11 2 21 5 22 6 1 1 -6 30 -16 64 l-19 62 69 0 c47 0 71 -4 74 -13 3 -6 11
-52 18 -102 11 -81 15 -90 34 -93 22 -3 22 -3 7 45 -21 65 -42 153 -37 153 2
0 -3 10 -11 23 -7 12 -17 51 -21 87 -3 36 -12 93 -20 128 -7 34 -9 62 -4 62 5
0 9 6 9 14 0 8 8 13 18 12 9 0 16 5 15 12 -2 6 2 12 7 12 14 0 12 -10 -5 -44
-8 -15 -13 -32 -10 -36 3 -5 1 -11 -5 -15 -5 -3 -10 -16 -10 -28 0 -12 4 -17
8 -12 8 11 57 13 68 3 3 -4 8 -23 11 -42 5 -35 4 -36 -22 -26 -17 7 -24 7 -20
0 9 -14 -9 -12 -23 2 -9 9 -12 8 -12 -5 0 -14 9 -17 45 -17 43 0 45 -1 35 -20
-6 -12 -21 -20 -35 -20 -14 0 -25 -4 -25 -9 0 -15 30 -22 49 -11 20 10 31 4
31 -17 0 -17 -57 -18 -63 0 -2 6 -8 9 -12 5 -5 -5 -3 -20 4 -34 10 -22 17 -25
49 -22 35 3 37 1 40 -27 6 -77 13 -95 32 -95 11 0 20 2 20 4 0 3 -13 42 -29
88 -16 46 -32 106 -37 133 -4 28 -8 52 -9 55 -6 23 -18 96 -17 102 1 4 -3 19
-8 33 -5 14 -12 40 -14 58 l-5 32 15 -32 c13 -30 18 -33 59 -33 47 0 48 -1 59
-52 6 -26 6 -26 -44 -23 -27 2 -50 0 -50 -6 0 -5 11 -9 25 -9 30 0 29 1 9 -50
-24 -59 -11 -59 17 0 15 32 30 50 41 50 10 0 18 -3 18 -7 -2 -20 -36 -78 -47
-78 -6 0 -15 -4 -20 -9 -5 -5 -3 -6 5 -2 17 10 15 -19 -3 -34 -28 -23 -15 -31
42 -29 49 2 58 0 61 -15 3 -15 -3 -17 -52 -13 -42 3 -56 1 -56 -9 0 -22 40
-37 86 -31 43 4 44 4 53 -32 5 -20 15 -64 21 -98 9 -45 17 -63 31 -66 22 -6
32 2 20 17 -4 6 -11 20 -14 31 -3 11 -20 58 -37 105 -17 47 -37 113 -45 146
-7 34 -23 92 -34 129 -18 57 -19 69 -7 81 24 24 33 16 32 -26 0 -22 -4 -40 -8
-40 -5 0 -8 -6 -8 -14 0 -10 10 -14 32 -13 44 3 53 -29 11 -36 -28 -4 -28 -4
3 -6 43 -2 55 -31 13 -31 -17 0 -28 -4 -24 -10 3 -5 13 -6 22 -3 9 4 21 -1 29
-12 15 -21 18 -36 7 -34 -19 3 -57 -3 -46 -7 7 -3 9 -12 6 -20 -3 -8 2 -26 12
-40 12 -19 23 -25 41 -21 26 5 29 -1 39 -75 5 -34 12 -48 26 -51 20 -5 35 8
20 17 -5 4 -17 30 -27 59 -9 28 -20 57 -24 62 -8 10 -34 104 -44 155 -2 14 -7
32 -11 41 -5 13 2 16 35 17 22 1 40 0 40 -2 0 -9 -33 -66 -41 -71 -5 -4 -7
-10 -4 -15 6 -10 43 -2 51 11 3 5 -2 6 -10 3 -9 -3 -16 -1 -16 5 0 7 6 14 14
17 8 3 17 16 20 30 5 17 13 24 32 24 l25 0 -28 -51 c-15 -28 -38 -61 -50 -75
-12 -13 -19 -24 -15 -25 4 0 35 0 70 1 38 1 62 -3 62 -9 0 -6 -12 -11 -27 -12
-25 0 -26 -1 -8 -9 19 -8 19 -9 -2 -9 -12 -1 -24 5 -26 12 -4 9 -8 8 -16 -3
-9 -13 -14 -13 -32 -2 -19 12 -20 12 -14 -10 11 -34 24 -39 89 -36 l60 3 20
-100 c19 -89 24 -100 44 -103 12 -2 22 -2 22 0 0 2 -16 48 -35 102 -19 55 -34
100 -32 101 1 1 21 0 44 -3 l42 -4 12 -60 c11 -53 30 -81 45 -65 3 3 -4 32
-15 64 -12 33 -21 62 -21 66 0 4 31 7 68 7 l68 0 34 -105 c26 -82 38 -105 52
-105 16 0 15 5 -8 58 -14 31 -32 73 -39 92 -7 19 -22 54 -34 76 -31 59 -37
107 -16 127 14 15 15 17 1 17 -9 0 -16 -8 -17 -17 0 -11 -7 -4 -15 16 -21 46
-12 61 34 61 36 0 39 -3 50 -36 10 -34 9 -39 -19 -66 -33 -34 -35 -38 -14 -38
8 0 15 5 15 10 0 6 8 20 18 31 18 19 19 19 30 -20 16 -53 16 -67 -2 -52 -11 9
-15 9 -19 -1 -4 -11 -8 -11 -27 0 -19 12 -21 11 -18 -5 2 -13 16 -20 48 -24
l45 -6 -40 -3 -40 -3 49 -6 50 -6 14 -62 c12 -49 19 -63 34 -63 24 0 23 11 -7
70 -29 58 -32 80 -7 80 15 0 15 -2 2 -11 -11 -7 0 -9 39 -7 l55 2 40 -102 c36
-90 43 -102 64 -102 24 0 24 1 8 22 -9 13 -31 53 -49 89 -18 36 -43 81 -54
100 -11 19 -24 45 -28 59 -4 14 -27 69 -51 123 -49 109 -51 115 -27 96 15 -13
15 -12 4 9 -11 21 -10 22 19 22 27 0 30 -2 24 -25 -4 -15 -2 -25 4 -25 6 0 12
10 14 23 3 20 5 20 21 -10 22 -40 21 -43 -3 -43 -11 0 -20 5 -20 10 0 7 -6 7
-20 0 -32 -17 -23 -27 22 -26 40 1 44 -2 66 -41 l23 -43 -25 -27 c-14 -15 -26
-23 -26 -16 0 6 -7 13 -15 17 -19 7 -19 1 1 -18 11 -12 20 -13 33 -6 10 5 22
6 26 2 5 -4 5 1 2 10 -13 36 9 24 25 -13 l17 -39 -42 1 -42 2 35 7 35 8 -41
-1 c-41 -1 -42 -1 -32 -29 9 -25 14 -28 57 -28 52 0 46 6 95 -113 11 -26 21
-37 36 -37 22 0 21 1 -6 48 -15 26 -33 56 -41 67 -23 34 -15 40 52 40 l65 0
26 -55 c14 -30 35 -79 46 -107 17 -47 23 -53 48 -53 l29 0 -23 25 c-12 13 -42
60 -64 104 -23 44 -53 97 -67 117 -14 20 -25 42 -25 47 0 6 -21 55 -46 109
-25 53 -43 102 -39 108 3 5 15 10 26 10 17 0 18 -3 9 -20 -6 -11 -8 -31 -4
-45 5 -21 12 -25 45 -25 33 0 41 -4 55 -32 11 -22 13 -33 5 -36 -6 -2 -11 -8
-11 -14 0 -6 -7 -16 -17 -23 -9 -7 -13 -17 -9 -23 9 -15 46 -16 46 -1 0 5 -4
8 -8 5 -21 -13 -25 11 -5 33 l22 23 10 -23 c12 -30 22 -63 22 -68 -1 -12 -55
-11 -62 1 -13 20 -12 -8 1 -33 8 -14 21 -19 54 -19 l43 0 32 -70 c17 -39 31
-75 31 -80 0 -6 12 -10 27 -10 24 0 25 2 12 18 -8 9 -20 28 -27 41 -8 13 -23
40 -34 60 -11 20 -29 47 -39 60 -11 13 -19 28 -19 32 0 5 -32 73 -70 151 -39
77 -68 143 -65 146 3 3 5 -1 5 -9 0 -9 3 -10 8 -3 4 6 51 14 105 17 91 5 98 4
108 -15 10 -19 9 -20 -7 -12 -20 9 -183 16 -196 8 -4 -3 -4 -12 -1 -20 5 -13
22 -15 100 -12 73 3 92 1 88 -9 -3 -7 -8 -20 -11 -28 -10 -26 12 -16 24 10 15
33 23 31 50 -10 21 -33 20 -37 -8 -37 -3 -1 -17 2 -32 6 -21 5 -28 3 -28 -9 0
-12 12 -15 53 -15 48 0 55 -3 66 -26 9 -21 8 -31 -6 -55 -10 -16 -21 -29 -25
-29 -4 0 -8 -5 -8 -11 0 -7 17 -8 49 -4 30 4 52 2 56 -4 3 -6 0 -11 -7 -11 -9
0 -9 -3 2 -10 9 -6 10 -10 3 -10 -6 0 -15 5 -18 10 -3 6 -11 10 -16 10 -6 0
-7 -4 -4 -10 3 -5 1 -10 -4 -10 -6 0 -11 4 -11 8 0 5 -7 9 -15 9 -19 0 -19 -7
1 -35 13 -19 23 -22 62 -20 l47 3 40 -77 c33 -64 44 -78 64 -78 22 0 23 1 8
22 -9 13 -33 48 -54 78 -20 30 -46 63 -57 73 -20 17 -33 58 -18 56 17 -3 32 2
32 10 0 11 -33 9 -41 -3 -4 -5 -12 2 -19 15 -14 26 -68 111 -110 174 -39 58
-42 65 -32 65 5 0 15 -12 22 -26 14 -24 16 -25 92 -20 43 2 80 1 83 -4 3 -5
16 -6 28 -1 31 11 565 12 572 0 9 -14 25 -11 25 5 0 8 -13 19 -29 24 -16 6
-47 27 -69 46 -22 20 -42 33 -44 29 -3 -4 -3 -2 -2 5 2 7 -11 38 -29 70 -26
47 -37 58 -61 60 -26 3 -28 1 -17 -12 8 -9 19 -16 25 -16 11 0 41 -39 34 -45
-2 -1 -18 0 -35 2 -26 4 -33 10 -33 27 0 36 -24 60 -188 183 -246 186 -505
384 -528 405 -18 16 -22 34 -27 131 -7 128 -45 338 -83 470 -5 15 2 17 46 17
28 0 49 4 46 9 -8 12 -88 20 -268 27 -127 4 -158 3 -158 -8 0 -11 -2 -10 -9 0
-9 15 -17 15 -43 1 -11 -6 -18 -5 -22 4 -5 9 -7 9 -12 0 -4 -9 -27 -11 -82 -6
-43 3 -94 1 -114 -5 -22 -6 -38 -7 -38 -1 0 16 -28 9 -33 -8 -4 -17 -5 -17 -6
0 0 9 -9 17 -18 17 -25 0 -74 31 -117 74 -28 29 -36 33 -36 19z m11 -45 c-19
-7 -22 -14 -19 -45 3 -35 -13 -56 -27 -34 -3 6 -2 11 3 11 5 0 9 7 9 15 0 18
-11 19 -39 4 -16 -9 -18 -13 -7 -20 7 -4 11 -10 9 -13 -3 -2 -13 1 -22 8 -16
12 -12 17 40 54 31 22 61 38 66 34 5 -3 -1 -9 -13 -14z m64 -18 c10 -11 15
-23 12 -27 -4 -3 -7 -1 -7 5 0 18 -14 15 -40 -8 -21 -18 -21 -20 -4 -21 17 0
17 -1 2 -7 -12 -5 -15 -11 -8 -21 6 -10 12 -12 22 -5 7 6 23 11 36 12 25 1 28
-14 13 -81 -5 -23 -17 -98 -26 -167 -29 -215 -34 -228 -32 -93 1 66 -1 116 -5
110 -6 -10 -9 -123 -10 -414 -1 -18 -4 -33 -9 -33 -5 0 -8 164 -8 365 0 279 2
364 12 362 6 -1 13 8 15 21 4 27 14 28 37 2z m-55 0 c0 -5 -5 -10 -11 -10 -5
0 -7 5 -4 10 3 6 8 10 11 10 2 0 4 -4 4 -10z m-153 -46 c-3 -3 -12 -4 -19 -1
-8 3 -5 6 6 6 11 1 17 -2 13 -5z m253 -2 c0 -4 -14 -9 -31 -10 -19 -2 -28 2
-24 8 7 12 55 14 55 2z m33 1 c-7 -2 -13 -9 -13 -15 0 -7 22 -9 66 -4 65 7 66
7 58 -16 -8 -26 -13 -46 -45 -173 l-23 -90 -19 85 c-30 134 -38 162 -44 157
-3 -3 0 -29 7 -57 7 -28 10 -60 7 -70 -3 -11 -2 -20 2 -20 12 0 31 -79 31
-129 0 -44 -14 -96 -30 -111 -3 -3 -6 -16 -7 -30 -4 -40 -26 -130 -32 -130 -3
0 -22 -14 -41 -31 -21 -19 -27 -29 -16 -25 16 5 17 4 6 -9 -18 -21 -30 -19
-25 6 2 12 5 40 6 63 1 57 19 147 27 142 4 -2 5 16 3 41 -2 30 0 43 7 39 6 -3
14 -1 18 5 4 8 3 9 -4 5 -14 -8 -16 35 -5 97 4 26 10 36 19 33 8 -3 14 -1 14
4 0 6 -5 10 -10 10 -12 0 -6 83 12 165 13 59 16 65 31 64 9 0 9 -2 0 -6z m606
-11 c77 3 103 -5 64 -19 -10 -4 -29 -15 -42 -25 -19 -15 -26 -16 -34 -6 -6 9
-7 8 -3 -4 3 -10 -2 -22 -12 -28 -14 -8 -14 -11 -3 -19 10 -6 10 -10 1 -16 -7
-4 -16 -2 -21 6 -6 10 -8 7 -6 -9 2 -28 3 -28 45 9 27 24 37 28 44 17 8 -10 9
-9 5 3 -3 9 7 27 24 43 30 29 31 28 43 -27 5 -19 3 -26 -6 -25 -13 3 -13 -4
-7 -91 2 -31 4 -32 16 -15 14 20 18 38 5 30 -4 -3 -9 11 -9 30 -1 19 2 34 6
34 8 0 9 -1 15 -80 2 -30 5 -56 5 -57 1 -2 1 -6 2 -10 0 -5 5 -13 9 -18 15
-18 15 -92 -1 -111 -9 -12 -10 -15 -1 -10 10 6 11 1 6 -18 -5 -20 -2 -26 10
-26 11 0 16 -9 16 -29 0 -39 -20 -51 -21 -14 -2 24 -2 25 -6 5 -3 -13 1 -30 7
-37 7 -8 10 -21 7 -29 -4 -10 -1 -13 7 -10 9 3 12 -3 9 -23 -3 -25 7 -36 104
-111 213 -163 392 -298 506 -382 63 -47 116 -88 116 -91 2 -11 -44 -4 -54 9
-8 9 -13 8 -23 -9 -8 -12 -9 -18 -3 -14 15 9 14 -48 -1 -63 -9 -9 -9 -12 0
-12 16 0 15 -47 0 -54 -10 -5 -10 -7 0 -12 6 -3 12 -14 12 -25 0 -17 -8 -19
-102 -19 -57 -1 -156 -2 -221 -3 -91 -2 -117 1 -117 11 0 11 25 13 113 12 165
-2 207 -1 207 8 0 4 -20 6 -45 4 -35 -3 -45 -1 -45 11 0 11 10 14 40 11 22 -2
40 1 40 6 0 6 -18 10 -39 10 -22 0 -42 5 -44 13 -4 9 -7 9 -14 0 -12 -16 -921
-17 -940 -1 -9 7 -13 7 -13 -1 0 -16 -226 -15 -234 2 -5 9 -7 9 -12 0 -4 -9
-28 -13 -70 -13 l-64 0 0 55 c0 45 7 69 38 125 l37 70 57 0 c32 0 129 -9 215
-20 87 -11 172 -21 188 -23 17 -2 86 -14 153 -27 97 -19 119 -26 110 -37 -16
-20 -105 -68 -182 -99 -39 -15 -64 -30 -57 -32 28 -9 229 92 258 130 45 59
128 496 100 524 -10 10 -18 0 -20 -24 0 -11 -5 -18 -9 -16 -5 3 -6 9 -4 13 3
4 -2 8 -10 8 -10 0 -6 -10 13 -30 17 -18 22 -28 12 -24 -25 8 -38 -30 -29 -88
9 -56 8 -60 -14 -134 -9 -30 -13 -57 -10 -62 3 -5 2 -9 -3 -9 -4 0 -9 -17 -9
-37 -2 -63 -23 -108 -41 -89 -4 4 -1 11 7 16 13 8 12 10 -2 10 -9 0 -18 -5
-20 -11 -2 -7 -18 -7 -51 1 -28 7 -44 17 -40 23 4 6 -2 8 -15 5 -18 -5 -22 -2
-22 19 0 18 4 24 15 19 12 -4 13 -2 6 13 -12 21 -5 32 15 24 10 -4 12 0 8 11
-11 29 -29 16 -49 -37 -13 -32 -26 -51 -35 -51 -8 1 -42 7 -76 14 l-60 12 6
49 c4 27 3 49 -1 49 -4 0 -9 -21 -11 -47 l-3 -48 -69 3 c-38 1 -73 5 -78 8
-17 11 10 27 44 27 18 -1 26 2 18 5 -8 3 -19 10 -23 16 -6 8 -10 7 -14 -3 -4
-10 -7 -10 -13 -1 -4 7 -1 35 6 64 8 28 17 102 21 165 4 76 9 107 14 93 5 -12
12 -22 17 -22 16 0 34 28 29 47 -3 14 -6 12 -11 -9 -11 -38 -20 -35 -34 8 -7
24 -8 44 -1 62 8 19 6 29 -6 41 -10 10 -15 11 -15 3 0 -7 5 -12 10 -12 7 0 7
-6 2 -17 -5 -10 -10 -58 -11 -108 -2 -97 -23 -248 -43 -311 l-13 -39 -68 0
c-38 0 -71 3 -73 7 -3 4 -18 5 -34 1 -33 -6 -39 6 -15 31 8 8 15 21 15 28 0 8
4 18 9 23 5 6 33 55 62 110 43 83 126 237 176 330 6 11 17 34 24 50 8 17 20
36 27 43 11 12 16 37 10 45 -2 2 9 15 25 31 15 15 25 31 22 36 -3 5 -1 11 4
15 12 7 25 -74 17 -112 -3 -15 -2 -72 2 -125 4 -54 4 -108 -1 -120 -15 -39
-16 -58 -5 -58 7 0 6 -6 -2 -15 -8 -10 -11 -35 -8 -73 5 -53 -2 -96 -22 -133
-6 -12 -3 -15 11 -14 10 1 22 5 26 10 5 4 2 5 -4 1 -17 -10 -16 10 1 37 17 26
32 212 16 202 -6 -3 -10 -2 -10 4 0 5 5 13 10 16 6 4 10 28 9 53 -1 26 2 62 6
81 6 24 5 32 -3 27 -7 -4 -9 6 -8 29 2 19 0 33 -3 30 -4 -2 -7 31 -6 73 l0 77
78 63 c42 35 81 61 85 58 5 -3 9 -28 11 -56 1 -28 6 -61 11 -73 8 -17 9 -12 8
25 -1 26 1 50 5 54 11 11 8 26 -3 19 -5 -3 -10 3 -10 13 0 24 -25 48 -35 32
-3 -5 -12 -10 -18 -10 -7 0 -1 9 12 19 16 12 20 21 12 25 -6 4 -11 4 -11 -1 0
-12 -71 -66 -87 -66 -7 0 -11 -3 -8 -5 6 -7 -35 -52 -47 -52 -5 0 7 28 26 63
20 34 50 92 68 129 18 37 35 62 39 57 4 -6 39 -9 88 -7z m-1012 2 c-3 -3 -12
-4 -19 -1 -8 3 -5 6 6 6 11 1 17 -2 13 -5z m893 -6 c0 -4 -5 -8 -11 -8 -5 0
-7 -5 -4 -10 4 -6 2 -16 -3 -23 -6 -7 -29 -49 -52 -94 -23 -46 -46 -83 -51
-83 -5 0 -8 -3 -8 -7 4 -27 -5 -43 -36 -64 -19 -13 -35 -28 -35 -33 0 -5 9 -1
20 9 11 10 20 13 20 7 0 -16 -43 -44 -50 -32 -3 5 -11 5 -20 -1 -13 -7 -13
-10 -1 -18 8 -5 10 -11 3 -15 -17 -10 -34 62 -21 87 8 14 8 18 0 13 -7 -5 -11
2 -12 16 0 21 -1 21 -8 3 -4 -10 -3 -39 2 -64 l9 -44 -48 -43 c-27 -24 -52
-43 -56 -44 -3 0 -19 -12 -35 -27 -16 -16 -46 -41 -65 -58 -20 -16 -32 -33
-27 -36 6 -3 3 -11 -6 -19 -13 -11 -15 -10 -12 8 2 12 6 25 10 28 4 4 7 18 7
30 0 25 27 134 35 142 5 5 9 -57 6 -90 -1 -10 3 -18 9 -18 7 0 10 7 6 15 -3 8
0 15 7 15 7 0 8 3 2 8 -15 10 -27 164 -12 155 4 -2 7 2 7 9 0 7 11 54 25 103
13 50 29 110 35 133 8 31 15 42 26 38 8 -3 14 -1 14 5 0 6 32 9 80 8 45 -1 83
1 86 3 8 9 164 5 164 -4z m-800 -9 c0 -5 -5 -9 -10 -9 -6 0 -28 -12 -50 -26
-43 -29 -52 -27 -54 8 -1 19 5 24 34 28 60 9 80 8 80 -1z m50 -261 c0 -149 3
-269 6 -265 4 3 6 115 6 249 0 138 3 232 8 218 l8 -25 1 26 c1 14 -4 30 -11
37 -17 17 -7 21 38 15 l42 -5 0 -97 c1 -53 3 -203 5 -333 3 -132 1 -238 -4
-238 -5 0 -9 34 -9 77 0 108 -8 87 -11 -30 -2 -53 -6 -97 -9 -97 -4 0 -5 -12
-3 -27 2 -16 -5 -62 -16 -103 l-20 -75 5 60 c3 33 8 68 11 79 3 11 1 16 -5 12
-5 -3 -13 -44 -17 -91 -4 -47 -11 -98 -15 -113 -11 -37 -11 -21 0 77 5 46 12
121 16 165 3 45 12 115 19 156 l13 75 -5 -75 c-3 -41 -8 -99 -12 -127 -5 -29
-4 -53 1 -53 4 0 8 3 9 8 0 4 2 30 4 57 2 28 6 83 10 123 4 39 3 72 -2 72 -5
0 -7 18 -5 40 2 22 7 40 11 40 4 0 5 -16 3 -35 -2 -20 0 -35 6 -35 6 0 12 38
14 95 2 52 0 95 -4 95 -3 0 -4 26 -3 58 3 40 2 48 -4 27 l-7 -30 -6 35 c-4 19
-11 51 -16 70 -8 29 -10 31 -11 10 0 -14 3 -41 9 -60 5 -19 11 -48 14 -65 8
-43 -50 -495 -63 -495 -4 0 -17 -9 -30 -21 -27 -25 -32 -22 -38 28 -8 60 -17
54 -10 -6 6 -47 4 -57 -15 -73 -26 -23 -31 -18 -18 16 5 15 9 55 9 89 l-2 62
-9 -60 c-6 -33 -11 -77 -12 -98 0 -22 -5 -36 -12 -33 -6 2 -10 -6 -9 -17 1
-12 -2 -28 -8 -35 -5 -7 -7 -16 -3 -19 4 -4 11 -2 15 6 5 8 12 -6 18 -38 8
-41 7 -51 -3 -51 -16 0 -37 37 -29 50 3 6 2 10 -3 10 -17 0 -21 38 -4 45 8 3
12 8 9 12 -4 3 -13 0 -22 -7 -12 -10 -15 -10 -15 3 0 8 -9 32 -19 54 -11 21
-28 61 -38 88 -10 28 -19 43 -21 34 -2 -9 9 -43 23 -75 60 -133 61 -113 -10
-172 -69 -57 -81 -63 -65 -32 7 14 7 20 0 20 -5 0 -10 -6 -10 -14 0 -17 -5
-21 -43 -30 -22 -5 -27 -4 -21 6 6 10 5 10 -7 2 -17 -14 -109 -25 -109 -14 0
5 6 10 13 13 6 2 9 8 4 13 -4 4 -15 -2 -23 -15 -12 -17 -22 -21 -41 -16 -18 4
-23 2 -17 -6 5 -9 2 -10 -9 -6 -9 3 -23 0 -31 -9 -9 -9 -17 -10 -21 -4 -9 14
43 63 60 56 8 -3 15 -1 15 4 0 6 -15 11 -32 11 -18 1 -25 3 -15 6 18 5 24 33
7 33 -18 0 -11 24 16 55 15 17 23 22 20 13 -3 -10 -1 -18 4 -18 14 0 13 37 -1
46 -6 3 -15 1 -19 -6 -5 -7 -9 0 -12 19 -5 32 5 42 16 16 3 -8 11 -15 18 -15
11 0 11 2 0 8 -7 5 -16 26 -19 47 -5 31 -3 37 8 30 11 -6 12 -5 1 6 -25 27
-42 -11 -52 -124 -13 -137 -31 -188 -89 -256 -70 -82 -172 -166 -182 -149 -6
8 -12 9 -16 3 -5 -5 -47 -10 -96 -10 -54 0 -86 4 -84 10 2 6 16 47 32 93 15
46 29 81 31 79 2 -2 -7 -37 -21 -77 -25 -73 -30 -99 -19 -88 3 4 61 169 128
369 l123 362 89 63 c49 35 92 63 97 64 4 0 7 -39 7 -87 0 -128 11 -253 22
-247 5 3 7 12 4 19 -3 9 2 11 17 7 22 -5 22 -5 3 16 -11 12 -16 22 -12 22 4 0
4 5 1 11 -10 15 -12 149 -3 149 5 0 8 7 8 16 0 8 -4 13 -9 10 -5 -3 -11 9 -15
27 -5 24 -2 35 11 46 16 12 16 13 1 8 -32 -11 -28 11 5 32 17 11 55 37 82 56
77 54 157 106 171 112 12 5 27 -39 29 -88 0 -15 6 -33 12 -41 7 -7 16 -32 22
-53 5 -22 17 -67 25 -99 9 -33 14 -66 12 -73 -3 -7 0 -12 5 -10 15 3 49 -161
35 -166 -6 -2 -11 -19 -12 -37 -1 -27 0 -30 8 -16 5 9 7 24 4 32 -3 8 -1 14 3
14 12 0 21 -27 15 -44 -3 -7 2 -16 10 -19 9 -4 16 -5 16 -4 0 12 -29 138 -34
145 -7 11 -19 77 -20 109 -1 11 -4 19 -8 17 -4 -3 -10 8 -14 23 -3 15 -17 69
-29 118 -13 50 -26 104 -28 120 -3 17 -10 43 -16 58 -6 16 -11 30 -11 31 0 1
26 20 58 42 31 21 63 45 70 51 19 18 22 16 21 -9 0 -13 4 -59 10 -103 6 -44
14 -104 18 -133 4 -35 9 -49 15 -40 5 8 6 -3 3 -27 -4 -22 -2 -71 4 -108 6
-46 6 -78 0 -95 -8 -20 -7 -29 4 -37 8 -6 17 -19 20 -30 3 -11 2 30 -1 90 -4
61 -7 125 -7 143 0 17 -4 32 -8 32 -5 0 -6 4 -2 10 3 5 2 40 -2 77 -5 52 -8
62 -14 43 -6 -23 -7 -22 -8 8 -1 23 3 31 11 26 8 -5 9 -2 5 10 -4 10 -7 23 -8
29 0 7 -5 3 -10 -8 -6 -14 -7 -6 -3 28 3 30 1 47 -5 47 -6 0 -11 15 -11 34 0
31 6 39 68 80 37 25 70 46 75 46 4 0 7 -122 7 -272z m-180 232 c0 -10 3 -25 6
-34 7 -18 -69 -72 -87 -60 -8 4 -9 3 -5 -4 6 -10 -40 -50 -48 -41 -7 9 -34
134 -29 139 2 2 24 5 49 5 24 0 44 3 44 7 0 3 16 6 35 6 27 0 35 -4 35 -18z
m1090 -8 c0 -5 -15 -19 -32 -32 l-33 -23 29 31 c31 34 36 37 36 24z m-1556
-199 c9 -65 18 -126 19 -135 1 -11 -33 -41 -100 -88 -57 -39 -103 -67 -103
-63 0 12 20 39 20 28 1 -19 20 20 35 72 8 28 12 60 9 70 -4 14 -3 15 4 4 7
-10 13 -5 22 23 6 20 9 44 6 52 -3 8 -1 12 4 9 5 -3 20 28 32 70 13 41 26 75
29 75 3 0 13 -53 23 -117z m1395 64 c-67 -58 -105 -87 -114 -87 -11 0 49 53
88 77 15 10 27 21 27 25 0 4 6 8 13 8 6 0 0 -11 -14 -23z m-199 -202 c-10 -17
-25 -42 -32 -56 -7 -14 -19 -24 -27 -21 -9 3 -11 -1 -7 -14 8 -25 -81 -197
-96 -188 -7 4 -8 2 -4 -4 9 -15 -84 -193 -97 -185 -6 3 -7 1 -3 -5 7 -13 -23
-72 -36 -72 -4 0 -7 -3 -6 -7 3 -13 -24 -63 -34 -63 -4 0 -8 -10 -8 -22 -1
-13 -14 -48 -31 -78 l-30 -55 4 53 c4 53 -8 82 -16 40 -2 -13 -5 60 -6 160
l-1 184 48 44 c26 24 38 41 27 37 -18 -6 -18 -5 -6 10 17 21 31 22 31 2 0 -10
9 -6 29 13 58 54 83 72 92 66 5 -3 9 1 9 8 0 8 8 20 18 28 13 12 89 70 111 87
2 2 2 6 -1 9 -6 6 -27 -10 -102 -78 -42 -39 -56 -45 -56 -28 0 6 4 10 10 10 5
0 24 13 42 29 86 77 149 123 118 87 -9 -12 -8 -15 9 -13 11 0 18 4 15 8 -2 4
3 12 11 19 8 7 13 15 11 19 -3 4 4 7 14 7 19 0 19 -1 0 -31z m-473 -37 c-3 -7
-5 -2 -5 12 0 14 2 19 5 13 2 -7 2 -19 0 -25z m-866 -15 c-12 -20 -14 -14 -5
12 4 9 9 14 11 11 3 -2 0 -13 -6 -23z m1089 -118 c-7 -8 -17 -15 -23 -15 -5 0
-2 9 8 20 21 23 35 19 15 -5z m-1139 -32 c-8 -14 -11 -15 -11 -3 0 8 -8 -1
-16 -20 -8 -19 -12 -46 -9 -60 4 -16 3 -20 -3 -12 -6 9 -22 -24 -50 -105 -136
-394 -173 -498 -182 -507 -6 -6 -15 -5 -25 4 -12 10 -15 10 -15 0 0 -13 -207
-11 -592 6 l-147 7 37 26 c20 15 129 89 242 166 386 261 545 369 651 441 59
40 109 70 113 67 3 -4 6 0 6 7 0 7 3 11 6 7 3 -3 1 -14 -5 -24z m744 -63 c3
-5 1 -10 -4 -10 -6 0 -11 5 -11 10 0 6 2 10 4 10 3 0 8 -4 11 -10z m199 -97
c-13 -128 -27 -230 -34 -248 -4 -11 -18 -21 -29 -22 -18 -2 -21 2 -15 20 3 12
10 27 14 32 5 6 11 28 15 50 4 22 11 54 16 70 5 17 11 55 13 85 5 64 3 60 15
60 6 0 8 -21 5 -47z m937 18 c-8 -5 -11 -16 -8 -25 4 -9 2 -16 -3 -16 -11 0
-14 33 -3 43 3 4 11 7 17 7 6 0 5 -4 -3 -9z m-1977 -145 c-20 -59 -38 -105
-40 -103 -2 2 12 52 32 111 20 59 38 105 40 103 2 -2 -12 -52 -32 -111z m901
49 c-27 -25 -46 -45 -41 -45 4 0 24 14 43 31 19 16 36 29 38 27 3 -4 -14 -180
-20 -195 -11 -31 -23 -8 -29 57 -4 39 -12 70 -17 70 -5 0 -7 -10 -5 -22 3 -13
8 -44 11 -69 6 -45 5 -46 -19 -46 -25 0 -27 2 -41 62 -16 71 -16 71 24 99 21
15 49 38 61 51 13 14 28 25 34 25 6 -1 -11 -21 -39 -45z m-2739 -3 c6 -4 17
-18 24 -32 12 -25 12 -25 -6 -5 -11 11 -25 26 -33 33 -16 13 -3 17 15 4z m-88
-41 c-1 -16 -5 -28 -9 -26 -13 9 -41 -34 -35 -52 6 -14 5 -15 -5 -6 -13 13 -5
41 27 91 19 30 25 28 22 -7z m2968 -98 c-3 -54 -7 -149 -8 -211 -1 -62 -4
-115 -8 -117 -3 -2 -11 0 -18 4 -10 6 -9 16 3 44 21 50 19 58 -5 22 -11 -16
-20 -37 -20 -47 0 -22 -21 -28 -38 -11 -10 10 -12 27 -7 61 3 26 8 80 11 120
5 60 8 72 23 72 10 0 20 -2 23 -5 2 -3 -1 -42 -8 -87 -24 -153 -25 -162 -19
-156 5 5 45 216 49 263 6 64 19 145 24 145 2 0 2 -44 -2 -97z m-2881 37 c3 -5
1 -10 -4 -10 -6 0 -11 5 -11 10 0 6 2 10 4 10 3 0 8 -4 11 -10z m2601 -75 c-4
-11 -13 -14 -25 -10 -11 3 -22 1 -26 -5 -4 -6 -12 -7 -24 0 -12 6 -22 5 -29
-2 -7 -7 -12 -8 -11 -2 0 5 24 27 52 50 l52 41 9 -28 c5 -15 6 -35 2 -44z
m-2596 35 c0 -5 -4 -10 -10 -10 -5 0 -10 5 -10 10 0 6 5 10 10 10 6 0 10 -4
10 -10z m1771 -81 c-5 -13 -10 -19 -10 -12 -1 15 10 45 15 40 3 -2 0 -15 -5
-28z m962 -22 c5 -21 6 -68 2 -105 l-7 -67 -23 93 c-12 51 -26 96 -30 100 -7
6 0 -47 11 -86 3 -9 -7 7 -21 37 -14 29 -25 56 -25 60 0 3 19 6 42 6 41 0 43
-1 51 -38z m14 11 c-3 -7 -5 -2 -5 12 0 14 2 19 5 13 2 -7 2 -19 0 -25z m21
-63 c-5 -49 -10 -107 -11 -127 -3 -43 -17 -64 -17 -24 0 37 20 218 26 235 10
29 11 3 2 -84z m-138 74 c0 -5 20 -57 45 -113 25 -57 45 -109 45 -115 0 -8
-79 -11 -274 -10 -151 1 -279 -2 -285 -5 -6 -4 -11 -4 -10 1 0 4 44 43 97 86
112 89 184 152 162 141 -20 -10 -254 -200 -270 -219 -10 -12 -16 -13 -26 -4
-8 6 -14 8 -14 3 0 -5 -39 -9 -88 -9 l-87 0 96 97 c107 107 135 121 254 132
39 4 96 9 128 12 l58 5 -98 -80 c-108 -87 -186 -157 -163 -145 13 7 158 121
170 134 3 3 31 27 63 53 57 46 61 47 128 47 42 0 69 -4 69 -11z m-2832 -146
c3 -23 16 -22 -180 -14 -27 1 -38 6 -38 16 0 11 12 15 50 15 33 0 50 -4 50
-12 0 -10 3 -9 9 1 6 9 20 12 40 9 17 -2 31 -1 31 4 0 4 -16 8 -35 8 -31 0
-35 3 -35 25 l0 26 53 -29 c33 -18 53 -36 55 -49z m3099 30 c-3 -10 -5 -2 -5
17 0 19 2 27 5 18 2 -10 2 -26 0 -35z m-3277 19 c0 -11 -7 -18 -20 -18 -13 0
-20 7 -20 18 0 11 7 18 20 18 13 0 20 -7 20 -18z m60 -3 c0 -15 -5 -20 -22
-17 -31 4 -33 38 -2 38 18 0 24 -5 24 -21z m120 -1 c0 -13 -23 -5 -28 10 -2 7
2 10 12 6 9 -3 16 -11 16 -16z m50 -31 c0 -4 -9 -3 -20 3 -11 6 -20 15 -20 20
0 6 9 5 20 -2 11 -7 20 -16 20 -21z m402 9 c6 -8 8 -7 8 2 0 6 9 12 20 12 11
0 20 -6 21 -12 0 -10 2 -10 6 0 6 14 63 17 63 2 0 -6 8 -5 20 2 21 13 48 -1
37 -19 -9 -14 -300 -4 -309 11 -6 8 -8 7 -8 -1 0 -7 -9 -13 -20 -13 -13 0 -20
7 -20 18 0 17 8 18 88 14 49 -3 90 -9 94 -16z m4295 -25 c-6 -26 26 -51 68
-51 19 0 35 -3 35 -7 0 -5 3 -18 6 -31 6 -22 5 -23 -29 -17 -41 8 -77 -8 -77
-33 1 -16 2 -16 14 1 21 27 122 24 160 -6 l28 -23 -41 4 c-29 3 -41 9 -42 21
-1 14 -2 14 -6 -1 -4 -16 -17 -18 -94 -18 -82 0 -89 1 -89 20 0 16 7 20 35 20
19 0 35 5 35 10 0 7 -13 8 -35 4 -28 -5 -35 -3 -35 9 0 33 13 47 41 47 22 0
29 -5 29 -19 0 -11 5 -23 10 -26 15 -9 12 34 -3 49 -6 7 -26 12 -43 10 -28 -2
-31 1 -32 27 -1 27 2 29 35 29 30 0 35 -3 30 -19z m-4687 -6 l25 -14 -37 -1
c-27 0 -38 4 -38 15 0 19 17 19 50 0z m150 -4 c0 -5 -7 -12 -16 -15 -8 -3 -12
-10 -9 -16 3 -6 0 -7 -9 -4 -12 5 -13 11 -5 25 10 19 39 27 39 10z m35 -21
c-9 -16 -20 -30 -26 -30 -6 0 -5 9 3 23 7 12 11 25 10 30 -1 4 5 7 13 7 14 0
14 -3 0 -30z m248 21 c103 -1 138 -4 135 -13 -4 -12 -148 -15 -167 -3 -5 3
-12 1 -16 -5 -3 -6 4 -11 17 -11 18 -1 19 -2 5 -6 -10 -3 -24 1 -32 7 -8 6
-19 9 -26 5 -6 -4 -15 -1 -20 6 -6 9 -9 10 -9 2 0 -8 -9 -9 -27 -5 -39 10 -72
8 -75 -3 -6 -21 154 -83 272 -106 142 -27 201 -33 220 -21 27 16 35 15 20 -3
-7 -8 -10 -24 -7 -35 3 -11 3 -20 1 -20 -11 0 -240 52 -254 57 -17 7 -15 6
-91 27 -84 22 -189 73 -189 91 0 8 5 15 10 15 6 0 10 7 10 15 0 11 10 14 43
11 23 -2 104 -4 180 -5z m2604 -38 c-3 -10 -5 -4 -5 12 0 17 2 24 5 18 2 -7 2
-21 0 -30z m-2730 0 c-3 -5 27 -9 66 -10 48 -2 73 1 79 9 6 10 10 10 20 0 9
-9 9 -12 -5 -12 -11 0 -17 -8 -17 -21 0 -18 -4 -20 -27 -14 -16 4 -46 11 -68
15 -22 4 -56 14 -75 23 l-35 15 33 1 c18 1 31 -2 29 -6z m503 -20 c0 -5 -42
-7 -92 -7 l-93 1 85 -8 c47 -4 104 -8 128 -8 23 0 42 -5 42 -11 0 -7 -13 -9
-37 -5 -28 5 -34 4 -23 -4 8 -6 25 -11 37 -11 12 0 24 -6 26 -12 4 -10 7 -10
14 -1 5 7 26 11 53 8 25 -2 163 -9 308 -16 144 -7 262 -17 262 -21 0 -5 9 -4
19 2 29 15 214 13 208 -2 -3 -9 -34 -13 -109 -13 -77 0 -105 -3 -105 -12 0
-12 64 -19 120 -15 15 2 17 -3 11 -20 -21 -70 -18 -68 -94 -68 -49 0 -70 -4
-70 -12 0 -9 17 -12 60 -10 33 2 60 1 60 -2 0 -22 -36 -56 -59 -57 -18 -1 -11
-5 23 -13 46 -11 48 -13 32 -29 -10 -9 -13 -17 -7 -17 6 0 11 -4 11 -9 0 -6
-12 -6 -27 -2 -16 4 -34 6 -41 3 -18 -6 -62 6 -62 17 0 5 7 17 17 26 12 13 13
19 4 25 -7 4 -12 10 -12 14 4 32 -3 21 -15 -22 -19 -72 -38 -102 -29 -47 4 22
9 53 12 69 4 21 3 27 -5 22 -7 -4 -12 -1 -12 8 0 9 7 16 15 16 8 0 21 14 30
30 14 27 20 30 63 30 26 0 42 4 35 8 -11 7 -37 8 -80 3 -6 0 -15 -10 -18 -21
-5 -16 -12 -19 -28 -15 -18 5 -19 4 -7 -5 14 -10 -82 -8 -230 5 -25 2 -79 7
-120 10 -78 6 -191 19 -295 34 -69 10 -84 -1 -85 -56 0 -31 -15 -53 -22 -33
-2 6 -28 -37 -58 -95 -30 -58 -56 -102 -58 -97 -1 5 25 61 58 126 34 64 59
116 56 116 -3 0 -13 -14 -21 -31 -20 -37 -30 -33 -15 6 6 15 19 29 29 32 20 5
45 49 36 63 -3 4 11 25 30 45 20 20 33 40 30 45 -6 9 -51 16 -155 24 -41 2
-56 1 -40 -4 14 -4 50 -9 80 -10 30 -1 66 -6 80 -10 21 -7 18 -8 -20 -10 -42
-2 -43 -3 -15 -10 l30 -8 -30 -1 c-28 -1 -189 22 -243 34 -13 3 -22 11 -19 18
5 15 67 17 85 3 9 -6 16 -6 20 1 4 6 16 13 27 16 33 8 215 8 215 0z m2227 -25
c-3 -8 -6 -5 -6 6 -1 11 2 17 5 13 3 -3 4 -12 1 -19z m-1709 -14 c165 -5 202
-9 202 -21 0 -15 -123 -13 -420 8 -74 5 -154 9 -177 9 -25 -1 -43 4 -43 10 0
8 35 10 118 6 64 -3 208 -8 320 -12z m1593 -34 c5 0 9 8 9 17 0 9 2 14 5 11 4
-3 3 -18 -1 -33 -7 -26 -8 -27 -20 -10 -8 11 -13 28 -13 39 2 19 2 19 6 -1 2
-13 9 -23 14 -23z m1239 18 c0 -13 -32 -6 -37 9 -3 7 3 9 16 6 12 -3 21 -10
21 -15z m218 3 c2 -7 -31 -11 -102 -11 -78 0 -106 3 -106 13 0 16 203 14 208
-2z m-3973 -83 c23 -22 -110 45 -145 73 -14 11 11 1 55 -22 44 -22 85 -45 90
-51z m1353 75 c3 -10 -22 -13 -102 -13 -89 0 -106 3 -106 15 0 13 16 15 102
13 70 -2 103 -7 106 -15z m63 5 c0 -10 2 -10 6 0 7 18 173 17 173 -1 0 -11
-27 -14 -115 -16 -99 -2 -115 0 -115 13 0 19 50 22 51 4z m409 -3 c-10 -12
-36 -15 -116 -15 -88 0 -103 2 -98 15 5 12 28 15 116 15 97 0 109 -2 98 -15z
m44 3 c-6 -10 -4 -10 7 0 8 7 43 12 96 12 69 0 83 -3 83 -16 0 -13 -16 -15
-109 -13 -86 2 -108 5 -104 16 3 7 12 13 20 13 8 0 11 -5 7 -12z m416 -1 c0
-9 -28 -13 -100 -14 -83 -2 -100 0 -100 12 0 12 18 15 100 15 73 0 100 -3 100
-13z m30 -3 c0 -8 -4 -12 -10 -9 -5 3 -10 10 -10 16 0 5 5 9 10 9 6 0 10 -7
10 -16z m140 3 c0 -18 -122 -17 -128 1 -3 9 15 12 62 12 49 0 66 -4 66 -13z
m17 -9 c-3 -8 -6 -5 -6 6 -1 11 2 17 5 13 3 -3 4 -12 1 -19z m133 13 c0 -16
-19 -23 -40 -16 -30 10 -24 25 10 25 17 0 30 -4 30 -9z m30 -7 c0 -8 -4 -12
-10 -9 -5 3 -10 10 -10 16 0 5 5 9 10 9 6 0 10 -7 10 -16z m118 5 c-5 -15
-101 -15 -106 0 -2 7 15 11 53 11 38 0 55 -4 53 -11z m32 1 c0 -5 -4 -10 -10
-10 -5 0 -10 5 -10 10 0 6 5 10 10 10 6 0 10 -4 10 -10z m240 -5 c0 -18 -20
-20 -21 -2 0 7 -2 8 -5 1 -3 -7 -35 -9 -98 -6 -63 3 -96 1 -100 -7 -5 -8 23
-11 98 -11 59 0 106 -4 106 -9 0 -5 -47 -10 -105 -10 -71 0 -105 4 -105 11 0
6 -2 9 -5 7 -2 -3 -2 -15 2 -27 5 -20 12 -22 69 -22 34 0 66 5 69 10 3 6 21 9
38 9 29 -2 30 -2 5 -6 -30 -5 -42 -17 -53 -52 -5 -17 -4 -22 6 -19 8 3 14 11
14 19 0 21 21 39 44 39 24 0 25 -4 11 -31 -7 -13 -7 -19 -1 -19 6 0 14 12 17
26 l7 27 13 -24 c20 -36 17 -59 -7 -59 -12 0 -17 4 -14 11 4 6 -2 5 -14 -2
-11 -8 -22 -20 -24 -29 -2 -9 -7 -4 -11 13 -8 26 -26 38 -26 17 0 -5 -9 -10
-19 -10 -11 0 -23 5 -26 10 -3 6 -12 10 -18 10 -7 0 -6 -4 3 -10 13 -8 13 -10
-2 -10 -9 0 -20 5 -23 10 -3 6 -12 10 -18 10 -7 0 -6 -4 3 -10 10 -6 11 -10 3
-10 -7 0 -13 -4 -13 -10 0 -5 18 -10 41 -10 22 0 39 -3 37 -7 -24 -49 -32 -63
-40 -63 -4 0 -8 -4 -8 -10 0 -23 21 -7 46 35 25 44 48 57 57 33 6 -19 -15 -59
-28 -54 -7 2 -18 0 -26 -5 -10 -6 -8 -9 10 -9 23 0 24 -1 6 -20 -10 -11 -15
-20 -10 -20 14 0 51 46 47 58 -2 7 1 12 6 12 5 0 14 -18 20 -41 10 -38 9 -40
-11 -38 -12 0 -42 1 -66 0 -67 -2 -38 -16 32 -16 49 0 62 -3 65 -16 2 -14 -6
-16 -58 -13 -47 3 -60 1 -60 -10 0 -8 6 -16 13 -19 8 -3 7 -4 -2 -3 -8 1 -17
8 -21 16 -13 25 -72 242 -73 268 0 6 -4 12 -8 12 -16 0 -20 41 -7 70 l13 30
112 0 c94 0 113 -3 113 -15z m230 6 c0 -12 -207 -14 -214 -2 -4 6 37 10 104
10 60 1 110 -3 110 -8z m205 -1 c4 -6 -28 -10 -89 -10 -57 0 -96 4 -96 10 0 6
36 10 89 10 50 0 93 -4 96 -10z m45 0 c0 -5 -7 -10 -15 -10 -8 0 -15 5 -15 10
0 6 7 10 15 10 8 0 15 -4 15 -10z m195 0 c4 -6 -28 -10 -89 -10 -57 0 -96 4
-96 10 0 6 36 10 89 10 50 0 93 -4 96 -10z m-215 -39 c0 -3 -47 -6 -105 -7
-58 0 -105 3 -105 7 0 8 174 17 198 10 6 -2 12 -6 12 -10z m-3187 2 c-7 -2
-19 -2 -25 0 -7 3 -2 5 12 5 14 0 19 -2 13 -5z m1520 -7 c-4 -6 -8 -14 -8 -18
0 -12 -15 -21 -15 -9 0 7 -4 9 -10 6 -6 -4 -7 1 -3 11 4 10 2 15 -3 11 -20
-12 -158 -11 -162 2 -3 9 24 11 102 10 77 -1 104 -4 99 -13z m247 4 c0 -6 -45
-10 -115 -10 -70 0 -115 4 -115 10 0 6 45 10 115 10 70 0 115 -4 115 -10z
m230 0 c0 -6 -42 -10 -105 -10 -98 0 -105 -1 -105 -20 0 -18 7 -20 54 -20 30
0 58 5 61 10 3 6 12 10 18 10 7 0 6 -4 -3 -10 -16 -10 -23 -70 -9 -70 5 0 9
-4 9 -10 0 -6 -3 -9 -7 -9 -5 1 -32 1 -60 0 -61 -1 -73 -21 -13 -21 l41 0 -23
-40 c-13 -22 -28 -40 -35 -40 -7 0 -10 -7 -7 -15 8 -21 19 -11 51 45 28 50 63
68 63 33 0 -10 3 -28 6 -40 4 -14 2 -23 -5 -23 -5 0 -8 7 -5 15 11 27 -5 16
-21 -15 -19 -36 -19 -51 0 -26 18 23 45 14 45 -15 0 -18 -4 -20 -27 -14 -33 8
-30 8 -70 6 -62 -2 -33 -21 32 -21 48 0 65 -4 65 -13 0 -10 -14 -13 -48 -12
-27 1 -54 5 -60 9 -11 6 -17 -5 -13 -26 0 -5 -3 -8 -9 -8 -5 0 -11 17 -11 38
-1 20 -2 42 -3 47 -1 6 -6 52 -10 103 -5 50 -12 92 -17 92 -5 0 -6 -13 -2 -30
4 -22 2 -30 -9 -30 -10 0 -14 9 -13 28 3 49 5 53 15 47 6 -3 10 3 10 14 0 48
6 51 116 51 63 0 104 -4 104 -10z m200 1 c0 -5 -38 -9 -85 -10 -51 -1 -85 3
-85 9 0 6 34 10 85 10 47 0 85 -4 85 -9z m110 -1 c0 -5 -13 -10 -29 -10 -17 0
-33 5 -36 10 -4 6 8 10 29 10 20 0 36 -4 36 -10z m160 0 c0 -12 -97 -12 -125
0 -14 6 3 9 53 9 42 1 72 -3 72 -9z m342 -38 c51 3 55 1 42 -13 -12 -14 -12
-19 6 -39 23 -27 25 -31 8 -29 -28 3 -92 -4 -70 -8 25 -5 28 -20 9 -45 -12
-15 -16 -10 -32 40 -10 31 -27 74 -37 94 -23 47 -23 62 0 25 16 -26 21 -28 74
-25z m126 31 c-2 -9 -10 -18 -18 -20 -13 -4 -13 -3 0 6 18 13 18 13 -87 11
-48 -1 -84 3 -88 9 -4 8 26 11 95 11 89 0 101 -2 98 -17z m38 -8 c6 -23 10
-25 71 -25 65 0 65 0 59 -25 -4 -14 -2 -25 4 -25 5 0 10 6 11 13 0 11 17 -19
18 -35 1 -4 -26 -5 -60 -2 -46 3 -60 1 -57 -8 3 -8 16 -12 31 -10 31 4 32 1
12 -38 -10 -19 -11 -31 -5 -35 6 -4 9 -3 8 2 -4 16 33 73 47 73 20 0 19 -18
-6 -64 -11 -21 -18 -40 -15 -43 2 -3 9 4 15 15 6 12 19 18 33 17 13 -1 15 0 6
2 -21 5 -21 4 -7 40 l10 27 19 -42 c33 -74 33 -76 -34 -73 -32 1 -56 -1 -53
-6 3 -5 33 -9 66 -8 58 0 71 -6 71 -35 0 -4 -24 -7 -52 -6 -37 1 -52 5 -50 14
1 6 -3 12 -9 12 -7 0 -8 -11 -4 -31 5 -22 4 -29 -4 -25 -6 4 -11 14 -11 22 0
8 -4 22 -9 32 -10 18 -94 203 -118 260 -8 19 -9 32 -3 32 5 0 12 -11 16 -25z
m-3202 -16 c-3 -6 5 -7 20 -3 16 4 26 2 26 -4 0 -10 8 -12 59 -13 13 0 32 -4
43 -10 12 -6 18 -6 18 1 0 5 9 2 20 -7 14 -13 17 -20 8 -30 -14 -17 -28 -16
-74 4 -22 9 -41 17 -44 18 -3 1 -13 5 -22 9 -14 7 -39 13 -59 15 -4 1 -9 10
-12 20 -3 14 -1 18 9 14 8 -3 11 -9 8 -14z m2580 13 c2 -4 -10 -9 -27 -9 -26
-2 -28 0 -12 7 26 11 33 12 39 2z m1663 2 c-3 -3 -12 -4 -19 -1 -8 3 -5 6 6 6
11 1 17 -2 13 -5z m-2467 -19 c0 -12 13 -15 59 -15 52 0 59 -2 65 -22 14 -55
11 -58 -59 -58 -37 0 -65 -4 -65 -10 0 -5 20 -10 45 -10 25 0 45 -3 45 -7 0
-5 -9 -23 -21 -42 -14 -24 -25 -32 -39 -28 -11 3 -23 1 -26 -4 -3 -5 4 -9 15
-9 27 0 27 -16 1 -32 -13 -8 -20 -24 -20 -42 0 -16 -3 -27 -6 -24 -8 9 -10
318 -1 318 4 0 7 -7 7 -15z m210 9 c0 -3 -8 -22 -17 -42 -13 -26 -14 -37 -5
-40 18 -6 4 -22 -20 -22 -16 0 -18 -3 -9 -14 6 -7 9 -28 5 -47 l-6 -34 22 42
c21 42 50 50 50 14 0 -9 3 -26 6 -38 6 -21 3 -23 -32 -23 -20 0 -34 -3 -30 -7
4 -4 21 -7 39 -8 19 0 32 -5 31 -12 -1 -7 -2 -25 -2 -39 -2 -24 -4 -26 -37
-20 -32 6 -35 5 -36 -16 l0 -23 -11 23 c-7 14 -19 22 -32 21 -53 -4 -106 2
-106 11 0 7 24 10 65 7 36 -2 65 -1 65 1 0 10 -29 31 -34 24 -3 -5 -21 -9 -41
-10 l-36 -1 19 32 c11 18 28 47 38 65 22 39 34 41 34 5 0 -14 3 -23 7 -20 3 4
5 30 4 58 -2 68 6 89 32 90 13 0 16 3 8 6 -11 5 -11 7 0 14 16 10 29 11 29 3z
m410 -4 c0 -5 -9 -10 -21 -10 -11 0 -17 5 -14 10 3 6 13 10 21 10 8 0 14 -4
14 -10z m90 3 c-30 -12 -39 -30 -33 -67 3 -22 2 -36 -5 -36 -16 0 -23 49 -10
73 7 12 11 25 10 30 -1 4 10 7 26 6 16 0 21 -3 12 -6z m877 1 c-3 -3 -12 -4
-19 -1 -8 3 -5 6 6 6 11 1 17 -2 13 -5z m-1694 -11 c-7 -2 -21 -2 -30 0 -10 3
-4 5 12 5 17 0 24 -2 18 -5z m264 1 c-3 -3 -12 -4 -19 -1 -8 3 -5 6 6 6 11 1
17 -2 13 -5z m691 -19 c4 -5 1 -5 -5 -1 -7 4 -13 3 -13 -3 0 -5 -3 -16 -6 -25
-4 -11 -1 -16 10 -16 9 0 16 -4 16 -10 0 -10 -10 -11 -87 -12 -21 0 -44 -5
-50 -11 -10 -7 -13 -1 -13 27 0 20 -5 36 -11 36 -8 0 -8 4 -1 13 11 13 147 15
160 2z m48 -10 c-9 -13 -16 -33 -16 -45 0 -29 -17 -25 -23 6 -8 42 3 64 30 64
25 0 25 -1 9 -25z m54 -36 c0 -18 -31 -31 -49 -19 -9 5 -8 17 5 44 18 36 18
36 31 14 7 -13 12 -30 13 -39z m725 25 c8 -20 15 -37 15 -38 0 -8 -57 2 -63
11 -8 13 11 63 24 63 5 0 16 -16 24 -36z m-3475 14 c0 -4 -4 -8 -9 -8 -6 0
-12 4 -15 8 -3 5 1 9 9 9 8 0 15 -4 15 -9z m2270 -34 c0 -30 -3 -34 -25 -34
-29 0 -29 0 -10 46 17 42 35 36 35 -12z m-2076 -57 c5 4 -3 11 -19 16 -55 16
-58 17 -53 22 3 3 22 -1 43 -8 29 -10 39 -19 40 -38 2 -22 -29 -99 -40 -99 -3
0 4 18 16 41 35 69 3 33 -38 -41 -20 -39 -40 -70 -44 -70 -10 0 -79 200 -79
231 0 3 37 -9 82 -27 45 -18 86 -30 92 -27z m252 42 c13 -10 16 -10 10 -1 -6
10 1 12 31 8 21 -2 47 -5 58 -6 20 -1 20 -2 0 -9 -14 -6 -5 -9 35 -14 35 -4
56 -3 61 5 4 6 12 7 19 3 7 -5 56 -10 109 -12 123 -4 137 -7 133 -25 -2 -12
11 -17 53 -23 49 -6 55 -8 43 -22 -7 -9 -13 -23 -13 -31 0 -22 -41 -25 -115
-7 -36 8 -82 17 -102 19 -21 3 -43 8 -49 12 -8 4 -9 3 -5 -4 4 -7 3 -12 -3
-12 -5 0 -12 4 -15 9 -3 5 -14 7 -25 4 -10 -2 -47 2 -82 11 -81 19 -130 29
-149 31 -45 4 -100 19 -100 27 0 6 -7 8 -15 4 -16 -6 -16 -5 -20 31 -2 21 1
22 61 19 35 -1 71 -9 80 -17z m-339 5 c-3 -3 -12 -4 -19 -1 -8 3 -5 6 6 6 11
1 17 -2 13 -5z m513 -14 c11 -8 7 -9 -15 -4 -37 8 -45 14 -19 14 10 0 26 -5
34 -10z m2520 -32 c0 -34 -15 -52 -39 -45 -12 3 -23 2 -26 -3 -3 -4 8 -10 23
-13 20 -4 31 0 43 15 16 20 16 20 31 -18 9 -22 15 -40 14 -41 -1 -1 -23 -3
-49 -4 -26 -2 -47 -6 -47 -10 0 -3 25 -5 55 -2 32 2 55 0 55 -6 0 -5 3 -16 6
-25 5 -13 -2 -16 -41 -16 -25 0 -44 4 -41 8 2 4 -4 9 -15 9 -18 2 -19 0 -7
-14 11 -14 11 -15 -2 -11 -8 2 -18 20 -21 39 -3 19 -11 45 -16 59 -9 20 -6 32
13 63 28 43 64 51 64 15z m-2150 -2 c0 -18 -15 -23 -51 -18 -40 6 -26 32 17
32 23 0 34 -5 34 -14z m1793 -64 c23 -87 19 -103 -23 -98 -21 2 -30 -1 -30
-11 0 -8 -4 -11 -10 -8 -5 3 -10 18 -10 32 0 14 -5 43 -12 64 -13 45 -12 46
26 53 16 3 31 8 34 11 10 9 -39 5 -59 -5 -11 -7 -19 -7 -19 -1 0 5 -2 16 -6
24 -4 11 5 14 43 13 l48 -1 18 -73z m-1333 47 c0 -5 -7 -9 -15 -9 -9 0 -12 6
-9 15 6 15 24 11 24 -6z m-1079 -17 c-7 -2 -18 1 -23 6 -8 8 -4 9 13 5 13 -4
18 -8 10 -11z m2059 -18 c0 -8 -7 -14 -15 -14 -8 0 -15 -5 -15 -11 0 -6 6 -9
14 -6 13 5 26 -12 26 -34 0 -5 -18 -9 -40 -9 -22 0 -40 3 -40 6 0 4 12 26 27
50 26 41 43 48 43 18z m-1895 -8 c39 -9 119 -23 179 -31 60 -8 112 -18 115
-21 13 -13 -312 38 -395 62 -48 14 -48 14 -9 10 22 -3 72 -12 110 -20z m2143
-15 c7 -21 12 -41 12 -44 0 -4 -22 -6 -49 -6 l-49 2 31 43 c17 24 34 44 37 44
4 0 12 -17 18 -39z m1122 -12 c-34 -7 -36 -4 -15 27 l17 26 12 -23 c11 -22 10
-25 -14 -30z m-2540 -28 c0 -11 -26 -22 -34 -14 -12 12 -5 23 14 23 11 0 20
-4 20 -9z m100 1 c0 -5 14 -7 30 -6 18 1 30 -3 30 -10 0 -20 -75 -19 -91 1
-10 12 -10 14 -1 9 6 -4 12 -2 12 3 0 6 5 11 10 11 6 0 10 -4 10 -8z m950 -2
c0 -5 -5 -10 -11 -10 -5 0 -7 5 -4 10 3 6 8 10 11 10 2 0 4 -4 4 -10z m-2167
-37 c-10 -21 -27 -54 -39 -73 -38 -63 -105 -203 -99 -208 7 -7 6 -9 53 90 38
79 79 135 90 123 3 -3 -4 -15 -15 -28 -30 -32 -93 -155 -88 -169 9 -24 -11
-41 -39 -34 -32 8 -32 20 0 76 54 92 105 183 133 238 19 36 22 25 4 -15z
m1365 25 c9 -9 12 -9 12 1 0 7 5 9 10 6 17 -11 0 -25 -28 -24 -15 0 -21 3 -13
6 11 5 11 7 0 14 -8 5 -9 9 -3 9 5 0 15 -5 22 -12z m140 -13 c12 -4 22 -12 22
-17 0 -5 -4 -7 -8 -4 -5 3 -25 6 -45 8 -21 1 -37 7 -37 14 0 13 24 12 68 -1z
m890 -18 c2 -12 -3 -17 -17 -17 -12 0 -21 6 -21 13 0 31 32 34 38 4z m-1285
-4 c-7 -2 -19 -2 -25 0 -7 3 -2 5 12 5 14 0 19 -2 13 -5z m644 -29 c-3 -3 -12
-4 -19 -1 -8 3 -5 6 6 6 11 1 17 -2 13 -5z m916 -1 c-7 -2 -21 -2 -30 0 -10 3
-4 5 12 5 17 0 24 -2 18 -5z m94 1 c-3 -3 -12 -4 -19 -1 -8 3 -5 6 6 6 11 1
17 -2 13 -5z"/>
<path d="M3498 1984 c-5 -4 -8 -23 -7 -43 0 -34 1 -34 10 -11 11 27 8 66 -3
54z"/>
<path d="M3481 1874 c0 -11 3 -14 6 -6 3 7 2 16 -1 19 -3 4 -6 -2 -5 -13z"/>
<path d="M3443 1835 c0 -22 2 -30 4 -17 2 12 2 30 0 40 -3 9 -5 -1 -4 -23z"/>
<path d="M3605 2000 c3 -6 -2 -10 -12 -10 -15 0 -16 -2 -3 -10 20 -13 27 -12
33 4 3 8 -1 17 -9 20 -9 3 -12 1 -9 -4z"/>
<path d="M3645 2000 c3 -5 8 -10 11 -10 2 0 4 5 4 10 0 6 -5 10 -11 10 -5 0
-7 -4 -4 -10z"/>
<path d="M3550 1776 c0 -9 5 -16 10 -16 6 0 10 4 10 9 0 6 -4 13 -10 16 -5 3
-10 -1 -10 -9z"/>
<path d="M3558 1739 c-2 -8 -2 -27 2 -44 l6 -30 6 30 c7 32 -5 69 -14 44z"/>
<path d="M3550 1645 c-10 -12 -10 -15 4 -15 9 0 16 7 16 15 0 8 -2 15 -4 15
-2 0 -9 -7 -16 -15z"/>
<path d="M3488 1523 c7 -3 16 -2 19 1 4 3 -2 6 -13 5 -11 0 -14 -3 -6 -6z"/>
<path d="M3480 1445 c0 -8 2 -15 4 -15 2 0 6 7 10 15 3 8 1 15 -4 15 -6 0 -10
-7 -10 -15z"/>
<path d="M4100 2005 c0 -8 4 -15 10 -15 5 0 7 7 4 15 -4 8 -8 15 -10 15 -2 0
-4 -7 -4 -15z"/>
<path d="M4081 1994 c0 -11 3 -14 6 -6 3 7 2 16 -1 19 -3 4 -6 -2 -5 -13z"/>
<path d="M4087 1950 c3 -11 9 -17 14 -15 10 7 1 35 -11 35 -5 0 -6 -9 -3 -20z"/>
<path d="M4249 1968 c0 -2 -2 -14 -5 -27 -4 -20 -2 -22 11 -11 17 14 20 40 5
40 -5 0 -10 -1 -11 -2z"/>
<path d="M4171 1864 c0 -11 3 -14 6 -6 3 7 2 16 -1 19 -3 4 -6 -2 -5 -13z"/>
<path d="M4210 1857 c0 -14 7 -28 18 -32 13 -5 14 -3 5 6 -6 6 -9 17 -7 24 3
7 1 16 -5 20 -7 4 -11 -3 -11 -18z"/>
<path d="M4197 1778 c-8 -30 -1 -35 12 -9 6 11 7 22 2 25 -5 3 -11 -4 -14 -16z"/>
<path d="M4280 1769 c0 -5 5 -7 10 -4 6 3 10 8 10 11 0 2 -4 4 -10 4 -5 0 -10
-5 -10 -11z"/>
<path d="M4162 1750 c0 -14 2 -19 5 -12 2 6 2 18 0 25 -3 6 -5 1 -5 -13z"/>
<path d="M4294 1714 c-4 -22 -2 -40 5 -47 6 -6 11 -9 12 -6 0 2 3 23 5 47 6
51 -12 57 -22 6z"/>
<path d="M4188 1729 c-27 -15 -21 -29 7 -16 14 7 25 15 25 20 0 10 -11 8 -32
-4z"/>
<path d="M4141 1694 c0 -11 3 -14 6 -6 3 7 2 16 -1 19 -3 4 -6 -2 -5 -13z"/>
<path d="M4218 1703 c7 -3 16 -2 19 1 4 3 -2 6 -13 5 -11 0 -14 -3 -6 -6z"/>
<path d="M3920 1671 c0 -11 5 -23 10 -26 6 -4 10 5 10 19 0 14 -4 26 -10 26
-5 0 -10 -9 -10 -19z"/>
<path d="M4173 1677 c-17 -7 -22 -18 -21 -43 1 -18 5 -31 10 -28 5 3 7 12 4
20 -5 14 21 54 36 54 5 0 8 -11 8 -25 0 -14 5 -25 11 -25 6 0 9 7 6 15 -4 8
-2 17 3 20 31 19 -19 30 -57 12z"/>
<path d="M4255 1680 c-3 -5 -2 -10 4 -10 5 0 13 5 16 10 3 6 2 10 -4 10 -5 0
-13 -4 -16 -10z"/>
<path d="M4271 1623 c-7 -8 -11 -16 -8 -19 2 -2 10 2 17 11 17 20 9 27 -9 8z"/>
<path d="M4194 1592 c3 -5 -5 -15 -18 -21 -17 -9 -22 -19 -18 -36 3 -19 7 -21
17 -12 6 6 10 19 7 29 -3 13 1 18 17 18 12 0 21 6 21 15 0 8 -7 15 -16 15 -8
0 -13 -4 -10 -8z"/>
<path d="M4275 1590 c-19 -8 -19 -9 3 -9 12 -1 22 4 22 9 0 6 -1 10 -2 9 -2 0
-12 -4 -23 -9z"/>
<path d="M4260 1540 c-13 -8 -12 -10 3 -10 9 0 17 5 17 10 0 12 -1 12 -20 0z"/>
<path d="M3824 1519 c-3 -6 -2 -15 3 -20 5 -5 9 -1 9 11 0 23 -2 24 -12 9z"/>
<path d="M3893 1514 c-3 -8 0 -21 7 -27 10 -10 12 -8 7 6 -4 11 -1 17 9 17 8
0 12 5 9 10 -9 15 -25 12 -32 -6z"/>
<path d="M4200 1504 c0 -14 4 -23 9 -20 5 3 7 15 4 26 -7 28 -13 25 -13 -6z"/>
<path d="M3860 1477 c0 -13 -5 -28 -10 -33 -8 -8 -6 -15 5 -24 13 -11 15 -7
15 34 0 25 -2 46 -5 46 -3 0 -5 -10 -5 -23z"/>
<path d="M4163 1478 c0 -13 -3 -31 -7 -40 -4 -9 -6 -55 -4 -102 2 -47 0 -87
-3 -89 -4 -1 -10 -26 -14 -55 -5 -42 -4 -52 7 -50 13 3 14 -5 3 -33 -4 -10 -1
-16 9 -16 8 0 13 8 11 18 -2 10 0 21 6 24 11 7 12 26 2 24 -28 -4 -31 2 -21
39 6 20 12 71 13 112 2 41 3 87 4 103 1 17 7 27 16 27 8 0 15 5 15 10 0 6 -6
10 -14 10 -8 0 -17 9 -19 20 -4 18 -5 17 -4 -2z"/>
<path d="M4101 1474 c0 -11 3 -14 6 -6 3 7 2 16 -1 19 -3 4 -6 -2 -5 -13z"/>
<path d="M4230 1473 c0 -5 5 -15 10 -23 8 -12 10 -11 10 8 0 12 -4 22 -10 22
-5 0 -10 -3 -10 -7z"/>
<path d="M4297 1473 c-12 -11 -8 -43 6 -43 8 0 7 -4 -3 -10 -10 -7 -11 -10 -2
-10 7 0 15 7 18 15 4 8 11 12 17 8 6 -3 7 -1 3 5 -4 7 -14 12 -23 12 -9 0 -13
6 -9 15 6 16 3 19 -7 8z"/>
<path d="M3910 1436 c0 -12 5 -28 11 -36 8 -12 9 -9 5 13 -4 15 -2 27 4 27 5
0 10 4 10 8 0 5 -7 9 -15 9 -9 0 -15 -9 -15 -21z"/>
<path d="M4258 1435 c-3 -14 -1 -25 3 -25 5 0 9 3 10 8 0 4 2 15 4 25 2 9 0
17 -5 17 -4 0 -10 -11 -12 -25z"/>
<path d="M4220 1430 c0 -5 5 -10 11 -10 5 0 7 5 4 10 -3 6 -8 10 -11 10 -2 0
-4 -4 -4 -10z"/>
<path d="M4265 1379 c-11 -16 -1 -19 13 -3 7 8 8 14 3 14 -5 0 -13 -5 -16 -11z"/>
<path d="M3897 1366 c-4 -10 -1 -13 9 -9 7 3 14 9 14 14 0 14 -17 10 -23 -5z"/>
<path d="M4218 1373 c7 -3 16 -2 19 1 4 3 -2 6 -13 5 -11 0 -14 -3 -6 -6z"/>
<path d="M4198 1345 c-7 -8 3 -65 12 -65 4 0 8 16 7 35 -1 33 -7 42 -19 30z"/>
<path d="M4290 1335 c0 -8 -7 -15 -15 -15 -8 0 -15 -7 -15 -15 0 -9 -7 -18
-16 -22 -13 -5 -13 -7 -2 -14 16 -10 58 35 58 63 0 10 -2 18 -5 18 -3 0 -5 -7
-5 -15z"/>
<path d="M3825 1310 c3 -5 8 -10 11 -10 2 0 4 5 4 10 0 6 -5 10 -11 10 -5 0
-7 -4 -4 -10z"/>
<path d="M4409 1293 c-13 -16 -12 -17 4 -4 16 13 21 21 13 21 -2 0 -10 -8 -17
-17z"/>
<path d="M3840 1281 c0 -6 5 -13 11 -16 6 -4 8 -13 5 -21 -3 -8 -1 -14 4 -14
6 0 10 7 10 15 0 8 6 15 14 15 8 0 17 4 20 9 4 5 -3 7 -14 4 -11 -3 -20 0 -20
6 0 6 -7 11 -15 11 -8 0 -15 -4 -15 -9z"/>
<path d="M4203 1243 c-14 -29 -9 -43 8 -26 6 6 9 20 7 32 -3 19 -4 19 -15 -6z"/>
<path d="M3832 1219 c6 -16 12 -28 14 -26 5 5 -13 57 -20 57 -3 0 0 -14 6 -31z"/>
<path d="M4250 1236 c0 -16 18 -31 27 -22 3 3 -2 12 -11 21 -14 14 -16 14 -16
1z"/>
<path d="M3880 1214 c0 -8 5 -12 10 -9 6 3 10 -2 11 -12 0 -16 1 -16 9 2 12
29 12 31 -10 32 -12 1 -20 -4 -20 -13z"/>
<path d="M4538 1203 c7 -3 16 -2 19 1 4 3 -2 6 -13 5 -11 0 -14 -3 -6 -6z"/>
<path d="M4223 1193 c-15 -5 -17 -23 -4 -23 5 0 11 7 15 15 3 8 4 15 3 14 -1
0 -8 -3 -14 -6z"/>
<path d="M4246 1175 c-9 -26 -7 -32 5 -12 6 10 9 21 6 23 -2 3 -7 -2 -11 -11z"/>
<path d="M3820 1171 c0 -5 5 -13 10 -16 6 -3 10 -2 10 4 0 5 -4 13 -10 16 -5
3 -10 2 -10 -4z"/>
<path d="M3850 1159 c0 -5 5 -7 10 -4 6 3 10 8 10 11 0 2 -4 4 -10 4 -5 0 -10
-5 -10 -11z"/>
<path d="M3885 1143 c-4 -10 -9 -42 -11 -70 -3 -42 -1 -53 11 -53 17 0 21 60
5 76 -6 6 -5 19 5 37 7 15 10 27 5 27 -4 0 -11 -8 -15 -17z m2 -95 c-3 -8 -6
-5 -6 6 -1 11 2 17 5 13 3 -3 4 -12 1 -19z"/>
<path d="M4200 1150 c0 -5 5 -10 11 -10 5 0 7 5 4 10 -3 6 -8 10 -11 10 -2 0
-4 -4 -4 -10z"/>
<path d="M3811 1124 c0 -11 3 -14 6 -6 3 7 2 16 -1 19 -3 4 -6 -2 -5 -13z"/>
<path d="M4120 1105 c0 -14 2 -25 4 -25 2 0 6 11 8 25 3 14 1 25 -3 25 -5 0
-9 -11 -9 -25z"/>
<path d="M4237 1090 c-6 -16 -17 -30 -24 -30 -17 0 -17 -17 0 -24 6 -4 2 -4
-10 -2 -23 4 -31 -8 -13 -19 7 -4 7 -13 0 -26 -9 -15 -7 -19 6 -19 10 0 14 5
11 14 -3 8 3 26 14 40 10 13 22 38 25 55 4 17 11 28 17 24 6 -3 7 -1 3 5 -11
18 -17 15 -29 -18z"/>
<path d="M4200 1094 c0 -14 3 -14 15 -4 8 7 15 14 15 16 0 2 -7 4 -15 4 -8 0
-15 -7 -15 -16z"/>
<path d="M3650 1079 c0 -5 5 -7 10 -4 6 3 10 8 10 11 0 2 -4 4 -10 4 -5 0 -10
-5 -10 -11z"/>
<path d="M3847 1084 c-4 -4 -7 -14 -7 -23 0 -11 3 -12 11 -4 6 6 10 16 7 23
-2 6 -7 8 -11 4z"/>
<path d="M3710 1029 c0 -5 5 -7 10 -4 6 3 10 8 10 11 0 2 -4 4 -10 4 -5 0 -10
-5 -10 -11z"/>
<path d="M4965 879 c-11 -16 -1 -19 13 -3 7 8 8 14 3 14 -5 0 -13 -5 -16 -11z"/>
<path d="M3737 2013 c-11 -10 -8 -41 5 -49 8 -5 9 -2 5 9 -3 10 -2 17 4 17 6
0 7 4 4 10 -4 6 1 7 11 3 12 -4 15 -3 10 5 -8 13 -29 16 -39 5z"/>
<path d="M3796 2011 c-3 -5 1 -11 9 -15 8 -3 15 -1 15 4 0 13 -18 22 -24 11z"/>
<path d="M3838 2007 c7 -8 7 -18 2 -27 -15 -23 -12 -30 10 -30 11 0 20 5 20
11 0 5 -4 7 -10 4 -5 -3 -10 -1 -10 4 0 6 4 11 10 11 14 0 1 28 -17 34 -12 5
-13 3 -5 -7z"/>
<path d="M3880 1999 c0 -5 5 -7 10 -4 6 3 10 8 10 11 0 2 -4 4 -10 4 -5 0 -10
-5 -10 -11z"/>
<path d="M3932 1993 c4 -22 24 -28 31 -9 4 11 1 13 -10 9 -11 -4 -14 -2 -9 5
4 7 2 12 -4 12 -6 0 -10 -8 -8 -17z"/>
<path d="M3990 1990 c0 -13 5 -18 15 -14 12 5 13 10 4 20 -15 19 -19 18 -19
-6z"/>
<path d="M3763 1974 c3 -11 8 -29 12 -41 3 -13 11 -23 18 -23 8 0 8 3 -1 12
-7 7 -12 22 -12 34 0 13 -5 26 -11 30 -7 4 -9 0 -6 -12z"/>
<path d="M3896 1956 c5 -20 4 -27 -4 -22 -7 4 -20 2 -29 -4 -16 -10 -16 -10 2
-6 29 8 40 -3 55 -57 19 -70 24 -49 6 23 -17 64 -42 122 -30 66z"/>
<path d="M3754 1911 c2 -24 10 -49 16 -55 8 -8 10 -5 7 14 -2 14 -7 32 -10 40
-3 8 -8 22 -11 30 -3 8 -4 -5 -2 -29z"/>
<path d="M3806 1931 c3 -13 1 -33 -4 -45 -6 -11 -29 -70 -52 -131 -23 -60 -45
-114 -48 -120 -9 -14 -10 -47 -2 -38 7 8 102 248 115 291 3 12 10 20 15 17 4
-3 6 4 3 15 -3 11 -9 18 -13 15 -5 -3 -11 1 -14 7 -3 7 -3 2 0 -11z"/>
<path d="M3867 1870 c3 -25 10 -52 14 -60 11 -19 0 69 -12 90 -4 8 -5 -5 -2
-30z"/>
<path d="M3830 1870 c0 -19 3 -21 12 -12 9 9 9 15 0 24 -9 9 -12 7 -12 -12z"/>
<path d="M3849 1845 c-12 -12 7 -60 24 -61 12 -1 13 -1 3 3 -8 2 -16 18 -18
35 -2 16 -6 27 -9 23z"/>
<path d="M3820 1785 c0 -5 5 -17 10 -25 5 -8 10 -10 10 -5 0 6 -5 17 -10 25
-5 8 -10 11 -10 5z"/>
<path d="M3826 1731 c-4 -5 -2 -12 3 -15 5 -4 12 -2 15 3 4 5 2 12 -3 15 -5 4
-12 2 -15 -3z"/>
<path d="M3240 1966 c0 -2 7 -7 16 -10 8 -3 12 -2 9 4 -6 10 -25 14 -25 6z"/>
<path d="M3366 1955 c-3 -8 -1 -15 4 -15 6 0 10 7 10 15 0 8 -2 15 -4 15 -2 0
-6 -7 -10 -15z"/>
<path d="M3087 1849 c4 -13 8 -18 11 -10 2 7 -1 18 -6 23 -8 8 -9 4 -5 -13z"/>
<path d="M3107 1806 c-4 -10 -5 -21 -2 -24 9 -9 17 6 13 25 -3 17 -4 17 -11
-1z"/>
<path d="M3119 1751 c7 -5 11 -13 7 -19 -3 -6 -2 -13 4 -17 6 -4 10 5 10 19 0
18 -5 26 -17 26 -14 0 -15 -2 -4 -9z"/>
<path d="M2896 1638 c20 -46 47 -112 60 -146 13 -35 33 -81 44 -102 25 -48 26
-126 4 -240 -19 -101 -13 -125 12 -45 14 49 17 90 16 225 -2 114 1 160 8 150
16 -25 12 42 -5 84 -19 45 -23 46 -16 0 3 -19 4 -69 3 -111 l-4 -77 -60 145
c-33 79 -65 156 -71 172 -6 15 -15 27 -19 27 -4 0 9 -37 28 -82z"/>
<path d="M2826 1684 c-3 -8 -2 -12 3 -9 6 3 13 -31 17 -75 3 -44 9 -78 12 -76
2 3 1 44 -3 91 -6 81 -16 103 -29 69z"/>
<path d="M3077 1683 c-4 -3 -7 -11 -7 -17 0 -6 5 -5 12 2 6 6 9 14 7 17 -3 3
-9 2 -12 -2z"/>
<path d="M3146 1672 c-3 -5 1 -9 9 -9 8 0 12 4 9 9 -3 4 -7 8 -9 8 -2 0 -6 -4
-9 -8z"/>
<path d="M3085 1650 c-4 -6 -1 -10 4 -10 6 0 11 -10 12 -22 0 -22 1 -22 9 -3
5 11 9 23 9 26 2 12 -28 19 -34 9z"/>
<path d="M2748 1618 c5 -5 16 -8 23 -6 8 3 3 7 -10 11 -17 4 -21 3 -13 -5z"/>
<path d="M3230 1610 c0 -5 5 -10 11 -10 5 0 7 5 4 10 -3 6 -8 10 -11 10 -2 0
-4 -4 -4 -10z"/>
<path d="M2735 1579 c-4 -12 -3 -25 3 -31 6 -6 11 1 14 21 5 35 -7 42 -17 10z"/>
<path d="M3092 1570 c0 -14 2 -19 5 -12 2 6 2 18 0 25 -3 6 -5 1 -5 -13z"/>
<path d="M2777 1552 c3 -23 2 -24 -6 -7 -9 19 -10 19 -10 -4 -1 -17 3 -22 14
-17 9 3 15 0 15 -9 0 -7 5 -17 12 -21 8 -5 9 -2 4 12 -16 38 -18 49 -6 32 6
-10 15 -18 20 -18 13 0 13 40 0 41 -20 3 -25 4 -36 11 -7 5 -10 -2 -7 -20z"/>
<path d="M3127 1518 c8 -59 13 -61 13 -5 0 26 -4 47 -9 47 -5 0 -7 -19 -4 -42z"/>
<path d="M2820 1490 c0 -11 2 -20 4 -20 2 0 6 9 9 20 3 11 1 20 -4 20 -5 0 -9
-9 -9 -20z"/>
<path d="M2740 1490 c0 -5 5 -10 10 -10 6 0 10 5 10 10 0 6 -4 10 -10 10 -5 0
-10 -4 -10 -10z"/>
<path d="M2852 1410 c0 -44 4 -67 9 -59 9 14 5 116 -5 126 -3 3 -5 -27 -4 -67z"/>
<path d="M3313 1405 c0 -44 2 -61 4 -37 2 23 2 59 0 80 -2 20 -4 1 -4 -43z"/>
<path d="M2765 1460 c-3 -5 -1 -10 4 -10 6 0 11 5 11 10 0 6 -2 10 -4 10 -3 0
-8 -4 -11 -10z"/>
<path d="M2790 1461 c0 -6 5 -11 11 -11 5 0 7 -4 4 -10 -3 -5 -1 -10 4 -10 16
0 13 16 -4 30 -10 9 -15 9 -15 1z"/>
<path d="M3048 1443 c5 -10 7 -24 4 -32 -4 -12 -3 -12 10 -1 13 12 13 16 -1
32 -20 23 -24 23 -13 1z"/>
<path d="M3121 1434 c0 -11 3 -14 6 -6 3 7 2 16 -1 19 -3 4 -6 -2 -5 -13z"/>
<path d="M2777 1393 c-5 -26 -2 -42 7 -32 9 11 15 59 7 59 -5 0 -11 -12 -14
-27z"/>
<path d="M2740 1396 c0 -23 16 -27 17 -5 1 10 -2 19 -8 19 -5 0 -9 -6 -9 -14z"/>
<path d="M2817 1383 c-4 -3 -7 -13 -7 -22 1 -13 3 -13 11 2 11 19 8 33 -4 20z"/>
<path d="M3045 1380 c-3 -5 -1 -10 4 -10 6 0 11 5 11 10 0 6 -2 10 -4 10 -3 0
-8 -4 -11 -10z"/>
<path d="M3040 1355 c0 -5 5 -17 10 -25 5 -8 10 -10 10 -5 0 6 -5 17 -10 25
-5 8 -10 11 -10 5z"/>
<path d="M3150 1340 c0 -11 2 -20 4 -20 2 0 6 9 9 20 3 11 1 20 -4 20 -5 0 -9
-9 -9 -20z"/>
<path d="M3084 1326 c-9 -19 -9 -26 1 -30 8 -3 12 6 13 25 1 35 0 35 -14 5z"/>
<path d="M2813 1325 c-9 -10 -9 -16 -2 -20 14 -9 22 0 17 18 -2 13 -5 13 -15
2z"/>
<path d="M2850 1320 c0 -5 5 -10 11 -10 5 0 7 5 4 10 -3 6 -8 10 -11 10 -2 0
-4 -4 -4 -10z"/>
<path d="M2840 1279 c0 -5 5 -7 10 -4 6 3 10 8 10 11 0 2 -4 4 -10 4 -5 0 -10
-5 -10 -11z"/>
<path d="M2797 1273 c-10 -9 -8 -33 2 -33 5 0 11 9 14 20 5 20 -3 26 -16 13z"/>
<path d="M2840 1249 c0 -5 5 -7 10 -4 6 3 10 8 10 11 0 2 -4 4 -10 4 -5 0 -10
-5 -10 -11z"/>
<path d="M2826 1215 c-3 -8 -3 -21 0 -29 3 -7 -2 -20 -11 -29 -19 -20 -32 -77
-16 -77 6 0 11 12 11 26 0 14 4 23 9 20 11 -7 3 -43 -18 -75 -15 -23 -15 -24
6 -13 17 10 23 24 28 79 3 38 8 78 11 91 5 25 -11 31 -20 7z"/>
<path d="M2767 1177 c-3 -8 -1 -20 4 -28 6 -10 9 -7 9 14 0 29 -5 35 -13 14z"/>
<path d="M2720 1086 c0 -9 7 -16 16 -16 17 0 14 22 -4 28 -7 2 -12 -3 -12 -12z"/>
<path d="M2760 1029 c0 -5 5 -7 10 -4 6 3 10 8 10 11 0 2 -4 4 -10 4 -5 0 -10
-5 -10 -11z"/>
<path d="M2566 938 c3 -5 10 -6 15 -3 13 9 11 12 -6 12 -8 0 -12 -4 -9 -9z"/>
<path d="M2480 865 c0 -2 6 -8 13 -14 10 -8 14 -7 14 2 0 8 -6 14 -14 14 -7 0
-13 -1 -13 -2z"/>
<path d="M3043 1954 c-6 -13 -8 -26 -3 -29 4 -3 11 7 14 21 9 35 4 39 -11 8z"/>
<path d="M3091 1964 c0 -11 3 -14 6 -6 3 7 2 16 -1 19 -3 4 -6 -2 -5 -13z"/>
<path d="M2997 1950 c3 -11 9 -20 14 -20 11 0 11 3 3 24 -9 23 -23 20 -17 -4z"/>
<path d="M3626 1451 c-10 -11 -16 -23 -13 -28 7 -13 -12 -55 -22 -49 -5 3 -7
-3 -4 -13 3 -11 -12 -59 -32 -108 -20 -48 -46 -114 -58 -145 -11 -31 -24 -55
-29 -52 -4 3 -5 -2 -1 -11 3 -10 0 -21 -7 -25 -7 -4 -9 -13 -6 -19 10 -16 29
-14 23 3 -3 7 1 26 10 42 8 16 24 56 35 89 11 33 30 83 43 110 13 28 28 67 35
87 10 34 13 36 26 23 22 -22 28 -18 10 6 -12 18 -13 26 0 62 17 47 14 55 -10
28z"/>
<path d="M3679 1408 c4 -28 6 -29 9 -9 2 13 0 27 -5 32 -6 6 -7 -3 -4 -23z"/>
<path d="M3516 1365 c-3 -9 -6 -25 -6 -35 0 -10 -7 -21 -16 -24 -10 -4 -14
-12 -10 -23 7 -18 -13 -113 -24 -113 -3 0 -6 -19 -7 -41 -2 -38 -1 -40 12 -23
8 11 15 30 15 44 0 14 11 70 25 125 22 90 27 131 11 90z"/>
<path d="M3545 1370 c3 -5 11 -10 16 -10 6 0 7 5 4 10 -3 6 -11 10 -16 10 -6
0 -7 -4 -4 -10z"/>
<path d="M3540 1341 c0 -6 5 -13 10 -16 6 -3 10 1 10 9 0 9 -4 16 -10 16 -5 0
-10 -4 -10 -9z"/>
<path d="M3617 1323 c-3 -10 -8 -31 -12 -48 -3 -16 -8 -38 -11 -47 -3 -10 -1
-18 4 -18 5 0 14 28 19 63 10 60 10 88 0 50z"/>
<path d="M3453 1260 c0 -30 2 -43 4 -27 2 15 2 39 0 55 -2 15 -4 2 -4 -28z"/>
<path d="M3577 1243 c-13 -46 -17 -77 -9 -63 10 17 24 80 17 80 -2 0 -6 -8 -8
-17z"/>
<path d="M3556 1145 c4 -8 8 -15 10 -15 2 0 4 7 4 15 0 8 -4 15 -10 15 -5 0
-7 -7 -4 -15z"/>
<path d="M3441 1064 c0 -11 3 -14 6 -6 3 7 2 16 -1 19 -3 4 -6 -2 -5 -13z"/>
<path d="M2316 1303 c-6 -14 -5 -15 5 -6 7 7 10 15 7 18 -3 3 -9 -2 -12 -12z"/>
<path d="M3200 1145 c-7 -8 -8 -15 -2 -15 5 0 15 7 22 15 7 8 8 15 2 15 -5 0
-15 -7 -22 -15z"/>
<path d="M3386 874 c-4 -14 -5 -28 -3 -31 3 -2 8 8 11 23 4 14 5 28 3 31 -3 2
-8 -8 -11 -23z"/>
<path d="M3323 795 c0 -22 2 -30 4 -17 2 12 2 30 0 40 -3 9 -5 -1 -4 -23z"/>
<path d="M3085 1049 c-16 -16 -27 -29 -23 -29 10 0 62 49 57 54 -2 2 -17 -9
-34 -25z"/>
<path d="M3105 1030 c3 -5 8 -10 11 -10 2 0 4 5 4 10 0 6 -5 10 -11 10 -5 0
-7 -4 -4 -10z"/>
<path d="M2734 838 l-19 -23 23 19 c21 18 27 26 19 26 -2 0 -12 -10 -23 -22z"/>
<path d="M2625 811 c-3 -5 -2 -12 3 -15 5 -3 9 1 9 9 0 17 -3 19 -12 6z"/>
<path d="M3053 775 c0 -8 4 -12 9 -9 5 3 6 10 3 15 -9 13 -12 11 -12 -6z"/>
<path d="M1184 668 c-18 -34 -17 -38 1 -38 9 0 12 6 9 15 -4 10 0 15 14 15 11
0 28 3 38 7 11 4 15 2 11 -4 -4 -6 14 -10 49 -11 31 0 90 -3 132 -8 42 -4 122
-8 177 -8 274 -4 277 -4 265 -25 -5 -11 -10 -26 -9 -33 0 -7 5 -3 11 10 6 12
15 22 20 22 5 0 6 5 3 10 -3 6 -1 10 4 10 6 0 11 6 11 13 0 11 -34 15 -150 21
-83 3 -181 4 -218 2 -41 -3 -55 -2 -37 2 23 6 10 10 -63 16 -68 5 -97 4 -108
-4 -7 -7 -14 -8 -14 -3 0 4 -18 7 -40 5 -23 -2 -40 0 -40 6 0 5 -12 9 -26 8
-17 -1 -31 -10 -40 -28z m239 5 c-13 -2 -33 -2 -45 0 -13 2 -3 4 22 4 25 0 35
-2 23 -4z"/>
<path d="M1628 623 c7 -3 16 -2 19 1 4 3 -2 6 -13 5 -11 0 -14 -3 -6 -6z"/>
<path d="M1667 592 c-9 -4 16 -7 57 -7 41 0 78 3 82 8 9 9 -115 8 -139 -1z"/>
<path d="M1918 493 c7 -3 16 -2 19 1 4 3 -2 6 -13 5 -11 0 -14 -3 -6 -6z"/>
<path d="M1935 419 c-4 -5 -11 -6 -17 -3 -6 4 -8 2 -5 -3 5 -9 57 -7 57 2 0 9
-30 13 -35 4z"/>
<path d="M3660 600 c0 -5 5 -10 11 -10 5 0 7 5 4 10 -3 6 -8 10 -11 10 -2 0
-4 -4 -4 -10z"/>
<path d="M2957 589 c7 -7 15 -10 18 -7 3 3 -2 9 -12 12 -14 6 -15 5 -6 -5z"/>
<path d="M2910 485 c0 -9 6 -12 15 -9 8 4 15 7 15 9 0 2 -7 5 -15 9 -9 3 -15
0 -15 -9z"/>
<path d="M2960 430 c0 -5 4 -10 9 -10 6 0 13 5 16 10 3 6 -1 10 -9 10 -9 0
-16 -4 -16 -10z"/>
<path d="M2650 488 c0 -19 2 -20 10 -8 13 19 13 30 0 30 -5 0 -10 -10 -10 -22z"/>
<path d="M2690 500 c0 -5 5 -10 11 -10 5 0 7 5 4 10 -3 6 -8 10 -11 10 -2 0
-4 -4 -4 -10z"/>
<path d="M2790 449 c0 -7 -10 -9 -25 -7 -14 3 -28 1 -31 -3 -5 -8 10 -13 30
-10 4 1 14 -4 22 -10 11 -9 14 -7 14 15 0 14 -2 26 -5 26 -3 0 -5 -5 -5 -11z"/>
<path d="M2820 382 c0 -5 14 -7 30 -4 17 2 30 6 30 8 0 2 -13 4 -30 4 -16 0
-30 -4 -30 -8z"/>
<path d="M1588 493 c7 -3 16 -2 19 1 4 3 -2 6 -13 5 -11 0 -14 -3 -6 -6z"/>
<path d="M1480 481 c0 -10 19 -25 25 -20 1 2 -3 10 -11 17 -8 7 -14 8 -14 3z"/>
<path d="M3945 430 c-3 -5 -1 -10 4 -10 6 0 11 5 11 10 0 6 -2 10 -4 10 -3 0
-8 -4 -11 -10z"/>
<path d="M4008 363 c6 -2 18 -2 25 0 6 3 1 5 -13 5 -14 0 -19 -2 -12 -5z"/>
<path d="M3566 452 c-3 -5 8 -6 25 -4 16 2 29 6 29 8 0 8 -49 4 -54 -4z"/>
<path d="M3577 388 c-7 -4 4 -8 26 -8 20 0 37 4 37 10 0 11 -45 10 -63 -2z"/>
<path d="M3283 2125 c0 -8 4 -12 9 -9 5 3 6 10 3 15 -9 13 -12 11 -12 -6z"/>
<path d="M2752 1751 c6 -10 17 -17 25 -14 10 4 10 8 -2 19 -21 21 -38 18 -23
-5z"/>
<path d="M2700 1745 c0 -7 30 -13 34 -7 3 4 -4 9 -15 9 -10 1 -19 0 -19 -2z"/>
<path d="M2487 1681 c-4 -17 -3 -21 5 -13 5 5 8 16 6 23 -3 8 -7 3 -11 -10z"/>
<path d="M2210 1640 c0 -5 5 -10 11 -10 5 0 7 5 4 10 -3 6 -8 10 -11 10 -2 0
-4 -4 -4 -10z"/>
<path d="M4655 1261 c-3 -5 -2 -12 3 -15 5 -3 9 1 9 9 0 17 -3 19 -12 6z"/>
<path d="M4680 1257 c0 -2 6 -10 14 -16 11 -9 16 -9 22 1 4 7 4 10 -1 6 -4 -4
-14 -3 -22 3 -7 6 -13 9 -13 6z"/>
<path d="M5385 1024 c-4 -41 -11 -89 -15 -105 -9 -30 -5 -35 19 -20 9 6 15 38
19 105 6 117 -12 133 -23 20z"/>
<path d="M1685 1019 c-3 -4 2 -6 10 -5 21 3 28 13 10 13 -9 0 -18 -4 -20 -8z"/>
<path d="M4980 1020 c-9 -6 -10 -10 -3 -10 6 0 15 5 18 10 8 12 4 12 -15 0z"/>
<path d="M5336 871 c-32 -5 -37 -8 -25 -18 8 -6 18 -13 24 -15 5 -1 10 -8 10
-13 0 -6 9 -21 21 -33 l21 -23 7 47 c6 45 2 65 -12 63 -4 -1 -25 -5 -46 -8z
m42 -36 c-3 -3 -9 2 -12 12 -6 14 -5 15 5 6 7 -7 10 -15 7 -18z"/>
<path d="M5209 833 c29 -57 88 -121 132 -144 l39 -19 0 24 c0 13 3 31 6 40 3
9 1 16 -5 16 -18 0 -61 42 -84 82 -19 35 -24 38 -64 38 l-43 0 19 -37z m39 9
c-2 -20 4 -32 16 -32 20 0 31 -19 18 -32 -7 -7 -18 3 -36 28 -30 44 -32 56
-11 48 8 -3 14 -9 13 -12z m32 -12 c0 -5 -4 -10 -10 -10 -5 0 -10 5 -10 10 0
6 5 10 10 10 6 0 10 -4 10 -10z m54 -80 c8 0 18 -9 21 -21 9 -28 -1 -35 -14
-10 -8 13 -17 18 -28 14 -13 -5 -15 -2 -10 11 6 14 3 17 -8 12 -13 -5 -14 -2
-4 16 l12 22 8 -22 c5 -12 15 -22 23 -22z"/>
<path d="M580 651 c0 -6 4 -13 10 -16 6 -3 7 1 4 9 -7 18 -14 21 -14 7z"/>
<path d="M4453 623 c-8 -3 -5 -15 9 -40 l21 -36 -21 12 c-12 6 -23 7 -26 2 -4
-5 -20 -7 -36 -5 -17 3 -30 1 -30 -5 0 -6 9 -11 20 -11 17 0 19 -5 15 -27 l-6
-28 18 28 c27 41 65 37 94 -10 32 -54 69 -123 66 -124 -1 -1 -19 -3 -39 -4
-29 -2 -38 2 -39 14 0 9 -3 11 -5 4 -3 -7 -12 -9 -20 -6 -18 7 -18 -16 1 -40
11 -16 23 -18 77 -12 l63 6 37 -65 c20 -36 46 -88 59 -116 15 -33 29 -50 41
-50 26 0 23 10 -24 81 -24 36 -56 86 -72 112 -17 26 -34 47 -38 47 -4 0 -23
30 -43 68 -19 37 -52 95 -74 129 -25 38 -36 63 -29 65 7 3 8 7 3 10 -6 3 -15
3 -22 1z"/>
<path d="M4673 604 c-11 -24 -10 -26 7 -21 11 3 21 -1 24 -10 5 -12 -2 -14
-34 -10 -28 3 -40 1 -37 -7 2 -6 17 -12 33 -14 55 -5 73 -12 79 -32 3 -11 12
-26 18 -32 7 -7 20 -25 30 -40 l17 -28 -32 -1 c-18 -1 -36 -1 -40 0 -13 2 -9
-13 8 -37 13 -19 24 -22 60 -21 24 2 45 1 47 -2 10 -11 77 -119 101 -161 21
-38 32 -48 53 -48 28 0 26 5 -25 60 -13 14 -44 54 -68 90 -24 36 -59 84 -77
107 -17 23 -54 78 -82 122 -27 44 -55 78 -62 76 -7 -2 -10 2 -6 10 3 8 9 12
14 9 5 -3 9 0 9 5 0 21 -25 10 -37 -15z m147 -208 c0 -2 -13 -6 -29 -8 -17 -2
-28 -1 -25 4 5 8 54 12 54 4z"/>
<path d="M2188 603 c12 -2 32 -2 45 0 12 2 2 4 -23 4 -25 0 -35 -2 -22 -4z"/>
<path d="M2397 603 c-4 -3 -7 -19 -7 -35 0 -19 -5 -28 -16 -28 -8 0 -12 5 -9
10 3 6 1 10 -4 10 -6 0 -11 -4 -11 -9 0 -5 -10 -12 -22 -16 -14 -4 -18 -8 -11
-12 8 -3 11 -14 7 -29 -8 -32 4 -31 16 1 11 30 54 36 48 8 -2 -10 -10 -17 -16
-15 -7 1 -12 -3 -12 -9 0 -6 6 -9 14 -6 9 4 17 -1 19 -11 3 -9 6 10 7 43 1 33
4 70 5 83 2 24 2 25 -8 15z"/>
<path d="M4878 603 c17 -2 47 -2 65 0 17 2 3 4 -33 4 -36 0 -50 -2 -32 -4z"/>
<path d="M5003 603 c15 -2 37 -2 50 0 12 2 0 4 -28 4 -27 0 -38 -2 -22 -4z"/>
<path d="M5153 603 c9 -2 25 -2 35 0 9 3 1 5 -18 5 -19 0 -27 -2 -17 -5z"/>
<path d="M5345 600 c-3 -5 -18 -10 -33 -10 -23 -1 -24 -2 -10 -11 12 -7 24 -6
39 1 11 7 28 9 36 6 13 -5 14 -4 3 9 -14 17 -26 19 -35 5z"/>
<path d="M4425 590 c-3 -5 -1 -10 4 -10 6 0 11 5 11 10 0 6 -2 10 -4 10 -3 0
-8 -4 -11 -10z"/>
<path d="M2085 580 c-3 -5 -1 -10 4 -10 6 0 11 5 11 10 0 6 -2 10 -4 10 -3 0
-8 -4 -11 -10z"/>
<path d="M2117 583 c-4 -3 -7 -11 -7 -17 0 -6 5 -5 12 2 6 6 9 14 7 17 -3 3
-9 2 -12 -2z"/>
<path d="M4364 581 c3 -5 15 -7 26 -4 28 7 25 13 -6 13 -14 0 -23 -4 -20 -9z"/>
<path d="M5248 583 c6 -2 18 -2 25 0 6 3 1 5 -13 5 -14 0 -19 -2 -12 -5z"/>
<path d="M4767 572 c-5 -7 -13 -9 -19 -6 -6 4 -9 1 -6 -7 4 -12 50 -14 261
-12 251 3 256 2 240 -16 -9 -11 -23 -17 -32 -14 -11 3 -12 2 -4 -4 7 -5 9 -14
4 -21 -6 -11 -58 -21 -201 -39 -25 -3 -54 -9 -65 -13 -29 -11 80 -4 135 9 25
6 54 11 65 11 16 0 14 -3 -9 -15 -15 -8 -43 -15 -60 -15 -18 0 -35 -3 -39 -6
-3 -3 -44 -7 -91 -8 -82 -2 -92 1 -87 28 1 5 -5 6 -14 3 -8 -4 -15 -1 -15 5 0
6 -3 9 -6 5 -4 -3 7 -27 22 -52 34 -52 26 -51 207 -30 71 8 132 13 136 10 4
-2 34 2 67 9 32 8 113 17 179 20 172 9 347 27 367 38 10 4 21 20 24 33 3 14
10 25 15 25 5 0 9 5 9 10 0 17 -32 11 -36 -8 -5 -15 -30 -32 -74 -49 -8 -3 -2
8 14 25 16 18 27 35 23 38 -4 4 -25 -13 -46 -37 -29 -31 -40 -39 -41 -26 0 9
4 17 10 17 10 0 34 39 27 46 -7 7 -37 -7 -32 -16 4 -7 -27 -40 -53 -55 -11 -6
-12 -3 -3 14 7 11 16 21 21 21 6 0 10 9 10 20 0 30 -20 24 -32 -10 -10 -30
-48 -62 -48 -40 0 5 -7 10 -15 10 -8 0 -15 -3 -15 -8 0 -14 -68 -30 -81 -18
-8 8 -13 8 -16 -1 -8 -22 -31 -3 -25 20 5 21 5 21 -11 5 -9 -9 -17 -22 -17
-29 0 -9 -3 -9 -14 0 -10 8 -16 9 -21 1 -3 -6 -11 -8 -16 -5 -5 4 -9 0 -9 -7
0 -8 -5 -6 -11 5 -15 25 -4 35 32 31 26 -3 29 -2 19 11 -8 10 -18 11 -35 5
-13 -5 -26 -6 -29 -3 -3 4 -6 -8 -6 -25 0 -22 -5 -32 -15 -32 -21 0 -29 25
-15 47 10 16 10 16 5 -4 -3 -12 -1 -24 5 -28 6 -4 11 -1 9 6 -6 45 2 58 35 64
19 4 42 2 53 -3 12 -7 25 -7 34 -1 15 9 15 9 -20 13 -13 2 -30 11 -37 20 -14
20 -34 14 -34 -10 0 -8 -4 -14 -10 -14 -5 0 -10 6 -10 13 0 22 -49 -67 -50
-90 0 -13 -5 -23 -11 -23 -6 0 -9 12 -8 28 2 15 -1 28 -6 28 -6 1 -9 -2 -7 -7
1 -5 -2 -9 -8 -9 -5 0 -10 -5 -10 -11 0 -5 5 -7 10 -4 6 3 10 1 10 -4 0 -6 -7
-11 -15 -11 -8 0 -15 -6 -16 -12 0 -7 -4 -4 -9 7 -8 19 -9 19 -9 0 -1 -14 -4
-16 -12 -8 -8 8 -25 7 -62 -3 -77 -21 -101 -15 -32 7 33 11 69 20 79 22 11 1
31 15 45 31 14 16 43 45 64 66 l37 37 -252 -4 c-139 -2 -258 -6 -265 -8 -6 -2
-13 4 -15 13 -3 13 -5 14 -11 4z"/>
<path d="M5354 570 c-13 -5 -7 -10 27 -19 24 -7 51 -15 59 -18 13 -5 13 -4 1
10 -9 12 -10 17 -2 17 6 0 14 -7 17 -15 4 -8 12 -15 20 -15 8 0 11 6 8 15 -4
8 -1 15 6 15 6 0 8 -5 4 -12 -5 -7 0 -9 14 -6 13 4 30 -1 43 -13 25 -22 53 -9
31 13 -7 7 -12 8 -12 4 0 -5 -10 -2 -23 7 -24 16 -161 28 -193 17z"/>
<path d="M758 563 c7 -3 16 -2 19 1 4 3 -2 6 -13 5 -11 0 -14 -3 -6 -6z"/>
<path d="M458 553 c7 -3 16 -2 19 1 4 3 -2 6 -13 5 -11 0 -14 -3 -6 -6z"/>
<path d="M4455 490 c-15 -23 -24 -44 -21 -47 3 -3 8 1 12 10 3 9 14 14 25 12
10 -2 22 1 25 7 4 6 2 8 -4 4 -16 -10 -25 13 -11 30 6 8 9 17 6 20 -3 3 -17
-13 -32 -36z"/>
<path d="M4985 520 l-100 -6 115 -1 c63 0 129 3 145 7 26 7 25 8 -15 7 -25 -1
-90 -4 -145 -7z"/>
<path d="M5265 510 c-17 -18 -17 -20 -1 -20 9 0 15 4 12 9 -4 5 0 11 6 14 7 2
10 7 7 11 -3 3 -14 -3 -24 -14z"/>
<path d="M5482 521 c-10 -6 -7 -12 12 -25 14 -9 26 -20 26 -25 0 -14 -41 0
-47 15 -8 20 -23 17 -23 -5 0 -13 10 -20 31 -25 35 -7 49 -1 49 18 0 24 -34
57 -48 47z"/>
<path d="M5606 512 c-3 -9 -9 -23 -12 -31 -10 -21 14 -4 26 19 6 11 6 21 1 24
-5 3 -11 -2 -15 -12z"/>
<path d="M4066 512 c-3 -6 -1 -14 5 -17 15 -10 25 3 12 16 -7 7 -13 7 -17 1z"/>
<path d="M4330 510 c0 -5 5 -10 11 -10 5 0 7 5 4 10 -3 6 -8 10 -11 10 -2 0
-4 -4 -4 -10z"/>
<path d="M4560 510 l-25 -8 28 -1 c15 -1 27 4 27 9 0 6 -1 10 -2 9 -2 -1 -14
-5 -28 -9z"/>
<path d="M4848 513 c6 -2 18 -2 25 0 6 3 1 5 -13 5 -14 0 -19 -2 -12 -5z"/>
<path d="M2093 493 c-3 -10 -8 -21 -10 -25 -2 -5 2 -8 9 -8 8 0 15 11 16 25 2
29 -6 33 -15 8z"/>
<path d="M3060 490 c0 -6 7 -10 15 -10 8 0 15 2 15 4 0 2 -7 6 -15 10 -8 3
-15 1 -15 -4z"/>
<path d="M3818 493 c6 -2 18 -2 25 0 6 3 1 5 -13 5 -14 0 -19 -2 -12 -5z"/>
<path d="M4820 490 c-11 -7 -4 -10 25 -9 31 0 36 2 20 9 -26 11 -28 11 -45 0z"/>
<path d="M4925 489 c-16 -6 -13 -8 13 -8 17 -1 32 3 32 7 0 11 -20 11 -45 1z"/>
<path d="M5138 493 c7 -3 16 -2 19 1 4 3 -2 6 -13 5 -11 0 -14 -3 -6 -6z"/>
<path d="M2160 480 c0 -5 5 -10 10 -10 6 0 10 5 10 10 0 6 -4 10 -10 10 -5 0
-10 -4 -10 -10z"/>
<path d="M2195 480 c-3 -5 3 -10 14 -10 11 0 23 5 26 10 3 6 -3 10 -14 10 -11
0 -23 -4 -26 -10z"/>
<path d="M4318 483 c7 -3 16 -2 19 1 4 3 -2 6 -13 5 -11 0 -14 -3 -6 -6z"/>
<path d="M4706 482 c-3 -4 4 -9 15 -9 23 -2 25 3 4 10 -8 4 -16 3 -19 -1z"/>
<path d="M5008 483 c6 -2 18 -2 25 0 6 3 1 5 -13 5 -14 0 -19 -2 -12 -5z"/>
<path d="M2428 473 c7 -3 16 -2 19 1 4 3 -2 6 -13 5 -11 0 -14 -3 -6 -6z"/>
<path d="M4080 458 c0 -4 4 -8 9 -8 6 0 12 4 15 8 3 5 -1 9 -9 9 -8 0 -15 -4
-15 -9z"/>
<path d="M4318 463 c7 -3 16 -2 19 1 4 3 -2 6 -13 5 -11 0 -14 -3 -6 -6z"/>
<path d="M2160 447 c0 -7 13 -13 33 -14 17 -1 25 1 17 4 -8 3 -23 10 -32 15
-13 6 -18 5 -18 -5z"/>
<path d="M2530 453 c0 -7 -10 -14 -22 -14 -21 -1 -21 -2 -3 -6 11 -3 23 -10
26 -15 4 -5 9 -3 12 5 3 7 1 20 -4 28 -6 10 -9 10 -9 2z"/>
<path d="M4870 451 c0 -5 5 -13 10 -16 6 -3 10 -2 10 4 0 5 -4 13 -10 16 -5 3
-10 2 -10 -4z"/>
<path d="M2275 440 c3 -5 14 -10 23 -10 15 0 15 2 2 10 -20 13 -33 13 -25 0z"/>
<path d="M2355 440 c-3 -5 1 -10 10 -10 9 0 13 5 10 10 -3 6 -8 10 -10 10 -2
0 -7 -4 -10 -10z"/>
<path d="M4440 420 c0 -15 21 -23 32 -12 6 6 2 11 -11 15 -12 3 -21 1 -21 -3z"/>
<path d="M3878 393 c7 -3 16 -2 19 1 4 3 -2 6 -13 5 -11 0 -14 -3 -6 -6z"/>
<path d="M5886 315 c-3 -8 -1 -15 4 -15 6 0 10 7 10 15 0 8 -2 15 -4 15 -2 0
-6 -7 -10 -15z"/>
<path d="M885 311 c-3 -5 -2 -12 3 -15 5 -3 9 1 9 9 0 17 -3 19 -12 6z"/>
<path d="M4600 246 c0 -8 4 -17 9 -20 5 -4 7 3 4 14 -6 23 -13 26 -13 6z"/>
<path d="M5425 140 c3 -5 8 -10 11 -10 2 0 4 5 4 10 0 6 -5 10 -11 10 -5 0 -7
-4 -4 -10z"/>
</g>
</svg>
