<?xml version="1.0" standalone="no"?>
<!DOCTYPE svg PUBLIC "-//W3C//DTD SVG 20010904//EN"
 "http://www.w3.org/TR/2001/REC-SVG-20010904/DTD/svg10.dtd">
<svg version="1.0" xmlns="http://www.w3.org/2000/svg"
 width="260.000000pt" height="194.000000pt" viewBox="0 0 260.000000 194.000000"
 preserveAspectRatio="xMidYMid meet">
<g transform="translate(0.000000,194.000000) scale(0.100000,-0.100000)"
fill="#000000" stroke="none">
<path d="M1608 1933 c182 -2 482 -2 665 0 182 1 33 2 -333 2 -366 0 -515 -1
-332 -2z"/>
<path d="M700 1906 c0 -2 7 -6 15 -10 8 -3 15 -1 15 4 0 6 -7 10 -15 10 -8 0
-15 -2 -15 -4z"/>
<path d="M1338 1903 c7 -3 16 -2 19 1 4 3 -2 6 -13 5 -11 0 -14 -3 -6 -6z"/>
<path d="M1618 1903 c12 -2 32 -2 45 0 12 2 2 4 -23 4 -25 0 -35 -2 -22 -4z"/>
<path d="M2574 1685 c0 -55 1 -76 3 -47 2 29 2 74 0 100 -2 26 -3 2 -3 -53z"/>
<path d="M2594 1620 c0 -91 2 -128 3 -82 2 45 2 119 0 165 -1 45 -3 8 -3 -83z"/>
<path d="M1321 1704 c0 -11 3 -14 6 -6 3 7 2 16 -1 19 -3 4 -6 -2 -5 -13z"/>
<path d="M1280 1675 c-5 -14 -7 -33 -4 -42 4 -12 3 -14 -3 -6 -6 9 -28 -20
-70 -95 -34 -59 -58 -108 -53 -110 5 -2 6 -10 3 -18 -3 -7 -10 -11 -17 -7 -6
3 -8 3 -4 -2 11 -12 -143 -167 -160 -160 -7 2 -10 0 -7 -5 10 -17 -5 -32 -20
-20 -9 7 -16 6 -26 -7 -13 -16 -12 -17 3 -5 9 7 19 9 22 4 7 -12 -28 -44 -45
-40 -7 2 -13 -3 -14 -10 0 -17 -35 -43 -46 -36 -5 3 -9 -1 -9 -8 0 -8 9 -14
19 -14 11 0 18 3 15 7 -2 4 11 18 29 32 34 26 64 53 136 121 l44 41 -27 -46
c-22 -39 -24 -48 -11 -52 8 -4 14 -3 14 1 -4 21 2 42 10 38 13 -8 32 19 25 37
-6 16 48 100 60 92 3 -3 4 -2 1 1 -2 4 8 23 24 43 35 45 50 72 30 54 -26 -25
-30 -13 -7 20 13 17 33 53 45 80 12 26 24 47 26 47 2 0 4 -13 4 -30 0 -16 -4
-27 -8 -25 -8 6 -19 -20 -25 -58 -5 -40 -99 -213 -114 -209 -6 1 -9 -2 -5 -8
10 -16 -65 -114 -78 -101 -15 15 -24 14 -31 -5 -5 -13 -4 -14 7 -6 24 20 26 2
3 -24 -54 -64 -98 -104 -108 -98 -6 4 -8 3 -4 -4 7 -12 -63 -74 -76 -66 -4 3
-9 20 -10 37 -1 22 -3 17 -7 -18 -3 -27 -3 -51 0 -53 4 -2 5 -12 2 -22 -3 -11
0 -20 6 -20 6 0 11 9 11 19 0 21 47 64 61 56 12 -8 0 -33 -20 -40 -10 -3 -18
-13 -18 -21 0 -15 2 -15 13 0 9 13 14 14 20 5 9 -15 -23 -40 -42 -32 -7 3 -27
0 -44 -5 -18 -7 -32 -7 -35 -1 -4 5 -10 7 -15 4 -4 -3 -10 8 -12 25 -2 16 -1
27 4 24 4 -3 8 -12 8 -20 0 -8 5 -12 10 -9 6 3 10 1 10 -4 0 -6 5 -11 11 -11
6 0 9 6 6 14 -3 8 -3 17 0 20 3 3 8 29 10 58 2 29 10 103 18 163 21 163 28
241 19 233 -4 -5 -9 -22 -11 -40 -2 -17 -7 -36 -12 -42 -5 -6 -7 -36 -5 -66 4
-50 3 -53 -9 -30 -7 14 -9 27 -5 28 4 2 8 8 8 14 0 6 -6 6 -15 -2 -8 -7 -13
-15 -10 -19 2 -4 -12 -38 -30 -77 -19 -38 -35 -75 -35 -82 0 -7 -4 -10 -10 -7
-5 3 -10 -3 -10 -15 0 -31 -39 -64 -104 -89 -32 -12 -68 -29 -80 -37 -20 -15
-20 -15 7 -8 16 3 52 19 80 35 60 33 69 35 61 14 -4 -8 -11 -12 -17 -8 -5 3
-7 1 -4 -4 4 -6 0 -16 -8 -23 -19 -16 -19 -31 0 -24 8 3 17 14 20 25 4 10 11
18 17 16 6 -1 11 7 13 18 1 11 9 34 18 50 l16 30 -4 -33 c-2 -18 0 -30 4 -28
4 3 7 20 6 38 -1 20 12 64 35 113 l37 80 8 -38 c4 -21 4 -55 0 -75 -3 -20 -9
-62 -11 -92 -7 -70 -20 -96 -29 -57 -4 15 -11 27 -15 27 -11 0 -20 -42 -15
-70 3 -14 3 -20 0 -14 -4 8 -17 9 -43 3 -50 -12 -256 -10 -222 2 18 6 14 7
-15 2 -22 -3 -78 -9 -125 -13 -68 -5 -42 -7 125 -10 116 -2 225 -2 243 -1 26
2 32 -1 32 -18 0 -18 -5 -20 -61 -17 -38 2 -64 8 -69 17 -13 20 -23 4 -14 -23
4 -13 7 -26 6 -29 0 -4 26 -14 60 -24 46 -13 58 -19 47 -27 -10 -7 -7 -8 11
-4 14 3 42 3 63 -1 34 -5 37 -8 37 -38 0 -25 5 -34 21 -38 15 -4 19 -2 15 9
-3 8 1 14 9 14 8 0 15 5 15 11 0 5 -4 8 -9 5 -5 -3 -11 3 -14 14 -7 25 -3 25
22 -1 16 -18 33 -25 63 -28 5 -1 7 -7 5 -13 -3 -19 38 -21 53 -3 14 17 30 20
30 5 0 -5 -6 -10 -14 -10 -8 0 -18 -4 -21 -10 -4 -6 9 -10 32 -10 28 0 34 3
23 10 -13 8 -13 10 -1 10 10 0 8 6 -8 21 -21 20 -23 20 -42 3 -18 -16 -19 -16
-13 -1 5 14 1 16 -24 11 -41 -8 -49 11 -15 41 18 16 23 24 13 24 -23 0 -50
-24 -50 -45 0 -16 -2 -17 -10 -4 -6 8 -9 31 -8 50 1 20 -1 41 -5 47 -4 6 -4
19 -1 30 4 10 -4 2 -18 -17 -14 -19 -23 -37 -21 -39 2 -3 9 3 16 13 11 16 13
13 13 -21 -1 -33 -4 -39 -19 -35 -10 3 -16 11 -13 18 3 8 0 14 -5 14 -6 0 -9
-9 -6 -20 3 -11 1 -20 -4 -20 -5 0 -7 25 -4 58 5 53 4 55 -9 31 -7 -15 -12
-40 -9 -55 4 -25 2 -26 -7 -11 -18 27 -2 107 20 107 13 0 20 -9 23 -27 l4 -28
2 28 1 28 155 -2 155 -1 0 -23 c0 -13 -6 -26 -12 -29 -10 -5 -10 -7 0 -12 6
-3 9 -10 6 -16 -4 -6 -7 -39 -8 -74 l-1 -64 30 1 c17 1 45 -1 63 -5 22 -5 32
-4 32 4 0 7 -7 10 -15 7 -8 -4 -16 -3 -19 1 -3 4 4 8 14 9 11 1 22 -3 25 -8 4
-5 11 -6 17 -3 7 4 8 2 4 -4 -5 -9 9 -12 48 -12 31 0 56 4 56 9 0 16 -18 22
-23 9 -3 -7 -4 6 -3 29 1 33 -2 43 -16 46 -11 3 -15 1 -12 -5 11 -17 12 -78 1
-78 -5 0 -7 7 -3 15 3 8 1 15 -3 15 -5 0 -18 3 -28 6 -17 6 -17 6 1 -8 15 -12
16 -17 6 -23 -8 -5 -11 -4 -7 2 4 6 -2 13 -14 16 -17 5 -19 10 -13 43 5 29 4
36 -7 32 -9 -3 -13 -17 -11 -36 2 -29 0 -31 -27 -28 -15 2 -33 6 -39 10 -12 7
-5 74 11 94 8 10 7 16 -2 22 -9 5 -10 10 -2 14 13 8 15 26 3 26 -5 0 -14 -10
-19 -22 -10 -21 -11 -21 -10 9 0 33 1 33 49 33 l48 0 0 -43 c0 -24 -6 -49 -12
-56 -11 -10 -10 -11 5 -6 13 6 17 19 17 55 l0 48 53 1 c28 0 59 2 67 3 17 3
280 -10 350 -18 25 -2 64 -7 88 -10 23 -3 42 -1 42 4 0 5 -6 9 -12 9 -7 0 -44
3 -83 6 -38 3 -144 11 -235 17 -147 11 -196 19 -264 46 -13 5 -17 4 -13 -4 4
-6 21 -13 37 -17 38 -8 40 -27 3 -20 -35 6 -63 39 -63 74 0 14 7 102 16 195
16 157 16 170 1 181 -18 13 -23 45 -7 45 13 0 13 53 -1 67 -12 12 -2 83 11 83
5 0 5 -14 0 -31 -5 -18 -6 -37 -2 -43 8 -13 21 51 21 108 1 22 3 37 5 35 9 -9
17 -119 18 -249 0 -78 4 -120 8 -100 5 30 7 25 11 -33 4 -66 -5 -93 -14 -39
-3 15 -2 -9 1 -53 3 -44 5 -90 6 -102 1 -12 4 -19 8 -15 4 4 3 34 -2 67 -9 53
-7 76 4 64 3 -2 8 -49 12 -104 3 -55 10 -107 15 -115 6 -9 7 6 4 40 -31 321
-38 405 -40 467 -2 40 -6 93 -10 118 -3 26 -6 71 -6 101 0 60 -5 66 -19 29z
m-60 -360 c-16 -85 -18 -119 -11 -134 14 -26 15 -83 1 -61 -5 8 -10 26 -11 40
-1 18 -4 14 -11 -15 -5 -22 -7 -50 -5 -62 2 -13 1 -23 -4 -23 -4 0 -11 -25
-14 -55 -4 -30 -10 -53 -14 -51 -3 2 -6 -7 -6 -20 0 -25 19 -32 31 -12 5 7 3
8 -7 3 -12 -8 -12 -6 -1 8 9 10 12 28 8 49 -4 22 -3 27 2 13 7 -15 10 -6 15
35 4 30 4 66 1 80 -4 25 -4 25 7 2 9 -17 9 -41 1 -104 -7 -45 -9 -85 -4 -90 4
-4 8 9 9 30 1 20 11 107 23 192 13 101 17 156 10 158 -16 6 -12 32 5 32 19 0
19 -17 0 -189 -17 -165 -22 -221 -16 -216 4 5 30 -26 31 -36 0 -3 -7 -6 -15
-6 -8 0 -12 4 -9 9 3 4 -1 8 -10 8 -8 0 -17 -6 -20 -12 -5 -10 -7 -10 -12 0
-7 15 -34 16 -34 1 0 -8 -4 -8 -12 -2 -7 6 -21 9 -31 8 -10 -2 -14 1 -10 8 4
7 0 8 -13 3 -19 -8 -64 -13 -162 -21 -45 -3 -51 -1 -42 10 7 8 9 19 5 24 -3 6
-1 19 4 30 12 21 -8 47 -25 33 -5 -4 4 8 20 25 16 18 32 30 36 28 7 -4 77 75
170 191 21 28 38 40 44 34 6 -6 4 -16 -4 -27 -13 -17 -13 -17 5 -1 14 13 16
20 7 31 -9 10 -3 30 26 85 21 40 42 69 47 65 4 -5 5 -2 1 5 -4 6 -4 17 0 24
17 27 15 -18 -6 -127z m-40 121 c0 -3 -4 -8 -10 -11 -5 -3 -10 -1 -10 4 0 6 5
11 10 11 6 0 10 -2 10 -4z m51 -173 c-8 -15 -10 -15 -11 -2 0 17 10 32 18 25
2 -3 -1 -13 -7 -23z m-159 -15 c-7 -7 -12 -8 -12 -2 0 14 12 26 19 19 2 -3 -1
-11 -7 -17z m158 -33 c0 -14 -4 -25 -10 -25 -11 0 -14 33 -3 43 11 11 13 8 13
-18z m-370 -238 c0 -2 -10 -12 -22 -23 l-23 -19 19 23 c18 21 26 27 26 19z
m-97 -144 c-3 -21 -10 -42 -16 -48 -6 -7 -8 -3 -4 13 3 12 1 22 -4 22 -5 0 -9
-11 -9 -25 0 -19 -5 -25 -21 -25 -15 0 -19 4 -15 16 3 9 6 21 7 27 1 7 5 1 9
-13 l8 -25 1 28 c1 15 8 30 16 33 8 4 15 10 15 16 0 5 -4 6 -10 3 -5 -3 -10
-1 -10 4 0 6 9 11 19 11 17 0 19 -5 14 -37z m-101 -13 c23 0 29 -4 26 -17 -2
-10 -11 -16 -19 -14 -8 2 -21 4 -29 4 -18 0 -40 16 -40 29 0 6 7 7 16 4 9 -3
29 -6 46 -6z m511 -32 c-9 -15 -9 -19 -11 -76 -1 -24 -6 -41 -10 -38 -7 4 -8
30 -4 99 1 17 8 27 18 27 10 0 12 -4 7 -12z m-343 -79 c0 -6 -4 -7 -10 -4 -5
3 -10 11 -10 16 0 6 5 7 10 4 6 -3 10 -11 10 -16z m355 -29 c3 -5 1 -10 -4
-10 -6 0 -11 5 -11 10 0 6 2 10 4 10 3 0 8 -4 11 -10z"/>
<path d="M1211 1378 c0 -14 -4 -35 -7 -45 -5 -17 -5 -17 6 0 6 10 9 30 7 45
l-4 27 -2 -27z"/>
<path d="M1187 1279 c4 -13 8 -18 11 -10 2 7 -1 18 -6 23 -8 8 -9 4 -5 -13z"/>
<path d="M1181 1234 c0 -11 3 -14 6 -6 3 7 2 16 -1 19 -3 4 -6 -2 -5 -13z"/>
<path d="M1162 1200 c0 -14 2 -19 5 -12 2 6 2 18 0 25 -3 6 -5 1 -5 -13z"/>
<path d="M1146 1142 c-2 -4 -1 -14 3 -21 6 -9 10 -7 14 8 5 20 -7 29 -17 13z"/>
<path d="M1137 1080 c-3 -11 -2 -22 3 -25 4 -3 10 6 12 20 6 30 -7 34 -15 5z"/>
<path d="M904 1008 c-12 -14 -13 -18 -3 -10 16 12 29 7 29 -10 0 -5 -5 -6 -11
-2 -7 4 -10 1 -7 -7 3 -8 1 -22 -4 -33 -7 -12 -6 -22 3 -30 9 -8 10 -8 5 2 -4
7 4 33 19 58 15 25 24 48 21 51 -3 4 -6 1 -6 -7 0 -9 -3 -10 -13 -1 -11 8 -18
6 -33 -11z"/>
<path d="M930 931 c0 -6 4 -13 10 -16 6 -3 7 1 4 9 -7 18 -14 21 -14 7z"/>
<path d="M1337 1675 c-6 -15 10 -32 20 -21 4 3 1 6 -5 6 -6 0 -9 7 -6 15 4 8
4 15 1 15 -3 0 -7 -7 -10 -15z"/>
<path d="M1235 1671 c-3 -5 -2 -12 3 -15 5 -3 9 1 9 9 0 17 -3 19 -12 6z"/>
<path d="M1206 1628 c3 -4 11 -5 19 -1 21 7 19 12 -4 10 -11 0 -18 -5 -15 -9z"/>
<path d="M1341 1594 c0 -11 3 -14 6 -6 3 7 2 16 -1 19 -3 4 -6 -2 -5 -13z"/>
<path d="M2570 1237 c0 -209 4 -337 10 -337 9 0 3 659 -6 669 -2 2 -4 -147 -4
-332z"/>
<path d="M1132 1516 c15 -30 16 -30 14 -3 0 13 -6 24 -13 24 -9 0 -9 -6 -1
-21z"/>
<path d="M1276 1462 c-6 -43 2 -212 10 -221 2 -2 3 58 2 133 0 75 -1 136 -3
136 -1 0 -5 -22 -9 -48z"/>
<path d="M1341 1467 c-13 -21 -12 -21 5 -5 10 10 16 20 13 22 -3 3 -11 -5 -18
-17z"/>
<path d="M1322 1420 c0 -14 2 -19 5 -12 2 6 2 18 0 25 -3 6 -5 1 -5 -13z"/>
<path d="M1333 1365 c2 -16 13 -51 25 -78 11 -26 20 -49 19 -52 -1 -2 7 -10
17 -18 12 -9 16 -19 11 -27 -5 -8 -4 -11 3 -6 13 8 45 -48 34 -59 -4 -3 -2 -6
3 -5 21 5 27 -1 16 -14 -10 -12 -9 -14 6 -11 27 4 36 -5 22 -21 -7 -9 -8 -14
-3 -13 5 1 14 1 21 0 15 -1 74 -61 69 -69 -2 -4 8 -8 22 -9 25 -1 25 0 8 12
-10 8 -15 18 -11 24 3 6 0 9 -8 6 -14 -6 -79 58 -141 139 -42 55 -83 131 -102
191 -12 34 -13 36 -11 10z"/>
<path d="M866 1367 c3 -10 9 -15 12 -12 3 3 0 11 -7 18 -10 9 -11 8 -5 -6z"/>
<path d="M1063 1363 c4 -3 1 -13 -6 -22 -11 -14 -10 -14 5 -2 16 12 16 31 1
31 -4 0 -3 -3 0 -7z"/>
<path d="M1395 1290 c-4 -6 -2 -9 4 -8 5 2 16 -5 23 -15 13 -18 14 -17 14 2 0
11 -2 18 -5 16 -2 -3 -10 0 -17 6 -8 7 -14 7 -19 -1z"/>
<path d="M863 1243 c4 -3 1 -13 -6 -22 -11 -14 -10 -14 5 -2 16 12 16 31 1 31
-4 0 -3 -3 0 -7z"/>
<path d="M1268 1088 c-3 -73 -2 -137 2 -142 5 -4 9 55 9 133 1 78 0 141 -2
141 -3 0 -7 -60 -9 -132z"/>
<path d="M777 1135 c-3 -22 -15 -57 -26 -77 -10 -21 -15 -35 -9 -32 5 3 6 -5
2 -20 -4 -16 -2 -26 4 -26 6 0 13 -8 15 -17 2 -10 3 -1 0 20 -2 27 0 36 8 31
8 -5 9 -2 2 11 -7 12 -6 33 4 66 8 27 13 57 11 66 -2 10 -7 0 -11 -22z"/>
<path d="M827 1151 c-4 -17 -3 -21 5 -13 5 5 8 16 6 23 -3 8 -7 3 -11 -10z"/>
<path d="M2455 1130 c-3 -6 1 -7 9 -4 18 7 21 14 7 14 -6 0 -13 -4 -16 -10z"/>
<path d="M2327 1119 c7 -7 15 -10 18 -7 3 3 -2 9 -12 12 -14 6 -15 5 -6 -5z"/>
<path d="M2245 996 c-110 -61 -211 -119 -224 -128 -14 -9 -28 -15 -33 -12 -4
3 -8 1 -8 -4 0 -10 -50 -35 -57 -28 -3 2 8 11 24 20 36 19 25 20 -18 1 -19 -8
-30 -14 -26 -15 4 0 3 -9 -3 -20 -10 -19 -1 -28 14 -13 10 10 79 33 85 28 2
-3 -5 -8 -15 -11 -10 -4 -32 -19 -48 -33 -16 -14 -26 -20 -21 -12 14 24 -37 1
-77 -35 -21 -18 -50 -36 -65 -40 -16 -3 -34 -8 -41 -10 -17 -5 -102 16 -102
25 0 4 26 9 57 10 31 1 65 7 75 12 10 5 18 7 18 3 0 -3 7 -1 15 6 8 7 15 20
15 29 0 11 -3 13 -8 4 -4 -7 -19 -11 -32 -8 -14 3 -31 -2 -42 -11 -10 -9 -26
-14 -38 -11 -11 3 -20 1 -20 -5 0 -5 -4 -6 -10 -3 -6 4 -5 11 3 19 9 10 14 11
19 2 5 -7 8 -6 8 4 0 13 1 13 10 0 6 -9 10 -10 10 -3 0 6 -5 15 -10 18 -6 4
-8 11 -5 16 12 19 -8 8 -31 -16 -14 -16 -21 -32 -17 -42 4 -11 3 -14 -6 -9 -8
5 -14 1 -18 -13 -8 -31 -22 -26 -18 7 2 15 2 21 -1 15 -3 -7 -17 -13 -30 -13
-15 0 -27 -7 -30 -17 -3 -10 -10 -27 -15 -38 -8 -16 -8 -15 -4 8 9 44 -3 67
-32 67 -22 0 -24 3 -19 25 4 14 2 25 -4 25 -10 0 -13 -15 -14 -83 -1 -38 -1
-38 16 -16 10 11 15 25 12 30 -3 5 0 9 5 9 6 0 11 -9 11 -19 0 -11 3 -27 7
-37 4 -12 3 -15 -5 -10 -7 4 -12 2 -12 -3 0 -6 -11 -11 -24 -11 -21 0 -24 4
-20 25 4 23 3 24 -15 13 -25 -15 -29 -11 -36 38 -12 95 -18 125 -27 130 -13 8
-25 -5 -13 -14 9 -7 15 -54 15 -130 0 -21 4 -31 11 -27 6 4 10 1 8 -6 -3 -26
1 -40 10 -34 5 3 12 1 15 -4 5 -8 99 -7 173 3 25 3 30 1 26 -11 -5 -12 1 -12
33 2 65 28 117 45 121 41 3 -2 -5 -7 -16 -11 -12 -3 -19 -10 -16 -14 2 -5 -5
-17 -16 -27 -13 -12 -19 -14 -17 -5 2 7 -3 16 -10 18 -7 3 -10 -1 -6 -10 3
-10 -8 -24 -32 -41 -36 -24 -65 -27 -34 -3 22 17 25 41 5 33 -9 -3 -22 -3 -28
1 -20 12 -49 14 -42 2 4 -6 13 -8 21 -5 8 3 14 2 14 -3 0 -17 -50 -19 -61 -2
-9 14 -10 14 -5 -1 3 -10 1 -18 -4 -18 -6 0 -10 -3 -10 -7 0 -14 54 -11 74 3
27 18 42 18 26 -1 -7 -8 -16 -13 -20 -10 -5 3 -11 1 -15 -5 -3 -5 1 -10 9 -10
23 0 19 -17 -5 -23 -15 -4 -19 -2 -15 9 3 8 0 15 -7 15 -7 1 -22 3 -35 4 -12
1 -25 -2 -28 -7 -3 -5 6 -8 22 -6 15 2 29 -2 31 -9 3 -8 -6 -9 -30 -3 -19 4
-40 4 -46 0 -16 -9 -2 -40 15 -33 8 3 14 1 14 -5 0 -15 -89 -11 -102 5 -9 11
-8 13 3 11 8 -2 17 -7 21 -13 5 -6 8 -3 8 6 0 10 -10 19 -25 21 -13 3 -22 2
-20 -3 3 -4 1 -10 -5 -14 -5 -3 -10 -1 -10 4 0 6 -1 14 -2 17 -2 4 7 11 20 15
15 6 21 5 17 -1 -3 -6 1 -10 10 -10 9 0 14 4 10 9 -3 5 0 13 6 17 8 4 9 3 5
-4 -4 -7 -1 -12 9 -12 10 0 13 5 9 12 -4 6 -3 8 4 5 16 -10 42 3 42 21 0 12
-3 13 -12 4 -7 -7 -24 -12 -39 -12 -15 0 -39 -4 -53 -10 -16 -6 -27 -6 -31 0
-4 6 -3 10 2 11 51 4 87 12 115 24 l33 14 -38 1 c-21 0 -45 -7 -53 -15 -17
-17 -34 -20 -34 -6 0 5 8 11 18 13 21 5 -169 19 -220 17 -28 -2 -34 -5 -25
-14 13 -13 47 -16 47 -4 0 4 6 6 13 5 20 -3 38 -17 32 -26 -3 -5 0 -12 6 -16
8 -5 9 -3 5 5 -5 8 -3 12 5 10 26 -3 40 1 35 10 -6 10 63 6 72 -5 4 -4 -5 -4
-20 0 -17 4 -32 1 -42 -9 -8 -8 -21 -15 -28 -15 -7 0 -23 -7 -36 -15 -15 -11
-20 -12 -17 -3 4 10 -15 14 -81 16 -64 3 -84 0 -79 -8 4 -7 16 -10 26 -7 11 3
19 1 19 -4 0 -5 -10 -9 -22 -9 -14 0 -19 -3 -12 -10 12 -12 56 -1 51 14 -3 7
4 12 14 12 11 0 19 -1 19 -2 0 0 -12 -14 -26 -29 -20 -22 -23 -30 -12 -36 20
-13 32 -11 19 4 -11 14 -5 27 13 27 6 0 4 -5 -4 -10 -12 -7 -10 -9 7 -7 12 0
21 5 20 10 -1 5 10 10 24 11 21 1 26 -2 24 -16 -2 -10 0 -16 5 -13 10 6 35
-33 27 -42 -3 -2 -15 5 -26 16 -12 12 -25 21 -31 21 -13 0 -13 -27 1 -35 6 -5
4 -12 -8 -21 -14 -12 -11 -11 15 1 28 14 47 6 22 -10 -5 -3 -10 -12 -10 -18 1
-8 5 -7 13 3 7 8 19 16 27 18 8 2 21 7 30 12 13 8 13 9 -2 10 -10 0 -18 5 -18
11 0 6 7 8 16 5 9 -3 23 -6 31 -6 12 0 13 -3 4 -14 -9 -10 -7 -17 5 -27 15
-13 17 -11 12 19 -4 26 -1 32 14 32 12 0 16 -4 12 -12 -4 -7 -3 -8 4 -4 7 4
12 2 12 -3 0 -6 7 -11 15 -11 8 0 15 6 15 14 0 8 5 18 12 22 7 4 8 3 4 -4 -4
-7 -2 -12 3 -12 6 0 11 5 11 10 0 6 7 10 17 10 15 0 15 -1 -1 -19 -16 -17 -16
-19 4 -24 24 -6 26 -22 5 -31 -8 -3 -15 -1 -15 5 0 6 -7 17 -15 25 -19 20 -19
5 0 -20 20 -26 19 -37 -2 -30 -17 5 -17 5 0 -6 9 -6 14 -16 11 -22 -4 -7 -2
-8 4 -4 7 4 12 1 12 -6 0 -7 8 -1 18 14 9 16 23 28 30 28 8 0 12 6 9 14 -3 8
1 17 9 20 26 10 34 7 28 -12 -5 -16 -5 -16 9 1 19 23 27 22 22 -3 -2 -11 1
-20 7 -20 5 0 8 6 5 14 -4 10 2 16 16 19 21 4 21 4 -2 6 -15 1 -21 6 -18 15 6
15 -29 30 -38 16 -3 -5 3 -11 12 -13 14 -4 13 -5 -4 -6 -14 -1 -23 5 -23 14 0
8 5 15 11 15 5 0 8 4 4 10 -3 5 -15 6 -28 1 -17 -6 -22 -16 -21 -42 0 -35 -10
-49 -35 -49 -12 0 -12 2 1 12 18 15 31 58 17 58 -5 0 -9 -5 -9 -11 0 -5 -5 -7
-10 -4 -8 5 -7 11 1 21 6 7 15 12 19 9 5 -3 18 7 31 22 13 16 19 20 16 10 -4
-11 -3 -16 3 -12 6 4 17 -1 26 -10 9 -9 19 -13 23 -10 3 4 -5 16 -19 28 -15
12 -18 18 -8 14 12 -4 44 13 100 54 127 92 156 109 173 103 18 -7 65 31 65 52
0 7 29 32 65 55 63 40 81 57 50 45 -8 -3 -15 -1 -15 4 0 10 39 25 58 22 15 -4
16 15 0 20 -7 3 13 18 43 35 177 99 249 139 292 161 26 14 47 29 47 33 0 5 -1
9 -2 8 -2 -1 -93 -51 -203 -113z m-868 -228 c-3 -8 -6 -5 -6 6 -1 11 2 17 5
13 3 -3 4 -12 1 -19z m472 -53 c-19 -13 -39 -29 -45 -34 -7 -5 -14 -7 -18 -4
-6 6 73 63 88 63 6 0 -6 -11 -25 -25z m32 -16 c-13 -10 -28 -19 -35 -19 -6 1
2 12 19 25 16 13 32 22 35 19 3 -3 -6 -14 -19 -25z m-364 -11 c-3 -8 -6 -5 -6
6 -1 11 2 17 5 13 3 -3 4 -12 1 -19z m57 16 c9 -3 16 -12 16 -20 0 -10 6 -11
23 -5 23 9 68 -1 51 -11 -5 -3 -33 -6 -61 -5 -49 0 -52 2 -51 24 1 12 3 23 4
23 1 0 9 -3 18 -6z m-287 -100 c0 -7 -6 -10 -14 -7 -7 3 -13 8 -13 12 0 4 6 8
13 8 8 0 14 -6 14 -13z m68 -38 c9 -8 10 -17 4 -23 -13 -13 -1 -43 17 -43 7 0
18 -9 24 -19 17 -32 11 -38 -11 -12 -17 21 -23 23 -39 13 -12 -7 -21 -8 -25
-2 -3 6 -12 10 -18 10 -8 0 -7 -3 2 -9 10 -7 7 -9 -12 -8 -14 1 -23 4 -21 6 2
2 -5 11 -16 18 -15 11 -18 18 -10 32 12 23 54 37 46 15 -3 -9 -1 -12 4 -9 11
7 14 -8 4 -18 -10 -9 -34 4 -27 16 3 6 1 7 -5 3 -17 -10 -15 -33 4 -40 21 -8
45 23 38 49 -3 11 -2 16 3 10 11 -14 33 -17 33 -5 0 5 -8 14 -17 19 -12 7 -13
11 -5 11 7 0 20 -6 27 -14z m-135 -29 c0 -5 -6 -7 -14 -4 -7 3 -19 0 -25 -6
-8 -8 -11 -8 -11 0 0 12 15 20 38 20 6 0 12 -5 12 -10z m298 -13 c5 3 9 -1 9
-9 0 -18 1 -18 -31 -2 -14 8 -23 17 -19 20 3 4 12 2 19 -4 7 -6 17 -8 22 -5z
m-278 -60 c0 -8 -19 -13 -24 -6 -3 5 1 9 9 9 8 0 15 -2 15 -3z m300 -15 c0
-11 -4 -18 -10 -14 -5 3 -7 12 -3 20 7 21 13 19 13 -6z m-53 -75 c-3 -3 -12
-4 -19 -1 -8 3 -5 6 6 6 11 1 17 -2 13 -5z"/>
<path d="M1333 522 c0 -12 5 -22 9 -22 11 0 10 12 -2 30 -7 12 -9 10 -7 -8z"/>
<path d="M2323 1075 c0 -8 4 -12 9 -9 5 3 6 10 3 15 -9 13 -12 11 -12 -6z"/>
<path d="M2456 1082 c-3 -5 1 -9 9 -9 8 0 12 4 9 9 -3 4 -7 8 -9 8 -2 0 -6 -4
-9 -8z"/>
<path d="M650 1041 c0 -6 4 -13 10 -16 6 -3 7 1 4 9 -7 18 -14 21 -14 7z"/>
<path d="M2228 1033 c7 -3 16 -2 19 1 4 3 -2 6 -13 5 -11 0 -14 -3 -6 -6z"/>
<path d="M1520 1026 c0 -2 8 -10 18 -17 15 -13 16 -12 3 4 -13 16 -21 21 -21
13z"/>
<path d="M2180 1015 c-11 -13 -10 -14 4 -9 9 3 16 10 16 15 0 13 -6 11 -20 -6z"/>
<path d="M1321 974 c0 -11 3 -14 6 -6 3 7 2 16 -1 19 -3 4 -6 -2 -5 -13z"/>
<path d="M1620 949 c0 -5 14 -15 30 -20 17 -6 30 -15 30 -21 0 -5 4 -7 8 -4 5
3 25 -4 45 -14 52 -28 60 -24 12 5 -22 14 -46 32 -52 42 -8 10 -13 12 -13 4 0
-9 -6 -8 -22 3 -26 19 -38 20 -38 5z"/>
<path d="M2210 906 c7 -7 13 -7 20 0 6 6 3 10 -10 10 -13 0 -16 -4 -10 -10z"/>
<path d="M1917 889 c7 -7 15 -10 18 -7 3 3 -2 9 -12 12 -14 6 -15 5 -6 -5z"/>
<path d="M1890 886 c0 -2 8 -10 18 -17 15 -13 16 -12 3 4 -13 16 -21 21 -21
13z"/>
<path d="M2570 855 c0 -19 5 -35 11 -35 5 0 7 -5 3 -12 -4 -6 -3 -8 2 -5 12 7
5 87 -7 87 -5 0 -9 -16 -9 -35z"/>
<path d="M1110 850 c0 -5 5 -10 11 -10 5 0 7 5 4 10 -3 6 -8 10 -11 10 -2 0
-4 -4 -4 -10z"/>
<path d="M290 841 c0 -7 -5 -9 -12 -5 -7 5 -8 3 -3 -5 5 -9 10 -10 18 -2 6 6
8 14 4 18 -4 3 -7 1 -7 -6z"/>
<path d="M1075 820 c-4 -17 -5 -34 -2 -36 2 -3 7 10 11 27 3 18 4 34 2 36 -2
3 -7 -10 -11 -27z"/>
<path d="M1211 820 c0 -15 3 -19 6 -10 4 8 13 20 22 27 14 10 13 12 -6 10 -18
-1 -23 -7 -22 -27z"/>
<path d="M1288 843 c7 -3 16 -2 19 1 4 3 -2 6 -13 5 -11 0 -14 -3 -6 -6z"/>
<path d="M245 830 c3 -5 8 -10 11 -10 2 0 4 5 4 10 0 6 -5 10 -11 10 -5 0 -7
-4 -4 -10z"/>
<path d="M524 823 c1 -12 5 -26 9 -29 4 -4 7 -25 7 -47 0 -22 7 -48 15 -57 17
-18 10 -54 -8 -43 -6 4 -7 1 -3 -6 5 -7 0 -21 -10 -32 -9 -10 -12 -19 -6 -19
15 0 39 37 48 75 l7 30 13 -30 c19 -43 17 -50 -11 -63 -22 -10 -24 -15 -15
-32 6 -11 8 -25 5 -30 -3 -6 1 -10 9 -10 9 0 16 -5 16 -11 0 -5 -4 -8 -8 -5
-4 2 -8 -5 -9 -17 0 -12 1 -16 4 -9 3 6 11 12 19 12 7 0 11 -6 8 -14 -3 -9 1
-13 13 -13 13 2 18 -5 18 -25 1 -46 12 -42 20 7 3 26 4 49 1 53 -3 3 -6 -3 -6
-12 0 -20 -22 -17 -28 5 -3 11 -1 11 5 1 7 -9 13 -6 22 12 14 25 7 66 -10 66
-6 0 -7 -4 -4 -10 3 -5 2 -10 -4 -10 -5 0 -16 -3 -25 -6 -10 -4 -14 0 -13 15
1 14 5 17 13 11 16 -14 26 1 11 18 -9 13 -9 14 1 8 6 -4 12 -3 12 3 0 15 -22
61 -29 61 -4 0 -7 9 -7 20 0 11 6 20 12 20 6 0 14 9 17 19 4 16 -3 21 -41 31
-25 6 -42 14 -37 18 6 4 11 15 13 25 3 16 0 17 -20 6 -22 -12 -22 -11 -8 6 8
10 10 16 3 12 -6 -4 -14 -1 -17 5 -2 7 -4 3 -2 -9z m66 -84 c0 -5 4 -8 9 -4 5
3 13 0 17 -7 4 -7 3 -10 -1 -5 -5 4 -15 1 -24 -7 -14 -13 -16 -12 -16 10 0 13
3 24 8 24 4 0 7 -5 7 -11z m64 -201 c-3 -4 -14 -13 -25 -19 -18 -9 -19 -8 -10
9 5 10 17 19 25 19 8 0 13 -4 10 -9z"/>
<path d="M1426 825 c-11 -8 -15 -15 -9 -15 6 0 16 7 23 15 16 19 11 19 -14 0z"/>
<path d="M1605 820 c10 -11 20 -20 23 -20 3 0 -3 9 -13 20 -10 11 -20 20 -23
20 -3 0 3 -9 13 -20z"/>
<path d="M939 817 c6 -8 7 -18 3 -22 -4 -5 -1 -5 6 -1 10 6 10 11 1 22 -6 8
-14 14 -16 14 -3 0 0 -6 6 -13z"/>
<path d="M1791 812 c-16 -30 -11 -44 10 -29 10 8 14 19 9 32 -7 19 -7 19 -19
-3z"/>
<path d="M1876 815 c-3 -8 -17 -20 -31 -25 -14 -5 -25 -14 -25 -20 0 -15 16
-12 30 5 7 8 16 13 20 10 5 -3 12 4 15 16 8 24 0 37 -9 14z"/>
<path d="M2066 815 c-9 -26 -7 -32 5 -12 6 10 9 21 6 23 -2 3 -7 -2 -11 -11z"/>
<path d="M1557 809 c13 -12 31 -15 30 -4 -1 5 -10 10 -20 10 -10 1 -14 -2 -10
-6z"/>
<path d="M2036 802 c-2 -4 -1 -14 4 -22 7 -11 9 -9 7 8 -1 24 -3 26 -11 14z"/>
<path d="M483 782 c2 -12 9 -28 17 -35 10 -10 11 -9 4 3 -5 8 -9 21 -10 28 -2
8 -5 17 -8 20 -4 3 -5 -4 -3 -16z"/>
<path d="M1530 755 c0 -18 5 -25 20 -25 11 0 20 5 20 12 0 6 3 8 6 5 4 -3 15
-2 25 3 12 7 19 6 22 -3 3 -7 6 -5 6 6 1 21 -28 23 -55 2 -24 -18 -31 -19 -31
0 0 8 4 12 9 9 4 -3 8 0 8 5 0 6 -7 11 -15 11 -9 0 -15 -9 -15 -25z"/>
<path d="M2004 744 c2 -23 15 -65 29 -93 24 -48 25 -56 4 -52 -5 1 -5 -4 -2
-10 5 -7 11 -7 17 -1 6 6 30 -12 65 -49 31 -32 60 -56 66 -52 5 3 1 10 -9 16
-62 33 -132 132 -159 228 -15 51 -15 52 -11 13z"/>
<path d="M1040 753 c0 -30 16 -38 23 -11 4 12 4 24 2 27 -3 2 -5 -2 -5 -10 0
-11 -2 -11 -10 1 -8 12 -10 11 -10 -7z"/>
<path d="M1086 744 c-3 -9 -6 -24 -6 -35 0 -10 -7 -19 -15 -19 -8 0 -15 5 -15
11 0 5 -5 7 -10 4 -6 -4 -7 -12 -3 -18 4 -7 8 -16 8 -21 0 -13 47 -16 61 -4 8
6 9 21 3 45 -4 20 -6 41 -3 45 3 4 1 8 -4 8 -6 0 -13 -7 -16 -16z"/>
<path d="M1202 740 c0 -14 2 -19 5 -12 2 6 2 18 0 25 -3 6 -5 1 -5 -13z"/>
<path d="M2066 737 c3 -10 9 -15 12 -12 3 3 0 11 -7 18 -10 9 -11 8 -5 -6z"/>
<path d="M647 726 c-5 -12 0 -15 23 -12 29 3 71 -27 57 -41 -4 -4 -14 2 -21
13 -13 16 -18 17 -35 6 -14 -8 -21 -9 -21 -1 0 6 -5 9 -11 7 -6 -2 -9 -8 -7
-13 2 -6 6 -9 11 -7 4 1 7 -3 7 -9 0 -6 6 -9 14 -6 8 3 16 1 19 -6 3 -9 10 -9
30 0 15 7 29 8 32 3 3 -4 -3 -11 -12 -13 -14 -4 -13 -5 5 -6 13 -1 22 5 22 14
0 8 -4 15 -10 15 -5 0 -10 5 -10 11 0 5 5 7 10 4 6 -3 10 0 10 7 0 10 2 10 9
-1 5 -8 7 -19 5 -26 -3 -6 8 -16 23 -22 l28 -12 -30 5 c-29 4 -29 4 -5 -6 30
-13 97 -16 128 -5 15 5 22 3 22 -5 0 -7 -7 -10 -15 -7 -8 4 -17 3 -19 -2 -9
-14 28 -9 46 6 12 11 18 11 24 2 4 -8 3 -10 -4 -5 -7 4 -12 2 -12 -3 0 -6 3
-11 8 -12 4 0 14 -2 22 -4 9 -1 15 6 16 19 1 15 -5 21 -20 22 -143 7 -214 29
-202 61 3 8 -2 13 -12 13 -12 0 -14 2 -4 8 8 5 0 8 -20 8 -18 0 -47 3 -64 7
-24 6 -33 4 -37 -7z m94 -24 c-7 -2 -18 1 -23 6 -8 8 -4 9 13 5 13 -4 18 -8
10 -11z m-37 -29 c6 -15 -10 -18 -19 -3 -4 6 -11 7 -17 4 -6 -4 -8 -3 -5 3 9
14 35 12 41 -4z"/>
<path d="M1759 713 c-12 -16 -12 -17 2 -6 9 7 20 9 24 5 5 -4 5 -1 1 6 -9 16
-11 15 -27 -5z"/>
<path d="M1708 703 c7 -3 16 -2 19 1 4 3 -2 6 -13 5 -11 0 -14 -3 -6 -6z"/>
<path d="M2580 700 c0 -5 5 -10 10 -10 6 0 10 5 10 10 0 6 -4 10 -10 10 -5 0
-10 -4 -10 -10z"/>
<path d="M857 683 c-15 -15 -5 -23 28 -23 27 0 33 3 28 16 -5 13 -7 13 -14 2
-7 -10 -9 -10 -9 0 0 13 -22 17 -33 5z"/>
<path d="M491 666 c-9 -11 -9 -16 0 -22 7 -4 9 -3 5 4 -3 5 0 12 6 15 7 2 10
7 7 11 -3 4 -12 0 -18 -8z"/>
<path d="M172 640 c7 -11 16 -20 21 -20 4 0 3 9 -3 20 -6 11 -15 20 -20 20 -6
0 -5 -9 2 -20z"/>
<path d="M208 653 c7 -3 16 -2 19 1 4 3 -2 6 -13 5 -11 0 -14 -3 -6 -6z"/>
<path d="M650 620 c11 -22 26 -40 33 -40 8 0 7 -4 -3 -10 -8 -5 -12 -10 -7
-11 4 -1 12 -3 17 -4 6 -1 13 -3 17 -4 4 0 -2 -7 -13 -15 -15 -12 -17 -17 -7
-27 10 -10 16 -9 28 7 14 18 14 18 10 -3 -4 -25 18 -32 31 -11 4 7 3 8 -4 4
-7 -4 -12 -2 -12 3 0 16 16 13 34 -4 8 -8 22 -15 31 -15 14 0 13 4 -6 18 -22
18 -22 19 -2 17 12 0 28 -7 37 -14 11 -9 16 -10 16 -2 0 8 5 8 19 -1 11 -7 17
-17 14 -23 -3 -5 0 -4 8 3 18 16 39 15 39 -2 0 -8 5 -18 11 -22 7 -4 10 1 7
12 -3 15 7 23 42 36 49 20 80 23 80 9 0 -4 -10 -6 -23 -4 -19 4 -23 0 -24 -24
-2 -26 -1 -26 7 -5 10 24 25 29 36 10 5 -8 2 -9 -9 -5 -10 3 -17 2 -17 -4 0
-6 8 -9 18 -7 9 2 16 10 14 17 -2 8 4 10 17 6 11 -3 22 -2 25 3 3 6 -2 9 -11
8 -8 0 -23 12 -32 28 -9 16 -25 30 -36 32 -11 1 -60 7 -108 14 -48 6 -123 20
-165 30 -73 19 -78 19 -91 2 -13 -16 -13 -16 -7 2 4 12 1 23 -6 28 -26 16 -28
7 -8 -32z m63 -17 c-6 -16 -5 -16 10 -4 10 8 24 10 34 5 10 -4 20 -8 23 -8 3
-1 11 -5 18 -9 6 -5 18 -5 25 -1 6 4 9 3 4 -1 -4 -5 0 -17 9 -27 16 -16 18
-17 29 -1 7 9 24 17 39 18 25 1 26 -1 10 -12 -20 -15 -11 -17 14 -4 12 6 24 4
39 -9 19 -15 20 -19 7 -24 -8 -3 -12 -2 -9 3 3 5 1 12 -5 16 -5 3 -10 2 -10
-3 0 -5 -11 -7 -25 -4 -20 3 -24 1 -19 -11 6 -17 -11 -32 -21 -17 -3 5 -1 10
5 10 6 0 9 4 5 9 -3 6 -14 8 -25 6 -11 -2 -27 3 -35 11 -8 9 -15 11 -15 6 0
-10 -12 -10 -42 1 -10 4 -25 9 -33 12 -9 2 -12 11 -9 22 4 11 3 14 -3 6 -4 -6
-20 -9 -37 -6 l-29 6 24 13 c31 17 30 17 22 -3z m151 -25 c-3 -4 -9 -8 -15 -8
-5 0 -9 4 -9 8 0 5 7 9 15 9 8 0 12 -4 9 -9z m-130 -24 c3 -8 2 -14 -2 -14
-10 0 -32 22 -32 32 0 12 28 -2 34 -18z m280 4 c-3 -4 -12 -8 -20 -8 -8 0 -14
4 -14 8 0 4 9 8 19 8 11 0 17 -4 15 -8z m36 -2 c0 -2 -7 -7 -16 -10 -8 -3 -12
-2 -9 4 6 10 25 14 25 6z m-280 -16 c0 -5 -5 -10 -11 -10 -5 0 -7 5 -4 10 3 6
8 10 11 10 2 0 4 -4 4 -10z m174 -31 c-6 -11 -24 -2 -24 11 0 5 7 7 15 4 8 -4
12 -10 9 -15z"/>
<path d="M750 586 c0 -7 6 -13 13 -14 6 0 23 -4 37 -8 31 -9 25 -2 -17 19 -25
12 -33 12 -33 3z"/>
<path d="M877 563 c-11 -11 -8 -20 7 -20 8 0 12 6 9 14 -6 15 -7 15 -16 6z"/>
<path d="M1710 639 c0 -5 5 -7 10 -4 6 3 10 8 10 11 0 2 -4 4 -10 4 -5 0 -10
-5 -10 -11z"/>
<path d="M1016 625 c-3 -8 -1 -15 5 -15 6 0 7 -4 4 -10 -3 -5 -2 -10 4 -10 5
0 12 10 14 23 4 21 4 21 6 1 1 -19 7 -22 44 -21 24 0 49 -3 55 -7 9 -6 9 -1 1
18 -17 37 -48 44 -71 16 -10 -12 -18 -18 -18 -13 0 5 5 14 12 21 9 9 5 12 -19
12 -18 0 -33 -6 -37 -15z m104 -9 c0 -3 -4 -8 -10 -11 -5 -3 -10 -1 -10 4 0 6
5 11 10 11 6 0 10 -2 10 -4z"/>
<path d="M1646 614 c-4 -11 -1 -14 11 -12 9 2 18 9 21 16 6 18 -25 15 -32 -4z"/>
<path d="M1216 595 c-19 -15 -19 -15 2 -15 13 0 22 6 22 15 0 18 0 18 -24 0z"/>
<path d="M207 571 c30 -22 41 -36 37 -48 -5 -14 -4 -15 4 -4 13 19 52 25 52 8
0 -8 4 -7 10 3 8 13 10 12 10 -3 0 -19 27 -53 36 -44 3 2 -2 12 -11 20 -8 9
-15 18 -15 21 0 10 40 0 53 -14 9 -10 9 -11 0 -6 -14 8 -18 -10 -4 -18 4 -3
13 5 19 19 12 25 69 44 94 29 7 -4 10 -4 6 1 -4 4 3 16 15 26 22 18 22 18 -13
9 -69 -20 -192 -9 -310 25 -19 6 -14 0 17 -24z"/>
<path d="M123 573 c9 -2 25 -2 35 0 9 3 1 5 -18 5 -19 0 -27 -2 -17 -5z"/>
<path d="M2160 566 c0 -2 7 -7 16 -10 8 -3 12 -2 9 4 -6 10 -25 14 -25 6z"/>
<path d="M7 553 c7 -2 19 -2 26 0 6 3 1 5 -13 5 -14 0 -19 -2 -13 -5z"/>
<path d="M70 539 c-43 -6 -42 -7 20 -7 62 0 71 -1 95 -7 6 -1 14 -3 18 -3 5
-1 1 -9 -7 -18 -9 -8 -13 -21 -9 -27 4 -6 0 -8 -10 -4 -11 4 -14 2 -10 -9 3
-7 9 -14 15 -14 5 0 7 -4 3 -9 -3 -5 0 -13 6 -17 8 -4 9 -3 5 4 -5 8 3 12 23
12 16 0 33 -5 36 -10 8 -13 35 6 35 24 0 8 -3 7 -8 -1 -5 -8 -22 -10 -49 -6
-43 6 -43 5 -34 52 1 2 7 -2 15 -8 11 -10 14 -9 12 2 -1 8 -7 21 -14 29 -6 8
-9 17 -7 20 8 8 -82 6 -135 -3z"/>
<path d="M536 533 c5 -5 12 -12 16 -18 4 -6 8 -2 8 8 0 9 -7 17 -17 17 -9 0
-12 -3 -7 -7z"/>
<path d="M2580 521 c0 -12 5 -21 10 -21 6 0 10 6 10 14 0 8 -4 18 -10 21 -5 3
-10 -3 -10 -14z"/>
<path d="M280 521 c0 -5 5 -13 11 -17 8 -5 8 -9 -1 -14 -8 -5 -7 -9 4 -13 21
-8 21 19 1 39 -8 9 -15 11 -15 5z"/>
<path d="M433 523 c-7 -2 -13 -12 -13 -21 1 -15 2 -16 13 -1 7 9 19 18 27 22
13 5 13 5 0 5 -8 0 -21 -2 -27 -5z"/>
<path d="M1669 525 c-1 -3 -2 -11 -3 -17 0 -7 -10 -14 -21 -16 -11 -2 -24 -8
-29 -12 -12 -12 36 0 51 13 16 11 47 1 38 -13 -3 -5 2 -10 11 -10 16 0 16 1
-1 20 -10 11 -24 20 -32 20 -8 0 -11 5 -8 10 3 6 4 10 1 10 -3 0 -7 -2 -7 -5z"/>
<path d="M2190 520 c0 -5 5 -10 11 -10 5 0 7 5 4 10 -3 6 -8 10 -11 10 -2 0
-4 -4 -4 -10z"/>
<path d="M473 512 c-14 -2 -23 -10 -23 -20 0 -15 2 -15 10 -2 9 13 10 13 10 0
0 -13 2 -13 9 -1 5 8 18 16 28 17 16 3 19 -2 15 -26 -3 -19 0 -30 7 -30 8 0
11 12 9 33 -3 33 -13 38 -65 29z"/>
<path d="M1440 509 c0 -5 5 -7 10 -4 6 3 10 8 10 11 0 2 -4 4 -10 4 -5 0 -10
-5 -10 -11z"/>
<path d="M140 506 c0 -9 30 -14 35 -6 4 6 -3 10 -14 10 -12 0 -21 -2 -21 -4z"/>
<path d="M250 495 c-7 -9 -8 -15 -2 -15 5 0 12 7 16 15 3 8 4 15 2 15 -2 0 -9
-7 -16 -15z"/>
<path d="M1002 485 c0 -16 2 -22 5 -12 2 9 2 23 0 30 -3 6 -5 -1 -5 -18z"/>
<path d="M1728 503 c7 -3 16 -2 19 1 4 3 -2 6 -13 5 -11 0 -14 -3 -6 -6z"/>
<path d="M1830 500 c19 -13 30 -13 30 0 0 6 -10 10 -22 10 -19 0 -20 -2 -8
-10z"/>
<path d="M1911 499 c13 -8 88 -14 78 -5 -2 2 -24 6 -48 9 -29 4 -40 2 -30 -4z"/>
<path d="M850 489 c-11 -8 -12 -12 -2 -16 6 -2 12 -11 12 -19 0 -19 7 -18 37
6 14 11 21 20 16 20 -6 0 -17 -7 -24 -17 -13 -15 -14 -14 -19 10 -4 21 -8 24
-20 16z"/>
<path d="M2058 493 c6 -2 18 -2 25 0 6 3 1 5 -13 5 -14 0 -19 -2 -12 -5z"/>
<path d="M2118 493 c7 -3 16 -2 19 1 4 3 -2 6 -13 5 -11 0 -14 -3 -6 -6z"/>
<path d="M2220 492 c0 -4 14 -9 32 -10 37 -3 35 2 -4 12 -16 3 -28 3 -28 -2z"/>
<path d="M700 467 c0 -18 -2 -19 -10 -7 -8 11 -9 8 -4 -12 4 -19 2 -28 -6 -28
-9 0 -10 -3 -1 -13 6 -8 8 -17 4 -20 -3 -4 -1 -7 5 -7 15 0 24 17 13 24 -10 7
9 66 21 66 4 0 5 -6 2 -14 -3 -7 2 -16 11 -20 9 -3 18 1 22 10 4 11 14 14 34
10 19 -4 29 -1 33 11 5 12 1 14 -14 10 -11 -3 -23 -1 -26 4 -10 16 -22 9 -32
-18 -9 -24 -11 -25 -11 -7 -1 30 -41 40 -41 11z"/>
<path d="M1667 466 c-10 -14 -13 -26 -8 -26 13 0 33 28 29 41 -2 6 -12 0 -21
-15z"/>
<path d="M1119 470 c-1 -6 -2 -16 -3 -22 -1 -7 5 -18 14 -25 13 -11 13 -12 -2
-13 -11 0 -18 -8 -18 -19 0 -20 27 -48 37 -37 3 3 0 6 -7 6 -7 0 -10 3 -7 7 4
3 2 12 -3 18 -8 9 -6 14 6 19 15 6 15 8 0 31 -14 21 -14 24 -1 19 8 -4 15 -2
15 4 0 13 -30 24 -31 12z"/>
<path d="M1175 470 c3 -5 8 -10 11 -10 2 0 4 5 4 10 0 6 -5 10 -11 10 -5 0 -7
-4 -4 -10z"/>
<path d="M1729 452 c-8 -18 -19 -30 -26 -27 -7 2 -13 0 -13 -5 0 -17 30 -11
37 8 4 9 11 20 16 23 5 4 7 13 5 20 -3 8 -10 0 -19 -19z"/>
<path d="M1799 470 c0 -8 -2 -24 -3 -36 -1 -11 4 -26 11 -32 16 -15 16 -11 4
22 -6 15 -6 26 -1 28 6 2 6 9 0 18 -9 13 -10 13 -11 0z"/>
<path d="M1838 473 c7 -3 16 -2 19 1 4 3 -2 6 -13 5 -11 0 -14 -3 -6 -6z"/>
<path d="M2125 470 c-16 -7 -14 -8 12 -7 17 1 29 5 26 10 -5 9 -12 8 -38 -3z"/>
<path d="M2580 470 c0 -5 5 -10 10 -10 6 0 10 5 10 10 0 6 -4 10 -10 10 -5 0
-10 -4 -10 -10z"/>
<path d="M355 458 c4 -11 0 -18 -12 -20 -10 -2 9 -4 42 -5 36 0 52 3 40 7 -11
4 -24 5 -28 3 -5 -3 -17 3 -28 13 -17 15 -19 15 -14 2z"/>
<path d="M455 461 c-3 -5 -1 -12 5 -16 6 -4 7 -11 4 -17 -4 -6 -2 -8 4 -5 5 4
8 16 5 27 -6 22 -9 24 -18 11z"/>
<path d="M580 459 c0 -5 5 -7 10 -4 6 3 10 8 10 11 0 2 -4 4 -10 4 -5 0 -10
-5 -10 -11z"/>
<path d="M1049 457 c5 -5 7 -16 4 -23 -3 -8 0 -14 6 -14 6 0 10 11 9 23 -1 13
-8 24 -15 24 -9 0 -10 -4 -4 -10z"/>
<path d="M1860 460 c-8 -5 -10 -10 -5 -10 6 0 17 5 25 10 8 5 11 10 5 10 -5 0
-17 -5 -25 -10z"/>
<path d="M1910 462 c0 -6 -8 -13 -17 -15 -16 -4 -16 -5 -1 -6 18 -1 34 16 24
26 -3 4 -6 1 -6 -5z"/>
<path d="M1948 463 c7 -3 16 -2 19 1 4 3 -2 6 -13 5 -11 0 -14 -3 -6 -6z"/>
<path d="M2068 463 c7 -3 16 -2 19 1 4 3 -2 6 -13 5 -11 0 -14 -3 -6 -6z"/>
<path d="M606 445 c-3 -8 -1 -15 4 -15 6 0 10 7 10 15 0 8 -2 15 -4 15 -2 0
-6 -7 -10 -15z"/>
<path d="M910 449 c0 -5 5 -7 10 -4 6 3 10 8 10 11 0 2 -4 4 -10 4 -5 0 -10
-5 -10 -11z"/>
<path d="M976 451 c-4 -6 -2 -11 5 -11 9 0 9 -4 -1 -15 -6 -8 -8 -20 -4 -27 5
-8 10 -3 16 17 8 30 -4 56 -16 36z"/>
<path d="M1766 443 c-6 -14 -5 -15 5 -6 7 7 10 15 7 18 -3 3 -9 -2 -12 -12z"/>
<path d="M2200 438 c-12 -22 -12 -22 6 -6 10 10 15 20 12 24 -4 3 -12 -5 -18
-18z"/>
<path d="M2269 447 c6 -8 7 -18 3 -22 -4 -5 -1 -5 6 -1 10 6 10 11 1 22 -6 8
-14 14 -16 14 -3 0 0 -6 6 -13z"/>
<path d="M572 430 c7 -11 17 -20 22 -20 5 0 1 9 -9 20 -10 11 -20 20 -22 20
-2 0 2 -9 9 -20z"/>
<path d="M815 440 c-16 -7 -17 -9 -3 -9 9 -1 20 4 23 9 7 11 7 11 -20 0z"/>
<path d="M1006 435 c-3 -9 0 -15 9 -15 9 0 12 6 9 15 -4 8 -7 15 -9 15 -2 0
-5 -7 -9 -15z"/>
<path d="M1150 443 c0 -5 5 -15 10 -23 8 -12 10 -11 10 8 0 12 -4 22 -10 22
-5 0 -10 -3 -10 -7z"/>
<path d="M300 430 c-9 -6 -10 -10 -3 -10 6 0 15 5 18 10 8 12 4 12 -15 0z"/>
<path d="M760 416 c-5 -13 -15 -26 -22 -29 -9 -4 -9 -6 -1 -6 6 -1 15 4 18 9
3 6 11 10 17 10 6 0 1 -11 -12 -25 -18 -20 -26 -22 -42 -14 -15 8 -23 8 -32
-1 -8 -10 -7 -11 4 -8 8 3 23 1 33 -4 14 -7 22 -5 31 7 10 15 15 15 27 4 17
-17 87 -20 93 -4 3 8 -8 11 -30 9 -43 -2 -76 5 -69 16 3 5 16 7 29 4 16 -3 30
5 47 24 15 17 17 21 4 10 -15 -12 -25 -14 -38 -7 -9 6 -16 7 -15 2 2 -4 -1 -9
-7 -9 -5 -1 -9 2 -7 8 1 5 -2 7 -8 3 -5 -3 -10 -2 -10 4 0 5 6 12 13 14 9 4 9
6 -1 6 -7 1 -17 -10 -22 -23z"/>
<path d="M1367 434 c-3 -5 1 -15 9 -22 16 -14 18 -5 5 17 -5 7 -11 9 -14 5z"/>
<path d="M483 415 c-3 -9 -3 -19 1 -22 3 -4 6 1 6 11 0 10 5 14 12 10 7 -4 8
-3 4 4 -10 16 -15 15 -23 -3z"/>
<path d="M523 415 c0 -8 2 -13 5 -11 2 3 15 1 29 -5 16 -6 22 -6 18 1 -3 6
-13 10 -21 10 -8 0 -14 5 -14 10 0 6 -4 10 -8 10 -5 0 -9 -7 -9 -15z"/>
<path d="M718 423 c6 -2 10 -9 6 -14 -3 -5 -1 -9 5 -9 17 0 21 18 5 24 -9 3
-19 6 -22 5 -4 0 -1 -3 6 -6z"/>
<path d="M1400 420 c0 -6 7 -10 15 -10 8 0 15 2 15 4 0 2 -7 6 -15 10 -8 3
-15 1 -15 -4z"/>
<path d="M1650 420 c0 -5 5 -10 10 -10 6 0 10 5 10 10 0 6 -4 10 -10 10 -5 0
-10 -4 -10 -10z"/>
<path d="M1835 421 c-3 -5 -2 -12 3 -15 5 -3 9 1 9 9 0 17 -3 19 -12 6z"/>
<path d="M910 408 c0 -15 18 -17 30 -3 9 11 8 14 -9 12 -12 -1 -21 -5 -21 -9z"/>
<path d="M1748 413 c7 -3 16 -2 19 1 4 3 -2 6 -13 5 -11 0 -14 -3 -6 -6z"/>
<path d="M599 393 c-13 -17 -13 -17 6 -3 11 8 22 16 24 17 2 2 0 3 -6 3 -6 0
-17 -8 -24 -17z"/>
<path d="M1183 395 c0 -7 8 -10 19 -7 10 2 18 6 18 7 0 1 -8 5 -18 7 -11 3
-19 0 -19 -7z"/>
<path d="M1277 399 c7 -7 15 -10 18 -7 3 3 -2 9 -12 12 -14 6 -15 5 -6 -5z"/>
<path d="M1310 399 c0 -5 5 -9 11 -9 5 0 7 -4 4 -10 -3 -6 4 -10 17 -9 13 0
17 3 9 6 -10 4 -10 7 -1 13 8 5 3 9 -14 12 -14 3 -26 1 -26 -3z"/>
<path d="M1044 382 c2 -9 8 -18 14 -20 17 -5 15 25 -2 31 -9 4 -13 0 -12 -11z"/>
<path d="M1411 385 c-1 -17 -3 -18 -12 -5 -9 13 -10 13 -6 -1 3 -9 -2 -27 -11
-40 -18 -26 -23 -59 -9 -59 5 0 7 9 4 21 -4 15 -2 19 8 15 10 -3 12 0 9 12 -4
10 4 6 20 -11 14 -15 26 -23 26 -17 0 5 -9 18 -20 27 -23 20 -27 38 -5 30 8
-4 17 -1 21 5 4 6 3 8 -4 4 -6 -3 -12 3 -15 16 -4 20 -4 20 -6 3z"/>
<path d="M1264 375 c34 -18 36 -18 36 -4 0 5 -4 8 -9 4 -5 -3 -12 -1 -16 5 -3
5 -14 10 -23 10 -11 0 -6 -6 12 -15z"/>
<path d="M1540 379 c0 -6 -7 -8 -16 -5 -13 5 -14 4 -6 -7 14 -17 6 -27 -16
-21 -14 5 -14 4 1 -6 9 -6 17 -18 17 -27 0 -15 2 -14 13 2 9 11 19 15 28 11 8
-4 6 -1 -3 7 -11 8 -15 21 -11 35 3 12 3 22 -1 22 -3 0 -6 -5 -6 -11z"/>
<path d="M1568 383 c10 -4 10 -8 1 -20 -10 -11 -10 -13 0 -11 23 5 21 -33 -2
-41 -14 -5 -17 -10 -8 -15 7 -5 19 0 27 10 15 18 15 18 9 -1 -5 -16 -4 -17 6
-8 9 10 10 15 0 27 -9 10 -9 16 -1 21 13 8 -16 46 -34 44 -6 0 -5 -3 2 -6z"/>
<path d="M500 369 c0 -5 -4 -8 -8 -5 -5 3 -9 -1 -9 -8 0 -20 23 -15 24 6 1 10
0 18 -3 18 -2 0 -4 -5 -4 -11z"/>
<path d="M573 362 c0 -12 2 -22 3 -22 12 0 34 14 34 22 0 5 -5 6 -11 2 -6 -3
-15 0 -20 7 -6 10 -8 7 -6 -9z"/>
<path d="M1080 371 c0 -6 4 -13 10 -16 6 -3 7 1 4 9 -7 18 -14 21 -14 7z"/>
<path d="M624 358 c-5 -7 -2 -9 8 -5 9 3 22 0 29 -6 11 -10 11 -9 0 6 -16 20
-27 22 -37 5z"/>
<path d="M1638 363 c7 -3 16 -2 19 1 4 3 -2 6 -13 5 -11 0 -14 -3 -6 -6z"/>
<path d="M2585 360 c-3 -5 -1 -10 4 -10 6 0 11 5 11 10 0 6 -2 10 -4 10 -3 0
-8 -4 -11 -10z"/>
<path d="M540 349 c0 -5 5 -7 10 -4 6 3 10 8 10 11 0 2 -4 4 -10 4 -5 0 -10
-5 -10 -11z"/>
<path d="M895 350 c-3 -5 -1 -10 4 -10 6 0 11 5 11 10 0 6 -2 10 -4 10 -3 0
-8 -4 -11 -10z"/>
<path d="M1253 340 c1 -13 8 -20 23 -20 12 0 28 -2 36 -5 22 -9 50 17 37 35
-9 13 -10 12 -5 -2 4 -14 0 -18 -19 -18 -14 0 -25 4 -25 9 0 5 -10 7 -22 3
-14 -3 -19 -2 -14 6 4 7 3 12 -3 12 -5 0 -9 -9 -8 -20z"/>
<path d="M1788 353 c6 -2 18 -2 25 0 6 3 1 5 -13 5 -14 0 -19 -2 -12 -5z"/>
<path d="M765 339 c-9 -14 0 -22 18 -17 13 2 13 5 2 15 -10 9 -16 9 -20 2z"/>
<path d="M1106 341 c-4 -6 -10 -9 -14 -7 -4 2 -7 -6 -7 -19 0 -13 3 -21 8 -18
4 2 7 11 7 19 0 8 5 14 11 14 5 0 7 -5 3 -12 -4 -7 -3 -8 4 -4 16 10 15 -7 0
-23 -11 -11 -9 -11 9 0 12 7 19 17 17 21 -3 4 0 8 5 8 6 0 11 5 11 11 0 6 -7
8 -17 5 -9 -4 -20 -2 -23 5 -6 8 -9 8 -14 0z"/>
<path d="M690 329 c0 -5 5 -7 10 -4 6 3 10 8 10 11 0 2 -4 4 -10 4 -5 0 -10
-5 -10 -11z"/>
<path d="M1450 334 c0 -7 52 -25 57 -20 2 2 -10 8 -26 14 -17 6 -31 9 -31 6z"/>
<path d="M730 299 c0 -11 4 -18 10 -14 5 3 7 12 3 20 -7 21 -13 19 -13 -6z"/>
<path d="M641 300 c0 -8 4 -22 9 -30 12 -18 12 -2 0 25 -6 13 -9 15 -9 5z"/>
<path d="M681 303 c-1 -6 -4 -20 -7 -30 -5 -17 -5 -17 6 0 6 10 9 23 6 30 -3
9 -5 9 -5 0z"/>
<path d="M785 290 c3 -5 8 -10 11 -10 2 0 4 5 4 10 0 6 -5 10 -11 10 -5 0 -7
-4 -4 -10z"/>
<path d="M1258 293 c7 -3 16 -2 19 1 4 3 -2 6 -13 5 -11 0 -14 -3 -6 -6z"/>
<path d="M1390 283 c0 -10 4 -14 8 -8 4 6 11 13 16 18 5 4 2 7 -7 7 -10 0 -17
-8 -17 -17z"/>
<path d="M1486 289 c2 -4 -4 -10 -13 -12 -15 -4 -15 -5 -2 -6 9 0 22 5 28 12
8 10 7 14 -4 14 -8 0 -12 -4 -9 -8z"/>
<path d="M408 283 c7 -3 16 -2 19 1 4 3 -2 6 -13 5 -11 0 -14 -3 -6 -6z"/>
<path d="M1130 271 c-6 -12 -7 -21 -1 -21 10 0 24 30 17 37 -2 3 -9 -5 -16
-16z"/>
<path d="M700 270 c0 -5 5 -10 11 -10 5 0 7 5 4 10 -3 6 -8 10 -11 10 -2 0 -4
-4 -4 -10z"/>
<path d="M1160 260 c-6 -11 -8 -20 -6 -20 3 0 10 9 16 20 6 11 8 20 6 20 -3 0
-10 -9 -16 -20z"/>
<path d="M1260 276 c0 -2 7 -7 16 -10 8 -3 12 -2 9 4 -6 10 -25 14 -25 6z"/>
<path d="M603 263 c9 -2 23 -2 30 0 6 3 -1 5 -18 5 -16 0 -22 -2 -12 -5z"/>
<path d="M1070 265 c0 -7 30 -13 34 -7 3 4 -4 9 -15 9 -10 1 -19 0 -19 -2z"/>
<path d="M1485 260 c-16 -7 -17 -9 -3 -9 9 -1 20 4 23 9 7 11 7 11 -20 0z"/>
<path d="M1860 250 c-9 -6 -10 -10 -3 -10 6 0 15 5 18 10 8 12 4 12 -15 0z"/>
<path d="M1520 239 c0 -10 99 -16 113 -7 13 9 13 9 -60 12 -29 1 -53 -1 -53
-5z"/>
<path d="M1690 235 c-11 -13 -10 -14 4 -9 9 3 16 10 16 15 0 13 -6 11 -20 -6z"/>
<path d="M1958 243 c6 -2 18 -2 25 0 6 3 1 5 -13 5 -14 0 -19 -2 -12 -5z"/>
<path d="M1383 233 c9 -2 25 -2 35 0 9 3 1 5 -18 5 -19 0 -27 -2 -17 -5z"/>
<path d="M1475 230 c-3 -5 1 -10 9 -10 8 0 18 5 21 10 3 6 -1 10 -9 10 -8 0
-18 -4 -21 -10z"/>
<path d="M1646 224 c-4 -9 -4 -19 -1 -22 2 -3 7 3 11 12 4 9 4 19 1 22 -2 3
-7 -3 -11 -12z"/>
<path d="M1115 220 c-3 -5 -2 -10 4 -10 5 0 13 5 16 10 3 6 2 10 -4 10 -5 0
-13 -4 -16 -10z"/>
<path d="M1728 223 c6 -2 18 -2 25 0 6 3 1 5 -13 5 -14 0 -19 -2 -12 -5z"/>
<path d="M1778 223 c7 -3 16 -2 19 1 4 3 -2 6 -13 5 -11 0 -14 -3 -6 -6z"/>
<path d="M1820 226 c0 -2 7 -7 16 -10 8 -3 12 -2 9 4 -6 10 -25 14 -25 6z"/>
<path d="M1868 223 c6 -2 18 -2 25 0 6 3 1 5 -13 5 -14 0 -19 -2 -12 -5z"/>
<path d="M1920 220 c0 -5 4 -10 9 -10 6 0 13 5 16 10 3 6 -1 10 -9 10 -9 0
-16 -4 -16 -10z"/>
<path d="M1137 203 c-4 -3 -7 -11 -7 -17 0 -6 5 -5 12 2 6 6 9 14 7 17 -3 3
-9 2 -12 -2z"/>
<path d="M1170 196 c0 -2 7 -7 16 -10 8 -3 12 -2 9 4 -6 10 -25 14 -25 6z"/>
<path d="M1475 190 c-3 -6 1 -7 9 -4 18 7 21 14 7 14 -6 0 -13 -4 -16 -10z"/>
<path d="M1555 190 c3 -5 8 -10 11 -10 2 0 4 5 4 10 0 6 -5 10 -11 10 -5 0 -7
-4 -4 -10z"/>
<path d="M1921 164 c0 -11 3 -14 6 -6 3 7 2 16 -1 19 -3 4 -6 -2 -5 -13z"/>
<path d="M2563 140 c0 -25 2 -35 4 -22 2 12 2 32 0 45 -2 12 -4 2 -4 -23z"/>
<path d="M1547 110 c4 -32 3 -33 -9 -15 -17 27 -48 22 -41 -6 5 -18 6 -19 19
-2 12 15 13 16 8 1 -5 -14 2 -16 52 -14 32 1 59 7 61 12 2 5 -6 10 -17 10 -11
0 -20 -5 -20 -10 0 -5 -7 -1 -16 10 -8 10 -13 13 -9 7 3 -7 2 -13 -2 -13 -5 0
-14 12 -20 28 -11 26 -11 26 -6 -8z"/>
<path d="M2003 133 c-7 -2 -13 -16 -13 -29 0 -14 -4 -22 -10 -19 -5 3 -10 2
-10 -3 0 -6 11 -9 25 -8 26 1 34 11 14 18 -9 3 -9 10 0 26 6 12 10 22 9 21 -2
0 -9 -3 -15 -6z"/>
<path d="M1693 104 c-29 -32 -29 -33 5 -30 32 2 82 33 81 50 0 7 -2 6 -6 -1
-2 -7 -13 -13 -24 -13 -10 0 -19 -4 -19 -10 0 -5 -7 -10 -15 -10 -13 0 -14 4
-5 20 14 27 10 25 -17 -6z"/>
<path d="M2042 100 c-16 -26 -15 -29 4 -26 9 1 21 11 26 21 7 12 7 16 0 11 -6
-3 -12 -2 -14 4 -2 6 -9 1 -16 -10z"/>
<path d="M1797 104 c-15 -15 -6 -31 17 -31 16 0 23 5 21 16 -2 17 -26 26 -38
15z m33 -8 c0 -2 -7 -6 -15 -10 -8 -3 -15 -1 -15 4 0 6 7 10 15 10 8 0 15 -2
15 -4z"/>
<path d="M1868 92 c-34 -7 -18 -17 27 -18 25 -1 45 2 45 6 0 4 -10 7 -22 6
-13 -1 -25 1 -28 4 -3 3 -13 4 -22 2z"/>
<path d="M2080 81 c0 -6 5 -13 10 -16 6 -3 10 1 10 9 0 9 -4 16 -10 16 -5 0
-10 -4 -10 -9z"/>
<path d="M2117 83 c-14 -14 -6 -22 22 -21 15 1 33 -2 39 -6 6 -4 8 1 5 13 -4
16 -9 18 -30 10 -31 -12 -36 -11 -28 1 7 11 2 13 -8 3z"/>
<path d="M2585 80 c-3 -5 -1 -10 4 -10 6 0 11 5 11 10 0 6 -2 10 -4 10 -3 0
-8 -4 -11 -10z"/>
<path d="M1525 40 c-10 -11 -14 -20 -9 -20 5 0 15 9 22 20 7 11 11 20 9 20 -2
0 -12 -9 -22 -20z"/>
<path d="M1640 49 c0 -5 -4 -8 -9 -5 -5 3 -12 -1 -15 -9 -4 -13 -2 -13 14 -5
23 12 33 13 26 1 -3 -4 16 -8 42 -7 26 1 52 -2 58 -6 7 -5 14 -3 17 6 5 11 -5
14 -51 13 -34 0 -57 4 -60 11 -5 15 -22 16 -22 1z"/>
<path d="M1842 38 c-19 -19 -14 -24 22 -20 34 4 60 32 30 32 -8 0 -12 -4 -9
-10 3 -6 -1 -10 -10 -10 -9 0 -13 5 -10 10 9 14 -8 13 -23 -2z"/>
<path d="M1947 36 c-3 -8 -2 -18 3 -21 6 -4 10 -1 10 5 0 7 6 8 19 1 14 -8 22
-7 31 4 9 11 8 14 -7 13 -10 0 -25 2 -34 6 -10 5 -19 1 -22 -8z"/>
<path d="M2110 35 c-7 -9 -10 -18 -6 -22 3 -3 6 0 6 8 1 10 5 8 15 -5 15 -19
15 -19 15 1 0 28 -15 37 -30 18z"/>
<path d="M1545 30 c-3 -5 -1 -10 4 -10 6 0 11 5 11 10 0 6 -2 10 -4 10 -3 0
-8 -4 -11 -10z"/>
<path d="M2034 33 c4 -4 16 -8 28 -10 28 -4 18 6 -12 12 -12 2 -20 1 -16 -2z"/>
<path d="M2177 29 c7 -7 15 -10 18 -7 3 3 -2 9 -12 12 -14 6 -15 5 -6 -5z"/>
<path d="M85 10 c3 -5 8 -10 11 -10 2 0 4 5 4 10 0 6 -5 10 -11 10 -5 0 -7 -4
-4 -10z"/>
<path d="M140 9 c0 -5 5 -7 10 -4 6 3 10 8 10 11 0 2 -4 4 -10 4 -5 0 -10 -5
-10 -11z"/>
<path d="M183 3 c9 -2 23 -2 30 0 6 3 -1 5 -18 5 -16 0 -22 -2 -12 -5z"/>
<path d="M353 3 c71 -2 183 -2 250 0 67 1 10 3 -128 3 -137 0 -192 -2 -122 -3z"/>
</g>
</svg>
