<?xml version="1.0" standalone="no"?>
<!DOCTYPE svg PUBLIC "-//W3C//DTD SVG 20010904//EN"
 "http://www.w3.org/TR/2001/REC-SVG-20010904/DTD/svg10.dtd">
<svg version="1.0" xmlns="http://www.w3.org/2000/svg"
 width="472.000000pt" height="590.000000pt" viewBox="0 0 472.000000 590.000000"
 preserveAspectRatio="xMidYMid meet">
<g transform="translate(0.000000,590.000000) scale(0.100000,-0.100000)"
fill="#000000" stroke="none">
<path d="M1805 5789 c-19 -40 -35 -81 -35 -90 0 -24 -18 -35 -80 -49 -52 -11
-113 -46 -164 -94 -13 -11 -44 -34 -70 -49 -84 -52 -176 -201 -200 -324 -14
-71 -35 -161 -66 -283 -18 -72 -34 -168 -71 -420 -5 -41 -14 -93 -19 -115 -5
-22 -14 -67 -20 -100 -22 -109 -61 -248 -110 -393 -55 -161 -106 -337 -121
-415 -6 -28 -14 -74 -20 -102 -5 -27 -14 -97 -19 -155 -12 -135 -39 -231 -143
-505 -8 -22 -20 -60 -27 -85 -21 -75 -52 -162 -75 -215 -37 -82 -56 -127 -82
-195 -35 -93 -93 -271 -93 -287 0 -7 -4 -21 -9 -31 -21 -38 -95 -303 -131
-467 -8 -37 -14 -59 -39 -147 -45 -153 -56 -197 -77 -298 -13 -63 -28 -137
-33 -165 -6 -27 -16 -77 -23 -110 -7 -33 -13 -118 -13 -190 0 -148 6 -164 82
-246 59 -63 120 -86 333 -129 95 -19 135 -20 425 -18 295 3 320 4 323 20 2 12
-6 22 -25 29 -142 54 -270 134 -312 194 -64 94 -25 199 86 231 l55 16 56 -34
c157 -95 247 -118 462 -118 152 0 231 9 360 38 25 6 77 13 115 17 39 4 117 20
175 36 58 17 139 40 180 52 41 11 98 31 126 43 28 12 80 25 115 30 126 15 169
28 226 66 57 39 61 44 69 85 5 26 1 39 -20 64 -35 41 -31 65 9 61 58 -4 64 -3
93 18 25 19 33 20 78 10 79 -17 77 -14 50 -67 -14 -27 -28 -56 -30 -65 -4 -12
-15 -18 -35 -18 -16 0 -36 -3 -45 -6 -21 -8 -76 -105 -76 -134 0 -25 62 -90
87 -90 14 0 64 -31 91 -57 20 -19 52 -95 52 -124 0 -15 10 -49 21 -77 17 -40
32 -58 71 -83 36 -24 56 -46 77 -88 43 -85 83 -111 169 -112 51 -1 59 2 83 30
14 17 31 31 37 31 6 0 17 10 23 22 7 12 20 29 29 38 9 8 23 35 30 59 8 24 20
45 27 48 7 3 13 19 13 35 0 23 -14 43 -65 93 -65 65 -71 75 -78 157 -5 51 -24
78 -56 78 -11 0 -27 10 -35 22 -14 20 -14 23 4 35 14 10 20 26 20 53 0 21 5
42 10 45 6 3 7 17 4 29 -8 31 49 81 80 70 35 -12 124 -6 158 12 40 20 88 63
88 80 0 6 9 23 20 37 11 14 20 32 20 41 0 9 5 25 12 35 9 15 9 25 0 46 -11 25
-8 33 41 103 193 276 375 603 426 767 13 39 26 79 31 90 5 11 22 56 37 100 25
74 27 92 28 240 0 142 -3 168 -23 227 -13 37 -40 92 -60 122 l-37 54 8 139
c15 262 -12 631 -59 798 -82 293 -130 393 -301 628 -70 96 -243 295 -323 370
-125 119 -209 207 -309 327 -114 136 -159 203 -208 306 -48 101 -52 153 -20
233 28 70 25 75 -40 75 -70 0 -156 -106 -174 -214 -19 -120 -11 -110 -82 -110
-82 0 -219 -17 -282 -35 -60 -17 -155 -80 -172 -115 -15 -30 -3 -46 40 -55 49
-11 155 -44 227 -72 75 -28 243 -117 257 -136 22 -28 31 -154 18 -258 -9 -70
-1 -98 82 -277 15 -32 15 -34 -11 -61 -14 -15 -26 -31 -26 -36 0 -4 14 -30 31
-56 l31 -48 -16 -55 c-9 -30 -16 -70 -16 -90 0 -33 5 -39 51 -69 l52 -33 -2
-150 c-1 -82 -6 -153 -10 -157 -5 -5 -30 -1 -55 7 -26 9 -51 16 -56 16 -5 0
-34 24 -63 53 -30 28 -80 74 -111 101 -52 44 -64 50 -114 54 -64 5 -85 17 -77
43 7 21 -29 49 -62 49 -12 0 -48 11 -80 25 -42 19 -68 24 -93 20 -22 -3 -46 0
-63 10 -27 14 -29 14 -34 -5 -3 -11 -9 -20 -13 -20 -4 0 -10 -9 -13 -21 -3
-11 -15 -23 -26 -26 -11 -3 -22 -12 -25 -20 -5 -11 -10 -12 -19 -5 -8 7 -19 6
-36 -2 -16 -9 -20 -16 -12 -20 9 -6 9 -11 0 -22 -18 -22 -6 -30 46 -33 32 -1
34 -31 3 -32 l-23 0 23 -9 c12 -6 22 -18 22 -30 0 -14 -7 -20 -22 -21 l-23 0
23 -10 c27 -10 26 -45 -1 -43 -9 1 -17 -2 -17 -7 0 -5 6 -9 14 -9 16 0 29 -27
20 -41 -3 -5 -13 -9 -22 -9 -16 -1 -16 -1 1 -11 21 -12 23 -39 2 -39 -8 0 -15
-4 -15 -9 0 -17 20 -23 34 -12 10 9 18 7 33 -6 21 -20 47 -88 39 -102 -5 -7
-95 -41 -110 -41 -3 0 -6 7 -6 16 0 11 6 15 19 11 13 -3 21 1 24 14 6 22 -8
35 -19 18 -5 -9 -11 -6 -21 7 -13 18 -14 17 -8 -7 4 -15 2 -30 -4 -33 -7 -5
-7 -13 2 -28 9 -16 9 -22 0 -25 -9 -3 -9 -12 -2 -30 7 -19 6 -28 -2 -33 -8 -5
-7 -13 3 -29 11 -18 11 -23 -1 -30 -9 -6 -11 -15 -6 -27 5 -11 10 -30 11 -44
8 -59 11 -76 18 -92 4 -9 5 -21 2 -26 -3 -6 1 -27 10 -47 11 -28 25 -41 55
-53 21 -8 39 -18 39 -22 0 -13 -29 -20 -35 -10 -13 21 -22 9 -12 -15 7 -14 20
-25 29 -25 25 0 31 -17 8 -23 -11 -3 -23 0 -27 6 -4 7 -10 2 -13 -13 -9 -32
-4 -40 23 -40 20 -1 21 -1 4 -11 -13 -8 -22 -7 -32 1 -12 10 -17 7 -25 -15
-13 -35 -13 -40 5 -25 13 10 15 9 15 -9 0 -19 -3 -20 -21 -11 -15 9 -24 8 -35
-1 -12 -10 -12 -13 2 -24 13 -9 14 -14 5 -20 -7 -4 -18 -2 -24 4 -15 15 -27
14 -27 -4 0 -8 -7 -15 -15 -15 -8 0 -13 6 -11 12 1 7 1 10 -1 6 -7 -13 -30 -9
-43 7 -17 20 -25 11 -25 -27 0 -17 -6 -33 -13 -36 -9 -3 -11 3 -6 21 4 20 -2
35 -26 66 -18 22 -30 43 -27 48 3 4 -8 9 -24 10 -20 2 -29 -2 -29 -12 0 -8 -4
-15 -10 -15 -5 0 -10 7 -10 15 0 8 5 15 10 15 14 0 13 31 -2 62 -10 21 -19 26
-46 25 -34 -2 -35 -6 -17 -49 10 -24 -52 -48 -121 -48 -40 0 -62 6 -90 25 -42
28 -61 63 -128 229 -57 143 -56 169 7 210 l42 27 19 -23 c10 -13 24 -32 32
-42 19 -28 29 -12 14 23 -14 36 -9 47 27 54 18 3 32 0 40 -11 19 -23 37 -65
34 -79 -1 -6 3 -14 9 -18 5 -3 10 -13 10 -21 0 -8 7 -26 16 -40 13 -19 19 -22
31 -13 23 19 26 2 4 -20 -28 -28 -28 -45 -1 -31 11 6 26 8 32 4 7 -5 4 -10
-11 -15 -18 -7 -20 -12 -11 -29 6 -11 15 -18 21 -15 5 4 15 3 21 -1 9 -6 5
-10 -12 -14 -31 -7 -38 -44 -14 -71 16 -18 45 -25 56 -14 5 5 -14 105 -23 120
-4 6 -10 27 -13 49 -4 21 -16 55 -27 75 -10 20 -19 42 -19 49 0 7 -10 32 -22
55 -12 23 -23 47 -23 52 -1 6 -3 16 -3 23 -3 19 -20 14 -18 -5 0 -10 -7 -19
-16 -21 -11 -2 -18 3 -18 12 0 9 5 16 10 16 18 0 10 24 -20 60 -27 31 -30 32
-30 12 0 -13 -6 -22 -15 -22 -17 0 -21 35 -5 45 12 8 -6 35 -22 35 -6 0 -5 -7
2 -15 10 -12 9 -16 -5 -21 -9 -4 -22 -1 -28 6 -9 10 -9 14 0 17 7 2 9 11 6 18
-4 12 -7 12 -20 -1 -18 -18 -37 -14 -41 9 -2 11 3 17 14 17 15 0 16 2 5 13
-11 10 -14 10 -18 0 -6 -16 -29 -17 -39 -1 -4 6 1 17 11 25 16 11 16 13 3 13
-8 0 -21 -7 -28 -15 -10 -12 -16 -13 -24 -5 -8 8 -6 15 6 24 15 11 15 13 -4
25 -14 9 -23 9 -27 2 -4 -6 -12 -6 -20 -2 -11 7 -10 10 3 18 15 8 15 11 -4 35
-11 14 -20 31 -20 37 0 15 -6 14 -29 -5 -21 -18 -17 -34 20 -79 39 -47 79
-143 85 -203 4 -34 10 -62 14 -62 4 0 20 19 35 42 26 39 28 40 41 23 22 -29
17 -63 -8 -71 -13 -3 -35 -15 -50 -25 -14 -11 -30 -19 -36 -19 -5 0 -19 26
-30 58 -23 61 -60 127 -68 120 -2 -3 12 -52 31 -111 19 -58 35 -116 35 -129 0
-55 100 -316 138 -360 18 -21 9 -48 -16 -48 -10 0 -27 -6 -38 -14 -14 -11 -37
-13 -95 -9 -62 5 -80 3 -102 -12 -30 -19 -55 -16 -128 17 -44 20 -48 26 -108
152 -34 72 -66 139 -72 148 -17 32 -10 46 28 59 21 6 49 20 62 30 13 11 29 19
35 19 15 0 59 46 75 78 6 12 17 22 24 22 21 0 77 64 77 89 0 12 14 51 31 86
32 66 32 86 2 132 -12 17 -21 21 -44 16 -33 -6 -42 16 -9 24 11 3 20 6 20 7 0
1 -9 19 -20 41 -11 22 -20 47 -20 56 0 10 -4 19 -10 21 -18 6 -16 52 3 56 11
2 17 -3 17 -13 0 -11 7 -15 22 -13 20 3 24 11 30 63 8 60 51 165 69 165 5 0 9
8 9 19 0 10 7 24 15 31 8 7 15 19 15 27 0 7 -7 16 -15 19 -19 8 -19 23 1 45
15 17 15 21 0 53 -9 19 -16 41 -16 49 0 8 -6 20 -14 26 -7 6 -26 39 -42 74
-26 56 -29 73 -30 177 -1 63 -4 130 -8 148 -22 98 4 195 71 267 l43 47 -6 97
c-8 112 4 177 47 261 44 87 151 190 197 190 12 0 24 5 27 10 6 10 65 14 65 4
0 -16 -23 -44 -35 -44 -8 0 -15 -4 -15 -9 0 -5 -16 -12 -35 -15 -19 -4 -35
-10 -35 -14 0 -4 -16 -24 -35 -44 -19 -20 -35 -39 -35 -42 0 -3 -11 -17 -25
-32 -14 -15 -25 -32 -25 -38 0 -6 -6 -22 -13 -36 -7 -14 -14 -38 -15 -53 -1
-15 -6 -37 -12 -47 -12 -23 -13 -180 -1 -180 5 0 15 31 21 70 6 38 16 72 21
76 5 3 9 14 9 25 0 11 14 32 31 46 32 27 53 67 50 94 -4 33 77 71 104 49 9 -8
17 -4 29 14 9 14 16 30 16 35 0 6 15 9 34 7 24 -2 43 -13 61 -35 15 -17 33
-31 41 -31 8 0 17 -7 20 -15 4 -8 11 -12 17 -8 6 4 22 7 36 7 16 1 29 11 40
31 33 61 32 60 55 33 12 -14 51 -44 89 -68 37 -23 67 -47 67 -54 0 -6 -8 -19
-19 -27 -17 -15 -20 -15 -42 2 -60 46 -149 56 -250 30 -44 -12 -47 -12 -75 14
-28 26 -29 26 -32 6 -2 -13 -11 -21 -23 -21 -10 0 -19 -4 -19 -10 0 -5 -8 -10
-18 -10 -9 0 -23 -9 -30 -20 -7 -11 -21 -20 -32 -20 -11 0 -20 -7 -20 -15 0
-8 -7 -15 -15 -15 -8 0 -15 -4 -15 -9 0 -13 -48 -61 -62 -61 -9 0 -9 -3 0 -12
17 -17 15 -28 -4 -28 -13 0 -14 -3 -4 -15 10 -12 9 -16 -2 -20 -10 -4 -13 -18
-11 -45 3 -41 -11 -52 -35 -28 -15 15 -26 4 -18 -17 4 -11 13 -14 25 -10 11 3
22 1 26 -5 9 -15 25 -12 25 4 0 23 72 112 126 155 28 22 86 57 130 78 72 34
87 37 164 38 80 0 91 -3 162 -38 74 -37 77 -38 107 -23 41 22 44 21 86 -19 42
-39 39 -56 -10 -50 -24 3 -37 0 -43 -11 -10 -19 -3 -74 10 -74 5 0 6 -4 3 -10
-3 -5 0 -20 7 -32 7 -13 11 -28 10 -35 -1 -6 2 -14 8 -18 8 -5 7 -12 -2 -23
-11 -13 -11 -15 4 -10 12 5 17 -1 22 -27 4 -18 18 -49 31 -69 14 -20 25 -40
25 -44 0 -4 -5 0 -10 8 -7 11 -12 12 -20 4 -9 -9 -9 -14 -1 -18 6 -4 11 -12
11 -18 0 -7 -4 -7 -13 0 -10 8 -16 4 -26 -19 -27 -61 -117 -78 -170 -33 -38
32 -58 92 -42 123 10 17 9 21 -4 21 -8 0 -23 -9 -32 -20 -10 -11 -21 -20 -25
-20 -15 0 -78 -45 -78 -55 0 -6 -16 -19 -35 -29 -19 -11 -35 -25 -35 -33 0
-16 16 -17 26 -2 4 7 21 9 44 5 30 -5 45 -1 76 20 l38 26 16 -23 c33 -51 61
-69 109 -69 29 0 57 7 75 20 l30 19 23 -34 c18 -26 23 -48 23 -94 0 -57 -15
-111 -30 -111 -4 0 -13 7 -20 15 -16 19 -82 19 -120 0 -29 -15 -60 -51 -60
-70 0 -6 3 -6 8 1 16 25 79 54 118 54 51 0 79 -19 70 -48 -8 -25 -19 -28 -38
-9 -22 21 -92 19 -117 -4 -27 -26 -19 -40 19 -32 19 3 30 1 30 -6 0 -6 -6 -11
-14 -11 -27 0 -27 -20 -1 -32 22 -10 28 -8 46 11 28 30 33 22 19 -30 -22 -80
-62 -143 -175 -277 -40 -47 -82 -64 -137 -54 -110 21 -172 76 -240 210 -12 23
-27 41 -32 39 -6 -2 -20 10 -31 27 -11 17 -30 32 -40 34 -13 2 -16 0 -8 -5 28
-20 60 -79 52 -98 -6 -17 -8 -16 -8 8 -1 15 -5 27 -11 27 -5 0 -10 6 -10 13 0
6 -13 20 -30 29 -34 20 -93 14 -121 -11 -10 -9 -25 -22 -33 -29 -9 -7 -16 -20
-15 -30 0 -13 3 -11 9 6 5 12 13 22 18 22 4 0 17 9 29 19 31 29 90 23 116 -11
19 -25 23 -39 27 -93 1 -19 2 -18 10 3 14 34 20 26 20 -28 0 -35 -4 -50 -13
-50 -8 0 -22 -9 -32 -20 -12 -14 -25 -18 -41 -14 -15 4 -24 2 -24 -5 0 -15
-33 -14 -48 1 -22 22 -45 -15 -50 -82 -4 -48 -1 -60 10 -60 20 0 48 -32 48
-56 0 -10 15 -33 33 -50 17 -18 58 -57 90 -88 31 -30 57 -62 57 -71 0 -8 6
-15 14 -15 8 0 23 -14 33 -30 9 -17 25 -33 35 -36 10 -3 18 -10 18 -15 0 -16
101 2 152 27 62 32 83 73 64 127 l-13 39 -14 -33 c-24 -58 -67 -88 -131 -90
-34 -2 -37 -3 -13 -6 40 -6 57 -23 25 -25 -40 -2 -64 1 -87 14 -18 9 -20 14
-12 25 9 10 8 13 -3 13 -16 0 -158 142 -158 158 0 6 3 18 6 26 5 13 13 10 45
-19 22 -19 46 -35 54 -35 8 0 42 -25 75 -55 81 -75 91 -73 128 20 21 53 87
132 97 116 3 -6 3 -28 -1 -50 -4 -27 -3 -41 5 -41 14 0 25 43 18 76 -2 15 0
42 5 61 5 19 10 46 11 60 1 15 8 28 15 31 19 6 5 -204 -17 -241 -13 -22 -13
-31 -3 -47 16 -26 15 -40 -4 -79 -13 -26 -14 -37 -3 -69 13 -38 13 -70 -1 -87
-5 -6 0 -28 10 -50 18 -39 18 -41 -1 -74 l-20 -34 25 -36 c18 -27 23 -44 19
-69 -4 -22 1 -45 13 -67 14 -27 15 -36 5 -48 -10 -13 -9 -26 3 -67 18 -61 9
-90 -30 -90 -32 0 -74 42 -74 74 0 14 -9 40 -19 58 -11 17 -18 35 -15 40 3 4
-7 28 -21 53 -14 25 -25 58 -25 74 0 16 -6 34 -14 40 -7 6 -16 29 -20 50 -3
21 -15 50 -26 64 -11 14 -20 32 -20 39 0 8 -11 25 -25 38 -14 13 -25 32 -25
42 0 11 -26 45 -59 77 -32 31 -61 66 -65 78 -4 11 -16 23 -26 26 -11 3 -20 12
-20 20 0 8 -13 20 -30 27 -16 7 -30 17 -30 22 0 6 -6 6 -14 -1 -11 -9 -16 -9
-22 0 -4 7 -2 15 5 17 23 8 -9 32 -35 26 -21 -5 -24 -3 -24 20 0 14 -8 29 -18
35 -16 8 -18 21 -16 89 1 44 7 89 13 99 11 22 -10 63 -32 63 -7 0 -6 -4 3 -10
12 -7 12 -14 2 -43 -15 -42 -16 -94 -1 -103 8 -5 7 -9 -4 -15 -11 -7 -13 -17
-7 -41 20 -85 51 -124 194 -243 110 -91 137 -118 164 -168 10 -17 29 -50 43
-72 14 -22 35 -60 47 -85 11 -25 27 -56 35 -70 15 -25 31 -84 48 -170 5 -25
16 -60 24 -77 8 -18 22 -48 31 -67 16 -35 37 -46 90 -46 50 0 69 21 68 77 -2
96 -11 190 -27 268 -11 57 -15 128 -14 246 2 122 -1 165 -9 162 -7 -2 -15 1
-19 7 -4 7 2 14 14 17 15 4 21 13 21 35 0 17 -4 27 -10 23 -6 -3 -15 -3 -22 1
-7 5 -5 11 8 21 17 12 19 25 16 105 -4 102 14 192 35 183 8 -3 11 0 8 6 -9 13
13 45 73 110 l48 51 0 -36 c0 -36 -9 -47 -20 -23 -3 6 -4 2 -3 -9 1 -12 -7
-31 -17 -43 -39 -43 6 -19 54 29 50 49 60 76 38 98 -17 17 -28 15 -28 -5 0 -9
-3 -13 -6 -10 -8 8 34 145 50 167 16 20 46 88 46 102 0 6 13 32 29 57 16 25
32 68 36 96 4 27 13 62 21 77 22 42 17 93 -15 156 -16 32 -32 76 -36 98 -3 21
-13 58 -22 82 -8 23 -12 50 -8 60 11 25 5 93 -11 124 -7 14 -27 36 -43 47 -21
15 -30 32 -35 63 -16 102 -119 241 -218 295 -35 19 -56 39 -70 68 -11 22 -30
49 -42 60 -11 12 -49 47 -83 79 l-63 59 -35 -74z m78 -21 c13 -13 41 -39 63
-60 64 -58 86 -173 47 -241 -24 -41 -52 -45 -101 -12 -75 50 -106 115 -92 197
9 58 25 105 42 125 14 17 13 17 41 -9z m1213 -120 c-9 -5 -16 -22 -16 -38 0
-35 -36 -78 -52 -62 -14 14 -3 41 27 74 14 15 25 31 25 37 0 13 24 20 29 8 2
-5 -4 -14 -13 -19z m-998 -87 c50 -26 99 -78 86 -91 -17 -17 -46 0 -41 22 4
15 1 18 -14 13 -23 -7 -54 19 -43 37 5 8 2 9 -9 5 -10 -3 -17 -5 -17 -3 0 3
-3 11 -6 20 -8 21 -1 20 44 -3z m996 -42 c3 -19 0 -41 -9 -59 -17 -33 -20 -70
-5 -70 6 0 10 14 10 31 0 24 4 30 18 27 9 -2 18 -14 20 -28 2 -14 10 -32 17
-40 7 -8 20 -29 29 -47 15 -30 15 -33 -2 -42 -15 -9 -15 -10 4 -11 30 0 94
-79 94 -115 0 -8 4 -15 9 -15 14 0 78 -70 98 -108 10 -17 25 -35 34 -37 10 -3
24 -17 33 -30 9 -13 54 -61 101 -106 47 -45 85 -86 85 -92 0 -5 -9 -11 -20
-14 -11 -3 -20 -11 -20 -18 0 -7 -9 -23 -20 -36 -15 -18 -22 -21 -28 -11 -5 7
-22 16 -38 21 -25 6 -29 13 -32 44 -2 21 -7 35 -12 32 -5 -3 -7 -12 -4 -20 4
-9 -4 -19 -20 -26 -33 -15 -33 -29 0 -29 14 0 32 -7 40 -15 9 -8 24 -15 34
-15 10 0 21 -4 25 -10 3 -5 12 -7 19 -4 9 4 16 -5 21 -24 7 -33 53 -72 86 -72
11 0 33 -7 49 -16 17 -11 35 -14 46 -9 17 7 16 9 -9 19 -27 12 -27 13 -9 29
23 21 41 22 48 2 3 -8 14 -17 23 -20 15 -4 77 -85 69 -89 -2 0 -13 -7 -25 -13
-13 -7 -33 -13 -45 -13 -20 0 -20 -1 -4 -13 17 -13 13 -47 -5 -47 -6 0 -5 -9
1 -21 7 -11 9 -27 6 -35 -3 -8 1 -14 8 -14 7 0 21 -9 31 -20 10 -11 28 -20 41
-20 13 0 26 -4 29 -10 10 -15 55 -13 49 3 -2 7 5 26 17 41 16 21 24 25 33 15
8 -8 8 -13 -1 -16 -25 -9 -14 -34 13 -31 18 2 30 -3 38 -16 6 -11 19 -29 28
-39 20 -24 40 -75 30 -81 -4 -2 -22 -7 -39 -11 -25 -5 -33 -3 -33 7 0 8 -20
19 -44 27 -24 7 -54 24 -67 37 -12 13 -34 24 -47 24 -24 0 -24 -1 -8 -19 10
-11 31 -23 46 -26 16 -3 31 -13 34 -21 3 -8 13 -14 23 -14 20 -1 53 -23 53
-35 0 -5 -10 -19 -22 -32 -19 -20 -20 -26 -9 -47 8 -13 10 -29 7 -35 -10 -15
-36 -14 -36 2 0 7 -7 23 -16 36 -12 16 -19 20 -27 12 -8 -8 -8 -14 1 -23 7 -7
12 -22 12 -35 0 -28 24 -40 45 -23 11 9 25 6 70 -15 31 -15 60 -36 66 -46 5
-11 16 -19 24 -19 14 0 17 -10 17 -65 0 -37 -1 -38 -17 -25 -12 10 -15 9 -15
-6 0 -26 11 -41 35 -47 17 -4 17 -5 -4 -6 -19 -1 -22 -5 -17 -25 5 -19 1 -26
-13 -31 -10 -3 -21 -15 -24 -25 -5 -21 7 -27 18 -10 9 15 25 12 32 -7 4 -9 13
-24 20 -32 65 -76 86 -131 52 -138 -22 -5 -46 42 -30 61 9 10 9 16 1 21 -7 4
-14 -2 -17 -14 -3 -12 -11 -21 -19 -21 -28 0 -26 -23 5 -47 17 -13 31 -29 31
-35 0 -6 11 -26 25 -44 14 -18 25 -39 25 -47 0 -21 29 -76 45 -84 8 -5 17 -27
21 -51 5 -35 4 -42 -9 -42 -21 0 -49 43 -42 63 9 21 -14 32 -30 16 -8 -8 -17
-27 -21 -43 -5 -22 -4 -27 7 -24 32 12 47 -11 54 -81 6 -61 10 -70 28 -73 24
-3 32 -25 18 -47 -14 -22 -81 33 -73 61 3 13 -1 24 -12 30 -10 5 -16 22 -16
43 0 26 -3 32 -17 29 -14 -3 -25 11 -46 55 -29 61 -95 141 -115 141 -7 0 -12
-11 -12 -25 0 -20 5 -25 24 -25 30 0 50 -24 43 -50 -3 -11 0 -20 6 -20 17 0
61 -86 54 -105 -5 -11 0 -15 17 -15 38 0 47 -20 36 -80 -6 -30 -8 -61 -5 -71
4 -11 -1 -18 -13 -21 -15 -4 -18 -1 -15 12 3 10 -3 30 -12 44 -11 16 -15 36
-11 53 3 16 3 22 0 16 -3 -7 -12 -13 -20 -13 -14 0 -18 12 -15 38 1 6 -5 12
-14 12 -20 0 -21 -58 0 -66 8 -4 15 -12 15 -19 0 -7 7 -18 15 -25 8 -7 15 -23
15 -35 0 -12 10 -35 22 -50 25 -32 35 -93 12 -74 -9 8 -14 8 -14 1 0 -6 5 -14
10 -17 6 -3 10 -17 10 -30 0 -16 7 -25 25 -29 21 -5 24 -11 19 -30 -3 -13 -1
-27 5 -30 14 -9 14 -49 -1 -81 -13 -30 -33 -34 -25 -5 3 14 -3 30 -19 48 -15
15 -23 34 -21 44 3 10 1 18 -4 18 -5 0 -9 9 -9 19 0 20 -25 35 -41 25 -14 -9
-10 -60 6 -74 17 -14 21 -45 5 -35 -5 3 -20 -1 -32 -10 l-23 -17 22 7 c30 9
61 -25 69 -75 4 -22 11 -43 15 -46 15 -9 10 -44 -6 -50 -8 -4 -26 -3 -40 0
l-25 6 21 21 c23 23 18 39 -6 19 -12 -10 -16 -9 -21 4 -3 9 -4 22 -1 30 3 7
-7 23 -24 35 l-29 22 -42 -21 c-23 -11 -49 -18 -58 -15 -10 3 -25 -4 -36 -16
l-19 -22 40 7 c22 4 47 14 56 22 33 30 73 6 75 -46 1 -15 12 -38 24 -50 l23
-23 -24 -19 c-16 -13 -20 -21 -11 -25 6 -2 12 -16 12 -29 0 -19 -5 -24 -27
-24 -26 -1 -27 -2 -10 -15 24 -17 18 -50 -8 -50 -17 0 -20 7 -21 53 0 29 -6
58 -12 64 -14 14 -16 34 -4 41 4 2 2 2 -5 1 -7 -2 -15 1 -18 5 -2 5 -21 1 -41
-8 l-36 -16 33 -5 c26 -4 35 -10 37 -29 6 -38 -11 -44 -57 -21 -22 12 -44 26
-47 31 -3 5 -15 9 -27 9 -13 0 -17 -3 -11 -8 6 -4 14 -24 18 -45 7 -37 29 -50
39 -23 11 27 96 4 97 -26 0 -5 -9 -8 -20 -8 -25 0 -25 -9 -2 -26 14 -11 15
-16 5 -33 -7 -12 -13 -28 -13 -36 0 -19 -28 -20 -49 -1 -10 8 -30 12 -52 9
-33 -4 -37 -8 -43 -41 -3 -20 -1 -41 4 -46 11 -11 40 10 40 30 0 7 7 20 16 29
13 12 19 13 30 4 8 -7 14 -19 12 -28 -1 -9 1 -25 5 -36 3 -11 0 -42 -7 -70
-10 -38 -18 -51 -35 -53 -20 -3 -31 -32 -11 -32 15 0 12 -46 -4 -59 -16 -14
-46 -4 -46 15 0 8 -8 14 -17 14 -17 1 -16 2 1 15 10 8 23 16 29 18 6 2 12 21
13 42 4 46 -17 75 -53 75 -22 0 -23 -1 -9 -16 19 -18 20 -30 5 -39 -5 -4 -9
-19 -7 -33 2 -20 -3 -30 -19 -37 -13 -5 -23 -18 -23 -28 0 -14 -6 -18 -27 -15
-33 4 -39 20 -17 43 15 14 15 18 3 26 -9 6 -19 3 -29 -9 -8 -10 -23 -21 -33
-25 -12 -4 -15 -12 -10 -19 4 -7 6 -23 4 -35 -2 -18 1 -22 16 -16 10 4 20 10
23 14 9 12 60 -3 60 -18 0 -24 -31 -62 -46 -56 -9 3 -14 -2 -14 -17 0 -16 -5
-21 -22 -18 -17 2 -24 11 -26 33 -5 47 -19 53 -48 22 -13 -15 -34 -27 -44 -27
-11 0 -20 -7 -20 -15 0 -17 26 -20 35 -4 5 7 11 5 18 -5 7 -8 28 -16 47 -18
27 -2 35 -7 35 -23 0 -13 -8 -21 -22 -23 -13 -2 -23 -9 -23 -16 0 -8 -6 -19
-14 -25 -10 -9 -17 -6 -30 13 -9 14 -16 32 -16 40 0 10 -6 13 -15 10 -8 -4
-15 -12 -15 -19 0 -21 -17 -27 -40 -15 -24 13 -26 42 -5 60 9 7 13 21 10 31
-4 12 -1 21 9 25 9 3 21 25 28 47 7 23 21 50 30 59 10 10 18 25 18 33 0 7 8
18 17 24 17 9 16 11 -2 31 -16 18 -20 18 -27 6 -5 -8 -15 -13 -23 -10 -18 7
-19 0 -2 -27 10 -17 9 -22 -4 -32 -9 -7 -19 -29 -23 -50 -4 -22 -16 -43 -30
-52 -17 -11 -22 -22 -19 -39 4 -17 -1 -27 -16 -35 -28 -15 -27 -42 4 -75 35
-38 21 -96 -19 -80 -21 8 -30 42 -16 59 10 12 9 15 -4 15 -9 0 -16 -4 -16 -10
0 -5 -11 -10 -25 -10 -23 0 -24 -2 -13 -22 7 -13 19 -28 27 -34 11 -9 11 -17
2 -47 -19 -58 -79 -63 -67 -6 4 22 2 29 -9 29 -8 0 -15 -7 -15 -15 0 -20 -34
-19 -54 1 -25 24 -18 54 15 66 9 4 25 25 36 47 l20 41 -24 0 c-27 0 -73 27
-73 43 0 6 14 26 32 44 l32 33 -37 0 c-39 0 -38 1 -41 -66 -1 -35 2 -38 63
-71 2 -1 -6 -17 -18 -36 -14 -22 -37 -41 -64 -52 l-42 -17 25 -14 c14 -7 32
-14 40 -14 8 0 23 -12 34 -26 18 -25 18 -26 0 -44 -11 -11 -25 -26 -32 -35
-11 -12 -17 -13 -28 -4 -15 12 -19 6 -26 -36 -2 -14 -12 -21 -33 -23 -16 -2
-34 -10 -40 -18 -5 -8 -30 -18 -55 -23 -28 -6 -36 -9 -19 -10 14 -1 28 -4 32
-7 11 -11 -33 -44 -59 -44 -14 0 -41 -7 -59 -15 -30 -15 -35 -15 -86 8 -72 32
-213 35 -274 7 -74 -35 -180 -114 -183 -138 -2 -12 -8 -22 -13 -22 -5 0 -15
-11 -21 -25 -7 -15 -17 -24 -25 -21 -7 3 -13 -1 -13 -10 0 -11 -6 -13 -20 -9
-15 5 -18 3 -14 -8 4 -10 -5 -16 -32 -20 -21 -4 -43 -3 -48 2 -18 14 -48 22
-41 11 3 -6 14 -10 23 -10 11 0 13 -3 6 -10 -6 -6 -25 -7 -42 -4 -27 6 -31 10
-26 28 3 11 12 28 18 36 7 8 17 27 24 43 10 24 16 27 62 27 61 0 88 13 196 96
149 114 182 122 347 92 182 -33 174 -33 187 -8 12 23 7 50 -9 50 -6 0 -8 -7
-4 -16 8 -21 -16 -35 -38 -23 -10 5 -31 9 -48 9 -20 0 -31 5 -31 14 0 16 53
46 82 46 10 0 18 7 18 15 0 8 7 15 15 15 8 0 15 8 15 19 0 11 9 21 21 24 29 8
19 31 -14 35 -24 3 -27 0 -27 -25 0 -39 -7 -46 -72 -74 -32 -13 -58 -30 -58
-36 0 -17 -45 -16 -92 1 -38 14 -134 10 -144 -5 -3 -5 -18 -9 -34 -9 -23 0
-27 3 -23 20 4 16 2 19 -11 14 -19 -7 -20 -16 -3 -33 10 -10 6 -17 -18 -37
-16 -13 -42 -37 -57 -51 -22 -22 -30 -25 -40 -15 -6 6 -17 12 -22 12 -6 0 -4
-4 4 -10 12 -7 11 -12 -5 -30 -44 -49 -145 -88 -145 -56 0 9 4 16 8 16 5 0 16
16 25 35 17 37 50 48 61 20 3 -9 12 -12 21 -9 14 6 13 10 -6 30 -21 23 -21 26
-8 76 12 43 18 54 38 56 15 2 28 -3 33 -12 10 -17 58 -22 58 -7 0 13 -18 24
-60 37 -26 7 -34 15 -33 30 1 10 3 69 3 129 2 126 -9 167 -68 254 -36 53 -38
57 -22 74 24 25 54 21 89 -12 31 -29 31 -41 -1 -41 -10 0 -18 -4 -18 -10 0
-16 22 -12 55 10 17 12 24 20 15 20 -9 0 -24 13 -33 30 -18 30 -18 30 4 30 15
0 19 -5 15 -15 -6 -17 9 -21 19 -5 11 17 39 11 69 -15 34 -29 36 -30 62 -10
10 8 31 15 46 15 20 0 25 4 21 18 -3 14 4 22 27 32 42 17 48 6 14 -25 l-29
-25 28 6 c34 8 37 -13 5 -40 -19 -17 -26 -17 -57 -6 -26 9 -36 10 -39 1 -5
-16 -74 -14 -98 4 -27 19 -38 9 -15 -14 15 -15 28 -17 70 -11 37 5 54 3 59 -6
6 -10 17 -10 55 0 38 10 51 19 66 47 11 21 27 35 42 38 13 1 35 11 50 22 22
15 31 16 61 7 31 -9 40 -8 65 9 15 11 57 30 93 42 36 12 76 28 90 35 14 7 48
21 75 30 28 9 70 32 95 52 24 19 57 38 72 41 16 3 28 9 28 14 0 14 132 140
157 150 13 5 29 21 36 36 6 16 36 59 65 97 29 38 62 89 73 113 24 55 57 129
74 168 24 54 75 288 75 340 0 19 5 46 10 61 6 14 11 103 11 198 1 97 6 176 11
184 6 6 19 12 29 12 14 0 20 8 21 28 3 49 -1 79 -17 108 -18 35 -19 61 -3 66
11 4 9 14 -10 48 -36 64 -42 100 -17 100 8 0 15 -4 15 -10 0 -5 5 -10 10 -10
6 0 10 7 10 15 0 8 -8 15 -17 15 -23 0 -63 39 -63 62 0 10 -5 18 -11 18 -7 0
-9 -10 -7 -24 4 -19 1 -22 -14 -18 -20 5 -48 50 -48 77 0 23 30 18 39 -7 8
-23 8 -23 15 -2 8 26 -9 73 -32 90 -15 11 -18 9 -23 -9 -3 -14 -12 -21 -22
-19 -10 2 -17 -4 -17 -13 0 -8 -4 -15 -10 -15 -5 0 -10 -4 -10 -10 0 -5 7 -7
15 -4 22 9 18 -8 -10 -46 l-25 -34 0 31 c0 18 -4 35 -10 38 -15 9 -12 20 14
46 13 13 25 33 28 44 2 14 10 19 26 17 18 -3 22 2 22 22 0 33 17 33 64 1 46
-31 51 -31 30 0 -9 14 -19 23 -22 20 -3 -2 -19 4 -36 14 -17 10 -42 21 -56 24
-28 7 -56 58 -46 84 6 14 9 14 29 -4 27 -26 81 -53 102 -53 15 0 15 1 1 16 -9
8 -16 19 -16 24 0 4 -9 6 -21 3 -17 -5 -19 -2 -13 21 7 29 -4 33 -36 14 -15
-10 -22 -10 -32 0 -6 6 -20 12 -30 12 -10 0 -24 14 -33 30 -14 28 -14 30 2 31
18 1 24 1 57 -9 13 -3 17 -1 14 9 -3 8 -13 14 -24 14 -31 0 -114 37 -114 50 0
6 -9 20 -20 30 -23 21 -26 35 -6 35 14 0 29 37 20 52 -3 5 -13 -1 -23 -13 -25
-31 -55 -19 -48 19 3 15 0 35 -7 44 -14 20 -28 14 -19 -8 3 -8 0 -14 -6 -14
-6 0 -11 5 -11 11 0 6 -6 16 -12 24 -35 36 -46 55 -37 60 14 9 1 25 -15 19
-17 -7 -56 46 -56 76 0 18 -4 21 -20 17 -23 -6 -61 39 -44 51 7 5 6 15 -1 29
-7 13 -15 20 -18 17 -3 -4 -2 -15 4 -25 7 -15 6 -19 -6 -19 -8 0 -15 6 -15 14
0 8 -7 17 -16 20 -10 4 -14 15 -12 33 3 25 0 28 -28 28 -17 1 -42 8 -56 17
-14 9 -40 18 -59 20 -31 3 -34 6 -32 33 2 17 2 56 2 88 0 57 17 117 35 117 4
0 5 -11 2 -25 -4 -14 -4 -25 -2 -25 3 0 37 -7 76 -15 39 -8 78 -11 86 -7 23
13 -20 51 -66 58 -22 4 -40 12 -40 19 0 21 -45 26 -85 9 -31 -13 -36 -19 -32
-39 3 -18 -1 -26 -15 -31 -18 -5 -18 -7 -2 -18 25 -19 6 -25 -75 -27 -39 -1
-68 -5 -65 -10 3 -5 31 -6 64 -2 75 7 95 1 80 -27 -8 -16 -8 -25 0 -35 7 -9 8
-15 0 -20 -5 -3 -10 -17 -10 -31 0 -23 -2 -24 -15 -10 -8 8 -15 19 -15 25 0 6
-7 11 -16 11 -15 0 -96 42 -123 64 -8 6 -23 10 -33 8 -15 -3 -19 1 -16 20 3
20 11 24 61 32 31 4 57 11 57 15 0 4 -29 6 -65 5 -45 -1 -71 -6 -83 -18 -23
-20 -51 -21 -58 -1 -4 8 -15 15 -25 15 -10 0 -19 5 -19 11 0 8 -13 9 -40 5
-22 -3 -48 -2 -57 3 -10 5 -26 12 -36 15 -26 8 -15 20 50 51 74 37 111 44 268
56 137 9 165 18 190 56 14 21 14 25 0 39 -9 9 -13 19 -10 22 3 3 11 -1 18 -9
6 -8 21 -22 31 -29 18 -14 19 -13 13 10 -4 15 0 38 8 54 8 16 15 35 15 42 0
26 18 14 24 -17z m-874 -74 c7 -14 10 -28 5 -32 -4 -5 -10 -3 -12 4 -2 7 -10
10 -17 7 -10 -4 -12 2 -9 20 7 33 16 33 33 1z m-794 -56 c-13 -30 -27 -74 -31
-98 -9 -57 -10 -185 -1 -200 8 -12 3 -21 -46 -78 -31 -37 -52 -81 -67 -138
-15 -54 -13 -92 4 -140 9 -27 12 -62 8 -110 -3 -41 1 -114 10 -175 16 -114 16
-112 16 -279 0 -80 -4 -123 -15 -142 -19 -37 -18 -59 3 -75 10 -7 15 -16 11
-20 -4 -4 -14 -1 -23 6 -12 10 -16 9 -21 -3 -7 -20 -49 -37 -99 -41 -33 -2
-46 -10 -80 -51 -66 -79 -125 -138 -131 -132 -3 3 10 47 30 99 30 81 64 183
95 283 10 31 14 55 51 260 19 107 45 214 58 239 3 5 4 39 3 75 -2 86 20 197
81 411 5 19 13 62 17 96 9 65 16 84 74 178 38 61 68 99 74 93 2 -2 -7 -28 -21
-58z m834 -19 c12 -8 23 -90 12 -90 -20 0 -34 30 -29 59 5 21 2 31 -10 35 -13
5 -13 9 -2 23 13 15 14 15 18 -3 2 -10 7 -21 11 -24z m834 -445 c0 -33 -4 -76
-8 -95 -6 -29 -3 -42 18 -73 14 -21 30 -56 35 -79 12 -54 28 -69 36 -35 8 32
-7 79 -41 128 -22 33 -25 69 -4 69 11 0 88 -92 155 -185 52 -72 56 -84 52
-119 -11 -79 -79 -136 -163 -136 -45 0 -56 4 -73 26 -12 15 -21 30 -21 35 0 5
-18 46 -41 91 -59 121 -57 182 13 406 7 23 15 32 26 30 14 -3 17 -15 16 -63z
m-86 8 c-5 -23 -23 -20 -26 4 -3 18 0 21 13 17 9 -4 15 -13 13 -21z m245 -93
c40 -47 74 -87 77 -90 28 -27 250 -316 250 -326 0 -3 18 -32 40 -64 37 -55 48
-80 34 -80 -19 0 -45 27 -84 89 -25 39 -48 71 -52 71 -5 0 -8 4 -8 10 0 15
-166 231 -279 363 -100 117 -107 128 -94 140 9 10 34 -14 116 -113z m461 -143
c20 -17 20 -17 -1 -45 -28 -38 -73 -37 -91 1 -16 34 -7 66 21 76 22 9 31 5 71
-32z m-283 -264 c23 -43 60 -111 81 -152 21 -41 43 -80 49 -87 12 -14 -9 -51
-50 -88 -12 -11 -21 -24 -21 -30 -1 -18 -47 -69 -58 -63 -5 4 3 31 19 67 16
33 29 64 29 68 0 18 -61 92 -75 92 -9 0 -15 9 -15 24 0 14 -4 27 -8 30 -13 8
-13 66 -1 114 10 35 9 45 -3 60 -15 17 -14 42 2 42 4 0 27 -35 51 -77z m-100
-34 c-22 -24 -67 -49 -86 -49 -7 0 -15 -6 -17 -12 -3 -9 -29 -13 -79 -14 -41
-1 -68 1 -61 3 17 7 15 23 -4 23 -10 0 -14 7 -12 18 2 9 11 15 19 13 83 -21
167 -6 221 39 38 32 53 16 19 -21z m179 16 c0 -8 6 -15 13 -18 6 -2 9 -8 5
-12 -9 -9 -47 34 -48 54 0 11 3 11 15 1 8 -7 15 -18 15 -25z m428 18 c5 -10
10 -33 10 -50 1 -27 -4 -34 -24 -39 -51 -13 -96 44 -67 85 18 26 69 28 81 4z
m-382 -87 c8 -8 14 -19 14 -25 0 -6 4 -11 9 -11 15 0 22 -33 9 -42 -9 -5 -6
-8 9 -8 32 0 35 -14 9 -39 l-23 -22 -6 41 c-3 23 -12 49 -20 58 -16 19 -32 62
-22 62 4 0 13 -6 21 -14z m-218 -64 c12 3 14 -10 6 -34 -3 -10 -11 -18 -19
-18 -7 0 -24 -6 -38 -13 -23 -12 -24 -14 -9 -25 15 -9 13 -11 -10 -11 -19 -1
-28 4 -28 15 0 13 -5 15 -22 9 -34 -12 -97 -9 -114 6 -8 7 -14 22 -12 33 3 24
38 35 38 12 0 -20 12 -26 40 -19 l24 6 -25 9 c-21 8 -22 10 -7 19 9 5 43 12
75 15 32 3 60 7 62 10 2 2 10 -1 17 -6 6 -6 16 -9 22 -8z m350 -34 c7 -7 12
-20 12 -30 0 -15 -5 -17 -25 -12 -15 4 -25 2 -25 -4 0 -6 -3 -18 -6 -26 -5
-12 -2 -15 10 -10 23 9 20 -12 -6 -36 l-23 -21 -9 43 c-7 36 -5 45 11 58 10 8
22 23 26 33 8 20 18 22 35 5z m-274 -54 c10 -25 7 -54 -5 -54 -6 0 -17 -7 -25
-15 -8 -8 -21 -12 -29 -9 -11 5 -15 -1 -15 -20 0 -30 -7 -32 -38 -10 -22 15
-24 15 -29 -5 -6 -24 -14 -26 -30 -10 -13 13 -33 4 -33 -17 0 -8 -4 -14 -8
-14 -5 0 -8 10 -8 23 1 18 -4 21 -22 19 -13 -2 -31 3 -40 11 -10 8 -26 17 -37
19 -12 2 -20 11 -20 23 0 15 6 19 25 18 126 -11 150 -10 200 7 28 10 59 25 68
34 21 20 38 20 46 0z m-1588 -173 c27 -23 64 -49 82 -57 23 -9 32 -19 29 -28
-3 -8 -1 -17 6 -20 8 -3 9 -7 1 -13 -6 -4 -13 -16 -17 -25 -3 -10 -13 -18 -22
-18 -18 0 -20 -26 -2 -33 6 -3 -8 -2 -33 1 -25 3 -49 11 -53 18 -4 8 -16 14
-27 14 -10 0 -32 11 -48 25 -17 14 -34 25 -40 25 -6 0 -13 6 -15 13 -4 9 -6 9
-6 -1 -1 -8 7 -16 17 -19 23 -6 45 -40 32 -48 -6 -3 -10 -1 -10 4 0 6 -7 11
-15 11 -9 0 -18 7 -21 15 -4 8 -15 15 -26 15 -18 0 -19 2 -7 16 7 9 14 38 14
66 1 42 5 51 25 61 22 11 25 20 26 67 1 30 2 60 3 65 0 6 14 -17 30 -50 18
-39 46 -77 77 -104z m-426 124 c0 -8 -7 -15 -15 -15 -8 0 -15 7 -15 15 0 8 7
15 15 15 8 0 15 -7 15 -15z m2198 -40 c9 -20 6 -29 -26 -67 -21 -24 -53 -63
-72 -87 l-34 -44 -13 30 c-12 30 -8 73 7 73 5 0 30 29 56 64 48 66 63 72 82
31z m560 -8 c15 -12 16 -51 2 -78 -16 -28 -65 -25 -86 5 -40 61 25 118 84 73z
m-2780 -4 c-4 -22 -22 -20 -26 1 -2 10 3 16 13 16 10 0 15 -7 13 -17z m2021
-16 c6 -8 8 -17 4 -20 -11 -12 -21 -7 -26 13 -6 23 5 26 22 7z m-39 -27 c12
-8 9 -10 -12 -10 -16 0 -28 5 -28 10 0 13 20 13 40 0z m-1016 -33 c-15 -9 -34
-2 -34 13 0 13 34 17 42 6 4 -6 1 -14 -8 -19z m1286 -4 c17 -28 17 -28 -41
-95 -32 -37 -63 -76 -69 -88 -15 -28 -26 -25 -39 12 -10 28 -8 35 14 62 14 17
44 57 67 88 23 32 44 56 46 53 3 -3 13 -17 22 -32z m-1170 3 c0 -14 -26 -32
-82 -58 -34 -15 -37 -32 -5 -22 53 16 107 46 107 59 0 12 5 12 24 4 16 -8 22
-17 19 -28 -9 -23 -35 -52 -58 -63 -11 -5 -31 -15 -45 -23 -31 -18 -99 -20
-105 -2 -2 6 -6 35 -7 62 -3 45 -1 50 20 53 12 2 35 10 50 18 36 18 82 18 82
0z m1273 -40 l-11 -35 24 16 c21 13 24 13 24 0 0 -8 -7 -20 -15 -27 -8 -7 -15
-18 -15 -25 0 -7 -6 -18 -14 -24 -11 -9 -15 -5 -21 26 -11 64 -9 104 6 113 23
15 34 -6 22 -44z m-2395 23 c-2 -6 -8 -10 -13 -10 -5 0 -11 4 -13 10 -2 6 4
11 13 11 9 0 15 -5 13 -11z m2067 -9 c5 -14 -11 -39 -60 -97 -36 -42 -92 -115
-123 -161 -53 -78 -57 -82 -60 -56 -2 16 2 55 8 88 6 32 10 98 9 145 l-3 86
59 -3 c33 -1 76 2 95 7 55 14 68 12 75 -9z m789 -42 c-9 -32 -12 -34 -30 -16
-19 19 -11 38 17 38 16 0 19 -4 13 -22z m-1966 4 c15 -10 5 -42 -13 -42 -15 0
-28 27 -19 41 6 11 15 11 32 1z m-188 -64 c-64 -117 -172 -168 -280 -133 -69
23 -165 125 -117 125 8 0 28 -17 44 -38 41 -51 83 -70 147 -67 83 5 149 52
182 130 16 39 25 48 38 35 6 -6 2 -24 -14 -52z m1794 40 c13 -22 -5 -44 -28
-35 -22 9 -22 60 0 55 9 -2 22 -11 28 -20z m-164 -40 l18 -47 -26 -23 c-13
-13 -45 -50 -69 -83 -25 -33 -50 -60 -56 -60 -6 0 -15 20 -21 45 l-11 45 65
87 c36 48 69 86 74 85 4 -2 16 -24 26 -49z m-237 2 c3 -12 -5 -33 -21 -54
-110 -143 -210 -275 -223 -296 -21 -31 -31 -22 -33 29 0 32 6 47 30 73 46 50
200 250 207 272 6 14 10 16 21 7 8 -7 16 -20 19 -31z m814 14 c3 -8 -1 -22
-10 -31 -12 -13 -13 -19 -2 -40 12 -24 10 -63 -4 -63 -4 0 -16 6 -26 14 -16
12 -17 18 -7 40 7 17 8 27 1 32 -7 4 -7 10 0 18 6 7 8 16 5 19 -9 9 5 27 22
27 8 0 17 -7 21 -16z m-1578 -29 c14 -28 19 -85 22 -260 1 -71 -4 -195 -8
-195 -9 0 -165 99 -198 125 -22 18 -51 36 -65 40 l-25 7 21 -23 c40 -45 39
-49 -15 -49 -47 0 -50 2 -56 30 -4 16 -3 35 1 42 12 19 11 49 -4 87 -19 52 0
101 38 101 16 0 32 -4 35 -10 8 -13 58 -13 89 1 14 7 30 26 36 43 15 43 70 97
95 94 11 -2 26 -16 34 -33z m-1351 14 c-2 -6 -8 -10 -13 -10 -5 0 -11 4 -13
10 -2 6 4 11 13 11 9 0 15 -5 13 -11z m1474 -34 c18 -16 59 -51 91 -78 31 -26
57 -54 57 -61 0 -31 -73 -35 -110 -6 -14 11 -30 20 -37 20 -15 0 25 -43 54
-59 24 -12 99 -5 109 11 7 11 73 0 102 -19 l23 -14 -30 -24 c-16 -14 -34 -25
-40 -25 -6 0 -11 -7 -11 -15 0 -18 -17 -20 -23 -2 -4 9 -7 9 -18 0 -11 -11 -9
-15 7 -27 18 -14 18 -15 2 -21 -10 -4 -18 -13 -18 -20 0 -8 -8 -11 -20 -8 -23
6 -27 -10 -7 -29 11 -10 11 -16 0 -38 -7 -14 -13 -32 -13 -41 0 -29 -27 -28
-49 1 -17 24 -19 34 -11 55 6 15 10 35 10 46 0 28 50 94 94 123 33 21 36 27
21 32 -10 4 -26 2 -36 -4 -10 -7 -39 -12 -64 -12 -38 0 -45 -3 -45 -19 0 -11
-4 -23 -10 -26 -5 -3 -10 -10 -10 -16 0 -17 19 -9 44 18 20 21 28 25 38 15 9
-9 1 -22 -36 -58 -26 -25 -51 -42 -54 -39 -7 7 -8 13 -11 78 0 20 -5 37 -11
37 -5 0 -7 -6 -4 -14 3 -8 1 -17 -5 -21 -14 -8 -14 -52 0 -60 5 -4 8 -12 6
-18 -3 -7 5 -22 16 -34 11 -13 17 -26 13 -30 -11 -11 -40 11 -44 33 -8 42 -25
39 -19 -3 3 -24 1 -46 -4 -49 -6 -3 -3 -16 6 -31 16 -23 16 -25 -2 -21 -23 4
-35 77 -21 133 12 51 17 165 7 171 -5 3 -8 30 -7 60 1 41 5 53 15 50 7 -3 13
-1 13 4 0 6 -6 10 -13 10 -12 0 -39 69 -31 81 8 13 52 -6 86 -36z m-1552 -43
c0 -6 5 -12 12 -14 14 -5 4 -38 -12 -38 -5 0 -10 9 -10 20 0 11 -4 20 -10 20
-5 0 -10 7 -10 15 0 8 -14 24 -31 34 -26 16 -28 20 -13 23 19 4 74 -41 74 -60z
m1290 46 c0 -5 -5 -6 -11 -3 -6 4 -21 -3 -34 -15 -20 -19 -27 -21 -40 -10 -16
14 -10 34 9 27 6 -3 20 1 30 8 19 14 46 10 46 -7z m1236 -28 c20 0 17 -24 -6
-45 -18 -17 -19 -16 -26 9 -3 14 -3 38 2 54 7 25 8 26 11 5 3 -13 11 -23 19
-23z m-1398 18 c8 -8 15 -8 26 1 22 19 25 -1 5 -33 -15 -24 -19 -27 -24 -14
-4 9 -12 15 -20 12 -14 -6 -29 22 -19 37 7 12 18 11 32 -3z m1485 -8 c12 -10
4 -76 -8 -72 -5 1 -15 17 -21 35 -6 17 -18 33 -27 35 -10 2 -17 8 -17 14 0 10
59 1 73 -12z m-2654 -47 c17 -21 31 -43 31 -50 0 -15 16 -17 25 -3 9 15 25 12
25 -5 0 -19 -43 -37 -66 -28 -13 5 -15 2 -9 -18 15 -48 23 -56 32 -31 l9 23
27 -27 c16 -16 27 -38 27 -53 0 -15 5 -32 11 -38 6 -6 8 -17 4 -24 -6 -9 -11
-8 -20 5 -12 15 -13 15 -19 0 -4 -10 0 -21 10 -29 10 -6 14 -17 10 -23 -11
-18 -26 -14 -26 6 -1 25 -24 52 -46 52 -14 0 -25 -16 -42 -58 -25 -66 -26 -72
-11 -72 6 0 9 6 6 14 -4 11 2 14 22 14 37 -1 51 9 45 30 -5 16 -5 16 5 0 14
-21 -17 -57 -66 -79 -18 -8 -33 -20 -33 -28 0 -7 -6 -11 -14 -8 -8 3 -22 -1
-33 -8 -10 -9 -13 -14 -5 -15 6 0 12 -7 12 -16 0 -13 -7 -15 -33 -10 -37 7
-52 -1 -37 -19 8 -9 6 -14 -4 -18 -9 -4 -20 1 -25 11 -9 15 -11 15 -29 -1 -28
-25 -34 -11 -40 94 l-5 88 27 13 c31 13 56 55 56 90 0 13 -9 42 -20 63 -19 37
-20 41 -4 50 10 6 23 17 31 25 89 98 112 120 126 120 8 0 29 -17 46 -37z
m2244 -66 c-17 -18 -76 -93 -131 -168 -78 -105 -108 -138 -129 -142 -29 -6
-64 -51 -76 -97 -12 -46 -21 -52 -50 -39 -25 11 -38 39 -19 39 4 0 25 24 47
53 21 28 49 63 62 77 22 23 122 151 210 270 19 25 46 60 60 79 l26 34 15 -37
c14 -37 14 -38 -15 -69z m-1010 68 c-8 -22 -22 -18 -16 5 3 11 9 17 14 15 4
-3 6 -12 2 -20z m1267 -31 c12 -35 7 -49 -30 -84 -10 -9 -85 -108 -96 -126
-11 -18 -13 -17 -23 9 -18 47 -13 62 44 132 31 37 60 76 66 86 15 28 26 23 39
-17z m123 -13 c21 -36 10 -47 -20 -19 l-23 21 0 -23 c0 -12 7 -28 14 -34 19
-14 32 -66 17 -66 -17 0 -13 -30 5 -37 10 -4 14 -13 10 -29 -3 -12 -1 -26 4
-29 6 -4 7 -11 4 -17 -5 -7 -11 -5 -20 6 -12 17 -13 16 -24 -3 -6 -12 -15 -21
-20 -21 -8 0 -5 70 5 99 3 7 1 19 -5 25 -5 7 -12 38 -16 69 -6 47 -4 58 10 63
9 3 16 12 16 20 0 21 24 7 43 -25z m451 -7 c19 -7 21 -35 4 -52 -20 -20 -28
-14 -28 23 0 38 0 38 24 29z m-42 -31 c9 -63 -16 -84 -46 -38 -26 40 -21 65
13 65 24 0 29 -5 33 -27z m-2312 7 c0 -18 -23 -60 -33 -60 -13 0 -57 40 -57
51 0 7 28 14 73 18 9 0 17 -3 17 -9z m1960 -46 c0 -59 -24 -55 -28 4 -2 33 0
42 12 42 12 0 16 -11 16 -46z m-396 24 c2 -7 8 -28 14 -46 8 -24 7 -35 -2 -45
-26 -27 -163 -204 -185 -239 -22 -36 -51 -43 -51 -12 0 8 -7 17 -15 20 -24 9
-18 26 26 79 67 80 179 234 179 245 0 15 30 12 34 -2z m-2084 -7 c0 -12 -20
-25 -27 -18 -7 7 6 27 18 27 5 0 9 -4 9 -9z m2323 -63 c5 -32 1 -42 -32 -80
-20 -24 -52 -64 -71 -90 -42 -61 -60 -62 -60 -5 0 36 10 55 72 139 75 101 81
103 91 36z m-2771 -34 c-32 -119 -67 -149 -42 -35 19 86 29 106 42 93 9 -9 9
-23 0 -58z m3332 50 c12 -30 7 -56 -10 -52 -23 4 -39 32 -31 52 8 21 33 21 41
0z m-2946 -11 c-4 -22 -22 -20 -26 1 -2 10 3 16 13 16 10 0 15 -7 13 -17z
m1792 -26 c0 -7 -17 -32 -37 -56 -46 -51 -123 -164 -117 -170 5 -6 46 42 91
107 20 28 41 52 47 52 7 0 16 -13 22 -28 10 -26 8 -33 -20 -65 -47 -55 -96
-125 -96 -137 0 -18 -29 -11 -42 10 -7 11 -18 20 -25 20 -7 0 -13 5 -13 10 0
6 4 10 9 10 4 0 8 17 8 38 0 50 21 88 89 161 54 58 84 76 84 48z m-1780 -17
c0 -5 -7 -10 -15 -10 -8 0 -15 5 -15 10 0 6 7 10 15 10 8 0 15 -4 15 -10z
m-364 -45 c-4 -14 -11 -25 -16 -25 -13 0 -13 16 1 42 14 26 23 16 15 -17z
m2534 -18 c7 -32 3 -40 -44 -100 -61 -77 -116 -153 -135 -186 -13 -24 -14 -24
-27 -6 -28 38 -17 75 44 149 32 39 78 97 102 129 23 32 45 56 47 53 3 -2 8
-20 13 -39z m796 18 c4 -8 4 -22 0 -30 -7 -19 -36 -8 -36 14 0 32 26 43 36 16z
m-593 -52 c5 -55 1 -62 -147 -258 -14 -18 -14 -14 -9 50 5 65 9 75 58 140 28
39 57 80 64 93 18 34 29 27 34 -25z m-1212 -28 c85 -45 107 -255 37 -357 -29
-42 -98 -84 -150 -92 -58 -9 -84 4 -93 44 -7 33 -19 39 -29 13 -5 -13 -9 -14
-19 -4 -9 10 -8 14 6 22 18 10 24 54 8 63 -9 6 -32 122 -32 161 0 110 20 154
69 155 17 0 22 -6 22 -24 0 -36 18 -42 26 -9 12 55 10 54 71 47 32 -3 70 -12
84 -19z m1319 -36 c0 -52 -2 -60 -16 -55 -9 3 -22 6 -30 6 -20 0 -6 27 17 33
18 5 19 9 9 27 -12 23 -7 50 10 50 6 0 10 -26 10 -61z m484 18 c11 -42 6 -51
-23 -42 -17 5 -21 15 -21 46 0 33 3 40 18 37 10 -2 21 -18 26 -41z m-3409
-137 c4 -130 12 -160 41 -160 16 0 107 -187 100 -206 -3 -8 -12 -14 -19 -14
-20 0 -37 -44 -37 -98 0 -48 18 -97 34 -92 20 5 26 -32 16 -97 -33 -219 -35
-228 -85 -463 -60 -277 -63 -289 -114 -399 -27 -58 -61 -141 -75 -184 -36
-105 -52 -279 -39 -413 6 -61 7 -147 1 -224 -5 -69 -10 -176 -13 -239 -2 -62
-6 -115 -8 -117 -11 -11 -110 167 -156 281 -9 20 -12 97 -12 246 1 215 -4 274
-20 233 -4 -10 -8 -52 -8 -92 -1 -40 -6 -115 -13 -167 -9 -80 -9 -106 6 -179
17 -84 17 -87 -2 -111 -12 -15 -18 -34 -14 -50 5 -31 45 -60 68 -51 17 6 54
-19 54 -36 0 -13 66 -112 158 -235 97 -132 171 -200 264 -245 37 -18 67 -36
67 -40 1 -11 -452 -9 -529 2 -36 5 -85 14 -110 20 -25 6 -63 15 -85 19 -106
20 -155 43 -203 96 -26 29 -53 70 -60 93 -14 49 -16 151 -3 219 6 26 15 80 21
118 34 209 46 252 82 288 28 28 40 87 18 87 -5 0 -10 -11 -10 -23 0 -13 -10
-35 -22 -48 -18 -21 -20 -21 -14 -4 4 11 10 34 13 50 4 17 12 35 18 40 7 6 15
33 18 62 3 28 10 60 15 70 6 10 15 36 20 58 6 22 15 58 21 80 5 22 19 81 31
130 11 50 25 104 29 120 5 17 15 51 22 77 12 43 15 46 39 41 24 -4 29 1 58 64
41 91 49 123 28 123 -10 0 -19 -15 -27 -42 -14 -54 -46 -118 -59 -118 -13 0
-13 37 -1 45 5 3 12 19 16 35 4 17 14 45 23 63 9 17 17 50 18 72 1 52 63 224
160 440 7 17 22 59 32 95 89 301 141 415 96 208 -28 -125 -32 -141 -48 -198
-27 -90 -54 -210 -66 -290 -6 -41 -15 -91 -20 -110 -5 -19 -12 -55 -15 -79
l-6 -45 21 26 c11 14 20 33 20 42 0 8 4 25 9 38 5 13 14 48 21 78 7 30 17 60
21 66 5 6 8 20 8 30 -5 48 2 85 14 81 8 -2 11 -19 9 -47 -3 -31 -1 -40 8 -35
9 6 10 22 5 59 -13 81 -10 115 17 211 14 50 31 117 37 150 7 33 15 71 18 85
13 62 24 166 32 300 11 167 41 364 53 352 5 -5 11 -69 13 -142z m385 120 c0
-5 -7 -10 -15 -10 -8 0 -15 5 -15 10 0 6 7 10 15 10 8 0 15 -4 15 -10z m410 1
c0 -5 -14 -17 -32 -25 -28 -14 -34 -14 -46 -2 -8 8 -11 19 -8 25 9 13 86 15
86 2z m524 0 c3 -5 0 -11 -8 -14 -15 -6 -26 1 -26 15 0 11 27 10 34 -1z m1259
-158 c-51 -69 -56 -73 -94 -73 -32 0 -39 4 -39 19 0 10 6 21 14 24 7 3 46 50
87 104 l74 98 6 -50 c6 -49 5 -52 -48 -122z m-835 128 c20 -10 46 -28 56 -40
11 -12 50 -30 87 -41 38 -11 71 -25 74 -30 5 -8 -83 -133 -105 -150 -4 -3 -23
-31 -43 -63 -21 -32 -45 -61 -55 -64 -9 -4 -31 -18 -47 -32 -32 -27 -140 -69
-151 -59 -16 17 20 80 62 108 65 46 95 103 101 199 4 59 1 93 -11 130 -23 72
-24 71 32 42z m-1398 -11 c0 -5 -7 -10 -15 -10 -8 0 -15 5 -15 10 0 6 7 10 15
10 8 0 15 -4 15 -10z m1589 -9 c8 -5 11 -16 8 -25 -9 -24 -24 -19 -29 9 -6 27
-1 30 21 16z m344 -65 c-8 -28 -24 -73 -34 -100 -10 -28 -16 -52 -14 -54 12
-12 35 25 55 91 26 81 36 98 46 73 5 -14 -11 -103 -33 -181 -5 -17 -4 -17 8
-4 27 29 49 81 50 117 2 34 2 34 6 7 3 -16 -3 -60 -12 -98 -9 -38 -14 -71 -10
-75 3 -3 8 4 12 16 3 12 9 22 14 22 5 0 9 8 10 18 0 9 3 12 5 5 8 -19 -37
-103 -81 -149 -22 -24 -44 -44 -48 -44 -4 0 -29 -9 -55 -21 -26 -12 -56 -25
-67 -30 -11 -4 -60 -21 -110 -37 -49 -17 -107 -37 -127 -46 -36 -16 -38 -15
-52 6 -52 82 -20 194 101 356 82 109 113 134 113 91 0 -31 -25 -79 -65 -124
-20 -22 -40 -48 -45 -57 -15 -26 8 -33 33 -11 12 11 42 25 67 32 83 24 101 34
134 72 20 24 38 60 46 95 15 63 48 113 60 93 5 -6 1 -35 -7 -63z m-965 53 c-2
-6 -8 -10 -13 -10 -5 0 -11 4 -13 10 -2 6 4 11 13 11 9 0 15 -5 13 -11z m1497
-68 c-8 -76 -40 -250 -48 -257 -3 -3 -51 -21 -106 -39 -56 -19 -113 -42 -129
-53 -47 -33 -56 -37 -47 -21 4 8 38 55 75 104 71 95 195 271 225 317 27 43 38
24 30 -51z m-805 49 c8 -5 11 -12 8 -16 -10 -9 -38 3 -38 16 0 12 10 13 30 0z
m1426 -5 c4 -8 3 -23 0 -32 -6 -15 -8 -15 -23 -1 -16 17 -12 48 7 48 6 0 13
-7 16 -15z m-2583 -28 c-3 -5 -10 -4 -15 1 -6 6 -7 16 -3 22 6 9 9 9 16 -1 4
-7 5 -17 2 -22z m2066 -10 c-1 -56 -16 -143 -18 -104 -1 20 -7 31 -21 34 -17
5 -20 13 -18 58 3 49 4 52 31 53 25 1 27 -2 26 -41z m-1601 2 c-2 -6 -8 -10
-13 -10 -5 0 -11 4 -13 10 -2 6 4 11 13 11 9 0 15 -5 13 -11z m1299 -76 c-8
-8 -22 -13 -31 -11 -13 2 -11 9 12 38 26 34 27 34 30 11 2 -13 -3 -30 -11 -38z
m-2427 37 c0 -5 -7 -10 -15 -10 -8 0 -15 5 -15 10 0 6 7 10 15 10 8 0 15 -4
15 -10z m1949 -11 c37 -13 38 -16 7 -51 -21 -26 -93 -64 -102 -55 -4 3 55 117
60 117 2 0 17 -5 35 -11z m-814 -9 c3 -5 -3 -10 -15 -10 -12 0 -18 5 -15 10 3
6 10 10 15 10 5 0 12 -4 15 -10z m-427 -21 c-2 -6 -8 -10 -13 -10 -5 0 -11 4
-13 10 -2 6 4 11 13 11 9 0 15 -5 13 -11z m1692 -111 c-34 -46 -90 -123 -124
-172 -52 -75 -70 -94 -121 -122 -102 -56 -107 -45 -28 56 26 34 55 71 63 83
78 112 155 207 168 207 10 0 35 9 57 19 22 10 42 17 44 15 2 -2 -25 -41 -59
-86z m-1250 73 c0 -12 -20 -25 -27 -18 -7 7 6 27 18 27 5 0 9 -4 9 -9z m1148
-37 c2 -1 -7 -18 -21 -36 -50 -65 -193 -258 -227 -308 -19 -27 -40 -50 -47
-50 -7 0 -38 -12 -69 -26 -31 -14 -58 -24 -60 -22 -7 8 136 187 154 192 79 26
170 128 193 219 11 45 12 46 43 40 17 -3 33 -7 34 -9z m406 -81 c-3 -54 -10
-102 -15 -107 -5 -6 -9 -18 -9 -28 0 -10 -4 -18 -10 -18 -5 0 -10 16 -10 35 0
24 -5 35 -15 35 -9 0 -14 -10 -14 -27 0 -16 -1 -39 -3 -53 -2 -19 1 -24 15
-22 23 4 23 -30 -2 -82 -39 -87 -52 -117 -66 -156 -18 -50 -50 -98 -112 -166
-13 -14 -23 -33 -23 -42 -1 -26 -25 -53 -42 -47 -9 4 -32 -13 -61 -45 -36 -40
-51 -50 -67 -45 -15 5 -18 3 -14 -10 8 -20 -23 -55 -48 -55 -10 0 -18 -4 -18
-10 0 -5 -4 -10 -10 -10 -5 0 -26 -15 -46 -34 -20 -19 -43 -32 -50 -29 -8 3
-21 0 -29 -7 -16 -13 -105 -4 -105 11 0 5 6 9 14 9 15 0 97 40 106 52 3 4 24
20 47 35 72 49 220 177 237 206 10 15 24 27 33 27 10 0 14 6 11 18 -3 12 2 24
14 31 10 6 23 22 28 34 9 21 14 30 40 74 13 23 66 135 90 193 16 38 80 274 80
295 0 4 7 4 16 1 11 -4 18 1 21 14 3 11 10 20 15 20 6 0 7 -38 2 -97z m-1543
54 c-1 -12 -15 -9 -19 4 -3 6 1 10 8 8 6 -3 11 -8 11 -12z m-393 -109 c-6 -18
-28 -21 -28 -4 0 9 7 16 16 16 9 0 14 -5 12 -12z m2419 -34 c3 -9 1 -26 -6
-37 -9 -14 -10 -22 -2 -30 6 -6 11 -26 11 -43 0 -24 5 -34 20 -39 20 -6 25
-30 14 -72 -6 -21 -6 -21 -25 -2 -10 10 -19 28 -19 38 0 11 -14 42 -31 70
l-31 50 18 40 c19 43 40 53 51 25z m-1845 -10 c3 -3 -4 -31 -17 -62 -19 -48
-30 -61 -71 -84 -60 -34 -84 -36 -77 -8 3 11 14 25 25 31 14 8 18 17 14 34 -4
14 0 27 9 35 8 7 15 21 15 31 0 14 9 19 43 22 23 2 45 4 48 5 3 1 8 -1 11 -4z
m1197 -62 c-20 -61 -108 -231 -166 -321 -58 -89 -194 -233 -201 -212 -2 6 4
24 14 39 21 30 29 46 139 257 86 166 127 227 183 276 30 27 38 30 40 16 2 -10
-2 -34 -9 -55z m-947 -19 c-4 -65 -2 -75 11 -70 10 4 13 0 10 -12 -2 -10 3
-23 11 -30 18 -15 22 -51 6 -51 -5 0 -10 5 -10 10 0 6 -8 10 -18 10 -30 0 -63
30 -57 51 4 10 2 19 -3 19 -23 0 -4 125 22 142 27 18 31 6 28 -69z m846 30
c-48 -52 -79 -107 -215 -374 -103 -201 -121 -228 -183 -274 -49 -36 -232 -135
-250 -135 -12 0 1 29 23 52 22 23 103 161 131 222 28 62 113 199 128 204 4 2
8 10 8 18 0 8 5 14 10 14 6 0 10 7 10 15 0 8 5 15 10 15 6 0 10 4 10 10 0 9
19 35 48 65 6 8 12 17 12 22 1 11 210 162 246 179 54 23 57 14 12 -33z m-1618
-8 c0 -8 -9 -15 -20 -15 -13 0 -18 5 -14 15 4 8 12 15 20 15 8 0 14 -7 14 -15z
m678 -40 c0 -25 6 -52 13 -61 6 -8 10 -17 7 -19 -8 -8 -38 6 -33 15 3 5 1 19
-4 32 -9 21 -10 20 -10 -12 -1 -43 12 -65 33 -57 10 4 16 1 16 -8 0 -7 9 -17
20 -20 20 -6 28 -35 10 -35 -5 0 -7 -7 -4 -15 11 -28 -47 -12 -82 23 -32 32
-34 36 -30 95 6 87 11 97 57 106 3 0 6 -19 7 -44z m-1515 21 c12 -29 -15 -146
-33 -146 -20 0 -27 129 -8 148 16 16 35 15 41 -2z m1424 -23 c-26 -94 -14
-144 47 -198 43 -38 45 -42 29 -58 -15 -15 -17 -15 -30 1 -12 16 -14 16 -27 0
-7 -10 -20 -18 -27 -18 -18 0 -49 35 -49 55 0 7 -4 17 -10 20 -5 3 -10 24 -10
46 0 24 4 38 10 34 18 -11 24 27 7 40 -21 15 -22 25 -2 25 10 0 15 10 15 28 0
34 7 42 32 42 14 0 18 -5 15 -17z m474 -106 c-51 -69 -79 -98 -103 -106 -18
-7 -50 -23 -71 -37 -39 -25 -60 -25 -42 0 6 7 45 56 87 109 71 87 82 97 135
115 32 10 59 18 61 17 2 -2 -28 -46 -67 -98z m-1344 76 c3 -10 15 -28 26 -40
32 -36 12 -38 -32 -4 -25 20 -42 28 -46 21 -4 -6 -13 -9 -21 -6 -8 3 -14 -1
-14 -10 0 -8 -7 -17 -15 -20 -10 -4 -13 -14 -9 -30 6 -24 -9 -54 -28 -54 -5 0
-8 8 -6 18 2 11 -4 17 -17 18 -11 1 -24 2 -29 3 -5 1 -3 8 4 16 18 21 6 29
-19 13 -18 -11 -23 -11 -31 2 -14 23 -3 29 55 29 33 0 63 6 77 15 12 9 30 16
39 16 9 0 19 7 23 15 7 21 35 19 43 -2z m306 -44 c21 -27 49 -55 62 -61 14 -6
25 -16 25 -23 0 -6 -32 -26 -70 -45 -39 -19 -78 -42 -87 -52 -9 -10 -22 -18
-29 -18 -20 0 -68 76 -60 96 4 10 -8 32 -34 62 -44 49 -41 61 15 62 17 1 46 7
65 14 59 23 72 18 113 -35z m-743 -1 c0 -5 10 -8 23 -8 31 -1 73 -25 58 -34
-7 -4 -19 -2 -27 5 -8 6 -17 9 -20 6 -9 -9 58 -67 76 -67 12 1 11 4 -4 15 -24
18 -8 20 42 6 20 -6 32 -6 32 0 0 5 -7 9 -15 9 -8 0 -15 7 -15 15 0 19 14 19
34 -1 22 -21 20 -41 -5 -55 -14 -7 -18 -14 -11 -21 13 -13 32 -2 32 18 0 8 10
14 24 14 17 0 28 -9 40 -32 8 -18 16 -28 16 -23 0 6 16 21 35 34 19 13 35 29
35 36 0 7 6 18 14 24 11 9 15 8 20 -5 5 -13 9 -15 18 -6 7 7 21 12 32 12 11 0
28 8 38 17 17 15 20 15 35 1 23 -23 10 -44 -30 -52 -30 -6 -121 -47 -137 -63
-2 -2 2 -9 10 -14 13 -10 13 -10 0 -6 -23 7 -60 -10 -60 -28 0 -8 -6 -15 -14
-15 -21 0 -31 -21 -15 -31 11 -8 9 -13 -10 -29 -33 -29 -51 -25 -95 20 -22 22
-43 40 -48 40 -4 0 -34 35 -65 78 -31 42 -65 86 -75 96 -10 11 -18 32 -18 47
0 25 2 26 25 16 14 -7 25 -15 25 -19z m1678 3 c-1 -4 -15 -23 -30 -42 -15 -19
-54 -71 -86 -115 -51 -69 -70 -87 -123 -114 -35 -17 -72 -38 -83 -46 -11 -8
-30 -14 -42 -14 -12 0 -29 -10 -38 -22 -15 -23 -16 -23 -31 -4 -35 46 1 116
60 116 40 0 52 -14 30 -36 -9 -9 -13 -19 -10 -22 3 -3 6 -3 8 -1 100 130 164
189 204 189 19 0 28 10 45 49 14 31 31 52 47 59 33 13 54 14 49 3z m-1538 -30
c-13 -11 -29 -17 -34 -14 -11 8 22 33 43 33 11 0 9 -6 -9 -19z m1047 -3 c-9
-33 12 -113 39 -153 22 -33 23 -36 6 -50 -164 -134 -286 -213 -456 -297 -119
-59 -147 -69 -181 -65 -68 7 -114 37 -217 139 -113 112 -111 100 -20 195 53
55 144 113 178 113 6 0 24 -18 39 -40 l28 -41 -31 -32 c-52 -53 -39 -79 14
-30 85 78 245 166 399 218 61 20 121 43 135 51 14 7 36 13 49 14 19 0 22 -4
18 -22z m-1228 -53 c22 -30 41 -57 41 -59 0 -14 43 -60 158 -168 32 -31 42
-47 42 -72 0 -43 -25 -76 -58 -76 -38 -1 -58 -19 -82 -76 -12 -27 -28 -54 -36
-61 -51 -39 -185 -167 -227 -218 -57 -68 -57 -70 -13 90 14 50 26 102 26 117
0 15 4 29 9 32 5 3 11 23 14 43 3 21 11 65 17 98 17 96 32 188 55 353 4 28 9
52 10 52 2 0 21 -25 44 -55z m3258 8 c41 -96 48 -135 48 -268 0 -120 -8 -173
-35 -240 -5 -11 -13 -36 -19 -55 -30 -101 -82 -245 -91 -254 -24 -24 -87 93
-102 187 -14 94 -3 168 40 259 52 109 61 135 87 266 14 70 28 133 30 140 8 23
21 12 42 -35z m-1268 -20 c-18 -25 -46 -83 -64 -127 -18 -45 -60 -121 -95
-171 -107 -152 -122 -176 -116 -182 3 -4 6 -1 6 5 0 7 5 12 10 12 19 0 10 -23
-27 -71 -20 -27 -45 -49 -55 -49 -10 0 -25 -12 -34 -26 -12 -17 -19 -21 -24
-13 -6 9 -19 9 -58 -1 -28 -6 -56 -9 -62 -5 -5 3 -21 -6 -35 -22 -13 -15 -25
-23 -25 -16 0 9 -18 11 -62 8 -48 -3 -67 -9 -80 -24 -21 -27 -28 -26 -28 3 0
27 52 72 70 61 5 -3 10 0 10 7 0 8 13 25 29 39 21 18 28 32 25 46 -3 12 -1 24
5 27 6 4 11 35 11 68 0 50 -5 67 -25 94 -14 18 -25 37 -25 42 0 6 27 24 60 41
33 17 60 27 60 23 0 -5 -16 -30 -36 -56 -36 -47 -41 -67 -12 -43 8 6 40 44 71
83 31 38 69 77 84 85 15 7 48 26 72 41 81 50 80 46 -29 -94 -102 -131 -220
-295 -220 -307 0 -21 66 60 288 355 72 97 79 103 153 138 43 20 81 36 84 36 4
0 -13 -24 -37 -52 -117 -142 -390 -516 -405 -556 -6 -16 -6 -16 10 0 9 9 17
21 17 26 0 6 6 12 14 15 13 5 214 269 320 421 27 38 53 74 57 80 5 6 25 32 45
59 25 34 42 47 60 47 l25 0 -32 -47z m1128 -139 c3 -8 -1 -22 -10 -31 -14 -14
-16 -13 -26 6 -7 12 -9 26 -6 31 10 15 35 12 42 -6z m-1908 -111 c-8 -10 -22
-27 -32 -38 -51 -56 -237 -308 -237 -321 0 -6 43 -1 93 11 24 6 26 5 21 -11
-6 -17 -5 -17 12 2 10 11 40 29 66 39 26 9 65 33 87 51 21 19 42 34 45 34 15
0 2 -24 -34 -62 -22 -24 -40 -47 -40 -53 1 -13 98 95 105 118 4 9 11 17 16 17
5 0 9 8 9 18 0 12 -5 10 -18 -10 -9 -16 -20 -28 -24 -28 -13 0 -9 13 12 40 11
14 20 30 20 37 0 6 5 24 11 40 10 27 11 27 25 9 12 -17 12 -23 -1 -43 -14 -21
-14 -23 0 -23 8 0 15 -4 15 -9 0 -19 -31 -94 -50 -122 -27 -36 -103 -90 -133
-92 -12 -1 -30 -12 -41 -25 -10 -13 -22 -19 -25 -14 -3 5 -29 12 -57 16 -42 5
-53 3 -58 -10 -9 -24 -7 -36 4 -29 6 4 19 4 28 0 16 -6 16 -7 -1 -20 -17 -12
-15 -17 28 -81 58 -87 78 -155 78 -264 -1 -85 -12 -148 -38 -205 -51 -116 -68
-147 -109 -199 -25 -33 -46 -62 -46 -65 0 -13 -85 -92 -88 -83 -5 17 27 72 73
127 48 57 125 198 144 265 7 25 16 79 18 121 6 87 -13 160 -73 282 -19 38 -34
79 -34 92 0 15 -7 25 -22 29 -33 8 -41 -7 -20 -35 10 -13 32 -56 50 -95 34
-74 42 -114 20 -97 -38 30 -136 73 -228 102 -58 17 -119 36 -136 41 -33 11
-216 13 -251 4 -43 -12 -11 -24 61 -24 93 0 235 -24 336 -57 82 -26 248 -111
259 -131 19 -35 13 -166 -10 -235 -11 -34 -25 -66 -30 -72 -5 -5 -9 -16 -9
-25 0 -9 -19 -45 -43 -80 -152 -228 -149 -225 -246 -216 -63 5 -112 14 -191
33 -32 8 -57 43 -31 43 6 0 28 15 48 33 51 45 71 51 102 30 71 -48 117 -55
177 -27 36 17 39 22 53 101 8 40 7 58 -4 80 -22 45 -66 80 -119 98 -81 27
-154 8 -235 -61 -37 -32 -44 -34 -73 -25 -18 5 -71 22 -117 36 -129 40 -290
156 -391 281 -33 41 -60 80 -60 85 0 6 25 -13 55 -43 64 -61 119 -87 191 -87
37 -1 56 4 72 19 46 43 11 129 -46 115 -36 -9 -65 -36 -53 -48 6 -6 21 -5 41
1 26 9 32 9 37 -5 8 -20 -22 -43 -58 -43 -58 0 -92 15 -148 64 -33 28 -70 58
-83 67 -23 16 -23 16 32 41 30 13 84 35 120 48 36 13 70 26 75 30 17 12 83 31
138 41 187 31 253 38 340 39 72 0 104 4 122 16 13 9 30 14 37 11 7 -2 23 0 36
4 26 10 28 2 5 -23 -20 -22 -33 -23 -33 -3 0 8 -7 15 -15 15 -20 0 -19 -34 1
-54 21 -22 28 -20 55 14 17 21 33 30 54 30 17 0 36 5 43 12 8 8 12 9 12 1 0
-6 -7 -19 -16 -28 -12 -12 -19 -13 -30 -4 -14 11 -34 5 -34 -12 0 -5 11 -15
25 -21 22 -10 29 -8 54 16 16 16 34 25 40 21 17 -10 51 4 51 21 0 8 -12 19
-26 24 -14 6 -28 19 -31 30 -3 12 -14 20 -27 20 -11 0 -30 3 -42 6 -16 4 -24
-2 -37 -28 -13 -26 -17 -28 -17 -12 0 20 -8 21 -157 31 -129 9 -171 16 -228
37 -87 33 -154 81 -180 129 l-19 36 21 23 c12 13 25 35 28 51 10 40 20 41 50
5 62 -76 147 -155 200 -187 49 -30 66 -35 119 -35 57 0 72 6 199 71 75 40 137
70 137 69 0 -2 -27 -38 -60 -81 -33 -43 -60 -82 -60 -86 0 -29 36 10 151 163
19 26 71 74 115 107 80 61 108 75 83 44z m47 -24 c12 -12 20 -27 17 -35 -3 -8
0 -21 7 -29 25 -30 -29 -124 -95 -165 -20 -12 -38 -20 -41 -17 -2 2 25 44 61
92 36 48 65 89 65 91 0 18 -28 -9 -78 -78 -87 -119 -113 -149 -122 -143 -5 3
-20 1 -35 -5 -15 -6 -31 -8 -35 -5 -5 3 28 52 73 108 45 57 98 126 117 155 19
28 37 52 39 52 3 0 15 -9 27 -21z m1789 2 c6 -11 -1 -16 -37 -25 -24 -5 -28
-3 -28 14 0 15 7 20 29 20 17 0 32 -4 36 -9z m2 -47 c3 -8 1 -20 -6 -27 -6 -6
-11 -19 -11 -29 0 -10 -6 -18 -13 -18 -8 0 -13 16 -15 45 -1 39 1 45 19 45 11
0 22 -7 26 -16z m-2835 -128 c28 -57 158 -146 214 -146 34 0 0 -19 -44 -25
-26 -4 -72 -15 -103 -26 -30 -10 -64 -19 -75 -19 -37 0 -94 83 -94 137 0 27 2
26 53 -28 29 -31 63 -58 75 -61 27 -8 20 5 -25 45 -41 36 -63 76 -63 115 0 54
38 59 62 8z m2743 -1 c0 -13 -8 -21 -22 -23 -24 -4 -30 -16 -13 -27 6 -3 10
-15 10 -26 0 -15 -7 -19 -31 -19 -29 0 -30 2 -24 30 4 19 3 30 -4 30 -24 0 -9
32 22 45 41 18 62 15 62 -10z m-1195 0 c0 -8 -4 -15 -10 -15 -5 0 -10 7 -10
15 0 8 5 15 10 15 6 0 10 -7 10 -15z m1254 -106 c3 -17 6 -51 6 -75 0 -53 36
-137 79 -187 25 -28 31 -42 26 -59 -8 -25 -97 -186 -127 -230 -18 -27 -20 -27
-48 -13 -69 36 -107 130 -97 243 9 102 33 180 75 242 21 30 43 67 50 83 15 36
28 34 36 -4z m-2930 -41 c3 -14 18 -40 32 -57 27 -32 25 -51 -6 -51 -10 0 -22
-4 -25 -10 -3 -5 -13 -10 -22 -10 -23 0 -195 -85 -220 -109 -15 -14 -23 -34
-23 -54 0 -26 -10 -41 -55 -80 -36 -32 -55 -43 -55 -33 0 29 111 202 168 262
94 98 195 190 198 179 1 -6 5 -22 8 -37z m1790 36 c18 -7 22 -34 4 -34 -24 0
-124 -53 -144 -77 -12 -14 -27 -22 -33 -19 -14 9 -14 26 0 26 15 0 36 23 32
35 -3 9 87 55 108 55 5 0 9 5 9 10 0 12 3 12 24 4z m999 -64 c-8 -14 -21 -29
-27 -35 -7 -5 -15 -18 -19 -27 -3 -10 -12 -18 -18 -18 -7 0 -6 8 3 23 10 14
12 30 7 44 -5 15 -2 26 12 39 10 9 19 24 19 33 0 12 6 9 20 -9 17 -23 18 -27
3 -50z m-1208 -30 c-3 -5 -13 -10 -22 -10 -9 0 -24 -10 -34 -22 -11 -11 -22
-19 -24 -16 -8 8 54 58 71 58 9 0 12 -4 9 -10z m-119 -45 c-11 -11 -17 -12
-22 -4 -4 7 1 18 12 26 23 17 32 -1 10 -22z m-136 10 c0 -10 -54 -54 -66 -55
-6 0 -17 7 -24 15 -10 13 -9 15 12 15 13 0 33 7 44 15 20 15 34 19 34 10z
m1409 -150 c-17 -59 -6 -172 20 -225 13 -25 41 -62 63 -83 22 -21 38 -44 35
-50 -2 -7 -36 -58 -75 -115 -39 -56 -83 -123 -98 -147 -25 -43 -54 -60 -54
-32 0 8 -9 22 -20 32 -12 11 -20 31 -20 50 0 19 -8 39 -20 50 -14 13 -20 31
-20 61 0 24 -5 46 -10 49 -6 3 -10 36 -9 73 1 37 -2 83 -6 102 -6 33 -3 41 37
85 24 28 72 85 107 128 66 82 88 89 70 22z m-161 -11 c27 -8 28 -25 2 -49 -20
-18 -21 -18 -42 3 -18 17 -19 23 -8 36 14 18 16 18 48 10z m-58 -110 c0 -10
-50 -54 -61 -54 -5 0 -9 -7 -9 -15 0 -8 -7 -15 -15 -15 -19 0 -19 10 0 46 13
26 37 40 73 43 6 1 12 -2 12 -5z m-2755 -38 c8 -19 17 -51 20 -73 6 -37 4 -40
-54 -87 -63 -51 -140 -156 -162 -218 -14 -42 -29 -50 -29 -15 2 145 49 274
133 363 32 35 64 64 69 64 5 0 15 -15 23 -34z m2569 -56 c27 0 29 -22 5 -41
-29 -23 -55 -24 -63 -4 -3 8 -9 14 -13 13 -11 -4 -12 13 -2 41 9 22 10 22 34
7 13 -9 31 -16 39 -16z m-2274 -185 c47 -34 84 -68 97 -92 31 -55 53 -72 104
-79 34 -5 48 -2 58 10 16 20 31 21 31 2 0 -17 -28 -26 -97 -32 -47 -4 -54 -1
-81 26 -16 16 -33 45 -36 64 -10 54 -26 54 -26 1 0 -59 11 -79 61 -111 23 -14
39 -28 36 -30 -2 -3 -22 -2 -44 2 -46 7 -84 40 -146 126 -9 13 -39 53 -66 90
-49 69 -102 162 -116 208 -6 17 15 2 71 -54 43 -43 112 -102 154 -131z m2426
130 c10 -24 13 -51 8 -84 -4 -35 -2 -56 11 -80 10 -20 14 -43 10 -60 -4 -19 0
-35 15 -53 11 -14 20 -37 20 -50 0 -13 8 -33 18 -44 9 -10 23 -31 29 -46 9
-20 20 -28 38 -28 26 0 30 -7 17 -26 -4 -8 -21 -9 -47 -5 -36 6 -40 9 -43 39
-4 35 -12 39 -41 20 -15 -9 -26 -9 -45 0 -29 13 -45 0 -27 -22 11 -13 5 -46
-8 -46 -15 1 -43 35 -57 70 -3 8 -10 23 -15 32 -5 10 -5 19 1 23 11 7 2 35
-11 35 -15 0 -10 -69 7 -103 17 -34 63 -87 75 -87 4 0 9 6 11 13 2 10 16 10
68 1 60 -11 62 -12 23 -13 -45 -1 -55 -14 -25 -30 13 -7 22 -7 30 1 7 7 16 7
28 0 12 -7 25 -7 37 0 37 20 30 -3 -14 -41 -27 -24 -57 -41 -76 -43 -18 -2
-33 -1 -33 2 0 3 -24 12 -52 19 -131 31 -180 68 -162 120 13 35 36 33 46 -5
10 -40 34 -61 89 -77 61 -19 78 -9 30 16 -50 28 -112 82 -103 92 4 3 -1 11
-11 16 -9 6 -17 18 -17 28 0 10 -11 28 -25 41 -25 23 -26 28 -24 138 1 113 1
113 34 149 46 50 56 38 52 -63 -1 -46 1 -90 5 -97 4 -6 8 37 8 96 0 82 4 114
16 132 9 14 20 22 25 19 12 -7 11 -48 -1 -60 -6 -6 -11 -55 -11 -110 -1 -125
-1 -121 14 -100 10 14 17 15 40 7 35 -13 47 -14 27 -1 -13 8 -13 13 -2 30 15
25 7 43 -17 35 -12 -4 -21 3 -29 20 -15 33 -15 35 3 35 10 0 15 10 15 29 0 17
5 33 10 36 13 8 13 41 -2 64 -12 20 -5 51 12 51 6 0 18 -16 26 -35z m-223 -21
c13 -5 13 -8 -4 -25 -10 -10 -21 -19 -24 -19 -3 0 -14 -8 -25 -17 -11 -10 -29
-26 -40 -35 -41 -37 -32 25 12 75 22 26 50 33 81 21z m-2404 -85 c23 -34 41
-67 41 -73 0 -7 -27 -30 -61 -51 -121 -79 -190 -209 -208 -396 l-7 -74 -22 49
c-35 77 -44 133 -37 225 7 86 11 102 49 181 23 49 166 200 190 200 8 0 33 -28
55 -61z m2221 15 c11 -12 10 -18 -3 -32 -16 -15 -18 -15 -33 0 -19 18 -12 48
9 48 8 0 20 -7 27 -16z m160 -144 c0 -75 -3 -100 -13 -100 -23 0 -37 23 -37
61 0 21 -4 41 -10 44 -6 4 -10 -6 -10 -23 0 -16 -3 -31 -6 -35 -8 -8 -89 52
-89 66 0 6 18 20 40 30 22 11 56 28 75 38 19 10 38 19 43 19 4 0 7 -45 7 -100z
m-1577 66 c46 -19 69 -50 77 -103 8 -53 -4 -99 -29 -113 -45 -24 -174 51 -143
82 9 9 15 10 20 2 27 -42 86 -35 98 12 16 63 -53 106 -135 84 -31 -8 -64 -32
-124 -89 -109 -103 -177 -142 -222 -125 -18 7 -11 12 70 53 22 11 76 54 120
96 44 42 96 85 115 95 42 23 108 25 153 6z m1366 -3 c11 -9 -29 -34 -62 -40
-32 -5 -37 -3 -37 14 0 30 19 42 59 36 20 -3 38 -8 40 -10z m-1788 -43 c24
-11 54 -20 67 -20 25 0 30 -25 6 -34 -38 -15 -81 -6 -108 23 -16 16 -25 34
-22 40 9 14 6 14 57 -9z m1652 -4 c7 -18 -16 -39 -38 -34 -14 3 -14 5 0 26 19
25 31 28 38 8z m-1246 -30 c24 -20 25 -26 14 -40 -20 -23 -33 -20 -63 16 -26
32 -27 32 -47 14 -12 -11 -21 -25 -21 -32 0 -7 -10 -19 -22 -25 -13 -7 -44
-31 -70 -55 -26 -24 -59 -49 -73 -56 -14 -6 -25 -14 -25 -17 0 -3 -16 -7 -35
-8 -43 -2 -38 7 23 49 26 17 78 60 116 95 92 85 152 102 203 59z m-681 -23
c15 -20 42 -49 58 -64 37 -33 30 -43 -42 -58 -59 -12 -175 -68 -210 -101 -23
-22 -46 -69 -38 -77 2 -2 21 13 43 35 49 50 91 72 153 79 78 9 129 -16 226
-112 46 -46 84 -89 84 -95 0 -7 9 -24 19 -39 11 -15 29 -57 41 -94 30 -91 26
-231 -6 -274 -21 -27 -25 -28 -90 -25 -177 8 -391 125 -489 268 -39 56 -40 61
-44 153 -5 151 24 249 102 337 43 49 121 103 148 104 9 0 29 -17 45 -37z
m2082 10 c65 -29 101 -72 45 -52 -16 5 -55 13 -88 17 -63 8 -73 19 -34 39 31
16 34 16 77 -4z m-570 -46 c36 -43 17 -94 -32 -81 -30 7 -34 31 -8 51 16 13
16 14 -3 11 -17 -3 -20 -11 -18 -46 2 -44 -6 -52 -27 -27 -13 16 -25 12 -25
-8 0 -5 -11 -11 -23 -12 -13 -1 -27 -6 -30 -12 -4 -6 -25 -13 -46 -17 -22 -4
-57 -17 -77 -29 -44 -26 -60 -17 -37 21 19 31 166 135 212 150 45 14 102 14
114 -1z m592 -34 c30 -8 71 -16 90 -19 83 -10 110 -27 110 -70 0 -33 -18 -38
-85 -24 -57 12 -82 7 -55 -10 8 -6 31 -10 51 -10 41 0 53 -8 38 -26 -7 -9 -27
-11 -62 -8 -48 5 -51 4 -33 -10 11 -9 35 -16 53 -16 35 0 44 -14 17 -24 -9 -3
-27 -6 -40 -6 -14 0 -22 -4 -19 -10 3 -5 24 -10 47 -10 35 0 39 -2 28 -15 -7
-8 -21 -15 -31 -15 -10 0 -21 -4 -24 -10 -3 -5 1 -10 10 -10 9 0 15 -6 12 -12
-5 -17 -58 -14 -122 5 -94 29 -162 46 -213 53 -49 6 -53 9 -73 50 -15 32 -34
52 -67 71 -82 46 -100 73 -51 73 11 0 46 12 76 27 31 14 75 32 97 38 49 15
168 9 246 -12z m-422 -7 c2 -3 -15 -10 -39 -16 -44 -12 -69 -6 -77 19 -3 9 10
11 54 7 31 -3 59 -8 62 -10z m-1493 -91 c96 -45 123 -55 143 -55 52 0 148 -51
214 -114 140 -134 189 -228 188 -368 -1 -70 -15 -86 -86 -100 -60 -11 -264
-27 -275 -21 -4 2 2 20 12 40 59 115 -24 391 -154 510 -24 22 -69 57 -101 77
-31 20 -55 40 -52 44 8 13 71 6 111 -13z m1432 14 c15 -5 37 -20 48 -33 11
-12 35 -29 53 -37 27 -11 32 -18 27 -36 -4 -17 -1 -23 10 -23 12 0 14 -7 9
-27 -9 -38 -14 -44 -25 -37 -6 3 -8 13 -5 21 7 17 -60 87 -75 78 -24 -15 -116
62 -106 89 7 19 25 20 64 5z m-58 -63 c14 -16 48 -39 77 -52 62 -27 75 -51 42
-76 -13 -10 -31 -16 -41 -14 -22 5 -35 -23 -16 -34 7 -5 10 -12 6 -16 -4 -4 1
-12 10 -19 9 -7 13 -17 9 -23 -10 -17 -26 -15 -26 3 0 8 -4 15 -8 15 -9 0 -62
77 -62 90 0 4 -29 34 -65 65 -68 61 -77 75 -47 75 9 0 28 9 42 20 27 21 35 17
79 -34z m-95 -75 c102 -106 135 -153 154 -223 9 -33 8 -38 -14 -52 -29 -20
-44 -20 -44 -1 0 27 -50 128 -86 171 -19 24 -66 66 -104 95 -73 54 -91 85 -45
77 14 -3 28 -2 30 2 11 18 48 -6 109 -69z m-184 18 c112 -57 230 -189 230
-258 0 -11 5 -21 10 -21 6 0 10 -7 10 -16 0 -14 -3 -14 -15 -4 -10 9 -15 9
-15 1 0 -21 -15 -11 -28 19 -14 31 -42 41 -42 15 0 -8 -9 -15 -20 -15 -11 0
-20 7 -20 15 0 8 9 15 20 15 21 0 28 24 10 35 -8 5 -7 11 1 21 9 11 8 14 -5
14 -9 0 -16 7 -16 15 0 8 5 15 11 15 5 0 8 4 5 9 -3 5 -16 7 -28 3 -18 -4 -20
-2 -15 17 4 18 2 21 -15 15 -18 -6 -20 -3 -14 22 6 24 5 26 -8 15 -18 -15 -40
-5 -32 15 3 8 0 11 -10 7 -8 -3 -24 3 -34 12 -19 17 -20 17 -20 -3 0 -12 -5
-22 -12 -22 -6 0 -3 -6 8 -14 10 -8 28 -13 40 -10 12 3 26 -1 33 -10 11 -13
10 -17 -8 -24 -19 -7 -20 -10 -7 -27 11 -16 16 -17 29 -6 12 9 21 10 36 1 23
-12 26 -31 11 -61 -8 -15 -7 -19 4 -19 9 0 12 -7 9 -19 -3 -10 3 -31 13 -46
15 -23 16 -28 2 -41 -14 -14 -18 -13 -37 14 -12 17 -29 49 -39 71 -10 22 -31
50 -45 61 -15 12 -27 27 -28 33 0 16 -77 77 -98 77 -19 1 -71 44 -71 59 0 17
51 25 72 12 24 -15 73 -4 58 14 -8 10 -5 25 6 25 2 0 31 -14 64 -31z m1050
-24 c17 -18 21 -28 13 -36 -13 -13 -62 30 -56 49 7 18 17 15 43 -13z m-1645 0
c76 -6 101 -12 156 -42 131 -68 216 -192 207 -302 -7 -77 -33 -97 -158 -121
-25 -4 -62 -11 -82 -15 l-38 -8 0 65 c0 74 -21 164 -53 222 -31 57 -105 152
-133 171 -28 18 -33 49 -6 41 9 -2 58 -7 107 -11z m349 -22 c11 -11 46 -36 77
-56 30 -20 61 -43 68 -51 8 -9 20 -16 27 -16 8 0 20 -12 27 -27 6 -16 17 -32
24 -36 7 -4 13 -18 13 -31 0 -13 12 -36 26 -51 l27 -29 -23 -18 c-12 -10 -34
-21 -49 -24 -14 -3 -35 -9 -46 -13 -30 -12 -90 -31 -98 -31 -4 0 -7 17 -7 38
0 118 -89 263 -202 330 -52 30 -42 40 39 36 57 -2 80 -7 97 -21z m1305 -69
l33 -28 -22 -18 c-13 -10 -40 -18 -64 -19 -22 0 -35 -3 -28 -6 25 -10 11 -23
-25 -22 -41 0 -145 46 -151 66 -2 9 9 8 45 -3 26 -9 59 -18 73 -21 22 -6 24
-4 11 10 -11 14 -11 18 3 23 9 3 16 11 16 17 0 6 12 24 27 39 26 27 28 27 38
9 5 -10 25 -31 44 -47z m53 38 c18 -10 51 -19 73 -21 46 -2 53 -7 37 -23 -10
-10 -17 -10 -32 0 -11 6 -31 12 -44 12 -14 0 -28 5 -31 10 -5 8 -11 7 -21 -1
-9 -7 -14 -8 -14 -1 0 6 -3 17 -6 26 -8 20 -2 20 38 -2z m-2805 -39 c21 -56
112 -195 155 -240 51 -51 55 -73 16 -73 -47 0 -128 -81 -128 -128 0 -38 -18
-33 -44 11 -26 43 -26 47 -26 245 0 132 4 202 10 202 6 0 14 -8 17 -17z m2433
-37 c-11 -11 -40 11 -40 31 0 11 5 10 24 -4 14 -11 21 -22 16 -27z m-5 -41
c60 -53 59 -52 106 -66 24 -7 51 -18 60 -26 8 -7 30 -13 48 -13 18 0 38 -6 45
-13 10 -10 -1 -13 -56 -15 -41 -2 -68 1 -68 7 0 7 -9 7 -25 1 -20 -7 -25 -6
-25 5 0 19 -14 19 -29 1 -9 -11 -6 -16 16 -25 40 -16 130 -31 147 -25 18 7 50
-40 43 -61 -12 -29 -52 -27 -116 5 -34 17 -74 43 -88 56 -14 13 -31 24 -37 24
-18 0 -136 59 -136 68 0 24 24 31 52 14 15 -9 28 -20 28 -24 0 -4 9 -8 20 -8
29 0 24 23 -7 37 -39 17 -56 48 -43 73 14 27 18 26 65 -15z m40 5 c-5 -8 -11
-8 -17 -2 -6 6 -7 16 -3 22 5 8 11 8 17 2 6 -6 7 -16 3 -22z m-391 -9 c3 -5
-1 -14 -9 -21 -13 -10 -15 -9 -15 9 0 21 14 28 24 12z m444 3 c13 -4 22 -14
22 -25 0 -18 -2 -19 -30 -4 -46 24 -41 42 8 29z m72 -39 c0 -8 -7 -15 -15 -15
-16 0 -20 12 -8 23 11 12 23 8 23 -8z m-2822 -47 c13 -36 8 -47 -16 -32 -21
14 -30 76 -10 69 8 -3 19 -20 26 -37z m2857 31 c4 -6 13 -8 21 -5 8 3 14 1 14
-5 0 -14 -53 -7 -58 9 -5 15 14 16 23 1z m-371 -18 c9 -14 127 -77 158 -84 15
-4 42 -21 60 -37 18 -17 36 -30 40 -30 4 0 29 -13 55 -30 54 -35 97 -38 133
-10 29 23 47 25 64 8 16 -17 18 -56 3 -65 -51 -33 -186 -44 -220 -19 -10 8
-43 36 -74 62 -31 27 -63 53 -72 58 -9 5 -18 12 -21 15 -6 7 -43 24 -87 41
-35 13 -63 48 -63 80 0 21 14 27 24 11z m-23 -87 c7 -9 43 -31 80 -50 38 -18
96 -60 131 -93 112 -105 162 -119 273 -81 32 11 60 20 61 20 2 0 11 -15 20
-32 9 -18 39 -53 67 -79 32 -29 47 -51 42 -58 -5 -9 -13 -7 -30 9 -13 12 -29
20 -37 18 -8 -3 -1 -15 22 -36 23 -22 31 -35 24 -42 -7 -7 -19 0 -39 20 -28
29 -55 39 -55 20 0 -5 16 -22 35 -37 19 -15 35 -31 35 -35 0 -17 -27 -7 -63
23 -21 17 -41 29 -44 25 -7 -7 24 -56 35 -56 17 0 51 -41 46 -55 -9 -23 -39
-18 -52 8 -16 34 -93 118 -103 111 -11 -7 13 -53 41 -79 44 -39 65 -107 37
-118 -23 -9 -97 9 -118 29 -11 10 -32 40 -46 66 -16 29 -46 63 -74 83 -61 43
-78 71 -96 148 -20 86 -65 145 -143 186 -46 25 -90 66 -90 86 0 20 24 19 41
-1z"/>
<path d="M1848 5713 c-21 -50 -15 -134 12 -173 46 -66 88 -79 108 -35 30 66 4
152 -64 209 -40 32 -42 32 -56 -1z m43 -50 c38 -48 53 -113 28 -129 -29 -17
-80 87 -63 130 8 21 17 20 35 -1z"/>
<path d="M3060 5355 c1 -26 2 -28 11 -12 8 14 8 22 0 30 -8 8 -11 3 -11 -18z"/>
<path d="M3102 5349 c2 -12 13 -26 26 -30 l23 -9 -21 30 c-25 36 -33 38 -28 9z"/>
<path d="M2710 5320 c-8 -5 -28 -10 -45 -10 -33 0 -109 -32 -120 -50 -10 -16
2 -25 17 -12 7 6 39 20 71 32 47 18 79 21 180 21 68 0 136 -3 151 -7 22 -5 28
-4 24 7 -7 23 -247 39 -278 19z"/>
<path d="M2675 5255 c-37 -9 -46 -14 -32 -20 9 -4 27 -4 40 0 12 4 74 13 137
20 l115 13 -105 0 c-58 0 -127 -6 -155 -13z"/>
<path d="M3090 5140 c-11 -8 -7 -9 15 -4 37 8 45 14 19 14 -10 0 -26 -5 -34
-10z"/>
<path d="M3126 5081 c-3 -5 0 -14 8 -20 11 -9 15 -8 20 5 3 8 6 18 6 20 0 8
-29 4 -34 -5z"/>
<path d="M3222 5050 c1 -8 -2 -26 -6 -39 -8 -22 -6 -23 15 -17 13 4 44 12 69
18 55 13 56 14 41 32 -10 12 -16 13 -32 3 -16 -10 -21 -9 -29 3 -13 20 -59 21
-58 0z"/>
<path d="M3400 4945 c0 -16 16 -20 24 -6 3 5 -1 11 -9 15 -9 3 -15 0 -15 -9z"/>
<path d="M3290 4913 c0 -10 70 -42 111 -50 43 -8 35 10 -14 29 -57 23 -97 32
-97 21z"/>
<path d="M3457 4864 c-4 -4 -4 -10 -2 -14 6 -10 55 0 55 11 0 10 -43 12 -53 3z"/>
<path d="M3375 4806 c24 -19 48 -21 43 -3 -3 6 -18 13 -34 15 -28 3 -28 3 -9
-12z"/>
<path d="M3575 4543 c17 -3 39 -13 50 -23 11 -11 40 -22 65 -26 41 -7 44 -6
32 9 -10 11 -23 14 -43 10 -25 -5 -31 -2 -36 16 -5 18 -12 21 -52 20 -33 -2
-38 -3 -16 -6z"/>
<path d="M3732 4418 c3 -7 15 -14 29 -16 24 -4 24 -3 4 12 -24 19 -38 20 -33
4z"/>
<path d="M3992 4268 c-20 -20 -14 -36 13 -30 28 5 31 14 12 31 -10 8 -17 7
-25 -1z"/>
<path d="M4050 4215 c0 -14 5 -25 10 -25 6 0 10 11 10 25 0 14 -4 25 -10 25
-5 0 -10 -11 -10 -25z"/>
<path d="M3892 4140 c7 -11 18 -20 25 -20 7 0 16 -6 20 -13 9 -15 53 -30 53
-18 0 13 -36 41 -52 41 -9 0 -21 7 -28 15 -18 22 -32 18 -18 -5z"/>
<path d="M3815 4090 c-6 -10 20 -39 36 -40 7 0 22 31 17 35 -13 11 -48 14 -53
5z"/>
<path d="M4017 3953 c-13 -13 -7 -31 13 -36 12 -3 20 0 20 8 0 16 -25 37 -33
28z"/>
<path d="M4093 3903 c-18 -7 -16 -43 2 -43 8 0 15 4 15 9 0 5 3 16 6 25 6 16
0 19 -23 9z"/>
<path d="M3940 3890 c0 -5 10 -10 23 -10 18 0 19 2 7 10 -19 13 -30 13 -30 0z"/>
<path d="M4070 3815 c0 -8 5 -15 10 -15 6 0 10 7 10 15 0 8 -4 15 -10 15 -5 0
-10 -7 -10 -15z"/>
<path d="M4010 3812 c0 -13 49 -56 56 -49 10 10 -24 57 -41 57 -8 0 -15 -4
-15 -8z"/>
<path d="M3927 3774 c-3 -4 -2 -15 4 -25 12 -23 44 -26 35 -3 -3 9 -6 20 -6
25 0 10 -23 12 -33 3z"/>
<path d="M4090 3730 c13 -23 20 -26 20 -6 0 8 -7 16 -15 20 -13 4 -14 2 -5
-14z"/>
<path d="M3980 3720 c0 -5 6 -13 13 -17 8 -4 16 -16 20 -25 7 -19 37 -25 37
-9 0 6 -11 21 -24 35 -24 26 -46 34 -46 16z"/>
<path d="M4075 3634 c16 -12 18 -18 7 -34 -15 -25 -16 -38 0 -22 17 17 58 15
58 -3 0 -8 5 -15 10 -15 13 0 13 17 0 25 -6 4 -8 15 -5 26 5 15 1 19 -19 19
-14 0 -26 5 -26 10 0 6 -10 10 -22 10 -23 -1 -23 -1 -3 -16z"/>
<path d="M3940 3625 c0 -7 9 -17 20 -20 11 -3 20 -11 20 -16 0 -5 7 -9 15 -9
8 0 15 5 15 10 0 6 -7 10 -15 10 -9 0 -18 6 -21 14 -8 20 -34 29 -34 11z"/>
<path d="M3900 3575 c-1 -5 -3 -48 -5 -95 -6 -158 -16 -295 -25 -340 -5 -25
-14 -79 -21 -120 -23 -156 -135 -425 -220 -530 -24 -30 -49 -67 -56 -82 -6
-14 -24 -34 -39 -45 -15 -10 -62 -52 -103 -93 -42 -41 -92 -82 -111 -91 -19
-9 -52 -30 -72 -47 -21 -16 -61 -37 -90 -47 -29 -9 -57 -20 -63 -24 -5 -4 -30
-13 -55 -20 -25 -7 -75 -28 -112 -46 -54 -28 -72 -33 -96 -26 -23 7 -36 4 -58
-10 -20 -13 -38 -17 -59 -13 -30 6 -30 6 -11 -15 24 -26 31 -26 65 -2 21 15
42 19 82 18 47 -2 59 2 94 30 46 36 115 55 115 30 0 -8 -7 -20 -15 -27 -21
-17 -19 -30 4 -30 11 0 22 -9 26 -19 10 -32 50 -52 81 -41 20 8 24 13 15 24
-8 10 -8 16 4 26 8 7 15 20 15 29 0 9 5 22 12 29 9 9 9 15 0 24 -16 16 -25 5
-47 -54 -10 -27 -20 -48 -24 -48 -3 0 -21 9 -39 20 -28 17 -31 23 -22 40 6 11
15 20 20 20 5 0 10 10 12 23 2 12 13 26 26 32 12 5 22 13 22 17 0 3 13 3 29
-2 26 -7 35 -3 82 41 29 27 56 49 61 49 4 0 13 -9 20 -20 17 -27 28 -25 28 4
0 13 7 30 16 37 9 7 20 24 25 37 5 12 22 31 39 40 16 9 32 24 35 32 6 16 85
70 103 70 6 0 8 9 5 20 -4 15 7 32 38 64 37 36 48 42 67 35 12 -5 22 -17 22
-28 0 -11 9 -36 21 -56 20 -34 20 -36 4 -61 -16 -25 -16 -27 2 -46 12 -11 26
-16 36 -12 21 8 23 34 3 34 -23 0 -29 20 -12 39 14 15 13 20 -8 56 -23 38 -24
39 -5 72 18 31 18 33 1 33 -10 0 -23 -5 -29 -11 -15 -15 -53 -1 -53 20 0 10 9
26 20 36 11 10 20 24 20 32 0 7 4 13 8 13 5 0 15 18 22 40 7 22 17 40 22 40 4
0 8 9 8 20 0 12 7 20 16 20 12 0 15 7 12 25 -3 14 -1 28 3 31 5 3 9 14 9 25 0
10 5 19 10 19 6 0 10 -4 10 -10 0 -5 6 -10 14 -10 12 0 12 4 0 30 -9 16 -12
35 -8 42 5 7 11 31 14 53 4 32 10 41 28 43 26 4 28 10 8 26 -13 9 -13 24 -4
94 10 74 14 82 33 82 34 0 35 9 9 48 -14 20 -22 42 -19 50 3 7 5 25 5 38 0 18
5 24 21 24 12 0 19 5 16 13 -2 6 -11 11 -21 9 -14 -2 -16 8 -16 72 0 62 3 74
14 70 19 -7 46 -48 46 -69 0 -8 7 -15 15 -15 21 0 19 5 -15 55 -16 24 -30 48
-30 53 0 6 -7 12 -15 16 -9 3 -20 16 -25 28 -5 13 -9 19 -10 13z"/>
<path d="M4047 3513 c-4 -3 -7 -12 -7 -20 0 -11 5 -11 20 -3 11 6 20 15 20 20
0 11 -23 13 -33 3z"/>
<path d="M4123 3443 c-24 -5 -34 -43 -11 -43 6 0 20 -7 30 -17 17 -15 18 -15
18 10 0 14 3 32 6 41 6 16 1 17 -43 9z"/>
<path d="M4208 3370 c-10 -11 -25 -20 -33 -20 -8 0 -15 -9 -15 -20 0 -12 7
-20 16 -20 9 0 23 -8 31 -17 8 -10 12 -12 8 -5 -4 7 -2 19 5 27 6 7 10 28 8
45 -3 31 -3 31 -20 10z"/>
<path d="M3980 3278 c0 -31 3 -38 20 -38 25 0 26 21 0 51 l-19 24 -1 -37z"/>
<path d="M4030 3206 c0 -9 7 -16 16 -16 17 0 14 22 -4 28 -7 2 -12 -3 -12 -12z"/>
<path d="M3955 3147 c-4 -10 -5 -21 -1 -24 10 -10 18 4 13 24 -4 17 -4 17 -12
0z"/>
<path d="M3970 3080 c0 -16 5 -21 23 -18 12 2 22 10 22 18 0 8 -10 16 -22 18
-18 3 -23 -2 -23 -18z"/>
<path d="M4010 2950 c6 -11 17 -20 25 -20 19 0 55 -57 55 -87 0 -12 9 -27 20
-33 18 -10 20 -8 20 20 0 16 5 30 10 30 6 0 10 5 10 11 0 8 -4 8 -14 0 -11
-10 -17 -7 -30 11 -9 12 -16 27 -16 33 0 19 -45 55 -68 55 -20 0 -21 -3 -12
-20z"/>
<path d="M3945 2870 c-3 -6 1 -13 10 -16 19 -8 30 0 20 15 -8 14 -22 14 -30 1z"/>
<path d="M4005 2748 c4 -13 12 -27 19 -33 6 -5 11 -23 11 -40 0 -23 5 -31 22
-33 18 -3 21 1 16 20 -3 13 -12 30 -20 39 -7 9 -11 24 -7 34 7 17 -10 35 -34
35 -9 0 -11 -7 -7 -22z"/>
<path d="M3908 2673 c-16 -4 -16 -6 -3 -19 8 -9 15 -24 15 -35 0 -21 26 -26
32 -7 4 10 -20 71 -25 67 -1 -1 -10 -3 -19 -6z"/>
<path d="M3800 2587 c0 -18 24 -39 33 -30 12 11 8 22 -13 33 -16 8 -20 8 -20
-3z"/>
<path d="M3853 2493 c-7 -15 -13 -34 -13 -42 1 -14 3 -13 14 2 7 9 18 17 25
17 14 0 14 12 -1 33 -12 15 -14 14 -25 -10z"/>
<path d="M3956 2501 c-17 -19 -17 -20 6 -23 22 -3 58 18 58 34 0 16 -47 7 -64
-11z"/>
<path d="M3631 2376 c-7 -8 -8 -17 -3 -20 5 -3 7 -17 4 -31 -3 -18 0 -25 12
-25 12 0 16 10 16 39 0 44 -12 58 -29 37z"/>
<path d="M3860 2277 c0 -14 6 -29 13 -35 13 -11 67 -5 67 8 0 11 -33 37 -57
44 -20 6 -23 4 -23 -17z"/>
<path d="M3483 2245 c-3 -9 -3 -19 1 -22 7 -7 36 16 36 28 0 15 -30 10 -37 -6z"/>
<path d="M3630 2245 c0 -8 9 -15 20 -15 11 0 20 7 20 15 0 8 -9 15 -20 15 -11
0 -20 -7 -20 -15z"/>
<path d="M3718 2243 c21 -4 23 -8 17 -44 -6 -34 -4 -39 12 -39 12 0 22 12 29
35 13 43 3 55 -45 54 -25 -1 -29 -3 -13 -6z"/>
<path d="M3433 2188 c2 -7 11 -13 20 -13 17 0 19 -8 9 -33 -7 -19 1 -22 22 -7
13 10 17 21 12 39 -5 21 -13 26 -37 26 -20 0 -29 -4 -26 -12z"/>
<path d="M3600 2155 c-22 -12 -23 -14 -7 -20 21 -9 22 -24 0 -40 -16 -12 -11
-35 7 -35 16 0 42 73 33 92 -7 15 -11 15 -33 3z"/>
<path d="M3713 2098 c-6 -7 -13 -28 -16 -45 -6 -28 -4 -33 13 -33 21 0 55 64
44 81 -8 13 -30 11 -41 -3z"/>
<path d="M3303 2083 c-27 -5 -30 -18 -7 -27 22 -8 66 4 61 18 -4 13 -22 16
-54 9z"/>
<path d="M3423 2068 c-29 -14 -29 -26 -1 -37 19 -7 19 -8 4 -14 -13 -5 -16
-14 -12 -32 5 -18 1 -27 -14 -35 -12 -6 -20 -19 -18 -28 1 -9 -6 -29 -16 -44
-10 -15 -14 -32 -10 -39 5 -8 9 -7 16 5 5 9 21 16 36 16 23 1 24 2 10 11 -27
15 -3 62 29 56 28 -5 30 8 3 23 -26 14 -25 20 5 65 20 29 23 40 14 51 -13 16
-16 16 -46 2z"/>
<path d="M3295 2031 c-3 -5 8 -16 25 -24 34 -18 37 -15 13 13 -19 22 -29 25
-38 11z"/>
<path d="M3270 1975 c10 -13 10 -19 -4 -33 -21 -24 -20 -32 2 -32 11 0 24 12
31 27 11 23 10 29 -5 40 -24 18 -39 16 -24 -2z"/>
<path d="M2987 1943 c-4 -3 -7 -15 -7 -25 0 -22 26 -24 34 -2 10 25 -10 45
-27 27z"/>
<path d="M2670 1875 c-9 -11 -10 -19 -3 -26 7 -7 14 -5 23 6 9 11 10 19 3 26
-7 7 -14 5 -23 -6z"/>
<path d="M2327 1866 c-9 -24 -10 -23 13 -29 11 -3 20 -12 20 -21 0 -15 3 -15
29 -2 28 15 47 43 36 55 -3 3 -15 0 -25 -7 -27 -16 -41 -15 -55 4 -11 16 -12
15 -18 0z"/>
<path d="M2900 1870 c0 -12 31 -50 41 -50 4 0 9 7 13 15 3 10 -5 20 -24 30
-17 9 -30 11 -30 5z"/>
<path d="M2743 1828 c2 -53 8 -57 38 -29 21 19 19 41 -3 41 -6 0 -17 8 -24 18
-11 15 -12 10 -11 -30z"/>
<path d="M3085 1861 c-8 -15 3 -31 21 -31 9 0 14 7 12 17 -4 20 -24 28 -33 14z"/>
<path d="M2980 1853 c0 -4 14 -21 30 -38 l31 -32 -41 -41 c-42 -44 -50 -62
-25 -62 8 0 15 7 15 15 0 9 8 19 18 22 39 15 52 47 43 106 0 4 -7 7 -15 7 -7
0 -19 7 -26 15 -13 16 -30 20 -30 8z"/>
<path d="M2497 1824 c-11 -14 -17 -27 -15 -30 6 -5 58 39 58 49 0 16 -26 5
-43 -19z"/>
<path d="M2581 1812 c10 -17 10 -23 -1 -36 -7 -9 -10 -19 -7 -22 8 -9 44 14
51 32 8 20 0 29 -32 39 -21 6 -22 5 -11 -13z"/>
<path d="M2830 1790 c0 -5 6 -10 14 -10 8 0 16 -7 20 -15 3 -8 14 -15 25 -15
11 0 25 -9 31 -20 11 -20 40 -28 40 -11 0 14 -64 61 -83 61 -9 0 -19 5 -22 10
-3 6 -10 10 -16 10 -5 0 -9 -4 -9 -10z"/>
<path d="M2670 1756 c0 -8 -3 -21 -6 -30 -8 -21 19 -21 36 -1 10 12 10 18 0
30 -16 19 -30 19 -30 1z"/>
<path d="M3125 1739 c5 -43 13 -48 35 -19 28 36 25 50 -10 50 -27 0 -29 -2
-25 -31z"/>
<path d="M2390 1740 c0 -5 7 -10 15 -10 8 0 18 0 22 -1 4 0 9 4 11 10 2 6 -8
11 -22 11 -14 0 -26 -4 -26 -10z"/>
<path d="M3362 1739 c2 -7 10 -15 17 -17 8 -3 12 1 9 9 -2 7 -10 15 -17 17 -8
3 -12 -1 -9 -9z"/>
<path d="M2503 1710 c2 -34 22 -37 41 -7 8 14 8 20 -4 27 -27 18 -39 11 -37
-20z"/>
<path d="M2740 1733 c0 -6 5 -13 12 -15 12 -4 15 -74 4 -85 -3 -4 -18 0 -33 8
-16 7 -32 15 -37 18 -5 2 -7 -14 -4 -37 4 -29 2 -42 -8 -46 -19 -7 -17 -25 4
-33 9 -4 20 -11 24 -17 4 -6 10 -7 14 -3 4 3 1 13 -5 21 -15 18 -5 56 15 56
19 0 54 36 54 55 0 8 9 15 20 15 10 0 23 6 27 13 4 8 16 16 26 20 9 3 17 11
17 17 0 15 -36 12 -50 -5 -17 -20 -30 -19 -57 7 -13 12 -23 17 -23 11z"/>
<path d="M3083 1684 c-27 -14 -36 -14 -48 -4 -11 9 -19 10 -26 3 -11 -11 -2
-43 12 -43 5 0 9 -7 9 -15 0 -9 9 -15 24 -15 17 0 26 7 30 25 5 20 13 25 37
25 27 0 29 2 19 20 -13 24 -16 24 -57 4z"/>
<path d="M2414 1663 c-4 -13 -11 -20 -20 -16 -8 3 -14 0 -14 -6 0 -6 6 -11 13
-11 6 0 24 -6 39 -14 l26 -14 -10 32 c-15 44 -28 55 -34 29z"/>
<path d="M2591 1656 c-8 -13 -11 -30 -9 -37 5 -16 48 24 48 46 0 23 -25 18
-39 -9z"/>
<path d="M2907 1650 c-14 -11 -33 -20 -42 -20 -9 0 -15 -6 -14 -12 3 -24 -1
-38 -10 -38 -6 0 -22 -11 -37 -25 -27 -25 -21 -29 26 -16 14 4 25 13 25 21 0
10 12 16 32 18 22 2 30 7 27 17 -3 7 4 18 15 25 20 10 30 50 12 50 -4 0 -20
-9 -34 -20z"/>
<path d="M2512 1598 c-7 -7 -12 -18 -12 -25 0 -22 24 -14 37 12 12 28 -3 35
-25 13z"/>
<path d="M2390 1555 c0 -17 2 -18 24 -9 23 9 20 24 -4 24 -11 0 -20 -7 -20
-15z"/>
<path d="M2580 1534 c-6 -16 -16 -24 -24 -21 -9 4 -12 0 -9 -13 3 -10 16 -20
30 -23 20 -4 24 -1 20 14 -3 10 3 25 14 35 20 18 17 34 -7 34 -8 0 -19 -12
-24 -26z"/>
<path d="M2435 1539 c-11 -17 0 -20 21 -4 17 13 17 14 2 15 -9 0 -20 -5 -23
-11z"/>
<path d="M3078 1543 c-22 -3 -26 -9 -25 -31 1 -15 8 -33 15 -41 12 -12 16 -11
32 5 10 10 22 31 25 47 8 28 8 28 -47 20z"/>
<path d="M2726 1502 c-15 -18 -15 -20 2 -35 26 -24 30 -22 30 18 0 39 -7 43
-32 17z"/>
<path d="M2967 1456 c-15 -12 -16 -14 -2 -20 20 -7 68 11 60 24 -9 14 -37 12
-58 -4z"/>
<path d="M2312 1409 c2 -7 10 -15 17 -17 8 -3 12 1 9 9 -2 7 -10 15 -17 17 -8
3 -12 -1 -9 -9z"/>
<path d="M2360 1380 c20 -13 40 -13 40 0 0 6 -12 10 -27 10 -22 0 -25 -2 -13
-10z"/>
<path d="M2169 1134 c-11 -13 -10 -15 3 -12 10 1 24 -6 32 -17 21 -29 31 -12
11 19 -20 30 -28 32 -46 10z"/>
<path d="M1320 5137 c0 -20 4 -37 10 -37 5 0 7 14 3 33 -8 45 -13 47 -13 4z"/>
<path d="M1200 4338 c-41 -44 -24 -128 26 -128 23 0 44 31 44 66 0 67 -36 99
-70 62z m50 -55 c0 -36 -25 -57 -41 -32 -13 20 -11 63 3 77 18 18 38 -5 38
-45z"/>
<path d="M1188 4043 c-22 -26 -28 -59 -15 -93 16 -42 22 -37 22 17 0 41 3 48
20 48 12 0 22 -9 26 -25 7 -23 7 -23 8 7 1 29 -20 63 -38 63 -4 0 -15 -8 -23
-17z"/>
<path d="M3246 4255 c-3 -9 0 -15 8 -15 7 0 19 7 26 15 10 12 9 15 -8 15 -11
0 -22 -7 -26 -15z"/>
<path d="M1896 3894 c-4 -10 -1 -14 6 -12 15 5 23 28 10 28 -5 0 -13 -7 -16
-16z"/>
<path d="M2745 3710 c2 -24 10 -35 39 -51 31 -17 36 -17 36 -3 0 9 -9 18 -20
21 -10 3 -22 13 -25 23 -3 10 -12 23 -19 29 -11 9 -13 6 -11 -19z"/>
<path d="M2920 3540 c0 -5 7 -10 15 -10 8 0 15 5 15 10 0 6 -7 10 -15 10 -8 0
-15 -4 -15 -10z"/>
<path d="M1130 3786 c0 -19 31 -30 41 -14 4 6 5 16 3 20 -9 14 -44 9 -44 -6z"/>
<path d="M1024 3644 c10 -14 20 -44 24 -67 4 -23 12 -41 17 -40 15 3 23 46 12
61 -5 7 -7 15 -4 18 6 6 -45 54 -58 54 -4 0 0 -12 9 -26z"/>
<path d="M1216 3611 c-10 -16 6 -42 21 -37 8 3 19 6 24 6 5 0 9 9 9 20 0 15
-7 20 -24 20 -14 0 -27 -4 -30 -9z"/>
<path d="M1038 3506 c-20 -14 -24 -36 -8 -36 6 0 10 5 10 10 0 6 9 10 21 10
11 0 19 5 17 12 -6 17 -21 19 -40 4z"/>
<path d="M957 3435 c-4 -8 -2 -17 3 -20 12 -7 50 12 50 25 0 16 -47 11 -53 -5z"/>
<path d="M3777 3653 c-12 -11 -8 -23 8 -23 8 0 15 7 15 15 0 16 -12 20 -23 8z"/>
<path d="M495 2009 c-4 -5 -4 -22 0 -36 l6 -26 15 22 c16 22 13 51 -5 51 -5 0
-13 -5 -16 -11z"/>
<path d="M506 1617 c-24 -18 -32 -102 -14 -137 20 -38 50 -32 72 15 25 52 26
103 1 121 -24 17 -36 18 -59 1z m34 -71 c0 -34 -15 -57 -22 -34 -6 18 3 68 13
68 5 0 9 -15 9 -34z"/>
<path d="M203 583 c-4 -10 -13 -24 -20 -31 -16 -17 -17 -64 -1 -80 19 -19 56
-14 79 9 16 16 20 28 15 52 -11 56 -59 88 -73 50z m37 -65 c0 -21 -19 -33 -31
-21 -6 6 -6 20 2 37 13 28 29 19 29 -16z"/>
<path d="M2580 2750 c0 -5 9 -14 19 -20 31 -16 36 -12 11 10 -26 23 -30 24
-30 10z"/>
<path d="M2445 2696 c2 -23 13 -49 26 -60 l21 -21 -7 25 c-4 14 -13 32 -20 40
-7 8 -16 24 -19 35 -3 11 -3 2 -1 -19z"/>
<path d="M1389 2668 c-1 -2 -3 -22 -5 -45 l-4 -42 34 22 c30 19 33 24 19 34
-9 7 -20 10 -24 7 -5 -3 -6 2 -3 10 3 9 1 16 -5 16 -6 0 -11 -1 -12 -2z"/>
<path d="M1846 1931 c-3 -5 16 -14 42 -21 26 -6 55 -16 64 -21 10 -5 27 -9 37
-9 11 0 23 -4 26 -10 3 -5 14 -10 23 -10 13 0 11 6 -10 26 -19 20 -37 27 -69
28 -24 1 -54 7 -66 14 -26 14 -40 15 -47 3z"/>
<path d="M1477 1673 c-10 -10 -8 -33 3 -33 5 0 14 9 20 20 8 15 8 20 -3 20 -8
0 -17 -3 -20 -7z"/>
<path d="M1574 1665 c-7 -18 3 -35 21 -35 12 0 25 21 25 41 0 15 -40 10 -46
-6z"/>
<path d="M1741 1639 c-40 -43 -15 -99 43 -99 64 0 84 37 44 82 -34 38 -62 43
-87 17z"/>
<path d="M1580 1590 c0 -5 7 -10 15 -10 8 0 15 5 15 10 0 6 -7 10 -15 10 -8 0
-15 -4 -15 -10z"/>
<path d="M1420 1581 c0 -15 40 -33 57 -26 20 7 7 20 -29 29 -16 4 -28 2 -28
-3z"/>
<path d="M1476 1461 c5 -6 26 -17 46 -25 44 -19 45 1 1 22 -32 14 -61 16 -47
3z"/>
<path d="M3615 1291 c-3 -5 0 -13 6 -16 5 -4 8 -13 5 -20 -3 -8 4 -17 15 -20
15 -5 17 -10 10 -19 -6 -7 -8 -16 -4 -19 12 -13 23 -7 23 11 0 30 11 32 34 6
19 -23 23 -24 41 -10 19 13 19 15 2 33 -9 11 -17 30 -17 44 l-1 24 -24 -27
c-30 -34 -39 -35 -53 -3 -12 26 -26 32 -37 16z"/>
<path d="M1925 1260 c-10 -11 -13 -20 -8 -20 13 0 38 29 31 35 -3 3 -13 -4
-23 -15z"/>
<path d="M2820 1125 c25 -27 42 -33 35 -12 -3 6 -17 18 -32 24 l-26 13 23 -25z"/>
<path d="M2696 1075 c4 -8 7 -15 9 -15 1 0 8 7 15 15 10 13 9 15 -8 15 -15 0
-20 -5 -16 -15z"/>
<path d="M2734 1059 c-7 -10 -4 -20 13 -36 15 -14 25 -18 29 -11 4 6 0 16 -8
22 -8 6 -17 17 -19 25 -4 11 -6 11 -15 0z"/>
<path d="M2776 975 c4 -8 10 -15 14 -15 4 0 10 7 14 15 4 10 -1 15 -14 15 -13
0 -18 -5 -14 -15z"/>
<path d="M3231 756 c-9 -10 -8 -15 3 -19 16 -7 26 1 26 20 0 17 -14 17 -29 -1z"/>
<path d="M3518 579 c-24 -14 -23 -39 2 -39 11 0 20 4 20 9 0 5 3 16 6 25 7 18
-3 20 -28 5z"/>
<path d="M1963 5222 c-15 -2 -23 -10 -23 -23 0 -14 -7 -19 -25 -19 -14 0 -25
-4 -25 -10 0 -5 -19 -18 -42 -29 -24 -11 -54 -31 -67 -45 -14 -14 -30 -26 -38
-26 -7 0 -13 -7 -13 -15 0 -8 -6 -15 -14 -15 -7 0 -16 -9 -19 -21 -4 -16 -11
-19 -29 -15 -13 3 -17 3 -10 0 17 -8 15 -31 -3 -38 -8 -3 -15 -12 -15 -21 0
-8 -6 -15 -14 -15 -9 0 -12 -8 -8 -25 2 -15 0 -25 -7 -25 -6 0 -11 -7 -11 -15
0 -8 -4 -15 -9 -15 -5 0 -12 -18 -16 -41 -4 -22 -13 -53 -21 -67 -8 -15 -14
-34 -14 -42 0 -9 -4 -20 -10 -26 -5 -5 -11 -35 -12 -67 -2 -46 -6 -57 -18 -55
-24 5 -19 113 8 161 30 51 -4 46 -68 -11 -14 -12 -35 -25 -47 -28 -12 -3 -22
-13 -21 -22 0 -10 -1 -48 -2 -85 -1 -40 2 -73 9 -80 6 -6 11 -19 11 -29 0 -10
5 -18 10 -18 6 0 10 -9 10 -20 0 -25 17 -26 24 -2 9 25 66 87 80 87 7 0 27 15
45 34 31 33 46 36 94 16 9 -4 17 -3 17 3 0 5 -9 12 -20 15 -22 6 -18 37 5 37
7 0 16 7 19 16 3 8 10 13 15 9 5 -3 21 5 35 17 40 37 83 68 95 68 6 0 11 6 11
14 0 7 14 24 32 37 17 13 44 34 59 47 15 12 30 22 34 22 4 0 18 11 31 25 13
14 32 25 42 25 11 0 23 7 26 16 5 13 9 14 20 5 11 -9 16 -9 22 0 4 6 0 16 -10
21 -20 11 -12 28 15 28 11 0 23 -10 29 -24 5 -13 19 -27 30 -31 15 -5 20 -13
17 -26 -6 -23 -1 -24 19 -4 9 8 11 15 5 15 -6 0 -11 9 -11 20 0 13 7 20 19 20
21 0 29 21 23 57 -4 18 -9 22 -28 17 -30 -8 -32 11 -4 26 22 12 18 33 -4 24
-8 -3 -17 -1 -21 5 -3 6 4 15 16 19 15 6 18 11 11 16 -7 4 -12 16 -12 26 0 11
-12 27 -27 37 -16 10 -31 22 -35 28 -5 7 -8 7 -8 0 0 -6 5 -16 12 -23 22 -22
-2 -26 -25 -4 -13 12 -31 22 -40 22 -10 0 -17 8 -17 20 0 21 -15 27 -25 10 -9
-14 -33 -12 -37 3 -2 6 -13 11 -25 9z m15 -49 c-4 -22 -22 -20 -26 1 -2 10 3
16 13 16 10 0 15 -7 13 -17z m76 -27 c19 -8 37 -24 41 -35 3 -12 11 -21 16
-21 5 0 9 -19 9 -42 -1 -42 -18 -78 -37 -78 -6 0 -17 -10 -25 -21 -12 -18 -17
-20 -35 -11 -18 10 -20 9 -17 -6 6 -22 -6 -39 -31 -44 -20 -3 -22 3 -10 33 4
12 -3 24 -24 39 -23 16 -31 29 -31 51 l0 30 -26 -20 c-29 -23 -64 -28 -64 -9
0 19 31 48 52 48 10 0 18 4 18 10 0 15 40 48 67 55 14 3 32 13 40 20 18 18 16
18 57 1z m98 -58 c-15 -15 -26 -4 -18 18 5 13 9 15 18 6 9 -9 9 -15 0 -24z
m68 -123 c0 -8 -7 -15 -15 -15 -8 0 -15 7 -15 15 0 8 7 15 15 15 8 0 15 -7 15
-15z m-384 -96 c20 -22 18 -26 -18 -38 -19 -7 -46 -29 -62 -51 -28 -38 -46
-50 -46 -32 0 5 -10 8 -22 8 -16 -1 -22 4 -19 14 2 8 6 28 9 43 3 17 14 33 28
39 13 6 24 19 24 28 0 20 28 47 55 52 14 3 23 -4 29 -22 5 -14 15 -32 22 -41z"/>
<path d="M1461 5008 c0 -10 -5 -18 -10 -18 -6 0 -26 -27 -47 -60 -20 -33 -41
-60 -46 -60 -6 0 -8 -7 -5 -15 4 -8 2 -17 -4 -21 -6 -4 -5 -11 3 -22 10 -12
10 -16 1 -19 -7 -3 -13 -9 -13 -15 0 -6 7 -8 15 -5 8 4 17 2 20 -3 4 -6 26 3
50 20 24 16 51 30 59 30 19 0 22 50 5 82 -7 12 -15 44 -19 72 -4 28 -8 43 -9
34z"/>
<path d="M1530 4941 c-7 -15 -7 -21 0 -21 12 0 25 28 17 36 -3 3 -10 -4 -17
-15z"/>
<path d="M2222 4895 c0 -11 -3 -38 -7 -61 -6 -37 -4 -43 20 -62 36 -28 60 -16
87 45 l20 45 -22 23 c-13 14 -36 24 -61 27 -33 3 -38 1 -37 -17z m76 -35 c4
-33 -20 -65 -42 -57 -31 12 -11 91 22 85 10 -2 18 -14 20 -28z"/>
<path d="M1896 4696 c7 -19 38 -22 32 -3 -3 6 -12 13 -21 15 -12 2 -15 -1 -11
-12z"/>
<path d="M1860 4676 c0 -10 -9 -20 -19 -23 -12 -3 -17 -11 -14 -19 3 -8 -1
-14 -11 -14 -9 0 -19 -7 -22 -15 -4 -8 -12 -15 -19 -15 -6 0 -20 -9 -29 -19
-10 -11 -29 -22 -43 -26 -23 -5 -24 -9 -17 -43 5 -20 8 -57 9 -82 0 -34 4 -45
18 -48 9 -2 17 -8 17 -13 0 -5 6 -9 13 -9 14 0 16 54 3 100 -11 39 45 136 84
143 19 4 35 17 45 38 15 29 15 33 1 47 -15 15 -16 15 -16 -2z"/>
<path d="M1990 4601 c0 -5 15 -17 34 -26 19 -9 49 -29 67 -46 18 -16 34 -27
37 -25 10 11 -12 48 -41 70 -36 26 -97 44 -97 27z"/>
<path d="M2191 4577 c-13 -16 -5 -27 21 -27 21 0 23 13 4 29 -10 8 -16 8 -25
-2z"/>
<path d="M1883 4506 c-18 -11 -33 -27 -33 -35 0 -13 16 -12 74 6 16 4 18 1 14
-26 -9 -62 59 -78 78 -19 l7 22 18 -23 c20 -25 49 -23 49 3 0 23 -23 70 -40
81 -8 5 -42 10 -75 11 -46 1 -67 -3 -92 -20z"/>
<path d="M1536 4468 c-4 -15 -14 -29 -21 -32 -21 -8 -44 -67 -48 -123 -3 -57
3 -65 26 -33 8 11 25 20 38 20 82 -1 133 31 70 43 -28 6 -60 55 -48 74 3 5 2
24 -2 43 l-8 35 -7 -27z"/>
<path d="M1637 4396 c-6 -15 -10 -16 -22 -6 -9 7 -19 10 -23 6 -9 -10 27 -36
50 -36 19 0 21 5 9 34 -7 18 -8 18 -14 2z"/>
<path d="M2140 4377 c0 -13 -4 -27 -9 -32 -12 -13 -17 -87 -7 -103 4 -7 3 -19
-4 -27 -9 -11 -17 -10 -48 8 -20 12 -40 26 -44 32 -4 5 -8 0 -8 -12 0 -31 37
-53 91 -53 52 0 67 16 47 53 -6 12 -10 52 -10 89 1 37 -1 68 -3 68 -3 0 -5
-10 -5 -23z"/>
<path d="M1950 4173 c41 -71 102 -101 158 -77 42 17 40 30 -4 39 -20 3 -44 10
-53 14 -37 19 -92 41 -102 41 -6 0 -6 -6 1 -17z"/>
<path d="M1645 4091 c-3 -5 -1 -12 5 -16 12 -7 30 2 30 16 0 12 -27 12 -35 0z"/>
<path d="M1340 3839 c0 -5 -10 -9 -22 -7 -20 3 -23 -1 -20 -25 2 -15 9 -38 16
-51 10 -20 15 -22 29 -11 26 19 21 36 -8 29 -16 -4 -25 -2 -25 6 0 6 9 14 20
17 13 3 20 14 20 29 0 13 -2 24 -5 24 -3 0 -5 -5 -5 -11z"/>
<path d="M1472 3838 c2 -6 10 -14 16 -16 7 -2 10 2 6 12 -7 18 -28 22 -22 4z"/>
<path d="M2208 3582 c-23 -4 -23 -18 -2 -26 20 -8 27 -3 22 16 -1 7 -11 12
-20 10z"/>
<path d="M2022 3530 c-2 -33 8 -70 19 -70 5 0 9 9 9 20 0 11 -4 20 -9 20 -5 0
-12 12 -14 28 -4 26 -4 26 -5 2z"/>
<path d="M1820 3481 c0 -10 7 -24 16 -32 8 -7 24 -29 34 -49 10 -20 26 -42 34
-49 9 -8 16 -28 16 -45 1 -17 7 -42 15 -56 8 -14 14 -38 15 -53 0 -15 11 -40
24 -54 14 -14 30 -47 37 -72 9 -35 14 -41 16 -24 3 13 -9 49 -25 80 -16 32
-27 64 -25 70 3 7 -5 28 -16 47 -12 18 -21 50 -21 70 l0 36 45 0 c32 0 47 -5
52 -16 4 -11 8 -12 13 -4 4 7 0 29 -8 49 -15 36 -17 36 -34 19 -11 -11 -33
-18 -53 -18 -40 0 -68 24 -100 84 -21 40 -35 46 -35 17z"/>
<path d="M2020 3261 c0 -17 32 -71 42 -71 13 0 10 9 -17 48 -14 20 -25 31 -25
23z"/>
<path d="M1840 3240 c0 -11 7 -20 15 -20 13 0 14 4 5 20 -6 11 -13 20 -15 20
-3 0 -5 -9 -5 -20z"/>
<path d="M1855 3190 c-4 -6 0 -19 9 -29 9 -10 16 -25 16 -33 0 -9 7 -29 16
-44 l16 -29 -7 35 c-3 19 -7 45 -9 58 -3 30 -31 58 -41 42z"/>
<path d="M2041 3145 c0 -16 6 -39 14 -49 15 -20 15 -20 15 0 0 11 -4 24 -9 30
-5 5 -11 18 -14 29 -3 14 -5 11 -6 -10z"/>
<path d="M2053 3039 c-26 -27 -13 -99 18 -99 20 0 26 29 10 46 -5 5 -11 22
-13 37 -2 23 -5 26 -15 16z"/>
</g>
</svg>
